<svg xmlns="http://www.w3.org/2000/svg" viewBox="0 0 520 600" width="520" height="600">
	<style>
		tspan { white-space:pre }
		.shp0 { fill: #808080 } 
		.shp1 { fill: #000000 } 
		.shp2 { fill: #c43918 } 
		.shp3 { fill: #7c2104 } 
		.shp4 { fill: #9d391e } 
		.shp5 { fill: #883f18 } 
		.shp6 { fill: #bd6435 } 
		.shp7 { fill: #943300 } 
	</style>
	<path id="Background" class="shp0" d="M260.16 -0.7L520.31 149.5L520.31 449.91L260.16 600.11L0 449.91L0 149.5L260.16 -0.7Z" />
	<g id="Layer 1">
		<path id="Path 0" class="shp1" d="M257.45 18.92C256.93 19.42 250.65 23.18 243.5 27.27C236.35 31.36 219.92 40.78 207 48.2C194.07 55.63 178.89 64.47 173.25 67.85C167.61 71.23 162.77 74 162.5 74C162.22 74 158.74 75.94 154.75 78.32C150.76 80.7 143 85.26 137.5 88.45C132 91.64 124.57 95.95 121 98.02C117.42 100.09 108.87 105.02 102 108.99C95.12 112.96 85.45 118.58 80.5 121.47C75.55 124.36 69.47 127.85 67 129.23C64.52 130.6 56.42 135.23 49 139.5C41.57 143.78 31.45 149.63 26.5 152.52C21.55 155.4 17.16 158.49 16.75 159.38C16.34 160.27 15.99 223.66 15.98 300.25C15.97 411.13 16.22 439.84 17.23 441.15C17.93 442.05 21.54 444.64 25.25 446.9C28.96 449.15 32.22 451 32.5 451C32.77 451 38.06 454.01 44.25 457.69C50.44 461.37 60 466.9 65.5 469.99C71 473.08 81.35 479 88.5 483.16C95.65 487.32 105.89 493.26 111.25 496.36C116.61 499.46 125.39 504.55 130.75 507.66C136.11 510.77 144.77 515.79 150 518.81C155.22 521.83 160.85 525.07 162.5 526C164.15 526.93 176.97 534.33 191 542.45C205.02 550.57 224.37 561.73 234 567.24C243.62 572.75 253.19 578.33 255.25 579.63C257.31 580.93 259.9 582 261 582C262.1 582 265.81 580.27 269.25 578.15C272.69 576.04 280.22 571.58 286 568.26C291.77 564.94 309.55 554.68 325.5 545.47C341.45 536.25 356.97 527.36 360 525.71C363.02 524.06 365.95 522.37 366.5 521.96C367.05 521.55 372 518.62 377.5 515.45C383 512.28 395.82 504.88 406 499C416.17 493.13 431.25 484.42 439.5 479.64C447.75 474.86 454.61 470.96 454.75 470.98C454.89 470.99 460.51 467.72 467.25 463.72C473.99 459.72 485.06 453.31 491.86 449.47C499.75 445.02 504.54 441.69 505.11 440.25C505.62 438.97 506.01 378.35 506.02 299.25C506.03 188.78 505.78 160.16 504.77 158.83C504.07 157.91 499 154.58 493.5 151.43C488 148.27 482.15 144.92 480.5 143.97C478.85 143.02 470.3 138.07 461.5 132.96C452.7 127.85 442.57 122.03 439 120.04C435.42 118.05 427.1 113.23 420.5 109.34C413.9 105.45 403.55 99.43 397.5 95.97C391.45 92.5 382.22 87.23 377 84.24C371.77 81.26 367.05 78.47 366.5 78.05C365.95 77.63 363.02 75.93 360 74.27C356.97 72.62 346.17 66.4 336 60.47C325.82 54.54 314.12 47.81 310 45.51C305.87 43.22 298.45 38.96 293.5 36.04C288.55 33.12 280.9 28.71 276.5 26.24C272.1 23.78 267.26 20.91 265.75 19.88C264.24 18.85 261.96 18 260.7 18C259.43 18 257.97 18.41 257.45 18.92Z" />
		<path id="Path 1" class="shp2" d="M244.92 32.25C236.44 37.2 219.15 47.22 206.5 54.51C193.85 61.81 176.52 71.82 168 76.75C159.47 81.69 140.57 92.6 126 101.01C111.42 109.42 88.25 122.81 74.5 130.75C60.75 138.7 43.09 148.87 35.26 153.35L21.02 161.5L21.02 438.5C43.09 451.15 60.75 461.32 74.5 469.26C88.25 477.2 111.42 490.58 126 498.99C140.57 507.4 156.77 516.75 162 519.76C167.22 522.78 189.05 535.38 210.5 547.76C231.95 560.15 251.97 571.75 255 573.56C260.3 576.72 260.61 576.78 263.5 575.26C265.15 574.4 279.32 566.29 295 557.25C310.67 548.2 329.12 537.53 336 533.54C342.87 529.55 362 518.5 378.5 508.98C395 499.47 417.95 486.21 429.5 479.53C441.05 472.84 458.6 462.72 468.5 457.04C478.4 451.35 489.65 444.85 493.5 442.59L500.5 438.48C501.04 188.4 500.85 162.28 499.8 161.34C499.08 160.7 492.65 156.83 485.5 152.73C478.35 148.64 462.15 139.32 449.5 132.02C436.85 124.72 420.87 115.5 414 111.53C407.12 107.56 385.3 94.94 365.5 83.5C345.7 72.05 324.77 59.98 319 56.68C313.22 53.38 299.05 45.19 287.5 38.48C275.95 31.77 265.11 25.59 263.42 24.76C260.36 23.26 260.24 23.3 244.92 32.25Z" />
	</g>
	<path id="Path 0" class="shp3" d="M250 63.95C244.77 67.1 228.8 76.44 214.5 84.69C200.2 92.94 172.52 108.93 153 120.21C133.47 131.5 102.44 149.38 84.02 159.96L50.55 179.18L50.95 421.5C72.3 433.82 98.3 448.83 122.5 462.79C146.7 476.76 170.55 490.56 175.5 493.47C180.45 496.37 196.65 505.73 211.5 514.26C226.35 522.79 243.22 532.52 249 535.89C254.77 539.25 260.17 541.99 261 541.98C261.82 541.97 277.35 533.35 295.5 522.83C313.65 512.32 341.55 496.18 357.5 486.97C373.45 477.76 399.55 462.7 415.5 453.5C431.45 444.3 450.46 433.33 457.74 429.13L470.97 421.5L471.09 179.5C421.81 150.9 389.27 132.07 367 119.2C344.72 106.33 322.45 93.44 317.5 90.55C312.55 87.66 300.17 80.54 290 74.72C279.82 68.91 269.25 62.75 266.5 61.04C263.75 59.33 261.05 57.99 260.5 58.07C259.95 58.14 255.22 60.79 250 63.95Z" />
	<path id="Path 0" class="shp4" d="M246 65.8C238.57 70.09 212.02 85.45 187 99.92C161.97 114.4 138.46 127.99 134.75 130.12L128 134C131.76 139.81 135.89 148.7 139.62 157.5C146.33 173.39 146.39 173.58 146.98 185C147.32 191.67 148.15 197.55 148.93 199C149.68 200.37 151.57 203.19 153.14 205.25C155.15 207.89 157.63 209.59 161.5 211C164.52 212.1 171.16 213.47 176.25 214.05C181.34 214.63 188.2 215.57 191.5 216.14C194.8 216.7 200.62 218.82 204.43 220.83C208.24 222.85 217.92 229.78 225.93 236.22C233.94 242.67 245 250.62 250.5 253.89C256 257.16 270.4 264.92 282.5 271.14C297.63 278.93 308.25 285.17 316.5 291.16C327.42 299.09 328.84 299.83 332.25 299.43C335.74 299.03 336.14 299.26 337.95 302.75C339.02 304.81 342.88 308.97 346.53 312C350.18 315.02 356.39 321.77 360.32 327C364.26 332.22 370.36 341.45 373.89 347.5C377.41 353.55 382 362.1 384.07 366.5C386.15 370.9 389.84 380.57 392.28 388C394.72 395.42 399.08 407.12 401.97 414C404.86 420.87 409.61 431.22 412.53 437C415.45 442.77 418.43 448.35 419.17 449.38C420.42 451.16 421.94 450.43 445.5 436.84L470.5 422.41L470.5 178.68C348.7 108.02 301.9 80.88 287.92 72.78C273.94 64.68 261.82 58.04 261 58.02C260.17 58.01 253.42 61.51 246 65.8Z" />
	<path id="Path 0" fill-rule="evenodd" class="shp1" d="M260.75 58.08C261.44 58.04 268.41 61.76 276.25 66.37C284.09 70.97 322 92.96 360.5 115.25C399 137.53 439.63 161.11 471.08 179.5L471 422L453.75 431.86C444.26 437.29 402.52 461.31 361 485.25C319.47 509.19 280.21 531.75 273.75 535.39C267.29 539.02 261.32 542 260.5 542C259.67 542 251.69 537.78 242.75 532.62C233.81 527.46 187.12 500.45 51.5 421.96L50.85 416.73C50.49 413.85 50.14 359.3 49.93 179.5L121.72 138.07C161.2 115.29 207 88.81 223.5 79.22C240 69.64 254.85 60.98 256.5 59.98C258.15 58.98 260.06 58.13 260.75 58.08ZM127.75 140.78L56 182C56 412.47 56.1 419.03 57.75 419.58C58.71 419.9 104.27 446.08 159 477.75C213.72 509.42 259.17 535.5 260 535.7C260.82 535.89 273.9 528.95 289.05 520.28C304.21 511.6 350.21 485.15 391.27 461.5L465.94 418.5L465.93 182.5C344.7 112.39 298.92 85.91 286 78.42C273.07 70.92 262.05 64.62 261.5 64.41C260.95 64.19 246.77 72.02 230 81.79C213.22 91.56 167.21 118.11 127.75 140.78Z" />
	<g id="Layer 4 copy 2">
		<path id="Path 0" class="shp1" d="M250.5 248.18C248.3 249.98 246.28 251.69 246 251.99C245.72 252.3 244.26 253.32 242.75 254.27C240.28 255.82 239.87 255.84 238.75 254.46C238.06 253.61 236.15 252.93 234.5 252.96C232.85 252.99 227.22 254.34 222 255.96C216.78 257.58 205.3 261 196.5 263.57C187.7 266.13 180.07 268.63 179.55 269.11C179.03 269.6 177.68 269.99 176.55 269.98C175.42 269.96 172.7 270.68 170.5 271.58C168.3 272.47 165.7 273.94 164.72 274.85C163.74 275.76 162.96 277.4 163 278.5C163.04 279.91 161.21 281.62 156.78 284.31C153.33 286.4 149.38 288.94 148 289.95C146.63 290.96 141.9 294.41 137.5 297.62C133.1 300.83 128.04 304.48 126.25 305.73C124.46 306.98 122.1 308.9 121 310C119.9 311.1 119 312.56 118.99 313.25C118.98 313.94 116.4 315.68 113.24 317.12C110.08 318.56 102.55 321.65 96.5 323.98C90.45 326.31 84.71 328.62 83.75 329.11C82.79 329.6 81.55 330 81 330C80.45 330 78.54 330.63 76.75 331.39C74.96 332.16 72.71 333.06 71.75 333.39C70.22 333.92 70.03 335.22 70.25 343.57C70.43 350.56 70.9 353.51 72 354.51C72.83 355.26 76.88 357.76 81 360.07C85.13 362.38 89.85 364.95 91.5 365.79C93.15 366.63 95.74 368.14 97.25 369.16C98.76 370.17 101.13 371 102.5 371C103.88 371 107.59 369.5 110.75 367.66C113.91 365.82 117.4 364.03 118.5 363.67C119.6 363.32 120.95 363.01 121.5 362.98C122.05 362.96 122.6 363.74 122.72 364.72C122.85 365.7 123.15 368.07 123.4 370C123.65 371.93 123.89 374.51 123.93 375.75C123.97 376.99 124.79 378.41 125.75 378.92C126.71 379.43 128.85 380.1 130.5 380.42C132.15 380.74 135.75 381.28 138.5 381.62C141.25 381.96 143.72 382.38 144 382.56C144.28 382.74 147.43 383.2 151 383.57C154.57 383.94 159.07 384.84 161 385.55C164.21 386.75 164.81 386.66 168.25 384.43C170.31 383.09 172.22 381.1 172.5 380C172.78 378.9 173.45 378 174 378C174.55 378 175.31 377.21 175.69 376.25C176.08 375.29 177.97 372.25 179.91 369.5C181.85 366.75 183.7 364.27 184.02 364C184.34 363.73 186.15 361.38 188.05 358.78C189.95 356.18 191.72 354.22 192 354.42C192.28 354.62 192.82 357.19 193.2 360.14C193.59 363.09 195.03 368.2 196.4 371.5L198.9 377.5L229.87 377.5C230.89 383.39 231.8 384.36 235.25 385.91C237.59 386.96 245.24 389.44 252.25 391.41C259.26 393.38 265.68 395 266.5 395C267.32 395 268.17 395.56 268.37 396.25C268.66 397.21 269.37 397.16 271.48 396C273.32 394.99 275.03 392.52 276.67 388.5C278.75 383.42 279.12 380.92 279.06 372.25C279.03 366.61 279.34 361.99 279.75 361.98C280.16 361.96 281.06 363.65 281.73 365.73C282.41 367.8 282.97 370.51 282.98 371.75C282.99 372.99 283.56 374.29 284.25 374.65C284.94 375.01 295.18 375.24 307 375.15C326.27 375.02 328.63 374.83 329.71 373.25C330.45 372.18 330.74 369.47 330.46 366.25C330.2 363.27 330.43 360.78 331 360.5C331.55 360.23 332.56 360.62 333.25 361.38C333.94 362.13 337.43 366.01 341 370C344.57 373.99 348.18 378.3 349 379.58C349.82 380.86 351.4 382.53 352.5 383.3C353.6 384.06 354.84 385.89 355.25 387.35C355.8 389.3 356.46 389.84 357.75 389.4C358.71 389.07 362.2 388.11 365.5 387.27C368.8 386.43 371.95 385.38 372.5 384.93C373.05 384.48 375.98 383.83 379 383.5C382.02 383.16 385.4 382.49 386.5 382.02C387.6 381.54 389.63 380.92 391 380.64C392.84 380.27 393.81 379.12 394.68 376.31C395.33 374.22 396.17 370.48 396.54 368C396.92 365.52 396.95 362.49 396.61 361.25C396.27 360.01 395.32 359 394.5 359C393.68 359 393.01 358.21 393.02 357.25C393.03 355.75 393.17 355.72 394 357C394.53 357.82 394.98 358.05 395 357.5C395.02 356.91 395.33 356.95 395.77 357.59C396.17 358.2 401.68 361.28 408 364.44C414.32 367.61 419.95 370.61 420.5 371.12C421.05 371.62 422.74 372.03 424.25 372.02C425.76 372.01 430.94 369.69 435.75 366.87C440.56 364.05 445.73 360.56 447.24 359.12C448.75 357.68 450.29 355.38 450.66 354C451.03 352.63 451.22 350.38 451.1 349C450.97 347.63 450.74 345.15 450.58 343.5C450.43 341.85 450.23 339.71 450.15 338.75C450.05 337.57 448.62 336.66 445.75 335.96C443.41 335.39 440.6 334.53 439.5 334.06C438.4 333.59 433.68 331.62 429 329.68C424.32 327.74 419.15 325.82 417.5 325.41C415.85 325 411.46 323.39 407.75 321.83C404.04 320.28 400.76 319.34 400.47 319.75C400.18 320.16 399.96 319.94 399.97 319.25C399.99 318.56 399.21 318.01 398.25 318.02C396.72 318.03 396.6 317.44 397.28 313.27C397.92 309.39 397.73 308.09 396.28 306.29C395.3 305.08 394.05 304.07 393.5 304.05C392.95 304.04 390.48 301.96 388 299.43C385.52 296.91 382.38 294.25 381 293.53C379.21 292.6 377.07 292.46 373.5 293.05C370.75 293.51 367.94 293.91 367.25 293.94C366.56 293.97 366.01 292.99 366.02 291.75C366.03 290.51 365.46 288.77 364.77 287.89C364.07 287 361.02 285.53 358 284.61C354.98 283.69 349.91 281.95 346.74 280.72C342.38 279.04 340.99 278.02 341.01 276.5C341.02 275.4 340.46 273.75 339.77 272.82C338.78 271.51 335.56 270.91 325 270.04C317.57 269.43 307 268.22 301.5 267.35C295.68 266.43 291.49 265.29 291.47 264.63C291.46 264.01 290.91 261.02 290.26 258C289.41 254.06 288.35 252 286.53 250.75C285.14 249.79 280.06 248.29 275.25 247.41C270.44 246.54 263.8 245.63 260.5 245.38C254.9 244.96 254.23 245.14 250.5 248.18Z" />
		<path id="Path 1" class="shp5" d="M246.5 255.6C242.1 259.15 236.7 263.23 234.5 264.68C232.3 266.12 226.55 270.27 221.72 273.9C216.89 277.53 212.95 280.84 212.97 281.25C212.99 281.66 214.57 282 216.5 282C218.43 282 222.14 282.43 224.75 282.95C227.36 283.47 233.23 284.7 237.78 285.7C245.2 287.31 246.31 287.34 248.44 286C249.75 285.18 258.07 277.52 266.92 269C275.78 260.48 282.68 253.21 282.26 252.86C281.84 252.51 277.9 251.5 273.5 250.62C269.1 249.74 263.02 249.05 260 249.09C254.77 249.15 254.11 249.47 246.5 255.6ZM223.5 259.15C218.55 260.78 208.88 263.66 202 265.55C195.13 267.44 184.55 270.68 178.5 272.74L167.5 276.5C165.95 284.57 165.72 287.13 166 287.39C166.28 287.66 170.55 286.76 175.5 285.41C180.45 284.05 187.43 282.09 191 281.05C194.57 280.01 201.55 277.76 206.5 276.04C211.45 274.33 216.24 272.83 217.15 272.71C218.06 272.6 220.68 271.15 222.98 269.5C225.27 267.85 228.47 265.49 230.08 264.25C231.68 263.01 233.34 261.99 233.75 261.97C234.16 261.96 235.29 261.29 236.25 260.47C237.21 259.66 237.78 258.32 237.5 257.5C237.22 256.68 235.99 256.04 234.75 256.09C233.51 256.14 228.45 257.51 223.5 259.15Z" />
		<path id="Path 2" class="shp6" d="M268.14 272.85C258.7 282.01 250.98 290.06 250.99 290.75C251 291.44 251.79 293.58 252.75 295.52C253.71 297.46 254.72 299.05 255 299.07C255.28 299.08 256.67 297.61 258.11 295.8C259.55 293.98 265.17 287.98 270.61 282.46C276.05 276.95 282.17 270.65 284.21 268.46C287.6 264.85 287.86 264.16 287.21 260.63C286.82 258.51 286.23 256.64 285.9 256.48C285.57 256.32 277.58 263.69 268.14 272.85Z" />
		<path id="Path 3" class="shp5" d="M283.46 273.08C281.83 275.26 280.16 277.03 279.75 277.02C279.34 277.01 278.99 277.56 278.98 278.25C278.97 279.1 283.07 280.05 291.73 281.2C298.76 282.14 309.23 283.19 315 283.54L325.5 284.18C333.25 277.63 335.61 275.33 335.75 274.86C335.89 274.39 333.86 273.77 331.25 273.49C328.64 273.2 320.54 272.53 313.25 271.99C305.96 271.44 299.66 270.82 299.25 270.59C298.84 270.37 295.78 269.94 292.46 269.65L286.42 269.12L283.46 273.08Z" />
		<path id="Path 4" class="shp7" d="M202.5 280.19C199.75 281.28 192.32 283.51 186 285.14C179.68 286.76 172.93 288.83 171 289.72C169.07 290.62 167.36 291.39 167.19 291.43C167.02 291.47 167.7 294.24 168.69 297.58L170.5 303.66C193.75 295.59 201.18 293 202 292.7C202.82 292.4 204.85 291.75 206.5 291.24C209.3 290.38 209.5 290 209.5 285.41C209.5 282.71 209.84 279.94 210.25 279.25C210.74 278.43 210.4 278.04 209.25 278.1C208.29 278.16 205.25 279.1 202.5 280.19Z" />
		<path id="Path 5" class="shp6" d="M332 283.39C327.61 286.94 326.93 287.97 326.98 291C327.01 292.93 327.36 295.06 327.77 295.74C328.28 296.6 329.96 295.53 333.28 292.24C337.76 287.8 338.04 287.24 337.57 283.39L337.08 279.27L332 283.39Z" />
		<path id="Path 6" class="shp7" d="M272.01 287.14C269 289.98 266.65 292.68 266.77 293.15C266.9 293.62 268.46 294.41 270.25 294.91C272.04 295.41 277.1 296.08 281.5 296.4C285.9 296.72 292.88 297.63 297 298.41C301.13 299.2 308.1 300.36 312.5 300.99C316.9 301.61 321.29 302.32 322.25 302.56C323.8 302.95 324 302.14 324 295.5C324 289.24 323.71 287.9 322.25 287.42C321.29 287.1 314.43 286.42 307 285.9C299.57 285.37 290.57 284.53 287 284.02C283.43 283.51 279.82 282.84 278.98 282.53C278.04 282.18 275.41 283.91 272.01 287.14Z" />
		<path id="Path 7" class="shp5" d="M341.22 284.73C341.71 286.63 341.4 288.28 340.24 290C339.32 291.38 337.65 293.22 336.53 294.09C335.41 294.97 334.95 295.92 335.5 296.2C336.05 296.48 340.77 295.01 346 292.93C351.23 290.85 355.61 288.66 355.75 288.07C355.89 287.48 354.76 286.74 353.25 286.42C351.74 286.11 349.15 285.25 347.5 284.53C345.85 283.81 343.6 282.93 342.51 282.59C340.74 282.04 340.59 282.29 341.22 284.73ZM159.41 286.75C157.71 287.71 153.05 290.75 149.07 293.5C145.08 296.25 137.81 301.31 132.91 304.75C128.01 308.19 124 311.34 123.99 311.75C123.98 312.16 130.06 313.96 137.49 315.75L151 319L167.81 304.5C163.27 292.1 162.16 287.71 162.43 286.75C162.69 285.79 162.82 285 162.71 285C162.59 284.99 161.11 285.78 159.41 286.75Z" />
		<path id="Path 8" class="shp7" d="M213.71 289.5C214 292.25 214.53 294.76 214.87 295.07C215.22 295.38 218.88 296.21 223 296.91C227.13 297.61 234.78 298.76 240 299.46C245.22 300.17 249.64 300.69 249.8 300.63C249.97 300.56 249.29 298.17 248.3 295.31C246.89 291.26 245.95 290.02 244 289.63C242.63 289.36 239.03 288.43 236 287.57C232.97 286.71 226.6 285.67 221.84 285.25L213.17 284.5L213.71 289.5Z" />
		<path id="Path 9" class="shp6" d="M359 290.7C358.18 290.99 353 293.02 347.5 295.21C342 297.4 337.27 299.51 337 299.92C336.73 300.32 335.71 300.95 334.75 301.32C333.41 301.84 333 303.16 333 307C333 309.75 333.45 312 334 312C334.55 312 337.59 310.9 340.75 309.56C343.91 308.21 349.65 305.9 353.5 304.42C357.35 302.94 361.1 301.23 361.83 300.62C362.67 299.91 363.03 297.88 362.83 295.08C362.65 292.65 362.05 290.55 361.5 290.41C360.95 290.28 359.82 290.41 359 290.7Z" />
		<path id="Path 10" class="shp5" d="M259.94 299.02C258.05 300.69 256.05 302.2 255.5 302.39C254.95 302.57 254.72 303.03 255 303.4C255.28 303.78 258.38 303.28 261.91 302.29C265.43 301.31 268.48 300.05 268.69 299.5C268.9 298.95 267.92 297.94 266.53 297.25C265.14 296.56 263.86 296 263.69 296C263.52 296 261.83 297.36 259.94 299.02ZM370 296.73C368.63 296.98 366.92 297.71 366.21 298.35C365.49 298.98 364.93 300.29 364.96 301.25C364.98 302.37 363.73 303.45 361.49 304.25C358.31 305.38 357.97 305.86 357.99 309.25C357.99 311.57 358.48 313 359.25 313.01C359.94 313.02 362.75 312.38 365.5 311.6C368.25 310.82 375 309.39 380.5 308.42L390.5 306.66C380.39 296.93 378.93 296.09 376 296.17C374.07 296.23 371.38 296.48 370 296.73ZM198.5 299.99C196.85 301.75 192.57 305.47 189 308.27C185.43 311.07 181.72 314.29 180.77 315.43C179.82 316.57 179.03 318.06 179.02 318.75C179.01 319.44 179.45 319.77 180 319.5C180.55 319.23 182.91 318.75 185.25 318.44C187.59 318.13 194.14 317.56 199.81 317.19L210.11 316.5C213.33 310.3 214.65 307.82 215.12 307C215.59 306.18 216.66 304.26 217.49 302.75C218.99 300.01 218.98 299.99 215.25 298.96C213.19 298.38 209.25 297.66 206.5 297.36C201.85 296.84 201.29 297.02 198.5 299.99ZM275.43 300.56C274.91 300.88 274.95 301.98 275.52 303.17C276.33 304.87 277.11 305.13 280 304.63C281.93 304.29 286.31 304.02 289.75 304.01C293.19 304 296.01 303.66 296.01 303.25C296.02 302.84 292.53 301.93 288.26 301.24C283.99 300.55 279.56 299.99 278.42 299.99C277.27 300 275.93 300.25 275.43 300.56Z" />
		<path id="Path 11" class="shp6" d="M179.22 304.33C174.11 306.07 169.61 307.95 169.22 308.5C168.82 309.05 166.93 310.31 165 311.3C163.07 312.29 159.52 314.76 157.1 316.8L152.71 320.5C155.65 328.66 156.72 331.02 157 331C157.28 330.99 159.28 329.52 161.46 327.74C163.64 325.96 168.16 322.02 171.5 319C174.84 315.98 179.52 311.93 181.91 310C184.3 308.07 187.66 305.28 189.38 303.78C192.05 301.45 192.21 301.07 190.5 301.11C189.4 301.13 184.32 302.58 179.22 304.33ZM221.87 303.25C221.22 304.49 219.13 308.43 217.24 312L213.79 318.5C217.05 325.09 218.34 327.01 218.75 327.03C219.16 327.04 221.19 323.22 223.25 318.53C225.31 313.84 226.99 308.99 226.98 307.75C226.97 306.51 227.47 305.05 228.09 304.5C228.71 303.95 228.94 302.94 228.61 302.25C228.27 301.56 226.89 301 225.53 301C223.98 301 222.61 301.84 221.87 303.25Z" />
		<path id="Path 12" class="shp5" d="M233.23 305.39C233.38 307.26 233.72 309.08 234 309.44C234.28 309.79 236.3 309.38 238.5 308.52C240.7 307.66 243.29 306.96 244.25 306.98C245.21 306.99 247.24 306.5 248.75 305.9C251.3 304.87 251.35 304.74 249.5 304.04C248.4 303.63 244.23 303 240.23 302.64L232.96 301.98L233.23 305.39Z" />
		<path id="Path 13" class="shp7" d="M269 303.94C268.18 304.42 264.57 305.33 261 305.96C257.43 306.59 250.42 308.29 245.43 309.74C240.44 311.19 236.28 312.85 236.17 313.44C236.07 314.02 236.66 316.86 237.49 319.75C238.32 322.64 239.45 325.23 240 325.5C240.55 325.77 244.94 324.84 249.75 323.42C254.56 322 262.45 319.64 267.28 318.17C272.26 316.65 276.04 314.96 276.03 314.25C276.01 313.56 275.1 311.31 274 309.25C272.89 307.19 271.99 304.94 272 304.25C272 303.56 271.66 303.01 271.25 303.03C270.84 303.05 269.82 303.46 269 303.94Z" />
		<path id="Path 14" class="shp5" d="M326.85 304.63C325.77 305.91 324.28 306.12 319.5 305.66L313.5 305.09C324.35 310.38 327.84 311.94 328.25 311.96C328.66 311.98 329.11 310.16 329.25 307.91C329.39 305.66 329.21 303.64 328.85 303.42C328.49 303.2 327.59 303.74 326.85 304.63Z" />
		<path id="Path 15" class="shp7" d="M286.25 306.71L277 307C277.9 311.26 278.39 313.63 278.67 315C279.08 316.97 278.64 317.76 276.59 318.75C275.17 319.44 273.32 320 272.5 320C271.68 320 271 320.68 271 321.5C271 322.32 271.79 323.3 272.75 323.66C273.71 324.02 281.93 323.8 291 323.16C300.07 322.52 315.38 321.54 325 320.98C334.63 320.42 345.31 319.75 348.75 319.48L355 319C355 310.48 354.64 308 354.2 308C353.76 308 352.97 308.37 352.45 308.83C351.93 309.28 349.48 310.22 347 310.92C344.52 311.61 340.02 313.32 337 314.7L331.5 317.22C322.2 313.1 318.6 311.39 317.5 310.76C316.4 310.13 313.81 308.81 311.75 307.81C309.15 306.55 306.09 306.06 301.75 306.21C298.31 306.32 291.34 306.55 286.25 306.71ZM387.92 310.42C387.69 310.65 384.57 311.12 381 311.47C377.43 311.81 373.94 312.52 373.25 313.05C372.56 313.57 371.32 313.77 370.5 313.5C369.68 313.23 368.78 313.68 368.5 314.5C368.07 315.78 369.83 316 380.5 316C390.72 316 393.09 315.73 393.5 314.5C393.77 313.68 394 312.32 394 311.5C394 310.52 393.02 310 391.17 310C389.61 310 388.15 310.19 387.92 310.42Z" />
		<path id="Path 16" class="shp5" d="M227.24 315.48C226.28 317.39 225.72 319.12 226 319.33C226.28 319.54 228.07 319.96 230 320.25C233.43 320.76 233.49 320.71 233.12 317.64C232.92 315.91 232.24 313.92 231.62 313.21C231.01 312.49 230.16 311.93 229.74 311.96C229.32 311.98 228.19 313.56 227.24 315.48Z" />
		<path id="Path 17" class="shp7" d="M122.03 316.73C122.01 317.7 122.79 320.07 123.75 322C125.46 325.41 125.79 325.56 138.5 328.6C145.65 330.31 151.62 331.66 151.77 331.61C151.92 331.55 151.47 329.34 150.77 326.69C149.64 322.42 149.11 321.78 146 320.99C144.07 320.5 139.13 319.23 135 318.17C130.88 317.1 126.27 315.95 124.77 315.6C122.6 315.09 122.04 315.32 122.03 316.73Z" />
		<path id="Path 18" class="shp5" d="M107 323.08C101.78 325.27 95.7 327.87 93.5 328.85C91.3 329.84 86.22 331.73 82.22 333.07C75.75 335.23 75.14 335.65 76.72 336.81C77.7 337.53 81.88 339.95 86 342.18C90.13 344.42 95.22 347.44 97.33 348.88L101.16 351.5C112.91 345.3 117.26 342.75 118.41 341.83C120.17 340.43 120.4 339.49 119.85 335.83C119.49 333.45 119.27 328.69 119.36 325.25C119.48 320.26 119.21 319.01 118.01 319.05C117.18 319.07 112.22 320.89 107 323.08ZM357.5 320.47C356.18 321.4 352.44 321.93 346.5 322.01C341.55 322.09 337.27 322.3 337 322.49C336.73 322.68 333.13 323.09 329 323.41C324.88 323.73 321.27 324.21 321 324.49C320.73 324.77 320.73 325.19 321 325.42C321.27 325.65 326.45 326.33 332.5 326.93C338.55 327.53 349.35 328.5 356.5 329.09C363.65 329.67 372.43 330.76 376 331.5L382.5 332.86C390.58 324.83 392.94 322.05 392.97 321.5C392.99 320.92 387.81 320.18 380.76 319.75C374.01 319.33 366.48 319.01 364 319.03C361.52 319.05 358.6 319.7 357.5 320.47Z" />
		<path id="Path 19" class="shp7" d="M186.35 320.87C182.97 321.22 179.91 321.73 179.56 322C179.22 322.27 179.96 324.67 181.21 327.33L183.5 332.16C193.57 331.24 200.78 330.73 206 330.43C211.22 330.13 215.61 329.8 215.75 329.69C215.88 329.59 214.95 327.48 213.67 325L211.34 320.5C196.74 320.3 189.73 320.52 186.35 320.87Z" />
		<path id="Path 20" class="shp5" d="M170.45 323.9C168.28 325.53 164.25 328.91 161.5 331.43C158.75 333.94 155.94 336 155.25 336C154.56 336 152.76 335.52 151.25 334.94C149.74 334.35 144.9 333.19 140.5 332.36C136.1 331.53 131.6 330.47 130.5 330.01C129.4 329.54 127.04 328.68 125.25 328.08L122 327C122.02 333.59 122.36 336.59 122.76 337.92L123.5 340.35C158.38 339.3 171.99 338.43 176.25 337.75C180.52 337.06 184.01 336.16 184 335.75C184 335.34 183.21 334.8 182.25 334.55C181.25 334.3 179.47 331.61 178.09 328.3C176.77 325.11 175.4 322.15 175.05 321.73C174.7 321.3 172.63 322.28 170.45 323.9Z" />
		<path id="Path 21" class="shp7" d="M224.19 323.25C223.62 323.94 222.22 326.64 221.08 329.25C219.08 333.82 218.87 333.98 215.5 333.5C213.57 333.23 211.99 333.34 211.99 333.75C211.98 334.16 213.44 335.06 215.24 335.74C217.03 336.42 219.51 336.98 220.75 336.99C221.99 336.99 223 337.45 223 338C223 338.55 225.14 339.45 227.75 340C230.36 340.56 237 342.35 242.5 343.99C248 345.63 253.29 346.98 254.25 346.99C255.21 346.99 257.46 347.64 259.25 348.43C261.04 349.22 266.1 350.61 270.5 351.52C274.9 352.43 278.85 352.79 279.27 352.34C279.69 351.88 280.88 349.02 281.91 346C283.13 342.41 283.43 340.15 282.8 339.5C282.26 338.95 279.5 337.75 276.66 336.83C273.82 335.91 265.65 333.51 258.5 331.49C246.99 328.24 245.1 327.95 242 329C238.76 330.1 238.35 330 236.5 327.66C235.4 326.27 232.7 324.41 230.5 323.54C228.3 322.67 226.21 321.96 225.86 321.98C225.51 321.99 224.76 322.56 224.19 323.25Z" />
		<path id="Path 22" class="shp5" d="M259.53 323.79C256.25 324.67 253.66 325.76 253.78 326.2C253.9 326.64 256.59 327.7 259.75 328.55C262.91 329.41 269.1 331.27 273.5 332.7C277.9 334.12 282.06 335.45 282.75 335.65C283.48 335.85 284.41 334.45 284.99 332.25C285.54 330.19 285.99 328.16 285.99 327.75C286 327.34 282.06 326.89 277.25 326.75C268.95 326.51 268.49 326.38 268.39 324.25C268.33 323 267.66 322.04 266.89 322.1C266.12 322.15 262.81 322.91 259.53 323.79ZM398 329.5C398 333.63 397.55 337.23 397 337.5C396.45 337.77 396 338.45 396 339C396 339.55 400.84 341.85 406.75 344.12C412.66 346.38 419.07 349.06 421 350.07C424.46 351.88 424.54 351.87 428 349.57C429.93 348.29 434.31 345.84 437.75 344.12C441.19 342.4 444.23 340.55 444.5 340C444.77 339.45 444.32 339 443.5 339C442.68 339 440.09 338.13 437.75 337.08C435.41 336.02 431.48 334.28 429 333.22C426.52 332.15 421.35 330.26 417.5 329.01C413.65 327.76 407.91 325.67 404.75 324.37C401.59 323.07 398.77 322 398.5 322C398.23 322 398 325.38 398 329.5Z" />
		<path id="Path 23" class="shp6" d="M389.42 329.55C384.78 334.07 384.3 334.96 383.92 339.83C383.69 342.76 383.84 345.35 384.25 345.58C384.66 345.81 387.25 343.3 390 340C394.61 334.47 394.98 333.63 394.75 329.3L394.5 324.6L389.42 329.55Z" />
		<path id="Path 24" class="shp5" d="M290 327.5C290 328.32 289.48 330.24 288.85 331.75C288.21 333.26 287.58 334.95 287.44 335.5C287.3 336.05 286.73 338.52 286.16 341C285.52 343.81 285.47 347.19 286.03 350C286.51 352.48 286.93 354.73 286.96 355C286.98 355.27 295.78 355.5 306.5 355.5C318.81 355.5 326.01 355.13 326.03 354.5C326.05 353.95 324.36 351.94 322.28 350.03C319.11 347.12 317.44 346.42 312 345.75C308.43 345.31 305.27 344.7 305 344.4C304.73 344.09 304.46 339.82 304.42 334.92L304.33 326C291.46 326 290 326.31 290 327.5Z" />
		<path id="Path 25" class="shp7" d="M307.54 334.75L307.61 341.5C320.7 343.31 329.23 344.12 335 344.46C340.77 344.8 349.77 345.75 355 346.56C360.23 347.36 366.98 348.29 370 348.61C373.02 348.93 376.63 349.26 378 349.35C380.41 349.49 380.51 349.26 380.75 342.75C380.98 336.56 380.81 335.93 378.75 335.12C377.51 334.64 371.77 333.73 366 333.1C360.23 332.48 352.57 331.76 349 331.51C345.43 331.26 336.65 330.37 329.5 329.53C322.35 328.69 314.47 328 311.98 328L307.46 328L307.54 334.75Z" />
		<path id="Path 26" class="shp5" d="M189 335C189 335.55 189.34 336.04 189.75 336.09C190.16 336.14 194.44 336.36 199.25 336.59C206.54 336.93 208 336.75 208 335.5C208 334.27 206.28 334 198.5 334C192.83 334 189 334.4 189 335ZM206.5 339L199.5 339.5C199.99 354.23 200.44 358.82 200.82 359.21C201.19 359.59 209.14 359.59 218.49 359.21L235.47 358.5C236.72 352.3 237.06 349.6 237.04 348.5C237.02 347.4 236.89 346.43 236.75 346.34C236.61 346.25 231.32 344.45 225 342.34C214.8 338.93 212.71 338.56 206.5 339Z" />
		<path id="Path 27" class="shp7" d="M73.67 342.22C73.78 344.02 73.9 346.96 73.94 348.75C74 351.86 74.54 352.3 86.25 358.75C92.99 362.46 98.95 365.62 99.5 365.77C100.09 365.94 100.5 363.53 100.5 359.93L100.5 353.81C82.67 343.36 76.59 340.01 75.48 339.63C73.71 339.02 73.49 339.33 73.67 342.22Z" />
		<path id="Path 28" class="shp6" d="M191.26 340.79C188.67 341.06 186.81 342.55 181.9 348.31C178.53 352.27 173.46 358.14 170.64 361.38C167.81 364.61 165.2 367.76 164.84 368.38C164.47 368.99 164.7 371.88 165.34 374.8C165.98 377.71 166.95 380.14 167.5 380.18C168.05 380.23 168.95 379.45 169.5 378.44C170.05 377.43 171.5 375.46 172.73 374.05C173.96 372.65 175.53 370.38 176.23 369C176.92 367.63 179.63 363.69 182.24 360.25C184.86 356.81 187 353.55 187 353C187 352.45 187.43 351.44 187.95 350.75C188.47 350.06 190.5 347.59 192.45 345.25C194.4 342.91 195.66 340.88 195.25 340.73C194.84 340.58 193.04 340.6 191.26 340.79Z" />
		<path id="Path 29" class="shp5" d="M174.92 341.41C174.69 341.63 170.22 342.05 165 342.34C158.54 342.69 153.98 343.52 150.75 344.93C148.14 346.07 145.89 347.34 145.75 347.75C145.61 348.16 143.93 349.36 142 350.41C140.07 351.45 136.47 353.4 134 354.73C131.53 356.07 128.94 357.68 128.26 358.33C127.29 359.24 128.63 359.89 134.26 361.25C138.24 362.21 146.45 363.69 152.5 364.54C158.55 365.38 163.52 365.95 163.54 365.79C163.56 365.63 166.28 362.35 169.59 358.5C172.89 354.65 177.03 349.59 178.8 347.25C180.56 344.91 182 342.55 182 342C182 341.45 180.5 341 178.67 341C176.83 341 175.15 341.18 174.92 341.41Z" />
		<path id="Path 30" class="shp6" d="M132.5 342.74C122.56 343.06 122.44 343.09 113 348.29L103.5 353.52C103.11 363.97 103.34 366.99 103.75 366.98C104.16 366.97 110.13 364 117 360.38C123.88 356.76 131.75 352.12 134.5 350.07C137.25 348.01 140.51 345.8 141.75 345.16C142.99 344.52 144 343.55 144 343C144 342.45 143.66 342.09 143.25 342.21C142.84 342.33 138 342.57 132.5 342.74Z" />
		<path id="Path 31" class="shp7" d="M389.67 345.54C388.2 347.44 387.11 349.11 387.25 349.25C387.39 349.39 389.07 350.34 391 351.36C392.93 352.39 398.55 355.24 403.5 357.7C408.45 360.15 413.18 362.57 414 363.07C414.82 363.56 417.19 364.88 419.25 365.99L423 368C423 355.86 422.7 354.81 420.75 353.54C419.51 352.74 413.77 350.12 408 347.72C402.23 345.33 396.34 343.07 394.92 342.72C392.78 342.18 391.88 342.66 389.67 345.54Z" />
		<path id="Path 32" class="shp6" d="M436.06 348.39L425.97 354.5C425.99 364.96 426.34 367.98 426.75 367.96C427.16 367.94 431.32 365.53 436 362.59C440.68 359.66 445.3 356.19 446.27 354.88C447.76 352.88 447.89 351.69 447.1 347.39L446.15 342.29L436.06 348.39Z" />
		<path id="Path 33" class="shp7" d="M331.75 347.71C330.24 347.87 328.99 348.56 328.97 349.25C328.95 349.94 329.91 351.4 331.1 352.5C332.29 353.6 334.25 356.07 335.47 358C336.69 359.93 340.79 364.94 344.59 369.15C348.39 373.35 352.29 377.96 353.25 379.4C354.21 380.83 355.45 382 356 382C356.55 382 357.19 381.21 357.43 380.25C357.66 379.29 358.14 376.7 358.49 374.5C359.09 370.72 358.86 370.25 354.45 366C351.88 363.52 349.04 360.64 348.14 359.6C347.24 358.55 345.82 356.98 344.99 356.1C344.16 355.22 342.69 353.38 341.72 352C340.75 350.63 339.63 349.48 339.23 349.46C338.83 349.45 337.6 348.98 336.5 348.43C335.4 347.88 333.26 347.55 331.75 347.71Z" />
		<path id="Path 34" class="shp5" d="M240.7 357C239.77 361.4 239.17 365.34 239.37 365.75C239.58 366.16 241.94 367.09 244.62 367.8C247.3 368.52 254.68 370.69 261 372.63C267.32 374.57 273.29 376.35 274.25 376.58C275.82 376.96 276 376.04 276.04 367.75C276.08 361.37 275.69 358.16 274.79 357.4C274.08 356.79 269.68 355.3 265 354.08C260.32 352.87 253.8 351.24 250.5 350.47C247.2 349.7 244.03 349.05 243.45 349.04C242.87 349.02 241.64 352.6 240.7 357ZM344.04 349.75C344.06 350.16 345.49 352.07 347.2 354C348.91 355.93 352.72 360.09 355.66 363.25C360.67 368.64 361.17 368.93 363.75 367.93C365.26 367.35 370.66 365.77 375.75 364.43C380.84 363.09 385.9 362 387 362C388.1 362 389.21 361.66 389.46 361.25C389.72 360.84 388.37 358.81 386.46 356.75C383.4 353.43 382.45 353 378.25 352.99C375.64 352.99 368.21 352.09 361.75 350.99C355.29 349.9 348.65 349 347 349C345.35 349 344.02 349.34 344.04 349.75ZM196.1 356C196.01 360.6 196.28 362.21 197.04 361.5C197.78 360.81 197.83 358.79 197.18 355L196.24 349.5L196.1 356ZM282.47 352.5C282.06 353.6 282.01 356.41 282.36 358.75C282.71 361.09 283.45 363 284 363C284.55 363 284.97 361.09 284.93 358.75C284.89 356.41 284.49 353.6 284.04 352.5L283.21 350.5L282.47 352.5Z" />
		<path id="Path 35" class="shp6" d="M291 358.88L287.5 359.5L286.87 372.5C295.11 371.35 304.14 371.01 312.25 371.01L327 371L327.03 359.5C318.87 358.35 311.55 358.07 305.5 358.14C299.45 358.21 292.93 358.54 291 358.88Z" />
		<path id="Path 36" class="shp7" d="M215.65 361.72C215.49 361.88 211.89 362.12 207.64 362.26L199.91 362.5L200.5 373.5L232 374C233.03 369.74 233.37 366.93 233.41 365L233.5 361.5C219.88 361.44 215.8 361.56 215.65 361.72ZM126.35 362.95C126.21 363.25 126.53 366.2 127.07 369.5C127.6 372.8 128.31 375.73 128.64 376C128.97 376.27 131.09 376.84 133.37 377.25C135.64 377.66 141.55 378.65 146.5 379.44C151.45 380.24 157.3 381.17 159.5 381.51L163.5 382.13L161.5 369.5C152.97 367.51 145.13 365.91 138.56 364.66C131.99 363.41 126.5 362.64 126.35 362.95Z" />
		<path id="Path 37" class="shp6" d="M380.5 366.15C376.65 367.24 370.93 368.89 367.78 369.81C362.45 371.38 362.02 371.74 361.49 375C361.18 376.93 360.37 379.74 359.71 381.26C359.04 382.77 358.73 384.26 359 384.56C359.27 384.86 364 383.93 369.5 382.49C375 381.05 381.98 379.2 385 378.39C389.97 377.04 390.62 376.54 391.73 373.2C392.41 371.16 392.97 368.26 392.98 366.75C393 364.39 392.61 364.01 390.25 364.09C388.74 364.14 384.35 365.07 380.5 366.15Z" />
		<path id="Path 38" class="shp7" d="M236.43 374.39C235.57 377.2 234.67 380.06 234.43 380.75C234.17 381.5 235.71 382.6 238.25 383.49C240.59 384.32 247.9 386.52 254.5 388.39C261.1 390.27 267.53 391.96 268.79 392.15C270.75 392.45 271.45 391.65 273.54 386.75C274.9 383.59 275.66 380.82 275.25 380.61C274.84 380.39 270.23 378.78 265 377.02C259.77 375.26 251.56 372.8 246.75 371.55L238 369.28L236.43 374.39Z" />
	</g>
	<g id="Layer 4 copy">
		<path id="Path 0" class="shp1" d="M255.82 277.52C255.65 277.7 251.34 278.56 246.25 279.42C241.16 280.29 235.86 281.79 234.47 282.75C232.65 284 231.59 286.06 230.74 290C230.09 293.02 229.54 296.01 229.53 296.63C229.51 297.29 225.32 298.43 219.5 299.35C214 300.22 203.63 301.45 196.46 302.08C186.97 302.92 182.95 303.68 181.69 304.87C180.74 305.76 179.98 307.4 179.99 308.5C180.01 310.02 178.62 311.04 174.26 312.72C171.09 313.95 166.03 315.69 163 316.61C159.97 317.53 156.93 319 156.23 319.89C155.54 320.77 154.97 322.51 154.98 323.75C154.99 324.99 154.44 325.97 153.75 325.94C153.06 325.91 150.25 325.51 147.5 325.05C143.93 324.46 141.79 324.6 140 325.53C138.63 326.25 135.47 328.91 133 331.43C130.53 333.96 128.05 336.04 127.5 336.05C126.95 336.07 125.7 337.08 124.72 338.29C123.27 340.09 123.08 341.39 123.72 345.27C124.4 349.44 124.28 350.03 122.75 350.02C121.79 350.01 121.01 350.56 121.03 351.25C121.04 351.94 120.82 352.16 120.53 351.75C120.24 351.34 116.96 352.28 113.25 353.83C109.54 355.39 105.15 357 103.5 357.41C101.85 357.82 96.67 359.74 92 361.68C87.33 363.62 82.6 365.59 81.5 366.06C80.4 366.53 77.59 367.39 75.25 367.96C72.38 368.66 70.95 369.57 70.85 370.75C70.77 371.71 70.57 373.85 70.42 375.5C70.26 377.15 70.03 379.63 69.9 381C69.78 382.38 69.97 384.63 70.34 386C70.71 387.38 72.25 389.68 73.76 391.12C75.27 392.56 80.44 396.05 85.25 398.87C90.14 401.74 95.23 404 96.8 404C98.34 404 100.03 403.6 100.55 403.1C101.07 402.61 106.67 399.61 113 396.44C119.33 393.28 124.83 390.2 125.23 389.59C125.67 388.95 125.98 388.91 126 389.5C126.02 390.05 126.47 389.82 127 389C127.83 387.72 127.97 387.75 127.98 389.25C127.99 390.21 127.33 391 126.5 391C125.67 391 124.73 392.01 124.39 393.25C124.05 394.49 124.08 397.52 124.46 400C124.83 402.48 125.67 406.22 126.32 408.31C127.19 411.12 128.16 412.27 130 412.64C131.38 412.92 133.4 413.54 134.5 414.02C135.6 414.49 138.97 415.16 142 415.5C145.03 415.83 147.95 416.48 148.5 416.93C149.05 417.38 152.2 418.43 155.5 419.27C158.8 420.11 162.29 421.07 163.25 421.4C164.54 421.84 165.2 421.3 165.75 419.35C166.16 417.89 167.4 416.06 168.5 415.3C169.6 414.53 171.18 412.86 172 411.58C172.82 410.3 176.43 405.99 180 402C183.57 398.01 187.06 394.13 187.75 393.38C188.44 392.62 189.45 392.23 190 392.5C190.57 392.78 190.8 395.27 190.54 398.25C190.26 401.47 190.55 404.18 191.29 405.25C192.37 406.83 194.73 407.02 214 407.15C225.82 407.24 236.06 407.01 236.75 406.65C237.44 406.29 238.01 404.99 238.02 403.75C238.03 402.51 238.59 399.8 239.27 397.73C239.94 395.65 240.84 393.96 241.25 393.98C241.66 393.99 241.97 398.61 241.94 404.25C241.88 412.92 242.25 415.42 244.33 420.5C245.97 424.52 247.68 426.99 249.52 428C251.63 429.16 252.34 429.21 252.63 428.25C252.83 427.56 253.68 427 254.5 427C255.32 427 261.74 425.38 268.75 423.41C275.76 421.44 283.41 418.96 285.75 417.91C289.2 416.36 290.11 415.39 290.56 412.75L291.13 409.5L322.1 409.5C325.97 400.2 327.41 395.09 327.8 392.14C328.18 389.19 328.73 386.62 329 386.42C329.27 386.22 331.05 388.18 332.95 390.78C334.85 393.38 336.66 395.73 336.98 396C337.3 396.27 339.15 398.75 341.09 401.5C343.03 404.25 344.92 407.29 345.31 408.25C345.69 409.21 346.45 410 347 410C347.55 410 348.23 410.9 348.5 412C348.77 413.1 350.69 415.09 352.75 416.43C356.19 418.66 356.79 418.75 360 417.55C361.93 416.84 366.43 415.94 370 415.57C373.57 415.2 376.73 414.74 377 414.56C377.27 414.38 379.75 413.96 382.5 413.62C385.25 413.28 388.85 412.74 390.5 412.42C392.15 412.1 394.29 411.43 395.25 410.92C396.21 410.41 397.03 408.99 397.07 407.75C397.11 406.51 397.35 403.93 397.6 402C397.85 400.07 398.15 397.7 398.28 396.72C398.4 395.74 398.95 394.96 399.5 394.98C400.05 395.01 401.4 395.32 402.5 395.67C403.6 396.03 407.09 397.82 410.25 399.66C413.41 401.5 417.13 403 418.5 403C419.88 403 422.24 402.17 423.75 401.16C425.26 400.14 427.85 398.63 429.5 397.79C431.15 396.95 435.88 394.38 440 392.07C444.13 389.76 448.18 387.26 449 386.51C450.1 385.51 450.57 382.56 450.75 375.57C450.97 367.22 450.78 365.92 449.25 365.39C448.29 365.06 446.04 364.16 444.25 363.39C442.46 362.63 440.55 362 440 362C439.45 362 438.21 361.6 437.25 361.11C436.29 360.62 430.55 358.31 424.5 355.98C418.45 353.65 410.92 350.56 407.76 349.12C404.6 347.68 402.02 345.94 402.01 345.25C402 344.56 401.1 343.1 400 342C398.9 340.9 396.54 338.98 394.75 337.73C392.96 336.48 387.9 332.83 383.5 329.62C379.1 326.41 374.38 322.96 373 321.95C371.63 320.94 367.67 318.4 364.22 316.31C359.79 313.62 357.96 311.91 358 310.5C358.04 309.4 357.26 307.76 356.28 306.85C355.3 305.94 352.7 304.47 350.5 303.58C348.3 302.68 345.6 301.97 344.5 301.99C343.4 302.01 342.05 301.63 341.5 301.13C340.95 300.63 333.3 298.13 324.5 295.57C315.7 293 304.23 289.58 299 287.96C293.77 286.34 288.15 284.99 286.5 284.96C284.85 284.93 282.94 285.61 282.25 286.46C281.13 287.84 280.72 287.82 278.25 286.26C276.74 285.31 274.82 283.89 274 283.11C273.18 282.33 271.15 280.66 269.5 279.4C267.25 277.69 265.21 277.13 261.32 277.16C258.48 277.18 256 277.34 255.82 277.52Z" />
		<path id="Path 1" class="shp5" d="M246.31 282.88C242.35 283.77 238.87 284.73 238.56 285C238.26 285.27 245.25 292.48 254.1 301C262.94 309.52 271.25 317.18 272.56 318C274.69 319.34 275.8 319.31 283.22 317.7C287.77 316.7 293.64 315.47 296.25 314.95C298.86 314.43 302.57 314 304.5 314C306.43 314 308.01 313.66 308.02 313.25C308.03 312.84 304.99 310.17 301.27 307.33C297.55 304.49 291.97 300.44 288.88 298.33C285.8 296.22 279.38 291.46 274.63 287.75L266 281C256.31 281.2 250.26 281.98 246.31 282.88Z" />
		<path id="Path 2" class="shp6" d="M234.8 289.1C234.45 289.87 233.89 291.85 233.56 293.5C233.04 296.03 233.54 297.12 236.72 300.46C238.8 302.65 244.95 308.95 250.39 314.46C255.83 319.98 261.45 325.98 262.89 327.8C264.33 329.61 265.73 331.08 266 331.07C266.27 331.05 267.29 329.46 268.25 327.52C269.21 325.58 270 323.44 270 322.75C270 322.06 266.07 317.69 261.25 313.04C256.44 308.38 248.66 300.77 243.96 296.13C237.91 290.15 235.24 288.1 234.8 289.1Z" />
		<path id="Path 3" class="shp5" d="M283.58 289.5C283.26 290.32 283.79 291.66 284.75 292.47C285.71 293.29 286.84 293.96 287.25 293.97C287.66 293.99 289.32 295.01 290.92 296.25C292.53 297.49 295.73 299.85 298.02 301.5C300.32 303.15 302.94 304.6 303.85 304.71C304.76 304.83 309.55 306.33 314.5 308.04C319.45 309.76 326.43 312.01 330 313.05C333.57 314.09 340.55 316.05 345.5 317.41C350.45 318.76 354.73 319.66 355 319.39C355.27 319.13 355.05 316.57 354.5 313.7L353.5 308.5C336.45 302.68 325.88 299.44 319 297.56C312.13 295.67 302.23 292.75 297 291.07C291.77 289.39 286.75 288.01 285.83 288.01C284.92 288 283.91 288.68 283.58 289.5ZM225 302.11C222.53 302.54 214.65 303.36 207.5 303.93C200.35 304.51 192.36 305.2 189.75 305.49C187.14 305.77 185.11 306.39 185.25 306.86C185.39 307.33 187.75 309.63 190.5 311.95L195.5 316.18C211.78 315.19 222.24 314.14 229.27 313.2C237.93 312.05 242.03 311.1 242.02 310.25C242.01 309.56 241.66 309.01 241.25 309.02C240.84 309.03 239.15 307.29 237.5 305.15C235.41 302.43 233.75 301.27 232 301.29C230.63 301.31 227.47 301.68 225 302.11Z" />
		<path id="Path 4" class="shp7" d="M310.65 311.25C311.12 311.94 311.5 314.71 311.5 317.41C311.5 322 311.7 322.38 314.5 323.24C316.15 323.75 318.18 324.4 319 324.7C319.82 325 327.25 327.59 335.5 330.45L350.5 335.66C353.3 326.24 353.98 323.47 353.81 323.43C353.64 323.39 351.93 322.62 350 321.72C348.07 320.83 341.32 318.77 335 317.14C328.68 315.52 321.02 313.25 318 312.1C314.98 310.94 311.89 310 311.15 310C310.28 310 310.1 310.45 310.65 311.25Z" />
		<path id="Path 5" class="shp6" d="M182.93 315.28C182.97 318.95 183.59 320.12 187.74 324.3C191.55 328.14 192.65 328.79 193.25 327.55C193.66 326.7 193.97 324.49 193.94 322.64C193.89 319.77 193.1 318.7 188.39 315.17L182.89 311.06L182.93 315.28Z" />
		<path id="Path 6" class="shp5" d="M178 314.67C177.18 314.95 175.15 315.78 173.5 316.51C171.85 317.25 169.26 318.11 167.75 318.42C166.24 318.74 165.11 319.48 165.25 320.07C165.39 320.66 169.78 322.85 175 324.93C180.22 327.01 184.95 328.48 185.5 328.2C186.05 327.92 185.59 326.97 184.47 326.09C183.35 325.22 181.68 323.38 180.76 322C179.74 320.5 179.27 318.4 179.57 316.75C179.84 315.24 179.93 314.04 179.78 314.08C179.63 314.12 178.82 314.39 178 314.67Z" />
		<path id="Path 7" class="shp7" d="M239.5 315.06C237.85 315.56 230.88 316.41 224 316.97C217.13 317.53 209.03 318.19 206 318.44C202.97 318.69 199.71 319.14 198.75 319.45C197.29 319.91 197 321.23 197 327.5C197 334.14 197.2 334.95 198.75 334.56C199.71 334.32 204.1 333.61 208.5 332.99C212.9 332.36 219.88 331.2 224 330.41C228.13 329.63 235.1 328.72 239.5 328.4C243.9 328.08 248.96 327.41 250.75 326.91C252.54 326.41 254.02 325.66 254.03 325.25C254.05 324.84 251.69 322.13 248.78 319.24C245.88 316.35 243.28 314.03 243 314.08C242.72 314.13 241.15 314.57 239.5 315.06ZM291.25 318.12C287.81 318.61 283.31 319.69 281.25 320.52C279.19 321.36 276.82 322.04 276 322.02C275.07 322 273.81 324.01 272.7 327.25C271.71 330.14 271.03 332.56 271.2 332.63C271.36 332.69 275.77 332.17 281 331.46C286.23 330.76 293.88 329.61 298 328.91C302.13 328.21 305.78 327.38 306.13 327.07C306.47 326.76 307.04 324.36 307.38 321.75L308 317C299.86 317.19 294.69 317.64 291.25 318.12Z" />
		<path id="Path 8" class="shp5" d="M358.34 318.76C358.77 319.8 357.88 323.71 356.12 328.5L353.19 336.5L370 351C390.94 345.96 397.02 344.16 397.01 343.75C397 343.34 392.98 340.19 388.08 336.75C383.17 333.31 375.23 327.8 370.44 324.5C365.65 321.2 360.8 318.17 359.67 317.76C357.98 317.15 357.75 317.33 358.34 318.76Z" />
		<path id="Path 9" class="shp6" d="M158.5 322.66C158.04 323.03 157.72 325.17 157.79 327.42C157.86 329.66 158.49 332 159.21 332.62C159.92 333.23 163.65 334.94 167.5 336.42C171.35 337.9 177.09 340.21 180.25 341.56C183.41 342.9 186.45 344 187 344C187.55 344 188 341.75 188 339C188 335.16 187.59 333.84 186.25 333.32C185.29 332.95 184.28 332.32 184 331.92C183.72 331.51 179 329.39 173.5 327.2C168 325 162.56 322.93 161.42 322.59C160.27 322.26 158.96 322.28 158.5 322.66Z" />
		<path id="Path 10" class="shp5" d="M136 333.29L130.5 338.66C146 341.39 152.75 342.82 155.5 343.6C158.25 344.38 161.06 345.02 161.75 345.01C162.52 345 163.01 343.57 163.01 341.25C163.03 337.86 162.69 337.38 159.51 336.25C157.27 335.45 156.02 334.37 156.04 333.25C156.07 332.29 155.51 330.95 154.79 330.29C154.08 329.62 150.8 328.82 147.5 328.5L141.5 327.92L136 333.29ZM254.22 329.32C252.96 329.97 252.1 330.95 252.31 331.5C252.51 332.05 255.57 333.31 259.09 334.29C262.62 335.28 265.73 335.78 266 335.4C266.27 335.03 266.05 334.57 265.5 334.39C264.95 334.2 262.93 332.68 261 331C259.07 329.33 257.27 328 257 328.05C256.73 328.09 255.47 328.67 254.22 329.32ZM307.5 330.59C304.75 331.37 302.38 332.12 302.24 332.25C302.1 332.39 303.11 334.19 304.49 336.25C305.87 338.31 307 340.45 307 341C307 341.55 307.87 343.46 308.94 345.25L310.89 348.5C329.19 349.69 335.85 350.29 337.5 350.6C339.15 350.9 340.84 351.35 341.25 351.58C341.66 351.81 341.99 351.44 341.98 350.75C341.97 350.06 341.18 348.57 340.23 347.43C339.28 346.29 335.57 343.07 332 340.27C328.43 337.47 324.15 333.78 322.5 332.07C320.19 329.68 318.69 328.98 316 329.07C314.07 329.13 310.25 329.81 307.5 330.59ZM231.24 333.37C227.79 333.99 224.97 334.73 224.98 335C224.98 335.27 229.16 335.78 234.26 336.13C239.36 336.47 243.82 336.7 244.17 336.63C244.52 336.56 244.97 335.6 245.15 334.5C245.45 332.79 244.91 332.48 241.5 332.37C239.3 332.29 234.68 332.74 231.24 333.37Z" />
		<path id="Path 11" class="shp6" d="M292.51 334.19C292.11 334.91 292.29 335.95 292.91 336.5C293.53 337.05 294.03 338.51 294.02 339.75C294.01 340.99 295.69 345.84 297.75 350.53C299.81 355.22 301.84 359.04 302.25 359.03C302.66 359.01 303.95 357.09 305.1 354.75L307.2 350.5C299.09 335.21 297.69 333.44 295.71 333.19C294.34 333.02 292.9 333.47 292.51 334.19ZM331.62 335.78C333.34 337.28 336.7 340.07 339.09 342C341.48 343.93 346.16 347.98 349.5 351C352.84 354.02 357.36 357.96 359.54 359.74C361.72 361.52 363.73 362.99 364 363C364.27 363.02 365.35 360.66 366.4 357.76L368.29 352.5C361.48 346.76 357.93 344.29 356 343.3C354.07 342.31 352.05 340.99 351.5 340.36C350.95 339.74 346.23 337.83 341 336.11C335.77 334.4 330.82 333.01 330 333.03C329.05 333.05 329.64 334.05 331.62 335.78Z" />
		<path id="Path 12" class="shp5" d="M277.35 334.89C273.97 335.22 270.82 335.83 270.35 336.24C269.88 336.64 270.74 337.43 272.25 337.99C273.76 338.54 275.79 338.99 276.75 338.98C277.71 338.96 280.3 339.66 282.5 340.52C284.7 341.38 286.73 341.79 287 341.44C287.27 341.08 287.51 339.26 287.53 337.39C287.55 334.6 287.2 334.02 285.53 334.14C284.41 334.21 280.73 334.55 277.35 334.89ZM191.68 335.45C191.32 335.69 191.24 337.72 191.51 339.95C191.78 342.18 192.34 343.98 192.75 343.96C193.16 343.94 196.65 342.38 200.5 340.49L207.5 337.06C196.85 338.02 195.14 337.78 193.92 336.57C193.05 335.7 192.04 335.2 191.68 335.45Z" />
		<path id="Path 13" class="shp7" d="M249.16 336.14C249.08 336.89 248.11 339.19 247 341.25C245.9 343.31 244.99 345.56 244.97 346.25C244.96 346.96 248.74 348.65 253.72 350.17C258.55 351.64 266.44 354 271.25 355.42C276.06 356.84 280.45 357.77 281 357.5C281.55 357.23 282.68 354.64 283.51 351.75C284.34 348.86 285.02 346.05 285.03 345.5C285.03 344.95 281.31 343.4 276.77 342.06C272.22 340.72 264.9 338.88 260.5 337.97C256.1 337.05 251.78 335.96 250.91 335.55C249.87 335.05 249.26 335.26 249.16 336.14ZM209 339.81C207.07 340.81 204.6 342.14 203.5 342.76C202.4 343.39 198.8 345.1 195.5 346.56L189.5 349.22C180.97 345.32 176.47 343.61 174 342.92C171.53 342.22 169.05 341.27 168.5 340.81C167.95 340.35 167.16 339.97 166.75 339.98C166.34 339.99 166 342.48 166 345.5L166 351C175.69 351.75 186.38 352.42 196 352.98C205.63 353.54 220.93 354.52 230 355.16C239.07 355.8 247.29 356.02 248.25 355.66C249.21 355.3 250.01 354.44 250.02 353.75C250.04 353.06 248.8 352.17 247.27 351.78C245.75 351.38 243.82 350.63 243 350.1C241.71 349.28 241.68 348.47 242.77 344.32C243.47 341.67 243.92 339.44 243.77 339.37C243.62 339.31 236.53 338.97 228 338.62C214.22 338.07 212.11 338.2 209 339.81ZM127.15 343.37C127.07 344.27 127.22 345.68 127.5 346.5C127.91 347.73 130.28 348 140.5 348C151.17 348 152.93 347.78 152.5 346.5C152.22 345.68 151.32 345.23 150.5 345.5C149.68 345.77 148.44 345.57 147.75 345.05C147.06 344.53 144.47 343.89 142 343.63C139.53 343.37 135.2 342.84 132.4 342.45C128.09 341.85 127.27 342 127.15 343.37Z" />
		<path id="Path 14" class="shp5" d="M289.24 345.25C288.7 345.94 288.08 347.91 287.88 349.64C287.51 352.71 287.57 352.76 291 352.25C292.93 351.96 294.73 351.54 295 351.33C295.27 351.12 294.71 349.39 293.75 347.48C292.79 345.56 291.6 344 291.11 344C290.62 344 289.78 344.56 289.24 345.25Z" />
		<path id="Path 15" class="shp7" d="M388 349.59C382.77 350.95 376.93 352.47 375 352.97C371.9 353.78 371.36 354.43 370.23 358.69C369.53 361.34 369.08 363.55 369.23 363.61C369.38 363.66 375.35 362.31 382.5 360.6C395.21 357.56 395.54 357.41 397.25 354C398.21 352.07 399 349.71 399 348.75C399 347.79 398.66 347.03 398.25 347.06C397.84 347.1 393.23 348.24 388 349.59Z" />
		<path id="Path 16" class="shp5" d="M136.25 351.7C130.45 351.91 128.01 352.37 128.04 353.25C128.06 353.94 130.42 356.83 133.29 359.68L138.5 364.86C148.57 362.76 157.35 361.67 164.5 361.09C171.65 360.5 182.45 359.53 188.5 358.93C194.55 358.33 199.72 357.65 200 357.42C200.28 357.19 200.28 356.77 200 356.49C199.72 356.21 196.13 355.73 192 355.41C187.88 355.09 184.28 354.68 184 354.49C183.72 354.3 179.45 354.09 174.5 354.01C168.56 353.93 164.82 353.4 163.5 352.47C162.1 351.49 158.93 351.12 153 351.24C148.32 351.33 140.79 351.54 136.25 351.7ZM401.6 357.25C401.71 360.69 401.51 365.45 401.15 367.83C400.6 371.49 400.83 372.43 402.59 373.83C403.74 374.75 408.09 377.3 412.26 379.5L419.84 383.5C425.78 379.44 430.88 376.42 435 374.18C439.13 371.95 443.3 369.53 444.28 368.81C445.86 367.65 445.25 367.23 438.78 365.06C434.78 363.72 429.25 361.63 426.5 360.42C423.75 359.21 417.56 356.59 412.75 354.61C407.94 352.62 403.41 351 402.69 351C401.74 351 401.44 352.67 401.6 357.25Z" />
		<path id="Path 17" class="shp7" d="M309.32 353.25C308.9 353.94 307.76 356.07 306.8 358C305.83 359.93 305.14 361.59 305.27 361.69C305.4 361.8 309.77 362.13 315 362.43C320.23 362.73 327.43 363.24 331 363.57L337.5 364.16C341.04 356.67 341.94 354.37 341.79 354.22C341.63 354.06 338.13 353.52 334 353.01C329.88 352.5 322.81 352.07 318.3 352.04C312.78 352.01 309.85 352.41 309.32 353.25Z" />
		<path id="Path 18" class="shp5" d="M345.22 355.16C344.67 356.45 343.38 359.44 342.36 361.81C341.34 364.18 339.71 366.31 338.75 366.56C337.79 366.8 337 367.34 337 367.75C336.99 368.16 340.48 369.06 344.75 369.75C349.01 370.43 362.63 371.3 375 371.67L397.5 372.35C398.64 368.59 398.98 365.59 398.99 363.25L399 359C393.96 360.68 391.6 361.54 390.5 362.01C389.4 362.47 384.9 363.53 380.5 364.36C376.1 365.19 371.26 366.35 369.75 366.94C368.24 367.52 366.44 368 365.75 368.01C365.06 368.01 361.63 365.43 358.13 362.26C354.63 359.09 350.51 355.67 348.99 354.66C346.25 352.83 346.22 352.84 345.22 355.16ZM117.5 355.86C115.3 356.86 109.67 358.94 105 360.48C100.33 362.02 94.47 364.15 92 365.22C89.53 366.28 85.59 368.02 83.25 369.08C80.91 370.13 78.33 371 77.5 371C76.67 371 76.22 371.45 76.5 372C76.78 372.55 79.81 374.4 83.25 376.12C86.69 377.84 91.08 380.29 93 381.57C96.46 383.87 96.54 383.88 100 382.07C101.92 381.06 108.34 378.38 114.25 376.12C120.16 373.85 125 371.55 125 371C125 370.45 124.55 369.77 124 369.5C123.45 369.23 123 365.63 123 361.5C123 357.38 122.66 354.01 122.25 354.02C121.84 354.03 119.7 354.86 117.5 355.86ZM252.81 356.25C252.52 358.37 251.98 358.51 243.75 358.75C238.94 358.89 235 359.34 235.01 359.75C235.01 360.16 235.46 362.19 236.01 364.25C236.59 366.45 237.52 367.85 238.25 367.65C238.94 367.45 243.1 366.12 247.5 364.7C251.9 363.27 258.09 361.41 261.25 360.55C264.41 359.7 267.09 358.64 267.21 358.21C267.32 357.77 264.39 356.65 260.71 355.71C257.02 354.77 253.8 354 253.56 354C253.32 354 252.98 355.01 252.81 356.25Z" />
		<path id="Path 19" class="shp7" d="M290 355.62C288.07 356.44 285.6 358.25 284.5 359.65C282.65 362 282.25 362.1 279 361C275.9 359.95 274.01 360.24 262.5 363.49C255.35 365.51 247.18 367.91 244.34 368.83C241.5 369.75 238.74 370.95 238.2 371.5C237.57 372.15 237.87 374.41 239.09 378C240.12 381.02 241.31 383.88 241.73 384.34C242.15 384.79 246.1 384.43 250.5 383.52C254.9 382.61 259.96 381.22 261.75 380.43C263.54 379.64 265.79 378.99 266.75 378.99C267.71 378.98 273 377.63 278.5 375.99C284 374.35 290.64 372.56 293.25 372C295.86 371.45 298 370.55 298 370C298 369.45 299.01 368.99 300.25 368.99C301.49 368.98 303.97 368.42 305.76 367.74C307.56 367.06 309.02 366.16 309.01 365.75C309.01 365.34 307.43 365.23 305.5 365.5C302.08 365.99 301.94 365.87 299.25 360.25C297.74 357.09 295.82 354.42 295 354.32C294.18 354.22 291.93 354.81 290 355.62Z" />
		<path id="Path 20" class="shp6" d="M126.28 361.63C126.1 366.14 126.45 366.92 131.04 372.25C133.77 375.41 136.34 377.81 136.75 377.58C137.16 377.35 137.3 374.76 137.07 371.83C136.7 367.31 136.09 365.97 133.02 363C131.04 361.07 128.75 358.88 127.94 358.13C126.66 356.93 126.44 357.38 126.28 361.63Z" />
		<path id="Path 21" class="shp5" d="M216.85 366.92C216.66 371.82 216.28 376.09 216 376.4C215.72 376.7 212.57 377.31 209 377.75C203.56 378.42 201.89 379.12 198.72 382.03C196.64 383.94 194.95 385.95 194.97 386.5C194.99 387.13 202.19 387.5 214.5 387.5C225.22 387.5 234.02 387.27 234.04 387C234.07 386.73 234.49 384.48 234.97 382C235.53 379.19 235.48 375.81 234.84 373C234.27 370.52 233.7 368.05 233.56 367.5C233.42 366.95 232.79 365.26 232.15 363.75C231.52 362.24 231 360.32 231 359.5C231 358.31 229.57 358 224.1 358L217.19 358L216.85 366.92Z" />
		<path id="Path 22" class="shp7" d="M190.5 361.58C184.45 362.33 176.13 363.19 172 363.49C167.88 363.78 160 364.53 154.5 365.14C149 365.75 143.49 366.65 142.25 367.13C140.19 367.93 140.02 368.56 140.25 374.75C140.49 381.26 140.59 381.49 143 381.35C144.38 381.26 147.97 380.93 151 380.61C154.03 380.29 160.78 379.36 166 378.56C171.22 377.75 180.22 376.8 186 376.46C191.78 376.12 200.3 375.31 204.94 374.67L213.39 373.5L213.5 360C204.2 360.17 196.55 360.83 190.5 361.58Z" />
		<path id="Path 23" class="shp5" d="M313 367.5C313 368.75 314.46 368.93 321.75 368.59C326.56 368.36 330.84 368.14 331.25 368.09C331.66 368.04 332 367.55 332 367C332 366.4 328.17 366 322.5 366C314.72 366 313 366.27 313 367.5ZM296.38 374.21C290.39 376.25 285.14 378.05 284.71 378.21C284.28 378.37 283.92 379.4 283.92 380.5C283.92 381.6 284.28 384.3 284.72 386.5L285.53 390.5C311.86 391.59 319.81 391.59 320.18 391.21C320.56 390.82 321.01 386.23 321.18 381L321.5 371.5C308.04 370.56 306.05 370.91 296.38 374.21Z" />
		<path id="Path 24" class="shp7" d="M442 373.4C439.52 374.71 433.81 378.04 429.31 380.79L421.11 385.79C420.62 395.67 420.89 397.94 421.5 397.77C422.05 397.62 428.01 394.46 434.75 390.75C446.46 384.3 447 383.86 447.06 380.75C447.1 378.96 447.24 376.04 447.38 374.25C447.52 372.46 447.38 371 447.07 371C446.76 371 444.48 372.08 442 373.4Z" />
		<path id="Path 25" class="shp6" d="M325.43 372.95C325.21 373.25 326.63 375.3 328.57 377.5C330.51 379.7 332.53 382.06 333.05 382.75C333.57 383.44 334 384.45 334 385C334 385.55 336.14 388.81 338.76 392.25C341.37 395.69 344.08 399.63 344.77 401C345.47 402.38 347.04 404.65 348.27 406.05C349.5 407.46 350.95 409.43 351.5 410.44C352.05 411.45 352.95 412.23 353.5 412.18C354.05 412.14 355.02 409.71 355.66 406.8C356.3 403.88 356.53 400.99 356.16 400.38C355.8 399.76 353.19 396.61 350.36 393.38C347.54 390.14 342.59 384.33 339.36 380.45C334.34 374.41 332.95 373.33 329.66 372.9C327.55 372.62 325.64 372.64 325.43 372.95Z" />
		<path id="Path 26" class="shp5" d="M339.13 373.88C339.06 374.5 340.44 376.91 342.2 379.25C343.97 381.59 348.11 386.65 351.41 390.5C354.72 394.35 357.44 397.63 357.46 397.79C357.48 397.95 362.45 397.38 368.5 396.54C374.55 395.69 382.76 394.21 386.74 393.25C392.37 391.89 393.71 391.24 392.74 390.33C392.06 389.68 389.48 388.07 387 386.73C384.52 385.4 380.93 383.45 379 382.41C377.07 381.36 375.39 380.16 375.25 379.75C375.11 379.34 372.86 378.08 370.25 376.95C367.56 375.78 362.47 374.71 358.5 374.47C354.65 374.24 348.75 373.76 345.38 373.41C341.19 372.97 339.22 373.12 339.13 373.88Z" />
		<path id="Path 27" class="shp6" d="M73.58 379.34C73.14 383.32 73.41 385.04 74.76 386.88C75.72 388.19 80.33 391.66 85 394.59C89.67 397.53 93.84 399.94 94.25 399.96C94.66 399.98 95 396.96 95 393.25C95.01 387.89 94.64 386.28 93.25 385.42C92.29 384.82 87.6 382.05 82.82 379.26L74.15 374.19L73.58 379.34Z" />
		<path id="Path 28" class="shp7" d="M125 374.97C123.63 375.41 118 377.64 112.5 379.92C107 382.2 101.49 384.72 100.25 385.53C98.3 386.81 98 387.86 98 393.5L98 400C103.81 396.88 106.17 395.56 107 395.07C107.83 394.57 112.55 392.15 117.5 389.7C122.45 387.24 128.07 384.39 130 383.36C131.93 382.34 133.61 381.39 133.75 381.25C133.89 381.11 132.76 379.43 131.25 377.5C129.74 375.58 128.28 374.04 128 374.09C127.72 374.13 126.38 374.53 125 374.97Z" />
		<path id="Path 29" class="shp6" d="M377 375.25C377 375.66 378.01 376.52 379.25 377.16C380.49 377.8 383.75 380.01 386.5 382.07C389.25 384.12 397.13 388.76 404 392.38C410.88 396 416.84 398.97 417.25 398.98C417.66 398.99 417.89 395.96 417.75 392.25L417.5 385.5L398.5 375.15C381.84 374.65 377 374.84 377 375.25Z" />
		<path id="Path 30" class="shp7" d="M184.22 380.64C183.27 381.35 182.28 381.71 182 381.44C181.72 381.17 180.71 382.09 179.75 383.47C178.79 384.86 177.21 386.83 176.25 387.85C175.29 388.87 173.76 390.55 172.86 391.6C171.96 392.64 169.12 395.52 166.55 398C162.14 402.25 161.91 402.72 162.51 406.5C162.86 408.7 163.34 411.29 163.57 412.25C163.81 413.21 164.45 414 165 414C165.55 414 166.79 412.83 167.75 411.4C168.71 409.96 172.61 405.35 176.41 401.15C180.21 396.94 184.31 391.93 185.53 390C186.75 388.07 188.71 385.6 189.9 384.5C191.09 383.4 191.96 381.99 191.83 381.36C191.7 380.74 190.32 380.03 188.76 379.78C187.21 379.54 185.16 379.92 184.22 380.64Z" />
		<path id="Path 31" class="shp5" d="M158.5 383.07C153 384.06 146.14 384.9 143.25 384.94C138.5 384.99 137.67 385.36 134.54 388.75C132.63 390.81 131.28 392.84 131.54 393.25C131.79 393.66 132.9 394 134 394C135.1 394 140.16 395.09 145.25 396.43C150.34 397.77 155.74 399.35 157.25 399.93C159.83 400.93 160.33 400.64 165.34 395.25C168.28 392.09 172.09 387.93 173.8 386C175.51 384.07 176.94 382.16 176.96 381.75C176.98 381.34 175.09 381.06 172.75 381.14C170.41 381.21 164 382.08 158.5 383.07ZM270 382.53C266.98 383.26 260.68 384.86 256 386.08C251.32 387.3 246.92 388.79 246.21 389.4C245.31 390.16 244.92 393.37 244.96 399.75C245 408.04 245.18 408.96 246.75 408.58C247.71 408.35 253.68 406.57 260 404.63C266.32 402.69 273.7 400.52 276.38 399.8C279.06 399.09 281.42 398.16 281.63 397.75C281.83 397.34 281.42 393.4 280.72 389C279.61 382.07 279.18 381.01 277.47 381.1C276.39 381.16 273.02 381.8 270 382.53ZM323.59 387.25C323.19 390.45 323.35 392.89 323.99 393.5C324.71 394.19 325.03 392.57 325.02 388.25C325.01 384.81 324.83 382 324.61 382C324.4 382 323.94 384.36 323.59 387.25ZM236.65 385.26C236.31 386.49 236.02 389.19 236.01 391.25C236.01 393.31 236.34 395.01 236.75 395.02C237.16 395.04 237.84 393.57 238.26 391.77C238.68 389.97 239.06 387.51 239.11 386.31C239.16 385.1 238.77 383.87 238.24 383.57C237.71 383.27 236.99 384.03 236.65 385.26Z" />
		<path id="Path 32" class="shp6" d="M197.75 390.67L194 391L194 403C216.86 403.01 225.89 403.35 228.82 403.76L234.13 404.5L233.5 391.53C227.3 390.43 220.1 390.16 213.5 390.23C206.9 390.29 199.81 390.49 197.75 390.67Z" />
		<path id="Path 33" class="shp7" d="M287.61 393.94C287.27 394.52 287.25 396.91 287.56 399.25C287.87 401.59 288.43 404.06 288.81 404.75C289.33 405.69 293.41 405.94 305 405.75L320.5 405.5L321 394C315.96 394.25 308.59 394 301.36 393.61C292.45 393.12 288.02 393.23 287.61 393.94ZM381.92 396.71C375.64 397.92 368.03 399.5 365 400.21L359.5 401.5L357.5 414.13C363.7 413.17 369.55 412.24 374.5 411.44C379.45 410.65 385.36 409.66 387.63 409.25C389.91 408.84 392.03 408.27 392.36 408C392.69 407.73 393.32 404.81 393.75 401.53C394.19 398.25 394.28 395.33 393.95 395.03C393.62 394.74 388.21 395.49 381.92 396.71Z" />
		<path id="Path 34" class="shp6" d="M128.02 398.75C128.03 400.26 128.59 403.16 129.27 405.2C130.38 408.54 131.03 409.04 136 410.39C139.03 411.2 146 413.05 151.5 414.49C157 415.93 161.72 416.86 162 416.56C162.28 416.26 161.96 414.77 161.29 413.26C160.63 411.74 159.82 408.93 159.51 407C158.98 403.74 158.55 403.39 153.22 401.82C150.07 400.9 144.13 399.22 140 398.09C135.88 396.96 131.49 396.03 130.25 396.02C128.45 396 128 396.55 128.02 398.75Z" />
		<path id="Path 35" class="shp7" d="M273.84 403.59C269.25 404.81 261.23 407.25 256 409.01C250.78 410.77 246.16 412.39 245.75 412.61C245.34 412.82 245.84 414.91 246.87 417.25C247.89 419.59 249.02 422.29 249.37 423.25C249.96 424.88 250.62 424.83 259.25 422.45C264.34 421.05 272.1 418.8 276.5 417.45C280.9 416.09 285.04 414.65 285.7 414.24C286.59 413.69 286.3 411.95 284.54 407.43L282.18 401.37L273.84 403.59Z" />
	</g>
	<g id="Layer 4">
		<path id="Path 0" class="shp1" d="M250.5 312.18C248.3 313.98 246.28 315.69 246 315.99C245.72 316.3 244.26 317.32 242.75 318.27C240.28 319.82 239.87 319.84 238.75 318.46C238.06 317.61 236.15 316.93 234.5 316.96C232.85 316.99 227.22 318.34 222 319.96C216.78 321.58 205.3 325 196.5 327.57C187.7 330.13 180.07 332.63 179.55 333.11C179.03 333.6 177.68 333.99 176.55 333.98C175.42 333.96 172.7 334.68 170.5 335.58C168.3 336.47 165.7 337.94 164.72 338.85C163.74 339.76 162.96 341.4 163 342.5C163.04 343.91 161.21 345.62 156.78 348.31C153.33 350.4 149.38 352.94 148 353.95C146.63 354.96 141.9 358.41 137.5 361.62C133.1 364.83 128.04 368.48 126.25 369.73C124.46 370.98 122.1 372.9 121 374C119.9 375.1 119 376.56 118.99 377.25C118.98 377.94 116.4 379.68 113.24 381.12C110.08 382.56 102.55 385.65 96.5 387.98C90.45 390.31 84.71 392.62 83.75 393.11C82.79 393.6 81.55 394 81 394C80.45 394 78.54 394.63 76.75 395.39C74.96 396.16 72.71 397.06 71.75 397.39C70.22 397.92 70.03 399.22 70.25 407.57C70.43 414.56 70.9 417.51 72 418.51C72.83 419.26 76.88 421.76 81 424.07C85.13 426.38 89.85 428.95 91.5 429.79C93.15 430.63 95.74 432.14 97.25 433.16C98.76 434.17 101.13 435 102.5 435C103.88 435 107.59 433.5 110.75 431.66C113.91 429.82 117.4 428.03 118.5 427.67C119.6 427.32 120.95 427.01 121.5 426.98C122.05 426.96 122.6 427.74 122.72 428.72C122.85 429.7 123.15 432.07 123.4 434C123.65 435.93 123.89 438.51 123.93 439.75C123.97 440.99 124.79 442.41 125.75 442.92C126.71 443.43 128.85 444.1 130.5 444.42C132.15 444.74 135.75 445.28 138.5 445.62C141.25 445.96 143.72 446.38 144 446.56C144.28 446.74 147.43 447.2 151 447.57C154.57 447.94 159.07 448.84 161 449.55C164.21 450.75 164.81 450.66 168.25 448.43C170.31 447.09 172.22 445.1 172.5 444C172.78 442.9 173.45 442 174 442C174.55 442 175.31 441.21 175.69 440.25C176.08 439.29 177.97 436.25 179.91 433.5C181.85 430.75 183.7 428.27 184.02 428C184.34 427.73 186.15 425.38 188.05 422.78C189.95 420.18 191.72 418.22 192 418.42C192.28 418.62 192.82 421.19 193.2 424.14C193.59 427.09 195.03 432.2 196.4 435.5L198.9 441.5L229.87 441.5C230.89 447.39 231.8 448.36 235.25 449.91C237.59 450.96 245.24 453.44 252.25 455.41C259.26 457.38 265.68 459 266.5 459C267.32 459 268.17 459.56 268.37 460.25C268.66 461.21 269.37 461.16 271.48 460C273.32 458.99 275.03 456.52 276.67 452.5C278.75 447.42 279.12 444.92 279.06 436.25C279.03 430.61 279.34 425.99 279.75 425.98C280.16 425.96 281.06 427.65 281.73 429.73C282.41 431.8 282.97 434.51 282.98 435.75C282.99 436.99 283.56 438.29 284.25 438.65C284.94 439.01 295.18 439.24 307 439.15C326.27 439.02 328.63 438.83 329.71 437.25C330.45 436.18 330.74 433.47 330.46 430.25C330.2 427.27 330.43 424.78 331 424.5C331.55 424.23 332.56 424.62 333.25 425.38C333.94 426.13 337.43 430.01 341 434C344.57 437.99 348.18 442.3 349 443.58C349.82 444.86 351.4 446.53 352.5 447.3C353.6 448.06 354.84 449.89 355.25 451.35C355.8 453.3 356.46 453.84 357.75 453.4C358.71 453.07 362.2 452.11 365.5 451.27C368.8 450.43 371.95 449.38 372.5 448.93C373.05 448.48 375.98 447.83 379 447.5C382.02 447.16 385.4 446.49 386.5 446.02C387.6 445.54 389.63 444.92 391 444.64C392.84 444.27 393.81 443.12 394.68 440.31C395.33 438.22 396.17 434.48 396.54 432C396.92 429.52 396.95 426.49 396.61 425.25C396.27 424.01 395.32 423 394.5 423C393.68 423 393.01 422.21 393.02 421.25C393.03 419.75 393.17 419.72 394 421C394.53 421.82 394.98 422.05 395 421.5C395.02 420.91 395.33 420.95 395.77 421.59C396.17 422.2 401.68 425.28 408 428.44C414.32 431.61 419.95 434.61 420.5 435.12C421.05 435.62 422.74 436.03 424.25 436.02C425.76 436.01 430.94 433.69 435.75 430.87C440.56 428.05 445.73 424.56 447.24 423.12C448.75 421.68 450.29 419.38 450.66 418C451.03 416.63 451.22 414.38 451.1 413C450.97 411.63 450.74 409.15 450.58 407.5C450.43 405.85 450.23 403.71 450.15 402.75C450.05 401.57 448.62 400.66 445.75 399.96C443.41 399.39 440.6 398.53 439.5 398.06C438.4 397.59 433.68 395.62 429 393.68C424.32 391.74 419.15 389.82 417.5 389.41C415.85 389 411.46 387.39 407.75 385.83C404.04 384.28 400.76 383.34 400.47 383.75C400.18 384.16 399.96 383.94 399.97 383.25C399.99 382.56 399.21 382.01 398.25 382.02C396.72 382.03 396.6 381.44 397.28 377.27C397.92 373.39 397.73 372.09 396.28 370.29C395.3 369.08 394.05 368.07 393.5 368.05C392.95 368.04 390.48 365.96 388 363.43C385.52 360.91 382.38 358.25 381 357.53C379.21 356.6 377.07 356.46 373.5 357.05C370.75 357.51 367.94 357.91 367.25 357.94C366.56 357.97 366.01 356.99 366.02 355.75C366.03 354.51 365.46 352.77 364.77 351.89C364.07 351 361.02 349.53 358 348.61C354.98 347.69 349.91 345.95 346.74 344.72C342.38 343.04 340.99 342.02 341.01 340.5C341.02 339.4 340.46 337.75 339.77 336.82C338.78 335.51 335.56 334.91 325 334.04C317.57 333.43 307 332.22 301.5 331.35C295.68 330.43 291.49 329.29 291.47 328.63C291.46 328.01 290.91 325.02 290.26 322C289.41 318.06 288.35 316 286.53 314.75C285.14 313.79 280.06 312.29 275.25 311.41C270.44 310.54 263.8 309.63 260.5 309.38C254.9 308.96 254.23 309.14 250.5 312.18Z" />
		<path id="Path 1" class="shp5" d="M246.5 319.6C242.1 323.15 236.7 327.23 234.5 328.68C232.3 330.12 226.55 334.27 221.72 337.9C216.89 341.53 212.95 344.84 212.97 345.25C212.99 345.66 214.57 346 216.5 346C218.43 346 222.14 346.43 224.75 346.95C227.36 347.47 233.23 348.7 237.78 349.7C245.2 351.31 246.31 351.34 248.44 350C249.75 349.18 258.07 341.52 266.92 333C275.78 324.48 282.68 317.21 282.26 316.86C281.84 316.51 277.9 315.5 273.5 314.62C269.1 313.74 263.02 313.05 260 313.09C254.77 313.15 254.11 313.47 246.5 319.6ZM223.5 323.15C218.55 324.78 208.88 327.66 202 329.55C195.13 331.44 184.55 334.68 178.5 336.74L167.5 340.5C165.95 348.57 165.72 351.13 166 351.39C166.28 351.66 170.55 350.76 175.5 349.41C180.45 348.05 187.43 346.09 191 345.05C194.57 344.01 201.55 341.76 206.5 340.04C211.45 338.33 216.24 336.83 217.15 336.71C218.06 336.6 220.68 335.15 222.98 333.5C225.27 331.85 228.47 329.49 230.08 328.25C231.68 327.01 233.34 325.99 233.75 325.97C234.16 325.96 235.29 325.29 236.25 324.47C237.21 323.66 237.78 322.32 237.5 321.5C237.22 320.68 235.99 320.04 234.75 320.09C233.51 320.14 228.45 321.51 223.5 323.15Z" />
		<path id="Path 2" class="shp6" d="M268.14 336.85C258.7 346.01 250.98 354.06 250.99 354.75C251 355.44 251.79 357.58 252.75 359.52C253.71 361.46 254.72 363.05 255 363.07C255.28 363.08 256.67 361.61 258.11 359.8C259.55 357.98 265.17 351.98 270.61 346.46C276.05 340.95 282.17 334.65 284.21 332.46C287.6 328.85 287.86 328.16 287.21 324.63C286.82 322.51 286.23 320.64 285.9 320.48C285.57 320.32 277.58 327.69 268.14 336.85Z" />
		<path id="Path 3" class="shp5" d="M283.46 337.08C281.83 339.26 280.16 341.03 279.75 341.02C279.34 341.01 278.99 341.56 278.98 342.25C278.97 343.1 283.07 344.05 291.73 345.2C298.76 346.14 309.23 347.19 315 347.54L325.5 348.18C333.25 341.63 335.61 339.33 335.75 338.86C335.89 338.39 333.86 337.77 331.25 337.49C328.64 337.2 320.54 336.53 313.25 335.99C305.96 335.44 299.66 334.82 299.25 334.59C298.84 334.37 295.78 333.94 292.46 333.65L286.42 333.12L283.46 337.08Z" />
		<path id="Path 4" class="shp7" d="M202.5 344.19C199.75 345.28 192.32 347.51 186 349.14C179.68 350.76 172.93 352.83 171 353.72C169.07 354.62 167.36 355.39 167.19 355.43C167.02 355.47 167.7 358.24 168.69 361.58L170.5 367.66C193.75 359.59 201.18 357 202 356.7C202.82 356.4 204.85 355.75 206.5 355.24C209.3 354.38 209.5 354 209.5 349.41C209.5 346.71 209.84 343.94 210.25 343.25C210.74 342.43 210.4 342.04 209.25 342.1C208.29 342.16 205.25 343.1 202.5 344.19Z" />
		<path id="Path 5" class="shp6" d="M332 347.39C327.61 350.94 326.93 351.97 326.98 355C327.01 356.93 327.36 359.06 327.77 359.74C328.28 360.6 329.96 359.53 333.28 356.24C337.76 351.8 338.04 351.24 337.57 347.39L337.08 343.27L332 347.39Z" />
		<path id="Path 6" class="shp7" d="M272.01 351.14C269 353.98 266.65 356.68 266.77 357.15C266.9 357.62 268.46 358.41 270.25 358.91C272.04 359.41 277.1 360.08 281.5 360.4C285.9 360.72 292.88 361.63 297 362.41C301.13 363.2 308.1 364.36 312.5 364.99C316.9 365.61 321.29 366.32 322.25 366.56C323.8 366.95 324 366.14 324 359.5C324 353.24 323.71 351.9 322.25 351.42C321.29 351.1 314.43 350.42 307 349.9C299.57 349.37 290.57 348.53 287 348.02C283.43 347.51 279.82 346.84 278.98 346.53C278.04 346.18 275.41 347.91 272.01 351.14Z" />
		<path id="Path 7" class="shp5" d="M341.22 348.73C341.71 350.63 341.4 352.28 340.24 354C339.32 355.38 337.65 357.22 336.53 358.09C335.41 358.97 334.95 359.92 335.5 360.2C336.05 360.48 340.77 359.01 346 356.93C351.23 354.85 355.61 352.66 355.75 352.07C355.89 351.48 354.76 350.74 353.25 350.42C351.74 350.11 349.15 349.25 347.5 348.53C345.85 347.81 343.6 346.93 342.51 346.59C340.74 346.04 340.59 346.29 341.22 348.73ZM159.41 350.75C157.71 351.71 153.05 354.75 149.07 357.5C145.08 360.25 137.81 365.31 132.91 368.75C128.01 372.19 124 375.34 123.99 375.75C123.98 376.16 130.06 377.96 137.49 379.75L151 383L167.81 368.5C163.27 356.1 162.16 351.71 162.43 350.75C162.69 349.79 162.82 349 162.71 349C162.59 348.99 161.11 349.78 159.41 350.75Z" />
		<path id="Path 8" class="shp7" d="M213.71 353.5C214 356.25 214.53 358.76 214.87 359.07C215.22 359.38 218.88 360.21 223 360.91C227.13 361.61 234.78 362.76 240 363.46C245.22 364.17 249.64 364.69 249.8 364.63C249.97 364.56 249.29 362.17 248.3 359.31C246.89 355.26 245.95 354.02 244 353.63C242.63 353.36 239.03 352.43 236 351.57C232.97 350.71 226.6 349.67 221.84 349.25L213.17 348.5L213.71 353.5Z" />
		<path id="Path 9" class="shp6" d="M359 354.7C358.18 354.99 353 357.02 347.5 359.21C342 361.4 337.27 363.51 337 363.92C336.73 364.32 335.71 364.95 334.75 365.32C333.41 365.84 333 367.16 333 371C333 373.75 333.45 376 334 376C334.55 376 337.59 374.9 340.75 373.56C343.91 372.21 349.65 369.9 353.5 368.42C357.35 366.94 361.1 365.23 361.83 364.62C362.67 363.91 363.03 361.88 362.83 359.08C362.65 356.65 362.05 354.55 361.5 354.41C360.95 354.28 359.82 354.41 359 354.7Z" />
		<path id="Path 10" class="shp5" d="M259.94 363.02C258.05 364.69 256.05 366.2 255.5 366.39C254.95 366.57 254.72 367.03 255 367.4C255.28 367.78 258.38 367.28 261.91 366.29C265.43 365.31 268.48 364.05 268.69 363.5C268.9 362.95 267.92 361.94 266.53 361.25C265.14 360.56 263.86 360 263.69 360C263.52 360 261.83 361.36 259.94 363.02ZM370 360.73C368.63 360.98 366.92 361.71 366.21 362.35C365.49 362.98 364.93 364.29 364.96 365.25C364.98 366.37 363.73 367.45 361.49 368.25C358.31 369.38 357.97 369.86 357.99 373.25C357.99 375.57 358.48 377 359.25 377.01C359.94 377.02 362.75 376.38 365.5 375.6C368.25 374.82 375 373.39 380.5 372.42L390.5 370.66C380.39 360.93 378.93 360.09 376 360.17C374.07 360.23 371.38 360.48 370 360.73ZM198.5 363.99C196.85 365.75 192.57 369.47 189 372.27C185.43 375.07 181.72 378.29 180.77 379.43C179.82 380.57 179.03 382.06 179.02 382.75C179.01 383.44 179.45 383.77 180 383.5C180.55 383.23 182.91 382.75 185.25 382.44C187.59 382.13 194.14 381.56 199.81 381.19L210.11 380.5C213.33 374.3 214.65 371.82 215.12 371C215.59 370.18 216.66 368.26 217.49 366.75C218.99 364.01 218.98 363.99 215.25 362.96C213.19 362.38 209.25 361.66 206.5 361.36C201.85 360.84 201.29 361.02 198.5 363.99ZM275.43 364.56C274.91 364.88 274.95 365.98 275.52 367.17C276.33 368.87 277.11 369.13 280 368.63C281.93 368.29 286.31 368.02 289.75 368.01C293.19 368 296.01 367.66 296.01 367.25C296.02 366.84 292.53 365.93 288.26 365.24C283.99 364.55 279.56 363.99 278.42 363.99C277.27 364 275.93 364.25 275.43 364.56Z" />
		<path id="Path 11" class="shp6" d="M179.22 368.33C174.11 370.07 169.61 371.95 169.22 372.5C168.82 373.05 166.93 374.31 165 375.3C163.07 376.29 159.52 378.76 157.1 380.8L152.71 384.5C155.65 392.66 156.72 395.02 157 395C157.28 394.99 159.28 393.52 161.46 391.74C163.64 389.96 168.16 386.02 171.5 383C174.84 379.98 179.52 375.93 181.91 374C184.3 372.07 187.66 369.28 189.38 367.78C192.05 365.45 192.21 365.07 190.5 365.11C189.4 365.13 184.32 366.58 179.22 368.33ZM221.87 367.25C221.22 368.49 219.13 372.43 217.24 376L213.79 382.5C217.05 389.09 218.34 391.01 218.75 391.03C219.16 391.04 221.19 387.22 223.25 382.53C225.31 377.84 226.99 372.99 226.98 371.75C226.97 370.51 227.47 369.05 228.09 368.5C228.71 367.95 228.94 366.94 228.61 366.25C228.27 365.56 226.89 365 225.53 365C223.98 365 222.61 365.84 221.87 367.25Z" />
		<path id="Path 12" class="shp5" d="M233.23 369.39C233.38 371.26 233.72 373.08 234 373.44C234.28 373.79 236.3 373.38 238.5 372.52C240.7 371.66 243.29 370.96 244.25 370.98C245.21 370.99 247.24 370.5 248.75 369.9C251.3 368.87 251.35 368.74 249.5 368.04C248.4 367.63 244.23 367 240.23 366.64L232.96 365.98L233.23 369.39Z" />
		<path id="Path 13" class="shp7" d="M269 367.94C268.18 368.42 264.57 369.33 261 369.96C257.43 370.59 250.42 372.29 245.43 373.74C240.44 375.19 236.28 376.85 236.17 377.44C236.07 378.02 236.66 380.86 237.49 383.75C238.32 386.64 239.45 389.23 240 389.5C240.55 389.77 244.94 388.84 249.75 387.42C254.56 386 262.45 383.64 267.28 382.17C272.26 380.65 276.04 378.96 276.03 378.25C276.01 377.56 275.1 375.31 274 373.25C272.89 371.19 271.99 368.94 272 368.25C272 367.56 271.66 367.01 271.25 367.03C270.84 367.05 269.82 367.46 269 367.94Z" />
		<path id="Path 14" class="shp5" d="M326.85 368.63C325.77 369.91 324.28 370.12 319.5 369.66L313.5 369.09C324.35 374.38 327.84 375.94 328.25 375.96C328.66 375.98 329.11 374.16 329.25 371.91C329.39 369.66 329.21 367.64 328.85 367.42C328.49 367.2 327.59 367.74 326.85 368.63Z" />
		<path id="Path 15" class="shp7" d="M286.25 370.71L277 371C277.9 375.26 278.39 377.63 278.67 379C279.08 380.97 278.64 381.76 276.59 382.75C275.17 383.44 273.32 384 272.5 384C271.68 384 271 384.68 271 385.5C271 386.32 271.79 387.3 272.75 387.66C273.71 388.02 281.93 387.8 291 387.16C300.07 386.52 315.38 385.54 325 384.98C334.63 384.42 345.31 383.75 348.75 383.48L355 383C355 374.48 354.64 372 354.2 372C353.76 372 352.97 372.37 352.45 372.83C351.93 373.28 349.48 374.22 347 374.92C344.52 375.61 340.02 377.32 337 378.7L331.5 381.22C322.2 377.1 318.6 375.39 317.5 374.76C316.4 374.13 313.81 372.81 311.75 371.81C309.15 370.55 306.09 370.06 301.75 370.21C298.31 370.32 291.34 370.55 286.25 370.71ZM387.92 374.42C387.69 374.65 384.57 375.12 381 375.47C377.43 375.81 373.94 376.52 373.25 377.05C372.56 377.57 371.32 377.77 370.5 377.5C369.68 377.23 368.78 377.68 368.5 378.5C368.07 379.78 369.83 380 380.5 380C390.72 380 393.09 379.73 393.5 378.5C393.77 377.68 394 376.32 394 375.5C394 374.52 393.02 374 391.17 374C389.61 374 388.15 374.19 387.92 374.42Z" />
		<path id="Path 16" class="shp5" d="M227.24 379.48C226.28 381.39 225.72 383.12 226 383.33C226.28 383.54 228.07 383.96 230 384.25C233.43 384.76 233.49 384.71 233.12 381.64C232.92 379.91 232.24 377.92 231.62 377.21C231.01 376.49 230.16 375.93 229.74 375.96C229.32 375.98 228.19 377.56 227.24 379.48Z" />
		<path id="Path 17" class="shp7" d="M122.03 380.73C122.01 381.7 122.79 384.07 123.75 386C125.46 389.41 125.79 389.56 138.5 392.6C145.65 394.31 151.62 395.66 151.77 395.61C151.92 395.55 151.47 393.34 150.77 390.69C149.64 386.42 149.11 385.78 146 384.99C144.07 384.5 139.13 383.23 135 382.17C130.88 381.1 126.27 379.95 124.77 379.6C122.6 379.09 122.04 379.32 122.03 380.73Z" />
		<path id="Path 18" class="shp5" d="M107 387.08C101.78 389.27 95.7 391.87 93.5 392.85C91.3 393.84 86.22 395.73 82.22 397.07C75.75 399.23 75.14 399.65 76.72 400.81C77.7 401.53 81.88 403.95 86 406.18C90.13 408.42 95.22 411.44 97.33 412.88L101.16 415.5C112.91 409.3 117.26 406.75 118.41 405.83C120.17 404.43 120.4 403.49 119.85 399.83C119.49 397.45 119.27 392.69 119.36 389.25C119.48 384.26 119.21 383.01 118.01 383.05C117.18 383.07 112.22 384.89 107 387.08ZM357.5 384.47C356.18 385.4 352.44 385.93 346.5 386.01C341.55 386.09 337.27 386.3 337 386.49C336.73 386.68 333.13 387.09 329 387.41C324.88 387.73 321.27 388.21 321 388.49C320.73 388.77 320.73 389.19 321 389.42C321.27 389.65 326.45 390.33 332.5 390.93C338.55 391.53 349.35 392.5 356.5 393.09C363.65 393.67 372.43 394.76 376 395.5L382.5 396.86C390.58 388.83 392.94 386.05 392.97 385.5C392.99 384.92 387.81 384.18 380.76 383.75C374.01 383.33 366.48 383.01 364 383.03C361.52 383.05 358.6 383.7 357.5 384.47Z" />
		<path id="Path 19" class="shp7" d="M186.35 384.87C182.97 385.22 179.91 385.73 179.56 386C179.22 386.27 179.96 388.67 181.21 391.33L183.5 396.16C193.57 395.24 200.78 394.73 206 394.43C211.22 394.13 215.61 393.8 215.75 393.69C215.88 393.59 214.95 391.48 213.67 389L211.34 384.5C196.74 384.3 189.73 384.52 186.35 384.87Z" />
		<path id="Path 20" class="shp5" d="M170.45 387.9C168.28 389.53 164.25 392.91 161.5 395.43C158.75 397.94 155.94 400 155.25 400C154.56 400 152.76 399.52 151.25 398.94C149.74 398.35 144.9 397.19 140.5 396.36C136.1 395.53 131.6 394.47 130.5 394.01C129.4 393.54 127.04 392.68 125.25 392.08L122 391C122.02 397.59 122.36 400.59 122.76 401.92L123.5 404.35C158.38 403.3 171.99 402.43 176.25 401.75C180.52 401.06 184.01 400.16 184 399.75C184 399.34 183.21 398.8 182.25 398.55C181.25 398.3 179.47 395.61 178.09 392.3C176.77 389.11 175.4 386.15 175.05 385.73C174.7 385.3 172.63 386.28 170.45 387.9Z" />
		<path id="Path 21" class="shp7" d="M224.19 387.25C223.62 387.94 222.22 390.64 221.08 393.25C219.08 397.82 218.87 397.98 215.5 397.5C213.57 397.23 211.99 397.34 211.99 397.75C211.98 398.16 213.44 399.06 215.24 399.74C217.03 400.42 219.51 400.98 220.75 400.99C221.99 400.99 223 401.45 223 402C223 402.55 225.14 403.45 227.75 404C230.36 404.56 237 406.35 242.5 407.99C248 409.63 253.29 410.98 254.25 410.99C255.21 410.99 257.46 411.64 259.25 412.43C261.04 413.22 266.1 414.61 270.5 415.52C274.9 416.43 278.85 416.79 279.27 416.34C279.69 415.88 280.88 413.02 281.91 410C283.13 406.41 283.43 404.15 282.8 403.5C282.26 402.95 279.5 401.75 276.66 400.83C273.82 399.91 265.65 397.51 258.5 395.49C246.99 392.24 245.1 391.95 242 393C238.76 394.1 238.35 394 236.5 391.66C235.4 390.27 232.7 388.41 230.5 387.54C228.3 386.67 226.21 385.96 225.86 385.98C225.51 385.99 224.76 386.56 224.19 387.25Z" />
		<path id="Path 22" class="shp5" d="M259.53 387.79C256.25 388.67 253.66 389.76 253.78 390.2C253.9 390.64 256.59 391.7 259.75 392.55C262.91 393.41 269.1 395.27 273.5 396.7C277.9 398.12 282.06 399.45 282.75 399.65C283.48 399.85 284.41 398.45 284.99 396.25C285.54 394.19 285.99 392.16 285.99 391.75C286 391.34 282.06 390.89 277.25 390.75C268.95 390.51 268.49 390.38 268.39 388.25C268.33 387 267.66 386.04 266.89 386.1C266.12 386.15 262.81 386.91 259.53 387.79ZM398 393.5C398 397.63 397.55 401.23 397 401.5C396.45 401.77 396 402.45 396 403C396 403.55 400.84 405.85 406.75 408.12C412.66 410.38 419.07 413.06 421 414.07C424.46 415.88 424.54 415.87 428 413.57C429.93 412.29 434.31 409.84 437.75 408.12C441.19 406.4 444.23 404.55 444.5 404C444.77 403.45 444.32 403 443.5 403C442.68 403 440.09 402.13 437.75 401.08C435.41 400.02 431.48 398.28 429 397.22C426.52 396.15 421.35 394.26 417.5 393.01C413.65 391.76 407.91 389.67 404.75 388.37C401.59 387.07 398.77 386 398.5 386C398.23 386 398 389.38 398 393.5Z" />
		<path id="Path 23" class="shp6" d="M389.42 393.55C384.78 398.07 384.3 398.96 383.92 403.83C383.69 406.76 383.84 409.35 384.25 409.58C384.66 409.81 387.25 407.3 390 404C394.61 398.47 394.98 397.63 394.75 393.3L394.5 388.6L389.42 393.55Z" />
		<path id="Path 24" class="shp5" d="M290 391.5C290 392.32 289.48 394.24 288.85 395.75C288.21 397.26 287.58 398.95 287.44 399.5C287.3 400.05 286.73 402.52 286.16 405C285.52 407.81 285.47 411.19 286.03 414C286.51 416.48 286.93 418.73 286.96 419C286.98 419.27 295.78 419.5 306.5 419.5C318.81 419.5 326.01 419.13 326.03 418.5C326.05 417.95 324.36 415.94 322.28 414.03C319.11 411.12 317.44 410.42 312 409.75C308.43 409.31 305.27 408.7 305 408.4C304.73 408.09 304.46 403.82 304.42 398.92L304.33 390C291.46 390 290 390.31 290 391.5Z" />
		<path id="Path 25" class="shp7" d="M307.54 398.75L307.61 405.5C320.7 407.31 329.23 408.12 335 408.46C340.77 408.8 349.77 409.75 355 410.56C360.23 411.36 366.98 412.29 370 412.61C373.02 412.93 376.63 413.26 378 413.35C380.41 413.49 380.51 413.26 380.75 406.75C380.98 400.56 380.81 399.93 378.75 399.12C377.51 398.64 371.77 397.73 366 397.1C360.23 396.48 352.57 395.76 349 395.51C345.43 395.26 336.65 394.37 329.5 393.53C322.35 392.69 314.47 392 311.98 392L307.46 392L307.54 398.75Z" />
		<path id="Path 26" class="shp5" d="M189 399C189 399.55 189.34 400.04 189.75 400.09C190.16 400.14 194.44 400.36 199.25 400.59C206.54 400.93 208 400.75 208 399.5C208 398.27 206.28 398 198.5 398C192.83 398 189 398.4 189 399ZM206.5 403L199.5 403.5C199.99 418.23 200.44 422.82 200.82 423.21C201.19 423.59 209.14 423.59 218.49 423.21L235.47 422.5C236.72 416.3 237.06 413.6 237.04 412.5C237.02 411.4 236.89 410.43 236.75 410.34C236.61 410.25 231.32 408.45 225 406.34C214.8 402.93 212.71 402.56 206.5 403Z" />
		<path id="Path 27" class="shp7" d="M73.67 406.22C73.78 408.02 73.9 410.96 73.94 412.75C74 415.86 74.54 416.3 86.25 422.75C92.99 426.46 98.95 429.62 99.5 429.77C100.09 429.94 100.5 427.53 100.5 423.93L100.5 417.81C82.67 407.36 76.59 404.01 75.48 403.63C73.71 403.02 73.49 403.33 73.67 406.22Z" />
		<path id="Path 28" class="shp6" d="M191.26 404.79C188.67 405.06 186.81 406.55 181.9 412.31C178.53 416.27 173.46 422.14 170.64 425.38C167.81 428.61 165.2 431.76 164.84 432.38C164.47 432.99 164.7 435.88 165.34 438.8C165.98 441.71 166.95 444.14 167.5 444.18C168.05 444.23 168.95 443.45 169.5 442.44C170.05 441.43 171.5 439.46 172.73 438.05C173.96 436.65 175.53 434.38 176.23 433C176.92 431.63 179.63 427.69 182.24 424.25C184.86 420.81 187 417.55 187 417C187 416.45 187.43 415.44 187.95 414.75C188.47 414.06 190.5 411.59 192.45 409.25C194.4 406.91 195.66 404.88 195.25 404.73C194.84 404.58 193.04 404.6 191.26 404.79Z" />
		<path id="Path 29" class="shp5" d="M174.92 405.41C174.69 405.63 170.22 406.05 165 406.34C158.54 406.69 153.98 407.52 150.75 408.93C148.14 410.07 145.89 411.34 145.75 411.75C145.61 412.16 143.93 413.36 142 414.41C140.07 415.45 136.47 417.4 134 418.73C131.53 420.07 128.94 421.68 128.26 422.33C127.29 423.24 128.63 423.89 134.26 425.25C138.24 426.21 146.45 427.69 152.5 428.54C158.55 429.38 163.52 429.95 163.54 429.79C163.56 429.63 166.28 426.35 169.59 422.5C172.89 418.65 177.03 413.59 178.8 411.25C180.56 408.91 182 406.55 182 406C182 405.45 180.5 405 178.67 405C176.83 405 175.15 405.18 174.92 405.41Z" />
		<path id="Path 30" class="shp6" d="M132.5 406.74C122.56 407.06 122.44 407.09 113 412.29L103.5 417.52C103.11 427.97 103.34 430.99 103.75 430.98C104.16 430.97 110.13 428 117 424.38C123.88 420.76 131.75 416.12 134.5 414.07C137.25 412.01 140.51 409.8 141.75 409.16C142.99 408.52 144 407.55 144 407C144 406.45 143.66 406.09 143.25 406.21C142.84 406.33 138 406.57 132.5 406.74Z" />
		<path id="Path 31" class="shp7" d="M389.67 409.54C388.2 411.44 387.11 413.11 387.25 413.25C387.39 413.39 389.07 414.34 391 415.36C392.93 416.39 398.55 419.24 403.5 421.7C408.45 424.15 413.18 426.57 414 427.07C414.82 427.56 417.19 428.88 419.25 429.99L423 432C423 419.86 422.7 418.81 420.75 417.54C419.51 416.74 413.77 414.12 408 411.72C402.23 409.33 396.34 407.07 394.92 406.72C392.78 406.18 391.88 406.66 389.67 409.54Z" />
		<path id="Path 32" class="shp6" d="M436.06 412.39L425.97 418.5C425.99 428.96 426.34 431.98 426.75 431.96C427.16 431.94 431.32 429.53 436 426.59C440.68 423.66 445.3 420.19 446.27 418.88C447.76 416.88 447.89 415.69 447.1 411.39L446.15 406.29L436.06 412.39Z" />
		<path id="Path 33" class="shp7" d="M331.75 411.71C330.24 411.87 328.99 412.56 328.97 413.25C328.95 413.94 329.91 415.4 331.1 416.5C332.29 417.6 334.25 420.07 335.47 422C336.69 423.93 340.79 428.94 344.59 433.15C348.39 437.35 352.29 441.96 353.25 443.4C354.21 444.83 355.45 446 356 446C356.55 446 357.19 445.21 357.43 444.25C357.66 443.29 358.14 440.7 358.49 438.5C359.09 434.72 358.86 434.25 354.45 430C351.88 427.52 349.04 424.64 348.14 423.6C347.24 422.55 345.82 420.98 344.99 420.1C344.16 419.22 342.69 417.38 341.72 416C340.75 414.63 339.63 413.48 339.23 413.46C338.83 413.45 337.6 412.98 336.5 412.43C335.4 411.88 333.26 411.55 331.75 411.71Z" />
		<path id="Path 34" class="shp5" d="M240.7 421C239.77 425.4 239.17 429.34 239.37 429.75C239.58 430.16 241.94 431.09 244.62 431.8C247.3 432.52 254.68 434.69 261 436.63C267.32 438.57 273.29 440.35 274.25 440.58C275.82 440.96 276 440.04 276.04 431.75C276.08 425.37 275.69 422.16 274.79 421.4C274.08 420.79 269.68 419.3 265 418.08C260.32 416.87 253.8 415.24 250.5 414.47C247.2 413.7 244.03 413.05 243.45 413.04C242.87 413.02 241.64 416.6 240.7 421ZM344.04 413.75C344.06 414.16 345.49 416.07 347.2 418C348.91 419.93 352.72 424.09 355.66 427.25C360.67 432.64 361.17 432.93 363.75 431.93C365.26 431.35 370.66 429.77 375.75 428.43C380.84 427.09 385.9 426 387 426C388.1 426 389.21 425.66 389.46 425.25C389.72 424.84 388.37 422.81 386.46 420.75C383.4 417.43 382.45 417 378.25 416.99C375.64 416.99 368.21 416.09 361.75 414.99C355.29 413.9 348.65 413 347 413C345.35 413 344.02 413.34 344.04 413.75ZM196.1 420C196.01 424.6 196.28 426.21 197.04 425.5C197.78 424.81 197.83 422.79 197.18 419L196.24 413.5L196.1 420ZM282.47 416.5C282.06 417.6 282.01 420.41 282.36 422.75C282.71 425.09 283.45 427 284 427C284.55 427 284.97 425.09 284.93 422.75C284.89 420.41 284.49 417.6 284.04 416.5L283.21 414.5L282.47 416.5Z" />
		<path id="Path 35" class="shp6" d="M291 422.88L287.5 423.5L286.87 436.5C295.11 435.35 304.14 435.01 312.25 435.01L327 435L327.03 423.5C318.87 422.35 311.55 422.07 305.5 422.14C299.45 422.21 292.93 422.54 291 422.88Z" />
		<path id="Path 36" class="shp7" d="M215.65 425.72C215.49 425.88 211.89 426.12 207.64 426.26L199.91 426.5L200.5 437.5L232 438C233.03 433.74 233.37 430.93 233.41 429L233.5 425.5C219.88 425.44 215.8 425.56 215.65 425.72ZM126.35 426.95C126.21 427.25 126.53 430.2 127.07 433.5C127.6 436.8 128.31 439.73 128.64 440C128.97 440.27 131.09 440.84 133.37 441.25C135.64 441.66 141.55 442.65 146.5 443.44C151.45 444.24 157.3 445.17 159.5 445.51L163.5 446.13L161.5 433.5C152.97 431.51 145.13 429.91 138.56 428.66C131.99 427.41 126.5 426.64 126.35 426.95Z" />
		<path id="Path 37" class="shp6" d="M380.5 430.15C376.65 431.24 370.93 432.89 367.78 433.81C362.45 435.38 362.02 435.74 361.49 439C361.18 440.93 360.37 443.74 359.71 445.26C359.04 446.77 358.73 448.26 359 448.56C359.27 448.86 364 447.93 369.5 446.49C375 445.05 381.98 443.2 385 442.39C389.97 441.04 390.62 440.54 391.73 437.2C392.41 435.16 392.97 432.26 392.98 430.75C393 428.39 392.61 428.01 390.25 428.09C388.74 428.14 384.35 429.07 380.5 430.15Z" />
		<path id="Path 38" class="shp7" d="M236.43 438.39C235.57 441.2 234.67 444.06 234.43 444.75C234.17 445.5 235.71 446.6 238.25 447.49C240.59 448.32 247.9 450.52 254.5 452.39C261.1 454.27 267.53 455.96 268.79 456.15C270.75 456.45 271.45 455.65 273.54 450.75C274.9 447.59 275.66 444.82 275.25 444.61C274.84 444.39 270.23 442.78 265 441.02C259.77 439.26 251.56 436.8 246.75 435.55L238 433.28L236.43 438.39Z" />
	</g>
</svg>