<svg xmlns="http://www.w3.org/2000/svg" viewBox="0 0 520 600" width="520" height="600">
	<style>
		tspan { white-space:pre }
		.shp0 { fill: #808080 } 
		.shp1 { fill: #000000 } 
		.shp2 { fill: #c43918 } 
		.shp3 { fill: #b56850 } 
		.shp4 { fill: #b64b2d } 
		.shp5 { fill: #883f18 } 
		.shp6 { fill: #bd6435 } 
		.shp7 { fill: #943300 } 
	</style>
	<path id="Background" class="shp0" d="M260.16 -0.7L520.31 149.5L520.31 449.91L260.16 600.11L0 449.91L0 149.5L260.16 -0.7Z" />
	<g id="Layer 1">
		<path id="Path 0" class="shp1" d="M257.45 18.92C256.93 19.42 250.65 23.18 243.5 27.27C236.35 31.36 219.92 40.78 207 48.2C194.07 55.63 178.89 64.47 173.25 67.85C167.61 71.23 162.77 74 162.5 74C162.22 74 158.74 75.94 154.75 78.32C150.76 80.7 143 85.26 137.5 88.45C132 91.64 124.57 95.95 121 98.02C117.42 100.09 108.87 105.02 102 108.99C95.12 112.96 85.45 118.58 80.5 121.47C75.55 124.36 69.47 127.85 67 129.23C64.52 130.6 56.42 135.23 49 139.5C41.57 143.78 31.45 149.63 26.5 152.52C21.55 155.4 17.16 158.49 16.75 159.38C16.34 160.27 15.99 223.66 15.98 300.25C15.97 411.13 16.22 439.84 17.23 441.15C17.93 442.05 21.54 444.64 25.25 446.9C28.96 449.15 32.22 451 32.5 451C32.77 451 38.06 454.01 44.25 457.69C50.44 461.37 60 466.9 65.5 469.99C71 473.08 81.35 479 88.5 483.16C95.65 487.32 105.89 493.26 111.25 496.36C116.61 499.46 125.39 504.55 130.75 507.66C136.11 510.77 144.77 515.79 150 518.81C155.22 521.83 160.85 525.07 162.5 526C164.15 526.93 176.97 534.33 191 542.45C205.02 550.57 224.37 561.73 234 567.24C243.62 572.75 253.19 578.33 255.25 579.63C257.31 580.93 259.9 582 261 582C262.1 582 265.81 580.27 269.25 578.15C272.69 576.04 280.22 571.58 286 568.26C291.77 564.94 309.55 554.68 325.5 545.47C341.45 536.25 356.97 527.36 360 525.71C363.02 524.06 365.95 522.37 366.5 521.96C367.05 521.55 372 518.62 377.5 515.45C383 512.28 395.82 504.88 406 499C416.17 493.13 431.25 484.42 439.5 479.64C447.75 474.86 454.61 470.96 454.75 470.98C454.89 470.99 460.51 467.72 467.25 463.72C473.99 459.72 485.06 453.31 491.86 449.47C499.75 445.02 504.54 441.69 505.11 440.25C505.62 438.97 506.01 378.35 506.02 299.25C506.03 188.78 505.78 160.16 504.77 158.83C504.07 157.91 499 154.58 493.5 151.43C488 148.27 482.15 144.92 480.5 143.97C478.85 143.02 470.3 138.07 461.5 132.96C452.7 127.85 442.57 122.03 439 120.04C435.42 118.05 427.1 113.23 420.5 109.34C413.9 105.45 403.55 99.43 397.5 95.97C391.45 92.5 382.22 87.23 377 84.24C371.77 81.26 367.05 78.47 366.5 78.05C365.95 77.63 363.02 75.93 360 74.27C356.97 72.62 346.17 66.4 336 60.47C325.82 54.54 314.12 47.81 310 45.51C305.87 43.22 298.45 38.96 293.5 36.04C288.55 33.12 280.9 28.71 276.5 26.24C272.1 23.78 267.26 20.91 265.75 19.88C264.24 18.85 261.96 18 260.7 18C259.43 18 257.97 18.41 257.45 18.92Z" />
		<path id="Path 1" class="shp2" d="M244.92 32.25C236.44 37.2 219.15 47.22 206.5 54.51C193.85 61.81 176.52 71.82 168 76.75C159.47 81.69 140.57 92.6 126 101.01C111.42 109.42 88.25 122.81 74.5 130.75C60.75 138.7 43.09 148.87 35.26 153.35L21.02 161.5L21.02 438.5C43.09 451.15 60.75 461.32 74.5 469.26C88.25 477.2 111.42 490.58 126 498.99C140.57 507.4 156.77 516.75 162 519.76C167.22 522.78 189.05 535.38 210.5 547.76C231.95 560.15 251.97 571.75 255 573.56C260.3 576.72 260.61 576.78 263.5 575.26C265.15 574.4 279.32 566.29 295 557.25C310.67 548.2 329.12 537.53 336 533.54C342.87 529.55 362 518.5 378.5 508.98C395 499.47 417.95 486.21 429.5 479.53C441.05 472.84 458.6 462.72 468.5 457.04C478.4 451.35 489.65 444.85 493.5 442.59L500.5 438.48C501.04 188.4 500.85 162.28 499.8 161.34C499.08 160.7 492.65 156.83 485.5 152.73C478.35 148.64 462.15 139.32 449.5 132.02C436.85 124.72 420.87 115.5 414 111.53C407.12 107.56 385.3 94.94 365.5 83.5C345.7 72.05 324.77 59.98 319 56.68C313.22 53.38 299.05 45.19 287.5 38.48C275.95 31.77 265.11 25.59 263.42 24.76C260.36 23.26 260.24 23.3 244.92 32.25Z" />
	</g>
	<path id="Path 0" class="shp3" d="M250 63.95C244.77 67.1 228.8 76.44 214.5 84.69C200.2 92.94 172.52 108.93 153 120.21C133.47 131.5 102.44 149.38 84.02 159.96L50.55 179.18L50.95 421.5C72.3 433.82 98.3 448.83 122.5 462.79C146.7 476.76 170.55 490.56 175.5 493.47C180.45 496.37 196.65 505.73 211.5 514.26C226.35 522.79 243.22 532.52 249 535.89C254.77 539.25 260.17 541.99 261 541.98C261.82 541.97 277.35 533.35 295.5 522.83C313.65 512.32 341.55 496.18 357.5 486.97C373.45 477.76 399.55 462.7 415.5 453.5C431.45 444.3 450.46 433.33 457.74 429.13L470.97 421.5L471.09 179.5C421.81 150.9 389.27 132.07 367 119.2C344.72 106.33 322.45 93.44 317.5 90.55C312.55 87.66 300.17 80.54 290 74.72C279.82 68.91 269.25 62.75 266.5 61.04C263.75 59.33 261.05 57.99 260.5 58.07C259.95 58.14 255.22 60.79 250 63.95Z" />
	<path id="Path 0" class="shp4" d="M246 65.8C238.57 70.09 212.02 85.45 187 99.92C161.97 114.4 138.46 127.99 134.75 130.12L128 134C131.76 139.81 135.89 148.7 139.62 157.5C146.33 173.39 146.39 173.58 146.98 185C147.32 191.67 148.15 197.55 148.93 199C149.68 200.37 151.57 203.19 153.14 205.25C155.15 207.89 157.63 209.59 161.5 211C164.52 212.1 171.16 213.47 176.25 214.05C181.34 214.63 188.2 215.57 191.5 216.14C194.8 216.7 200.62 218.82 204.43 220.83C208.24 222.85 217.92 229.78 225.93 236.22C233.94 242.67 245 250.62 250.5 253.89C256 257.16 270.4 264.92 282.5 271.14C297.63 278.93 308.25 285.17 316.5 291.16C327.42 299.09 328.84 299.83 332.25 299.43C335.74 299.03 336.14 299.26 337.95 302.75C339.02 304.81 342.88 308.97 346.53 312C350.18 315.02 356.39 321.77 360.32 327C364.26 332.22 370.36 341.45 373.89 347.5C377.41 353.55 382 362.1 384.07 366.5C386.15 370.9 389.84 380.57 392.28 388C394.72 395.42 399.08 407.12 401.97 414C404.86 420.87 409.61 431.22 412.53 437C415.45 442.77 418.43 448.35 419.17 449.38C420.42 451.16 421.94 450.43 445.5 436.84L470.5 422.41L470.5 178.68C348.7 108.02 301.9 80.88 287.92 72.78C273.94 64.68 261.82 58.04 261 58.02C260.17 58.01 253.42 61.51 246 65.8Z" />
	<path id="Path 0" fill-rule="evenodd" class="shp1" d="M260.75 58.08C261.44 58.04 268.41 61.76 276.25 66.37C284.09 70.97 322 92.96 360.5 115.25C399 137.53 439.63 161.11 471.08 179.5L471 422L453.75 431.86C444.26 437.29 402.52 461.31 361 485.25C319.47 509.19 280.21 531.75 273.75 535.39C267.29 539.02 261.32 542 260.5 542C259.67 542 251.69 537.78 242.75 532.62C233.81 527.46 187.12 500.45 51.5 421.96L50.85 416.73C50.49 413.85 50.14 359.3 49.93 179.5L121.72 138.07C161.2 115.29 207 88.81 223.5 79.22C240 69.64 254.85 60.98 256.5 59.98C258.15 58.98 260.06 58.13 260.75 58.08ZM127.75 140.78L56 182C56 412.47 56.1 419.03 57.75 419.58C58.71 419.9 104.27 446.08 159 477.75C213.72 509.42 259.17 535.5 260 535.7C260.82 535.89 273.9 528.95 289.05 520.28C304.21 511.6 350.21 485.15 391.27 461.5L465.94 418.5L465.93 182.5C344.7 112.39 298.92 85.91 286 78.42C273.07 70.92 262.05 64.62 261.5 64.41C260.95 64.19 246.77 72.02 230 81.79C213.22 91.56 167.21 118.11 127.75 140.78Z" />
	<g id="Layer 4 copy">
		<path id="Path 0" class="shp1" d="M268.08 237.48C268.23 237.68 271.81 238.7 276.04 239.74C280.27 240.78 284.67 242.52 285.82 243.61C287.31 245.03 288.15 247.33 288.79 251.73C289.27 255.11 289.67 258.44 289.67 259.13C289.67 259.87 293.16 261.19 297.99 262.3C302.57 263.35 311.2 264.87 317.18 265.67C325.09 266.74 328.43 267.64 329.46 268.98C330.23 270 330.84 271.83 330.81 273.05C330.77 274.74 331.9 275.89 335.51 277.84C338.13 279.24 342.33 281.26 344.84 282.32C347.35 283.39 349.86 285.07 350.42 286.07C350.99 287.07 351.43 289.01 351.39 290.39C351.36 291.76 351.81 292.87 352.38 292.84C352.96 292.81 355.31 292.41 357.62 291.94C360.61 291.34 362.4 291.52 363.87 292.59C365 293.41 367.58 296.41 369.6 299.25C371.62 302.1 373.65 304.45 374.1 304.48C374.56 304.5 375.59 305.64 376.38 307C377.56 309.02 377.69 310.48 377.09 314.78C376.43 319.41 376.52 320.07 377.8 320.08C378.61 320.09 379.24 320.71 379.22 321.48C379.19 322.24 379.37 322.5 379.62 322.04C379.87 321.59 382.59 322.68 385.66 324.47C388.73 326.26 392.36 328.11 393.73 328.59C395.1 329.07 399.39 331.28 403.25 333.5C407.12 335.73 411.03 337.99 411.94 338.53C412.85 339.07 415.18 340.06 417.12 340.73C419.5 341.56 420.68 342.59 420.74 343.9C420.79 344.98 420.91 347.36 421.01 349.2C421.11 351.04 421.25 353.79 421.33 355.33C421.41 356.86 421.2 359.36 420.87 360.88C420.53 362.41 419.21 364.95 417.92 366.53C416.63 368.11 412.25 371.92 408.17 374.99C404.03 378.11 399.74 380.56 398.43 380.53C397.15 380.51 395.74 380.04 395.32 379.48C394.89 378.92 390.27 375.51 385.05 371.89C379.83 368.28 375.29 364.77 374.97 364.09C374.62 363.37 374.36 363.32 374.33 363.98C374.3 364.59 373.93 364.33 373.5 363.4C372.84 361.97 372.72 362 372.68 363.67C372.65 364.74 373.19 365.63 373.88 365.64C374.57 365.65 375.35 366.79 375.6 368.17C375.86 369.55 375.77 372.93 375.42 375.68C375.06 378.43 374.29 382.58 373.7 384.91C372.92 388.02 372.09 389.28 370.54 389.67C369.39 389.97 367.69 390.63 366.76 391.14C365.83 391.65 363 392.34 360.47 392.67C357.94 393.01 355.48 393.68 355.02 394.17C354.55 394.67 351.9 395.8 349.13 396.69C346.35 397.57 343.42 398.59 342.61 398.94C341.53 399.41 340.99 398.8 340.57 396.62C340.25 394.99 339.25 392.94 338.35 392.07C337.44 391.21 336.16 389.32 335.5 387.89C334.83 386.45 331.91 381.6 329 377.11C326.09 372.62 323.26 368.25 322.7 367.4C322.14 366.55 321.3 366.09 320.83 366.39C320.35 366.7 320.11 369.46 320.27 372.78C320.45 376.36 320.15 379.38 319.51 380.57C318.58 382.3 316.6 382.48 300.51 382.35C290.64 382.27 282.09 381.87 281.53 381.46C280.96 381.06 280.51 379.6 280.53 378.22C280.54 376.84 280.12 373.82 279.6 371.5C279.07 369.18 278.36 367.29 278.01 367.29C277.67 367.3 277.32 372.44 277.24 378.72C277.12 388.37 276.77 391.15 274.94 396.77C273.49 401.22 272.01 403.95 270.46 405.04C268.67 406.3 268.07 406.35 267.85 405.27C267.7 404.5 267 403.87 266.32 403.85C265.63 403.84 260.3 401.95 254.49 399.65C248.67 397.35 242.33 394.49 240.4 393.29C237.55 391.51 236.81 390.42 236.48 387.48L236.07 383.85L210.21 383.4C207.15 373 206.05 367.29 205.78 364C205.52 360.72 205.12 357.84 204.89 357.62C204.67 357.39 203.14 359.55 201.51 362.41C199.88 365.28 198.32 367.86 198.05 368.17C197.77 368.47 196.18 371.19 194.51 374.23C192.84 377.26 191.19 380.61 190.86 381.68C190.52 382.74 189.87 383.61 189.41 383.6C188.95 383.59 188.37 384.59 188.12 385.81C187.87 387.03 186.23 389.22 184.48 390.67C181.57 393.1 181.06 393.2 178.41 391.82C176.81 390.99 173.07 389.93 170.1 389.47C167.12 389 164.5 388.45 164.27 388.25C164.05 388.04 161.99 387.53 159.7 387.12C157.41 386.7 154.41 386.05 153.04 385.67C151.67 385.29 149.9 384.51 149.1 383.93C148.31 383.35 147.65 381.75 147.64 380.37C147.63 379 147.49 376.11 147.31 373.97C147.14 371.82 146.93 369.17 146.85 368.09C146.77 367 146.32 366.12 145.86 366.13C145.4 366.15 144.27 366.47 143.34 366.86C142.42 367.24 139.47 369.18 136.8 371.18C134.12 373.18 130.99 374.8 129.84 374.78C128.69 374.76 126.74 373.8 125.49 372.65C124.25 371.5 122.12 369.78 120.76 368.82C119.4 367.87 115.5 364.93 112.1 362.3C108.7 359.67 105.37 356.83 104.69 355.98C103.8 354.86 103.46 351.57 103.44 343.79C103.42 334.49 103.61 333.05 104.89 332.48C105.7 332.13 107.6 331.16 109.1 330.33C110.61 329.5 112.22 328.83 112.68 328.84C113.14 328.85 114.18 328.42 114.99 327.89C115.81 327.36 120.64 324.87 125.74 322.36C130.83 319.86 137.18 316.53 139.85 314.97C142.51 313.41 144.7 311.51 144.72 310.75C144.74 309.98 145.52 308.37 146.46 307.16C147.4 305.95 149.41 303.85 150.93 302.48C152.44 301.12 156.74 297.13 160.48 293.62C164.21 290.11 168.22 286.34 169.39 285.24C170.56 284.13 173.91 281.37 176.83 279.08C180.58 276.16 182.14 274.28 182.13 272.71C182.13 271.49 182.8 269.67 183.64 268.67C184.48 267.68 186.68 266.07 188.53 265.11C190.39 264.15 192.65 263.4 193.57 263.44C194.49 263.48 195.62 263.07 196.09 262.52C196.56 261.98 203 259.3 210.4 256.58C217.79 253.85 227.44 250.21 231.83 248.48C236.23 246.75 240.95 245.33 242.33 245.32C243.71 245.31 245.29 246.09 245.85 247.05C246.76 248.6 247.1 248.59 249.19 246.89C250.47 245.85 252.1 244.29 252.8 243.44C253.5 242.58 255.23 240.76 256.63 239.38C258.54 237.51 260.26 236.92 263.5 237C265.88 237.06 267.94 237.28 268.08 237.48Z" />
		<path id="Path 1" class="shp5" d="M275.93 243.58C279.21 244.63 282.1 245.75 282.35 246.06C282.6 246.37 276.63 254.28 269.08 263.64C261.53 273 254.44 281.39 253.34 282.29C251.53 283.76 250.61 283.7 244.44 281.8C240.65 280.63 235.78 279.17 233.61 278.55C231.44 277.93 228.35 277.41 226.74 277.38C225.13 277.35 223.82 276.95 223.82 276.49C223.82 276.03 226.4 273.11 229.57 270.01C232.73 266.9 237.46 262.47 240.08 260.17C242.7 257.87 248.14 252.66 252.18 248.6L259.52 241.21C267.61 241.57 272.64 242.53 275.93 243.58Z" />
		<path id="Path 2" class="shp6" d="M285.42 250.67C285.69 251.53 286.12 253.75 286.37 255.59C286.75 258.41 286.31 259.62 283.59 263.29C281.82 265.69 276.56 272.61 271.91 278.68C267.26 284.74 262.45 291.33 261.22 293.33C259.98 295.33 258.79 296.95 258.56 296.93C258.33 296.91 257.51 295.12 256.75 292.95C255.98 290.78 255.36 288.38 255.38 287.61C255.39 286.85 258.76 282.04 262.87 276.93C266.98 271.82 273.62 263.46 277.63 258.37C282.8 251.79 285.06 249.55 285.42 250.67Z" />
		<path id="Path 3" class="shp5" d="M244.67 250.41C244.93 251.34 244.46 252.82 243.64 253.71C242.83 254.6 241.87 255.33 241.53 255.34C241.18 255.35 239.78 256.47 238.42 257.82C237.05 259.17 234.34 261.76 232.39 263.56C230.44 265.36 228.23 266.93 227.46 267.05C226.7 267.17 222.67 268.77 218.5 270.61C214.34 272.44 208.47 274.85 205.47 275.95C202.46 277.06 196.6 279.14 192.44 280.58C188.28 282.02 184.7 282.95 184.47 282.65C184.25 282.35 184.48 279.51 185 276.33L185.93 270.55C200.28 264.32 209.17 260.87 214.95 258.87C220.73 256.87 229.05 253.76 233.44 251.97C237.84 250.17 242.06 248.71 242.82 248.72C243.59 248.73 244.42 249.49 244.67 250.41ZM293.35 265.29C295.41 265.81 301.97 266.84 307.93 267.58C313.88 268.31 320.54 269.21 322.72 269.56C324.89 269.91 326.57 270.63 326.45 271.15C326.32 271.68 324.31 274.19 321.97 276.74L317.71 281.38C304.14 280.04 295.42 278.72 289.57 277.58C282.37 276.17 278.96 275.05 278.98 274.11C279 273.34 279.3 272.73 279.65 272.75C279.99 272.77 281.43 270.85 282.85 268.5C284.65 265.5 286.06 264.23 287.52 264.28C288.67 264.32 291.29 264.78 293.35 265.29Z" />
		<path id="Path 4" class="shp7" d="M221.66 274.23C221.25 274.99 220.88 278.07 220.83 281.07C220.74 286.18 220.57 286.6 218.21 287.52C216.83 288.06 215.12 288.76 214.43 289.08C213.73 289.4 207.48 292.17 200.54 295.24L187.92 300.81C185.76 290.29 185.25 287.2 185.39 287.16C185.53 287.11 186.98 286.29 188.6 285.32C190.23 284.35 195.9 282.15 201.21 280.44C206.53 278.72 212.96 276.3 215.5 275.07C218.05 273.83 220.65 272.82 221.27 272.83C221.99 272.84 222.13 273.34 221.66 274.23Z" />
		<path id="Path 5" class="shp6" d="M328.22 280.56C328.12 284.64 327.57 285.94 324.03 290.52C320.78 294.74 319.85 295.45 319.37 294.06C319.04 293.11 318.82 290.65 318.88 288.59C318.98 285.39 319.67 284.21 323.67 280.36L328.34 275.86L328.22 280.56Z" />
		<path id="Path 6" class="shp5" d="M332.35 279.95C333.03 280.27 334.71 281.22 336.07 282.06C337.44 282.9 339.58 283.9 340.84 284.27C342.09 284.65 343.02 285.49 342.89 286.15C342.77 286.8 339.06 289.17 334.66 291.41C330.25 293.65 326.28 295.22 325.83 294.9C325.37 294.58 325.78 293.53 326.73 292.57C327.68 291.61 329.11 289.58 329.91 288.07C330.78 286.41 331.22 284.08 331 282.24C330.81 280.55 330.75 279.21 330.88 279.27C331 279.32 331.67 279.62 332.35 279.95Z" />
		<path id="Path 7" class="shp7" d="M280.99 279.5C282.36 280.07 288.17 281.13 293.9 281.85C299.63 282.57 306.38 283.42 308.9 283.74C311.42 284.06 314.13 284.61 314.93 284.97C316.14 285.5 316.36 286.98 316.24 293.95C316.11 301.35 315.93 302.24 314.64 301.79C313.84 301.5 310.19 300.65 306.53 299.89C302.87 299.13 297.07 297.75 293.64 296.81C290.21 295.87 284.4 294.76 280.74 294.34C277.07 293.92 272.85 293.1 271.37 292.52C269.89 291.94 268.67 291.09 268.66 290.63C268.65 290.17 270.68 287.19 273.16 284.02C275.64 280.84 277.86 278.29 278.09 278.35C278.32 278.41 279.62 278.93 280.99 279.5ZM237.72 282.16C240.58 282.74 244.32 284.01 246.03 284.97C247.73 285.94 249.69 286.72 250.38 286.71C251.15 286.71 252.17 288.96 253.04 292.58C253.81 295.81 254.33 298.51 254.19 298.59C254.05 298.66 250.37 298.01 246.03 297.15C241.68 296.29 235.31 294.9 231.88 294.06C228.45 293.23 225.41 292.25 225.13 291.9C224.85 291.55 224.42 288.87 224.19 285.96L223.76 280.67C230.55 281 234.86 281.57 237.72 282.16Z" />
		<path id="Path 8" class="shp5" d="M181.7 281.9C181.32 283.05 181.99 287.41 183.36 292.77L185.66 301.72L171.34 317.61C153.95 311.7 148.91 309.61 148.93 309.15C148.94 308.69 152.36 305.24 156.52 301.49C160.68 297.74 167.42 291.72 171.48 288.11C175.54 284.51 179.65 281.2 180.6 280.76C182.02 280.11 182.22 280.31 181.7 281.9Z" />
		<path id="Path 9" class="shp6" d="M348.48 289.12C348.85 289.54 349.08 291.93 348.98 294.43C348.88 296.92 348.3 299.52 347.7 300.19C347.09 300.86 343.94 302.72 340.7 304.31C337.46 305.9 332.62 308.39 329.95 309.84C327.29 311.29 324.73 312.47 324.27 312.46C323.81 312.45 323.48 309.94 323.53 306.88C323.61 302.61 323.97 301.15 325.1 300.59C325.91 300.19 326.77 299.5 327.01 299.05C327.25 298.61 331.23 296.32 335.87 293.96C340.5 291.59 345.08 289.37 346.04 289.01C347.01 288.65 348.1 288.7 348.48 289.12Z" />
		<path id="Path 10" class="shp5" d="M367.06 301.28L371.55 307.34C358.56 310.15 352.89 311.64 350.58 312.47C348.27 313.3 345.91 313.96 345.33 313.95C344.69 313.93 344.31 312.33 344.35 309.75C344.41 305.97 344.7 305.44 347.37 304.23C349.26 303.38 350.33 302.19 350.32 300.94C350.32 299.87 350.82 298.4 351.43 297.66C352.03 296.93 354.79 296.09 357.55 295.78L362.57 295.22L367.06 301.28ZM268.43 295.15C269.47 295.89 270.17 297 269.98 297.61C269.8 298.22 267.23 299.57 264.26 300.62C261.3 301.66 258.7 302.17 258.47 301.75C258.25 301.33 258.45 300.83 258.91 300.63C259.37 300.43 261.09 298.76 262.73 296.93C264.37 295.09 265.9 293.64 266.13 293.69C266.36 293.75 267.39 294.41 268.43 295.15ZM223.92 295.8C226.2 296.7 228.16 297.57 228.27 297.72C228.39 297.88 227.51 299.86 226.32 302.14C225.13 304.42 224.14 306.78 224.13 307.39C224.12 308 223.36 310.12 222.43 312.09L220.74 315.68C205.44 316.74 199.87 317.31 198.48 317.63C197.1 317.95 195.68 318.42 195.33 318.67C194.98 318.92 194.72 318.5 194.74 317.74C194.76 316.97 195.45 315.32 196.27 314.07C197.08 312.81 200.23 309.28 203.27 306.22C206.31 303.16 209.95 299.11 211.36 297.23C213.34 294.6 214.6 293.85 216.85 293.98C218.45 294.08 221.63 294.9 223.92 295.8ZM287.54 299.99C290.41 300.73 292.74 301.59 292.73 301.9C292.72 302.2 289.23 302.71 284.96 303.01C280.69 303.32 276.97 303.51 276.68 303.43C276.38 303.35 276.03 302.28 275.9 301.05C275.68 299.14 276.14 298.8 278.99 298.73C280.83 298.68 284.68 299.24 287.54 299.99Z" />
		<path id="Path 11" class="shp6" d="M236.37 300.02C236.68 300.83 236.51 301.98 235.98 302.58C235.46 303.19 235.01 304.81 235 306.19C234.98 307.56 233.49 312.94 231.67 318.12C229.86 323.31 228.1 327.54 227.75 327.52C227.41 327.5 226.37 325.34 225.45 322.72L223.78 317.96C230.85 301.06 232.06 299.11 233.71 298.86C234.86 298.7 236.05 299.22 236.37 300.02ZM203.67 301.22C202.21 302.86 199.35 305.93 197.32 308.04C195.29 310.15 191.3 314.59 188.45 317.91C185.61 321.22 181.76 325.53 179.91 327.48C178.05 329.43 176.35 331.04 176.12 331.05C175.89 331.07 175.03 328.43 174.22 325.19L172.74 319.3C178.54 313.02 181.55 310.31 183.18 309.24C184.8 308.17 186.52 306.73 186.99 306.04C187.46 305.35 191.44 303.29 195.84 301.46C200.23 299.63 204.39 298.16 205.08 298.19C205.88 298.22 205.36 299.33 203.67 301.22Z" />
		<path id="Path 12" class="shp5" d="M249.01 301.01C251.83 301.44 254.44 302.16 254.83 302.62C255.21 303.07 254.48 303.94 253.21 304.54C251.93 305.14 250.23 305.6 249.43 305.57C248.63 305.54 246.45 306.28 244.6 307.21C242.75 308.14 241.05 308.57 240.82 308.17C240.6 307.76 240.44 305.74 240.46 303.66C240.49 300.54 240.8 299.91 242.19 300.06C243.12 300.16 246.19 300.59 249.01 301.01ZM320.53 302.87C320.83 303.15 320.85 305.41 320.58 307.89C320.32 310.36 319.82 312.36 319.47 312.33C319.13 312.3 316.25 310.52 313.07 308.36L307.29 304.44C316.16 305.66 317.59 305.42 318.64 304.09C319.38 303.14 320.23 302.59 320.53 302.87Z" />
		<path id="Path 13" class="shp7" d="M272.52 302.82C272.58 303.65 273.34 306.22 274.22 308.53C275.1 310.84 275.82 313.36 275.82 314.13C275.82 314.92 272.63 316.75 268.44 318.37C264.38 319.93 257.75 322.45 253.71 323.96C249.66 325.46 245.98 326.44 245.53 326.13C245.07 325.81 244.18 322.92 243.54 319.69C242.9 316.47 242.39 313.33 242.39 312.71C242.4 312.1 245.54 310.43 249.36 309.01C253.18 307.58 259.33 305.63 263.02 304.68C266.71 303.73 270.33 302.58 271.07 302.13C271.95 301.6 272.46 301.84 272.52 302.82ZM305.98 307.48C307.57 308.62 309.61 310.13 310.52 310.84C311.42 311.55 314.4 313.51 317.12 315.19L322.08 318.24C329.28 314.01 333.07 312.18 335.15 311.44C337.23 310.7 339.31 309.68 339.78 309.18C340.25 308.67 340.91 308.27 341.26 308.28C341.6 308.3 341.83 311.07 341.78 314.43L341.67 320.55C333.57 321.24 324.63 321.84 316.58 322.33C308.54 322.81 295.74 323.68 288.15 324.26C280.56 324.84 273.7 324.97 272.91 324.55C272.11 324.13 271.46 323.17 271.46 322.4C271.46 321.64 272.51 320.67 273.8 320.24C275.08 319.82 276.7 319.01 277.4 318.44C278.49 317.55 278.53 316.64 277.7 312.01C277.16 309.05 276.83 306.57 276.96 306.49C277.08 306.42 283.02 306.14 290.14 305.88C301.66 305.46 303.42 305.64 305.98 307.48ZM374.26 312.62C374.31 313.62 374.15 315.19 373.9 316.1C373.54 317.46 371.56 317.73 363.02 317.58C354.11 317.43 352.65 317.16 353.03 315.74C353.28 314.83 354.04 314.34 354.72 314.66C355.4 314.97 356.44 314.77 357.02 314.2C357.61 313.63 359.78 312.96 361.85 312.7C363.92 312.45 367.54 311.92 369.89 311.52C373.5 310.92 374.18 311.09 374.26 312.62Z" />
		<path id="Path 14" class="shp5" d="M238.88 312.38C239.32 313.15 239.8 315.35 239.94 317.28C240.18 320.7 240.13 320.76 237.28 320.14C235.67 319.78 234.18 319.3 233.95 319.06C233.73 318.83 234.23 316.9 235.07 314.79C235.91 312.67 236.93 310.95 237.34 310.96C237.75 310.96 238.44 311.6 238.88 312.38Z" />
		<path id="Path 15" class="shp7" d="M156.34 315.78C160.67 317.36 165.53 319.14 167.13 319.73C169.7 320.68 170.14 321.4 171 326.17C171.53 329.12 171.87 331.59 171.74 331.65C171.61 331.71 166.65 330.12 160.72 328.11C150.17 324.55 149.89 324.38 148.53 320.55C147.76 318.4 147.15 315.76 147.17 314.69C147.19 313.62 147.48 312.78 147.83 312.82C148.17 312.87 152 314.2 156.34 315.78Z" />
		<path id="Path 16" class="shp5" d="M366.5 321.76C371.34 322.08 373.36 322.63 373.32 323.6C373.29 324.37 371.26 327.55 368.82 330.68L364.37 336.37C355.99 333.89 348.69 332.55 342.73 331.8C336.77 331.05 327.77 329.81 322.73 329.06C317.69 328.3 313.38 327.47 313.16 327.21C312.93 326.95 312.94 326.48 313.18 326.17C313.41 325.87 316.43 325.38 319.88 325.09C323.33 324.79 326.34 324.38 326.57 324.18C326.81 323.97 330.38 323.79 334.52 323.78C339.48 323.77 342.61 323.24 343.73 322.23C344.91 321.15 347.57 320.78 352.52 321C356.42 321.17 362.71 321.52 366.5 321.76ZM144.84 324.11C144.68 327.93 144.75 333.24 145 335.89C145.39 339.98 145.19 341.01 143.69 342.55C142.71 343.55 139.03 346.33 135.5 348.72L129.09 353.06C124.22 348.45 120.02 345.02 116.62 342.47C113.22 339.92 109.78 337.17 108.98 336.35C107.68 335.04 108.2 334.58 113.64 332.27C117.01 330.83 121.66 328.59 123.98 327.28C126.3 325.97 131.52 323.14 135.57 321.01C139.63 318.87 143.44 317.13 144.04 317.14C144.84 317.15 145.05 319.01 144.84 324.11Z" />
		<path id="Path 17" class="shp7" d="M221.96 320.99C222.3 321.76 223.21 324.16 223.98 326.31C224.75 328.47 225.29 330.33 225.18 330.44C225.07 330.56 221.41 330.87 217.04 331.13C212.67 331.38 206.65 331.85 203.66 332.16L198.22 332.73C195.41 324.34 194.7 321.77 194.83 321.6C194.97 321.43 197.9 320.88 201.36 320.37C204.81 319.86 210.72 319.48 214.49 319.52C219.1 319.56 221.54 320.04 221.96 320.99Z" />
		<path id="Path 18" class="shp5" d="M191.95 322.59C192.39 324.04 193.41 327.38 194.21 330.04C195.02 332.69 196.33 335.09 197.13 335.37C197.93 335.66 198.58 336.27 198.57 336.73C198.57 337.19 195.64 338.14 192.06 338.84C188.49 339.54 177.11 340.31 166.77 340.54L147.97 340.97C147.09 336.77 146.86 333.43 146.9 330.82L146.97 326.09C151.14 328.03 153.1 329.03 154.01 329.56C154.92 330.09 158.66 331.34 162.31 332.33C165.97 333.32 169.99 334.68 171.24 335.35C172.49 336.02 173.99 336.58 174.56 336.6C175.13 336.62 178.05 333.79 181.03 330.31C184.02 326.84 187.52 323.09 188.81 321.98C191.13 319.99 191.16 320 191.95 322.59ZM382.07 326.66C383.89 327.8 388.55 330.2 392.42 331.98C396.3 333.76 401.14 336.22 403.19 337.44C405.23 338.66 408.49 340.65 410.42 341.86C412.35 343.07 414.49 344.08 415.18 344.09C415.87 344.1 416.24 344.61 416 345.21C415.76 345.82 413.18 347.84 410.28 349.7C407.38 351.57 403.67 354.23 402.04 355.63C399.1 358.14 399.04 358.14 396.18 356.08C394.59 354.93 389.29 351.86 384.4 349.25C379.5 346.65 375.51 344.01 375.52 343.4C375.53 342.79 375.92 342.04 376.38 341.75C376.85 341.45 377.29 337.45 377.37 332.86C377.45 328.27 377.8 324.53 378.14 324.55C378.49 324.57 380.26 325.52 382.07 326.66ZM269.09 325.14C269.29 327.5 269.74 327.68 276.6 328.06C280.62 328.28 283.9 328.84 283.89 329.29C283.88 329.75 283.46 332 282.96 334.29C282.43 336.73 281.63 338.28 281.02 338.03C280.45 337.81 277 336.27 273.36 334.62C269.71 332.97 264.58 330.81 261.96 329.81C259.33 328.81 257.12 327.6 257.03 327.12C256.94 326.63 259.41 325.42 262.5 324.43C265.6 323.43 268.3 322.62 268.5 322.63C268.7 322.63 268.97 323.76 269.09 325.14Z" />
		<path id="Path 19" class="shp7" d="M238.05 323.91C239.64 324.85 241.67 326.9 242.56 328.47C244.06 331.11 244.4 331.23 247.13 330.05C249.73 328.93 251.31 329.28 260.86 333.06C266.79 335.41 273.57 338.21 275.92 339.27C278.27 340.33 280.55 341.71 280.99 342.32C281.51 343.06 281.21 345.57 280.12 349.55C279.21 352.9 278.16 356.05 277.8 356.56C277.44 357.06 274.15 356.6 270.49 355.52C266.83 354.44 262.63 352.83 261.16 351.92C259.68 351.02 257.81 350.27 257.01 350.25C256.21 350.22 251.82 348.65 247.26 346.74C242.7 344.84 237.19 342.75 235.02 342.09C232.85 341.44 231.08 340.41 231.09 339.79C231.1 339.18 230.26 338.66 229.23 338.63C228.2 338.61 226.14 337.95 224.65 337.16C223.17 336.38 221.96 335.36 221.98 334.9C221.99 334.45 223.31 334.34 224.91 334.68C227.76 335.27 227.88 335.14 230.23 328.92C231.56 325.43 233.21 322.48 233.9 322.39C234.59 322.29 236.45 322.97 238.05 323.91Z" />
		<path id="Path 20" class="shp6" d="M374.64 332.95C374.7 337.98 374.39 338.84 370.45 344.71C368.11 348.19 365.92 350.82 365.58 350.56C365.24 350.29 365.17 347.41 365.43 344.15C365.82 339.12 366.36 337.65 368.98 334.38C370.67 332.27 372.62 329.86 373.31 329.03C374.41 327.72 374.58 328.23 374.64 332.95Z" />
		<path id="Path 21" class="shp5" d="M298.91 337.53C298.98 342.99 299.21 347.75 299.43 348.09C299.66 348.44 302.28 349.17 305.25 349.71C309.79 350.53 311.17 351.33 313.75 354.61C315.45 356.77 316.82 359.03 316.8 359.64C316.77 360.34 310.75 360.65 300.47 360.47C291.52 360.32 284.18 359.94 284.17 359.63C284.15 359.33 283.84 356.82 283.48 354.06C283.08 350.92 283.18 347.16 283.77 344.04C284.29 341.3 284.82 338.55 284.94 337.94C285.07 337.33 285.63 335.46 286.19 333.79C286.75 332.11 287.22 329.99 287.23 329.07C287.26 327.75 288.46 327.43 293.03 327.5L298.79 327.6L298.91 337.53Z" />
		<path id="Path 22" class="shp7" d="M321.01 331.97C326.05 332.89 332.98 333.97 336.42 334.36C339.86 334.75 346.42 335.7 351 336.46C355.58 337.22 360.17 338.29 361.19 338.84C362.9 339.76 363.03 340.47 362.71 347.35C362.39 354.6 362.3 354.86 360.29 354.66C359.15 354.54 356.15 354.12 353.63 353.72C351.11 353.32 345.49 352.19 341.14 351.22C336.79 350.24 329.3 349.06 324.48 348.6C319.67 348.13 312.56 347.11 308.7 346.33L301.67 344.91L301.84 329.88C309.6 330.2 315.97 331.05 321.01 331.97Z" />
		<path id="Path 23" class="shp5" d="M218.61 336.79C218.59 338.19 217.37 338.37 211.29 337.88C207.27 337.56 203.71 337.25 203.36 337.19C203.02 337.13 202.75 336.58 202.76 335.96C202.77 335.3 205.98 334.91 210.71 334.99C217.2 335.1 218.64 335.43 218.61 336.79ZM232.36 344.5C237.32 346.86 241.67 348.94 242.03 349.12C242.39 349.3 242.67 350.46 242.64 351.68C242.62 352.91 242.27 355.91 241.86 358.35L241.11 362.79C219.11 363.62 212.47 363.51 212.16 363.07C211.85 362.63 211.57 357.52 211.52 351.7L211.44 341.12C222.7 340.27 224.35 340.69 232.36 344.5Z" />
		<path id="Path 24" class="shp7" d="M110.79 341.49C112.83 343 117.54 346.79 121.25 349.91L127.99 355.59C128.21 366.59 127.95 369.12 127.44 368.92C126.98 368.75 122.06 365.14 116.51 360.91C106.86 353.57 106.41 353.06 106.42 349.61C106.43 347.62 106.36 344.36 106.28 342.37C106.2 340.38 106.34 338.75 106.6 338.75C106.86 338.76 108.75 339.99 110.79 341.49Z" />
		<path id="Path 25" class="shp6" d="M208.13 342.68C208.31 343.02 207.09 345.28 205.42 347.7C203.76 350.12 202.03 352.72 201.58 353.48C201.13 354.23 200.75 355.35 200.74 355.97C200.73 356.58 198.88 360.18 196.63 363.97C194.38 367.75 192.05 372.1 191.44 373.62C190.84 375.14 189.48 377.65 188.43 379.19C187.37 380.74 186.12 382.91 185.64 384.02C185.16 385.14 184.4 386 183.94 385.94C183.48 385.88 182.71 383.17 182.24 379.91C181.76 376.66 181.63 373.44 181.94 372.76C182.26 372.08 184.5 368.61 186.92 365.05C189.34 361.5 193.59 355.09 196.35 350.83C200.66 344.18 201.85 342.99 204.6 342.56C206.37 342.28 207.96 342.34 208.13 342.68Z" />
		<path id="Path 26" class="shp5" d="M196.67 343.52C196.72 344.21 195.52 346.87 194 349.45C192.49 352.03 188.93 357.6 186.1 361.84C183.26 366.07 180.93 369.68 180.91 369.86C180.89 370.04 176.75 369.34 171.72 368.31C166.68 367.28 159.85 365.51 156.54 364.38C151.88 362.79 150.77 362.05 151.59 361.05C152.18 360.34 154.36 358.58 156.46 357.13C158.55 355.68 161.59 353.57 163.22 352.43C164.85 351.29 166.28 349.99 166.4 349.53C166.52 349.07 168.43 347.7 170.63 346.48C172.9 345.22 177.17 344.1 180.49 343.89C183.71 343.69 188.65 343.24 191.46 342.9C194.97 342.47 196.61 342.67 196.67 343.52Z" />
		<path id="Path 27" class="shp6" d="M418.29 353.43C418.58 357.86 418.32 359.78 417.17 361.8C416.34 363.24 412.42 367.04 408.46 370.24C404.51 373.43 400.98 376.06 400.64 376.08C400.29 376.1 400.07 372.73 400.14 368.6C400.24 362.63 400.57 360.84 401.75 359.9C402.57 359.26 406.54 356.24 410.58 353.2L417.92 347.68L418.29 353.43Z" />
		<path id="Path 28" class="shp7" d="M375.44 347.82C376.58 348.33 381.24 350.89 385.79 353.51C390.33 356.12 394.89 359.01 395.91 359.93C397.51 361.38 397.74 362.56 397.63 368.83L397.51 376.06C392.71 372.51 390.77 371.01 390.09 370.45C389.41 369.88 385.51 367.12 381.42 364.32C377.34 361.51 372.7 358.26 371.11 357.09C369.52 355.92 368.13 354.84 368.02 354.68C367.9 354.53 368.88 352.67 370.18 350.55C371.48 348.42 372.73 346.74 372.96 346.79C373.18 346.85 374.3 347.31 375.44 347.82Z" />
		<path id="Path 29" class="shp6" d="M165.03 344.5C165.02 344.95 164.16 345.9 163.11 346.59C162.07 347.29 159.3 349.69 156.96 351.94C154.63 354.19 147.96 359.25 142.15 363.17C136.34 367.1 131.31 370.32 130.96 370.32C130.62 370.33 130.49 366.96 130.68 362.83L131.01 355.32L147.08 344.07C161 343.75 165.04 344.04 165.03 344.5Z" />
		<path id="Path 30" class="shp7" d="M325.89 353.27C326.67 354.08 327.49 354.5 327.73 354.2C327.96 353.9 328.79 354.94 329.57 356.49C330.34 358.05 331.62 360.27 332.4 361.41C333.19 362.56 334.43 364.46 335.16 365.64C335.9 366.81 338.21 370.06 340.31 372.85C343.91 377.65 344.09 378.17 343.52 382.37C343.18 384.81 342.73 387.68 342.52 388.75C342.31 389.82 341.75 390.69 341.29 390.68C340.84 390.67 339.82 389.35 339.05 387.74C338.27 386.13 335.11 380.94 332.02 376.21C328.92 371.47 325.59 365.83 324.62 363.67C323.64 361.51 322.04 358.73 321.07 357.49C320.1 356.25 319.4 354.66 319.52 353.97C319.64 353.28 320.81 352.51 322.11 352.26C323.42 352.01 325.12 352.47 325.89 353.27Z" />
		<path id="Path 31" class="shp5" d="M347.32 356.35C351.89 357.53 357.6 358.57 360.01 358.65C363.98 358.78 364.67 359.2 367.21 363.02C368.76 365.34 369.85 367.61 369.63 368.07C369.41 368.52 368.48 368.88 367.56 368.87C366.64 368.85 362.4 370 358.12 371.41C353.85 372.83 349.31 374.5 348.04 375.13C345.86 376.21 345.45 375.88 341.37 369.81C338.98 366.25 335.88 361.56 334.48 359.39C333.09 357.22 331.94 355.07 331.93 354.62C331.92 354.16 333.51 353.88 335.46 353.99C337.41 354.11 342.74 355.17 347.32 356.35ZM254.23 354.14C256.74 355 261.97 356.87 265.85 358.29C269.73 359.72 273.38 361.44 273.96 362.13C274.7 362.99 274.96 366.56 274.81 373.67C274.62 382.89 274.44 383.91 273.14 383.47C272.34 383.2 267.4 381.14 262.15 378.89C256.91 376.63 250.8 374.11 248.57 373.27C246.34 372.44 244.39 371.37 244.23 370.91C244.06 370.45 244.48 366.07 245.15 361.19C246.21 353.5 246.6 352.32 248.02 352.44C248.92 352.52 251.72 353.29 254.23 354.14ZM209.4 358.62C209.66 362.19 209.48 364.9 208.94 365.57C208.32 366.33 208.09 364.52 208.18 359.71C208.26 355.89 208.46 352.76 208.64 352.76C208.81 352.77 209.16 355.4 209.4 358.62ZM282.02 357.66C282.28 359.04 282.47 362.04 282.44 364.34C282.4 366.63 282.1 368.52 281.75 368.52C281.41 368.53 280.87 366.9 280.55 364.89C280.24 362.88 279.96 360.13 279.94 358.79C279.93 357.45 280.28 356.08 280.73 355.76C281.18 355.43 281.76 356.29 282.02 357.66Z" />
		<path id="Path 32" class="shp6" d="M314.4 364.24L317.52 364.66L317.29 378.02C298.2 377.7 290.66 377.95 288.21 378.36L283.75 379.11L284.53 364.68C289.73 363.55 295.75 363.36 301.26 363.52C306.77 363.68 312.68 364.01 314.4 364.24Z" />
		<path id="Path 33" class="shp7" d="M239.31 366.59C239.57 367.24 239.55 369.9 239.25 372.5C238.94 375.09 238.43 377.84 238.1 378.6C237.65 379.63 234.23 379.85 224.56 379.48L211.62 378.98L211.42 366.17C215.63 366.52 221.79 366.35 227.83 366.02C235.28 365.6 238.98 365.79 239.31 366.59ZM160.5 368.3C165.73 369.74 172.05 371.61 174.57 372.44L179.13 373.96L180.56 388.05C175.4 386.88 170.54 385.76 166.42 384.81C162.3 383.86 157.39 382.67 155.5 382.18C153.6 381.69 151.84 381.03 151.57 380.72C151.3 380.41 150.84 377.16 150.53 373.5C150.23 369.85 150.22 366.59 150.5 366.27C150.78 365.94 155.28 366.86 160.5 368.3Z" />
		<path id="Path 34" class="shp6" d="M372.47 374.24C372.43 375.92 371.91 379.15 371.3 381.4C370.3 385.11 369.76 385.65 365.58 387.08C363.04 387.94 357.18 389.9 352.56 391.42C347.94 392.94 343.97 393.91 343.75 393.57C343.53 393.23 343.82 391.58 344.41 389.9C344.99 388.23 345.71 385.11 346.01 382.97C346.52 379.34 346.89 378.96 351.37 377.29C354.01 376.31 359.01 374.53 362.47 373.33C365.94 372.13 369.62 371.16 370.66 371.17C372.16 371.18 372.52 371.8 372.47 374.24Z" />
		<path id="Path 35" class="shp7" d="M250.62 377.52C254.42 378.95 261.08 381.78 265.41 383.82C269.74 385.85 273.56 387.72 273.9 387.96C274.24 388.21 273.78 390.53 272.88 393.11C271.98 395.7 270.98 398.69 270.67 399.76C270.15 401.56 269.6 401.5 262.44 398.73C258.22 397.1 251.78 394.48 248.13 392.91C244.48 391.34 241.05 389.67 240.51 389.21C239.77 388.58 240.05 386.65 241.61 381.65L243.7 374.93L250.62 377.52Z" />
	</g>
	<g id="Layer 4 copy 2">
		<path id="Path 0 copy" class="shp1" d="M256.71 275.81C256.55 276.02 252.7 276.96 248.16 277.91C243.62 278.85 238.87 280.53 237.61 281.65C235.97 283.11 234.98 285.52 234.14 290.18C233.49 293.75 232.94 297.28 232.91 298.02C232.89 298.8 229.13 300.08 223.94 301.07C219.03 302.01 209.79 303.3 203.4 303.93C194.95 304.76 191.36 305.59 190.22 306.98C189.35 308.03 188.63 309.95 188.62 311.26C188.6 313.06 187.35 314.24 183.43 316.16C180.59 317.56 176.05 319.55 173.34 320.58C170.63 321.62 167.89 323.31 167.26 324.35C166.62 325.39 166.08 327.44 166.06 328.91C166.04 330.37 165.53 331.53 164.92 331.48C164.31 331.43 161.81 330.91 159.38 330.33C156.22 329.57 154.31 329.7 152.7 330.77C151.47 331.6 148.61 334.7 146.35 337.65C144.1 340.6 141.85 343.02 141.36 343.03C140.87 343.04 139.74 344.21 138.84 345.63C137.51 347.74 137.32 349.28 137.8 353.88C138.31 358.83 138.19 359.53 136.83 359.49C135.98 359.47 135.28 360.11 135.27 360.93C135.27 361.74 135.07 362 134.82 361.51C134.57 361.02 131.64 362.07 128.3 363.86C124.97 365.64 121.03 367.48 119.56 367.94C118.08 368.39 113.44 370.58 109.24 372.8C105.05 375.02 100.8 377.27 99.81 377.82C98.83 378.36 96.31 379.32 94.22 379.96C91.65 380.75 90.36 381.8 90.24 383.2C90.15 384.34 89.93 386.86 89.75 388.82C89.58 390.77 89.32 393.7 89.18 395.32C89.03 396.95 89.16 399.62 89.46 401.25C89.76 402.89 91.07 405.64 92.38 407.37C93.69 409.11 98.21 413.32 102.42 416.75C106.71 420.23 111.18 422.99 112.58 423.02C113.95 423.04 115.45 422.59 115.93 422.01C116.4 421.44 121.45 417.98 127.14 414.33C132.83 410.69 137.8 407.13 138.17 406.42C138.57 405.66 138.85 405.62 138.85 406.32C138.85 406.97 139.26 406.71 139.75 405.74C140.51 404.24 140.64 404.29 140.62 406.06C140.61 407.2 139.99 408.12 139.26 408.11C138.53 408.09 137.66 409.28 137.34 410.74C137.01 412.2 136.97 415.8 137.25 418.73C137.52 421.67 138.19 426.12 138.72 428.62C139.43 431.95 140.27 433.33 141.9 433.8C143.11 434.16 144.9 434.93 145.86 435.51C146.83 436.09 149.82 436.93 152.5 437.38C155.18 437.83 157.76 438.64 158.24 439.19C158.72 439.73 161.5 441.03 164.41 442.08C167.33 443.13 170.41 444.32 171.26 444.73C172.39 445.27 172.99 444.64 173.52 442.33C173.92 440.61 175.06 438.48 176.06 437.59C177.05 436.7 178.49 434.74 179.25 433.24C180.01 431.74 183.31 426.69 186.57 422.03C189.84 417.36 193.02 412.82 193.65 411.93C194.28 411.05 195.19 410.6 195.67 410.93C196.17 411.28 196.32 414.22 196.02 417.75C195.7 421.56 195.9 424.78 196.53 426.06C197.46 427.94 199.56 428.22 216.68 428.69C227.19 428.98 236.29 428.88 236.91 428.47C237.53 428.06 238.06 426.52 238.1 425.05C238.13 423.59 238.69 420.39 239.34 417.94C239.99 415.49 240.82 413.51 241.19 413.53C241.55 413.55 241.73 419.03 241.57 425.71C241.33 435.99 241.6 438.95 243.34 445C244.71 449.8 246.18 452.75 247.79 453.97C249.64 455.38 250.27 455.46 250.55 454.32C250.74 453.51 251.5 452.86 252.24 452.87C252.97 452.88 258.71 451.08 264.98 448.85C271.26 446.63 278.11 443.82 280.21 442.62C283.31 440.84 284.14 439.7 284.61 436.59L285.18 432.74L312.71 433.26C316.35 422.3 317.75 416.27 318.15 412.79C318.56 409.3 319.1 406.26 319.35 406.03C319.6 405.8 321.13 408.15 322.76 411.26C324.39 414.37 325.95 417.18 326.23 417.51C326.51 417.84 328.09 420.8 329.76 424.09C331.42 427.38 333.04 431.01 333.36 432.16C333.68 433.31 334.34 434.25 334.83 434.26C335.32 434.27 335.9 435.35 336.12 436.66C336.34 437.96 337.99 440.36 339.8 441.97C342.8 444.67 343.34 444.79 346.22 443.43C347.94 442.61 351.96 441.62 355.15 441.24C358.33 440.86 361.14 440.37 361.39 440.16C361.64 439.95 363.85 439.49 366.3 439.14C368.75 438.78 371.96 438.2 373.44 437.85C374.91 437.5 376.83 436.73 377.69 436.15C378.56 435.57 379.32 433.89 379.38 432.42C379.44 430.96 379.71 427.9 379.98 425.62C380.24 423.34 380.57 420.54 380.7 419.38C380.83 418.22 381.33 417.31 381.82 417.34C382.31 417.38 383.5 417.77 384.47 418.21C385.44 418.65 388.5 420.83 391.27 423.06C394.04 425.29 397.31 427.13 398.53 427.15C399.75 427.17 401.87 426.23 403.24 425.06C404.61 423.88 406.94 422.13 408.42 421.16C409.91 420.2 414.17 417.22 417.88 414.56C421.6 411.89 425.26 408.99 426 408.12C427 406.96 427.48 403.47 427.8 395.19C428.18 385.3 428.04 383.76 426.69 383.11C425.84 382.7 423.86 381.59 422.29 380.66C420.72 379.72 419.03 378.94 418.55 378.94C418.06 378.93 416.97 378.43 416.12 377.83C415.28 377.24 410.23 374.41 404.9 371.55C399.58 368.68 392.95 364.9 390.17 363.14C387.4 361.38 385.14 359.28 385.15 358.46C385.16 357.65 384.39 355.9 383.43 354.58C382.48 353.26 380.42 350.94 378.86 349.43C377.3 347.93 372.88 343.52 369.04 339.64C365.2 335.77 361.08 331.6 359.88 330.38C358.68 329.16 355.22 326.09 352.2 323.55C348.32 320.29 346.73 318.24 346.8 316.57C346.86 315.27 346.2 313.31 345.35 312.22C344.5 311.12 342.22 309.34 340.28 308.24C338.35 307.15 335.96 306.26 334.99 306.27C334.01 306.28 332.82 305.79 332.34 305.2C331.86 304.6 325.12 301.51 317.35 298.32C309.59 295.14 299.46 290.9 294.85 288.89C290.25 286.88 285.28 285.19 283.81 285.13C282.34 285.07 280.63 285.84 280 286.83C278.97 288.46 278.61 288.43 276.45 286.54C275.13 285.38 273.46 283.67 272.74 282.73C272.02 281.79 270.26 279.78 268.82 278.27C266.86 276.2 265.06 275.5 261.6 275.47C259.07 275.45 256.87 275.6 256.71 275.81Z" />
		<path id="Path 1 copy" class="shp5" d="M248.13 282C244.6 282.99 241.48 284.06 241.2 284.39C240.93 284.71 246.98 293.35 254.65 303.6C262.33 313.84 269.54 323.04 270.69 324.04C272.55 325.67 273.54 325.65 280.17 323.86C284.24 322.76 289.48 321.39 291.81 320.82C294.15 320.24 297.46 319.8 299.17 319.83C300.88 319.86 302.29 319.49 302.31 319C302.33 318.51 299.69 315.31 296.44 311.88C293.2 308.45 288.33 303.56 285.63 301.01C282.94 298.46 277.34 292.72 273.2 288.24L265.68 280.1C257.06 280.17 251.67 281 248.13 282Z" />
		<path id="Path 2 copy" class="shp6" d="M237.76 289.18C237.44 290.08 236.9 292.42 236.56 294.37C236.05 297.36 236.47 298.67 239.22 302.68C241.02 305.29 246.35 312.86 251.06 319.49C255.78 326.12 260.65 333.32 261.88 335.49C263.12 337.66 264.33 339.43 264.57 339.41C264.82 339.4 265.75 337.53 266.65 335.25C267.55 332.97 268.3 330.44 268.31 329.63C268.33 328.81 264.93 323.57 260.75 317.97C256.57 312.38 249.83 303.24 245.76 297.66C240.51 290.47 238.18 288 237.76 289.18Z" />
		<path id="Path 3 copy" class="shp5" d="M281.12 290.46C280.81 291.43 281.25 293.03 282.09 294C282.93 294.98 283.91 295.8 284.28 295.82C284.64 295.85 286.09 297.09 287.49 298.58C288.89 300.07 291.68 302.92 293.68 304.92C295.69 306.91 297.99 308.66 298.79 308.82C299.6 308.97 303.83 310.83 308.19 312.94C312.55 315.06 318.7 317.84 321.85 319.13C325.01 320.42 331.17 322.86 335.54 324.55C339.9 326.24 343.68 327.36 343.94 327.05C344.19 326.74 344.04 323.71 343.62 320.31L342.84 314.13C327.82 306.95 318.49 302.94 312.42 300.59C306.35 298.24 297.61 294.62 293.01 292.54C288.4 290.46 283.97 288.75 283.15 288.73C282.34 288.71 281.42 289.49 281.12 290.46ZM228.77 304.43C226.56 304.9 219.54 305.74 213.17 306.3C206.81 306.86 199.69 307.56 197.36 307.85C195.04 308.14 193.22 308.84 193.33 309.4C193.45 309.96 195.5 312.72 197.89 315.52L202.24 320.61C216.73 319.71 226.06 318.63 232.32 317.64C240.04 316.42 243.7 315.36 243.71 314.36C243.72 313.54 243.43 312.88 243.06 312.89C242.69 312.89 241.23 310.8 239.81 308.24C238.01 304.99 236.56 303.58 235.01 303.58C233.79 303.58 230.98 303.96 228.77 304.43Z" />
		<path id="Path 4 copy" class="shp7" d="M304.69 316.67C305.1 317.5 305.37 320.79 305.32 323.99C305.21 329.42 305.38 329.88 307.85 330.94C309.31 331.57 311.09 332.38 311.82 332.75C312.55 333.12 319.09 336.31 326.36 339.83L339.58 346.25C342.27 335.13 342.94 331.86 342.79 331.81C342.64 331.76 341.13 330.83 339.44 329.73C337.75 328.64 331.79 326.09 326.21 324.06C320.62 322.03 313.87 319.22 311.21 317.8C308.55 316.38 305.83 315.22 305.17 315.2C304.39 315.19 304.22 315.71 304.69 316.67Z" />
		<path id="Path 5 copy" class="shp6" d="M191.09 319.34C191.04 323.69 191.57 325.09 195.16 330.1C198.47 334.72 199.43 335.5 199.99 334.04C200.37 333.04 200.7 330.43 200.71 328.24C200.73 324.84 200.05 323.56 195.94 319.3L191.14 314.34L191.09 319.34Z" />
		<path id="Path 6 copy" class="shp5" d="M186.72 318.53C185.98 318.85 184.16 319.8 182.68 320.64C181.19 321.48 178.88 322.46 177.52 322.81C176.17 323.16 175.16 324.02 175.27 324.72C175.38 325.42 179.23 328.08 183.83 330.64C188.42 333.19 192.59 335.01 193.09 334.68C193.58 334.36 193.19 333.23 192.22 332.17C191.24 331.12 189.8 328.91 189.01 327.26C188.14 325.47 187.76 322.97 188.06 321.02C188.34 319.24 188.45 317.81 188.31 317.86C188.17 317.91 187.46 318.21 186.72 318.53Z" />
		<path id="Path 7 copy" class="shp7" d="M241.37 320.02C239.89 320.57 233.68 321.47 227.55 322.02C221.43 322.57 214.22 323.22 211.52 323.47C208.83 323.71 205.92 324.19 205.06 324.54C203.75 325.06 203.46 326.62 203.32 334.05C203.18 341.92 203.34 342.87 204.72 342.44C205.58 342.17 209.5 341.4 213.42 340.74C217.35 340.07 223.57 338.81 227.26 337.95C230.94 337.08 237.16 336.12 241.08 335.81C245 335.51 249.51 334.8 251.11 334.24C252.71 333.67 254.04 332.81 254.06 332.32C254.09 331.84 252.05 328.59 249.53 325.12C247.01 321.65 244.75 318.85 244.5 318.91C244.26 318.96 242.85 319.46 241.37 320.02ZM287.3 324.5C284.23 325.01 280.21 326.22 278.36 327.18C276.51 328.14 274.39 328.89 273.66 328.86C272.84 328.82 271.67 331.18 270.61 335C269.66 338.4 269.01 341.26 269.16 341.34C269.3 341.43 273.24 340.88 277.9 340.13C282.56 339.38 289.38 338.14 293.06 337.39C296.74 336.63 300.01 335.71 300.33 335.34C300.64 334.98 301.19 332.15 301.56 329.06L302.21 323.44C294.98 323.53 290.37 323.98 287.3 324.5Z" />
		<path id="Path 8 copy" class="shp5" d="M346.91 326.36C347.27 327.6 346.4 332.22 344.73 337.86L341.95 347.29L356.57 364.75C375.29 359.13 380.73 357.09 380.74 356.6C380.74 356.12 377.24 352.32 372.95 348.16C368.66 344.01 361.73 337.35 357.55 333.36C353.36 329.37 349.12 325.7 348.12 325.2C346.64 324.45 346.42 324.65 346.91 326.36Z" />
		<path id="Path 9 copy" class="shp6" d="M169.21 327.67C168.79 328.1 168.46 330.64 168.47 333.3C168.48 335.96 169 338.74 169.62 339.48C170.24 340.22 173.52 342.31 176.91 344.13C180.3 345.94 185.34 348.78 188.13 350.42C190.91 352.07 193.58 353.42 194.07 353.43C194.56 353.44 195.01 350.78 195.07 347.52C195.15 342.97 194.82 341.4 193.64 340.77C192.79 340.31 191.91 339.54 191.67 339.06C191.44 338.58 187.28 335.99 182.44 333.3C177.6 330.61 172.81 328.07 171.8 327.65C170.79 327.23 169.63 327.24 169.21 327.67Z" />
		<path id="Path 10 copy" class="shp5" d="M148.98 339.9L143.97 346.17C157.69 349.66 163.65 351.47 166.08 352.44C168.51 353.4 170.99 354.2 171.61 354.21C172.29 354.21 172.75 352.52 172.81 349.77C172.9 345.76 172.61 345.18 169.81 343.79C167.84 342.81 166.74 341.5 166.79 340.18C166.84 339.04 166.37 337.45 165.75 336.65C165.13 335.85 162.23 334.84 159.3 334.41L153.98 333.63L148.98 339.9ZM254.14 337.15C253.01 337.9 252.22 339.04 252.39 339.7C252.56 340.35 255.25 341.89 258.36 343.12C261.47 344.34 264.22 344.99 264.48 344.55C264.73 344.11 264.54 343.57 264.06 343.34C263.57 343.11 261.8 341.27 260.13 339.25C258.46 337.24 256.89 335.63 256.64 335.68C256.39 335.74 255.27 336.4 254.14 337.15ZM301.47 339.54C299.01 340.41 296.89 341.26 296.76 341.42C296.63 341.58 297.49 343.72 298.67 346.19C299.85 348.66 300.81 351.21 300.8 351.86C300.78 352.51 301.52 354.79 302.43 356.93L304.09 360.81C320.32 362.52 326.23 363.34 327.69 363.73C329.15 364.12 330.64 364.67 331 364.96C331.37 365.24 331.67 364.8 331.67 363.99C331.67 363.17 331.01 361.39 330.19 360.03C329.37 358.66 326.15 354.79 323.03 351.41C319.92 348.04 316.2 343.59 314.77 341.54C312.77 338.66 311.45 337.82 309.06 337.87C307.35 337.91 303.93 338.66 301.47 339.54ZM233.62 341.56C230.55 342.24 228.03 343.07 228.03 343.39C228.02 343.72 231.73 344.39 236.25 344.88C240.78 345.37 244.74 345.71 245.05 345.64C245.36 345.56 245.78 344.44 245.97 343.13C246.27 341.12 245.8 340.74 242.77 340.55C240.81 340.42 236.7 340.88 233.62 341.56Z" />
		<path id="Path 11 copy" class="shp6" d="M288.06 343.55C287.7 344.4 287.84 345.63 288.37 346.29C288.91 346.96 289.32 348.7 289.28 350.16C289.25 351.63 290.63 357.4 292.36 362.99C294.09 368.58 295.81 373.14 296.18 373.13C296.54 373.12 297.73 370.87 298.8 368.12L300.77 363.12C293.9 344.87 292.68 342.75 290.93 342.42C289.72 342.2 288.43 342.71 288.06 343.55ZM322.8 346.08C324.29 347.88 327.21 351.25 329.29 353.57C331.37 355.89 335.45 360.77 338.35 364.41C341.25 368.05 345.18 372.78 347.08 374.92C348.98 377.07 350.73 378.84 350.97 378.87C351.22 378.89 352.23 376.11 353.22 372.7L355.02 366.5C349.09 359.58 345.99 356.59 344.3 355.39C342.61 354.19 340.84 352.59 340.36 351.84C339.89 351.09 335.73 348.75 331.12 346.63C326.52 344.52 322.15 342.79 321.41 342.8C320.57 342.8 321.07 344 322.8 346.08Z" />
		<path id="Path 12 copy" class="shp5" d="M274.58 344.13C271.56 344.47 268.75 345.14 268.32 345.61C267.9 346.08 268.64 347.03 269.98 347.71C271.31 348.4 273.1 348.96 273.95 348.96C274.81 348.96 277.09 349.82 279.03 350.88C280.97 351.94 282.76 352.46 283.01 352.05C283.26 351.63 283.51 349.48 283.57 347.27C283.65 343.95 283.35 343.27 281.86 343.37C280.87 343.44 277.59 343.78 274.58 344.13ZM198.42 343.37C198.09 343.66 197.98 346.06 198.17 348.7C198.36 351.35 198.82 353.5 199.18 353.48C199.55 353.46 202.68 351.67 206.15 349.49L212.44 345.55C202.96 346.5 201.45 346.2 200.39 344.74C199.63 343.7 198.75 343.08 198.42 343.37Z" />
		<path id="Path 13 copy" class="shp7" d="M249.49 345.15C249.4 346.03 248.49 348.74 247.46 351.16C246.44 353.59 245.58 356.24 245.55 357.05C245.52 357.89 248.84 359.96 253.24 361.84C257.5 363.66 264.46 366.59 268.7 368.35C272.95 370.11 276.83 371.29 277.32 370.97C277.82 370.66 278.88 367.61 279.68 364.2C280.48 360.8 281.15 357.48 281.16 356.83C281.18 356.17 277.91 354.28 273.9 352.62C269.89 350.95 263.42 348.65 259.53 347.49C255.64 346.34 251.83 344.98 251.06 344.47C250.15 343.87 249.6 344.11 249.49 345.15ZM213.72 348.83C211.98 349.98 209.76 351.51 208.76 352.23C207.77 352.96 204.53 354.92 201.57 356.6L196.18 359.66C188.69 354.89 184.72 352.79 182.54 351.93C180.36 351.06 178.18 349.9 177.7 349.34C177.22 348.78 176.53 348.33 176.16 348.33C175.79 348.34 175.44 351.27 175.37 354.86L175.25 361.37C183.85 362.42 193.33 363.39 201.87 364.22C210.41 365.04 223.99 366.46 232.04 367.36C240.1 368.27 247.39 368.67 248.25 368.25C249.12 367.84 249.85 366.83 249.87 366.02C249.9 365.21 248.82 364.13 247.47 363.64C246.12 363.14 244.43 362.22 243.71 361.58C242.58 360.59 242.57 359.63 243.63 354.73C244.31 351.6 244.76 348.97 244.63 348.89C244.5 348.8 238.2 348.29 230.63 347.74C218.39 346.85 216.52 346.97 213.72 348.83ZM140.89 351.69C140.79 352.75 140.9 354.42 141.13 355.41C141.47 356.87 143.57 357.23 152.65 357.4C162.13 357.57 163.7 357.34 163.35 355.82C163.13 354.84 162.34 354.29 161.6 354.6C160.86 354.91 159.76 354.65 159.16 354.03C158.56 353.4 156.28 352.6 154.08 352.25C151.89 351.9 148.06 351.2 145.57 350.69C141.76 349.91 141.03 350.07 140.89 351.69Z" />
		<path id="Path 14 copy" class="shp5" d="M284.91 356.6C284.42 357.4 283.83 359.73 283.61 361.77C283.21 365.41 283.27 365.47 286.33 364.92C288.04 364.6 289.65 364.15 289.9 363.9C290.15 363.66 289.69 361.59 288.88 359.31C288.06 357.03 287.04 355.16 286.61 355.15C286.17 355.14 285.41 355.79 284.91 356.6Z" />
		<path id="Path 15 copy" class="shp7" d="M372.6 363.37C367.93 364.89 362.69 366.6 360.97 367.16C358.19 368.07 357.7 368.83 356.6 373.86C355.92 376.98 355.48 379.6 355.61 379.67C355.74 379.74 361.08 378.23 367.47 376.33C378.83 372.94 379.13 372.76 380.72 368.75C381.62 366.48 382.37 363.7 382.39 362.56C382.42 361.42 382.13 360.52 381.77 360.55C381.4 360.58 377.27 361.86 372.6 363.37Z" />
		<path id="Path 16 copy" class="shp5" d="M148.79 361.71C143.63 361.87 141.46 362.37 141.46 363.41C141.47 364.23 143.5 367.69 145.99 371.11L150.5 377.33C159.5 375.01 167.33 373.87 173.7 373.3C180.06 372.72 189.68 371.75 195.07 371.14C200.47 370.53 205.08 369.81 205.33 369.54C205.58 369.27 205.59 368.78 205.35 368.44C205.11 368.11 201.92 367.47 198.26 367.03C194.6 366.58 191.41 366.03 191.17 365.8C190.93 365.58 187.14 365.25 182.74 365.08C177.46 364.88 174.15 364.2 173 363.08C171.78 361.89 168.97 361.39 163.69 361.44C159.53 361.47 152.83 361.6 148.79 361.71ZM384.52 372.67C384.54 376.75 384.26 382.39 383.89 385.2C383.32 389.53 383.5 390.64 385.03 392.34C386.04 393.44 389.85 396.53 393.51 399.21L400.16 404.07C405.52 399.36 410.12 395.87 413.83 393.29C417.55 390.7 421.31 387.9 422.2 387.07C423.63 385.72 423.09 385.22 417.39 382.54C413.86 380.89 409 378.32 406.58 376.84C404.16 375.36 398.72 372.16 394.49 369.73C390.25 367.3 386.27 365.3 385.63 365.29C384.78 365.27 384.48 367.24 384.52 372.67Z" />
		<path id="Path 17 copy" class="shp7" d="M302.59 366.41C302.2 367.22 301.14 369.73 300.24 371.99C299.34 374.26 298.69 376.22 298.8 376.34C298.91 376.47 302.8 376.94 307.43 377.38C312.07 377.82 318.46 378.55 321.63 378.99L327.39 379.8C330.71 370.99 331.56 368.28 331.42 368.09C331.29 367.91 328.18 367.21 324.53 366.54C320.87 365.87 314.6 365.23 310.59 365.13C305.69 365 303.07 365.42 302.59 366.41Z" />
		<path id="Path 18 copy" class="shp5" d="M334.45 369.26C333.93 370.78 332.72 374.3 331.76 377.09C330.8 379.88 329.31 382.39 328.45 382.66C327.59 382.93 326.88 383.56 326.87 384.04C326.86 384.53 329.94 385.66 333.71 386.54C337.49 387.42 349.57 388.67 360.56 389.32L380.54 390.49C381.64 386.06 382.01 382.51 382.06 379.74L382.17 374.7C377.66 376.61 375.54 377.59 374.55 378.12C373.56 378.65 369.54 379.84 365.61 380.75C361.68 381.66 357.35 382.96 356 383.62C354.64 384.29 353.03 384.83 352.42 384.83C351.81 384.82 348.82 381.7 345.77 377.89C342.73 374.08 339.15 369.96 337.82 368.73C335.42 366.52 335.39 366.53 334.45 369.26ZM132.04 366.33C130.06 367.47 125.01 369.84 120.82 371.59C116.64 373.34 111.39 375.77 109.17 376.99C106.94 378.21 103.4 380.2 101.3 381.42C99.2 382.63 96.88 383.62 96.15 383.6C95.42 383.59 95.01 384.11 95.24 384.77C95.47 385.43 98.13 387.67 101.15 389.77C104.17 391.86 108.01 394.83 109.69 396.38C112.72 399.17 112.79 399.17 115.9 397.08C117.64 395.92 123.4 392.86 128.7 390.27C134.01 387.69 138.36 385.04 138.37 384.39C138.38 383.74 138 382.93 137.51 382.59C137.03 382.26 136.71 377.99 136.8 373.1C136.89 368.21 136.67 364.22 136.3 364.23C135.93 364.24 134.01 365.18 132.04 366.33ZM252.3 369.03C251.99 371.53 251.5 371.7 244.19 371.84C239.91 371.92 236.4 372.39 236.39 372.88C236.39 373.37 236.74 375.77 237.18 378.23C237.65 380.85 238.44 382.52 239.1 382.29C239.72 382.07 243.45 380.57 247.39 378.95C251.33 377.33 256.87 375.23 259.7 374.27C262.53 373.31 264.94 372.1 265.05 371.59C265.16 371.07 262.58 369.69 259.32 368.52C256.07 367.34 253.23 366.38 253.01 366.37C252.8 366.37 252.48 367.56 252.3 369.03Z" />
		<path id="Path 19 copy" class="shp7" d="M285.36 368.9C283.63 369.84 281.39 371.94 280.39 373.58C278.69 376.34 278.33 376.45 275.47 375.09C272.74 373.8 271.05 374.11 260.75 377.77C254.35 380.04 247.03 382.75 244.49 383.79C241.94 384.83 239.46 386.21 238.97 386.85C238.39 387.61 238.62 390.3 239.62 394.57C240.47 398.17 241.46 401.56 241.83 402.12C242.19 402.67 245.71 402.3 249.64 401.29C253.57 400.29 258.1 398.73 259.71 397.82C261.31 396.92 263.33 396.19 264.18 396.19C265.04 396.2 269.77 394.69 274.69 392.84C279.62 390.99 285.56 388.97 287.89 388.36C290.22 387.75 292.14 386.72 292.16 386.06C292.17 385.41 293.08 384.89 294.18 384.9C295.28 384.92 297.5 384.29 299.11 383.51C300.72 382.74 302.04 381.7 302.04 381.21C302.04 380.72 300.64 380.56 298.92 380.86C295.87 381.38 295.75 381.23 293.48 374.53C292.21 370.76 290.57 367.57 289.84 367.44C289.1 367.31 287.09 367.97 285.36 368.9Z" />
		<path id="Path 20 copy" class="shp6" d="M139.71 373.31C139.45 378.65 139.75 379.58 143.71 385.97C146.07 389.76 148.3 392.64 148.67 392.38C149.04 392.11 149.22 389.05 149.07 385.57C148.85 380.2 148.33 378.61 145.68 375.04C143.95 372.73 141.97 370.09 141.27 369.19C140.15 367.75 139.95 368.28 139.71 373.31Z" />
		<path id="Path 21 copy" class="shp5" d="M220.09 381.07C219.82 386.88 219.38 391.92 219.13 392.28C218.88 392.65 216.07 393.32 212.88 393.78C208.03 394.48 206.53 395.27 203.65 398.67C201.76 400.9 200.22 403.26 200.22 403.91C200.22 404.66 206.62 405.21 217.56 405.42C227.09 405.59 234.91 405.47 234.94 405.15C234.96 404.82 235.39 402.16 235.87 399.24C236.43 395.92 236.46 391.91 235.95 388.57C235.5 385.63 235.05 382.69 234.94 382.04C234.83 381.38 234.3 379.37 233.77 377.57C233.24 375.77 232.82 373.49 232.84 372.52C232.86 371.11 231.6 370.72 226.73 370.63L220.6 370.51L220.09 381.07Z" />
		<path id="Path 22 copy" class="shp7" d="M196.79 374.31C191.4 375.1 183.98 375.98 180.31 376.26C176.64 376.55 169.62 377.3 164.72 377.94C159.82 378.57 154.9 379.54 153.79 380.09C151.93 381 151.77 381.75 151.84 389.08C151.91 396.8 151.99 397.08 154.14 396.94C155.36 396.87 158.57 396.53 161.27 396.2C163.96 395.87 169.98 394.89 174.64 394.02C179.31 393.14 187.33 392.18 192.47 391.87C197.61 391.56 205.2 390.74 209.34 390.06L216.88 388.81L217.27 372.82C209 372.87 202.19 373.52 196.79 374.31Z" />
		<path id="Path 23 copy" class="shp5" d="M305.54 383.35C305.52 384.83 306.81 385.07 313.3 384.78C317.58 384.6 321.38 384.4 321.75 384.35C322.12 384.3 322.43 383.72 322.44 383.07C322.46 382.37 319.06 381.82 314.02 381.73C307.11 381.6 305.57 381.9 305.54 383.35ZM290.62 391.02C285.26 393.34 280.55 395.39 280.16 395.57C279.77 395.75 279.44 396.97 279.41 398.27C279.39 399.57 279.65 402.78 279.99 405.39L280.62 410.14C304 411.87 311.06 412.01 311.41 411.55C311.75 411.1 312.25 405.67 312.52 399.48L313.01 388.23C301.07 386.89 299.29 387.28 290.62 391.02Z" />
		<path id="Path 24 copy" class="shp7" d="M420.07 392.47C417.84 393.99 412.69 397.84 408.63 401.02L401.23 406.81C400.58 418.5 400.77 421.2 401.31 421.01C401.81 420.84 407.18 417.19 413.25 412.91C423.79 405.46 424.29 404.94 424.41 401.26C424.48 399.15 424.67 395.68 424.84 393.57C425 391.45 424.91 389.72 424.63 389.71C424.35 389.71 422.3 390.95 420.07 392.47Z" />
		<path id="Path 25 copy" class="shp6" d="M316.47 390.01C316.27 390.37 317.48 392.82 319.16 395.45C320.84 398.09 322.58 400.93 323.03 401.75C323.48 402.57 323.84 403.78 323.82 404.43C323.81 405.08 325.64 408.98 327.89 413.1C330.14 417.21 332.46 421.92 333.05 423.56C333.63 425.2 334.98 427.92 336.04 429.61C337.1 431.29 338.35 433.65 338.82 434.85C339.28 436.06 340.07 437 340.56 436.96C341.05 436.91 341.96 434.06 342.6 430.61C343.23 427.17 343.49 423.75 343.18 423.01C342.87 422.28 340.62 418.5 338.18 414.62C335.74 410.75 331.47 403.78 328.69 399.13C324.36 391.9 323.15 390.59 320.23 390.02C318.36 389.66 316.67 389.65 316.47 390.01Z" />
		<path id="Path 26 copy" class="shp5" d="M328.63 391.35C328.55 392.07 329.73 394.96 331.24 397.75C332.76 400.55 336.33 406.62 339.18 411.23C342.03 415.85 344.38 419.78 344.39 419.97C344.41 420.16 348.84 419.57 354.23 418.67C359.63 417.76 366.96 416.14 370.52 415.07C375.55 413.56 376.76 412.81 375.92 411.71C375.33 410.94 373.06 408.98 370.89 407.36C368.72 405.74 365.57 403.37 363.88 402.1C362.19 400.83 360.72 399.38 360.6 398.89C360.49 398.4 358.52 396.87 356.22 395.49C353.85 394.06 349.35 392.71 345.83 392.36C342.42 392.02 337.18 391.36 334.19 390.88C330.48 390.3 328.72 390.44 328.63 391.35Z" />
		<path id="Path 27 copy" class="shp6" d="M92.48 393.42C92.01 398.12 92.21 400.17 93.36 402.37C94.19 403.94 98.21 408.13 102.3 411.68C106.39 415.23 110.03 418.16 110.4 418.19C110.77 418.22 111.13 414.65 111.22 410.25C111.34 403.9 111.05 401.98 109.83 400.94C108.99 400.22 104.88 396.86 100.7 393.48L93.1 387.32L92.48 393.42Z" />
		<path id="Path 28 copy" class="shp7" d="M138.28 389.1C137.05 389.6 132 392.14 127.06 394.75C122.12 397.36 117.17 400.26 116.05 401.19C114.29 402.67 114 403.92 113.87 410.6L113.73 418.3C118.97 414.69 121.1 413.18 121.84 412.6C122.58 412.03 126.84 409.24 131.29 406.41C135.74 403.58 140.81 400.3 142.54 399.12C144.27 397.93 145.79 396.84 145.92 396.68C146.05 396.51 145.08 394.5 143.78 392.19C142.48 389.89 141.21 388.04 140.97 388.09C140.72 388.14 139.51 388.6 138.28 389.1Z" />
		<path id="Path 29 copy" class="shp6" d="M362.26 393.59C362.25 394.08 363.13 395.12 364.22 395.89C365.3 396.67 368.15 399.34 370.55 401.82C372.95 404.3 379.85 409.93 385.88 414.33C391.91 418.73 397.14 422.35 397.51 422.37C397.88 422.39 398.14 418.8 398.1 414.41L398.03 406.41L381.37 393.83C366.57 392.95 362.27 393.1 362.26 393.59Z" />
		<path id="Path 30 copy" class="shp7" d="M190.79 396.78C189.93 397.61 189.04 398.03 188.8 397.7C188.56 397.38 187.64 398.44 186.76 400.07C185.87 401.7 184.43 404.01 183.55 405.2C182.67 406.39 181.28 408.36 180.45 409.58C179.63 410.81 177.04 414.17 174.7 417.06C170.69 422.03 170.48 422.58 170.93 427.06C171.19 429.68 171.56 432.75 171.74 433.89C171.93 435.04 172.48 435.98 172.97 435.99C173.46 436 174.59 434.63 175.48 432.95C176.36 431.27 179.93 425.87 183.4 420.95C186.87 416.03 190.63 410.16 191.75 407.9C192.87 405.64 194.68 402.74 195.76 401.45C196.84 400.17 197.64 398.51 197.54 397.77C197.44 397.03 196.23 396.16 194.85 395.85C193.47 395.53 191.64 395.96 190.79 396.78Z" />
		<path id="Path 31 copy" class="shp5" d="M167.88 399.24C162.97 400.33 156.85 401.21 154.28 401.2C150.06 401.19 149.31 401.61 146.46 405.57C144.72 407.99 143.47 410.36 143.69 410.85C143.91 411.35 144.88 411.77 145.86 411.78C146.84 411.8 151.31 413.18 155.81 414.85C160.3 416.52 165.06 418.48 166.4 419.2C168.67 420.42 169.12 420.09 173.69 413.78C176.37 410.09 179.85 405.22 181.41 402.96C182.98 400.71 184.28 398.47 184.31 397.98C184.34 397.49 182.67 397.13 180.59 397.18C178.51 397.23 172.79 398.16 167.88 399.24ZM266.99 400.45C264.29 401.26 258.65 403.05 254.47 404.42C250.29 405.78 246.34 407.48 245.69 408.19C244.88 409.07 244.47 412.87 244.35 420.43C244.21 430.25 244.35 431.34 245.75 430.92C246.61 430.67 251.95 428.66 257.62 426.47C263.28 424.27 269.88 421.82 272.28 421.01C274.68 420.21 276.8 419.15 276.99 418.67C277.18 418.18 276.91 413.51 276.38 408.29C275.55 400.06 275.18 398.8 273.66 398.88C272.7 398.93 269.7 399.63 266.99 400.45ZM314.52 406.92C314.1 410.71 314.19 413.6 314.74 414.33C315.36 415.16 315.68 413.25 315.77 408.13C315.84 404.06 315.74 400.72 315.55 400.72C315.36 400.72 314.9 403.51 314.52 406.92ZM237.29 403.13C236.96 404.58 236.65 407.77 236.59 410.21C236.54 412.66 236.8 414.67 237.16 414.7C237.53 414.72 238.17 413 238.58 410.87C238.99 408.74 239.39 405.84 239.46 404.41C239.53 402.98 239.21 401.52 238.74 401.15C238.27 400.79 237.62 401.68 237.29 403.13Z" />
		<path id="Path 32 copy" class="shp6" d="M202.6 408.89L199.26 409.22L198.99 423.44C219.31 423.83 227.33 424.38 229.92 424.91L234.63 425.88L234.35 410.5C228.87 409.1 222.47 408.66 216.61 408.63C210.74 408.59 204.43 408.71 202.6 408.89Z" />
		<path id="Path 33 copy" class="shp7" d="M282.39 414.26C282.08 414.94 282.01 417.77 282.23 420.54C282.45 423.32 282.9 426.26 283.22 427.08C283.66 428.2 287.29 428.56 297.59 428.53L311.37 428.49L312.07 414.88C307.59 415.09 301.04 414.67 294.62 414.09C286.72 413.36 282.78 413.42 282.39 414.26ZM366.16 419.09C360.55 420.42 353.75 422.16 351.04 422.96L346.13 424.4L344.07 439.33C349.6 438.29 354.82 437.28 359.24 436.43C363.66 435.57 368.93 434.5 370.96 434.04C372.99 433.59 374.89 432.96 375.19 432.64C375.49 432.32 376.11 428.88 376.57 425C377.03 421.12 377.17 417.66 376.88 417.31C376.6 416.95 371.77 417.75 366.16 419.09Z" />
		<path id="Path 34 copy" class="shp6" d="M140.44 417.31C140.41 419.1 140.85 422.55 141.41 424.97C142.32 428.95 142.89 429.55 147.28 431.23C149.95 432.25 156.11 434.55 160.96 436.35C165.82 438.15 170 439.33 170.25 438.97C170.5 438.62 170.25 436.85 169.69 435.05C169.14 433.24 168.49 429.89 168.25 427.61C167.85 423.73 167.47 423.31 162.77 421.37C160 420.22 154.75 418.13 151.1 416.72C147.46 415.32 143.58 414.14 142.48 414.11C140.89 414.07 140.47 414.71 140.44 417.31Z" />
		<path id="Path 35 copy" class="shp7" d="M269.94 425.45C265.84 426.83 258.65 429.59 253.97 431.59C249.28 433.59 245.15 435.43 244.78 435.68C244.41 435.92 244.81 438.41 245.67 441.19C246.53 443.98 247.47 447.2 247.76 448.34C248.25 450.29 248.83 450.24 256.56 447.56C261.11 445.99 268.06 443.45 272 441.92C275.94 440.39 279.65 438.75 280.25 438.27C281.06 437.63 280.83 435.57 279.37 430.19L277.41 422.96L269.94 425.45Z" />
	</g>
</svg>