<svg xmlns="http://www.w3.org/2000/svg" viewBox="0 0 520 600" width="520" height="600">
	<style>
		tspan { white-space:pre }
		.shp0 { fill: #808080 } 
		.shp1 { fill: #000000 } 
		.shp2 { fill: #f0de78 } 
		.shp3 { fill: #8e8033 } 
		.shp4 { fill: #b7aa62 } 
		.shp5 { fill: #152809 } 
		.shp6 { fill: #2e5108 } 
		.shp7 { fill: #54762e } 
		.shp8 { fill: #82bb5e } 
		.shp9 { fill: #354c27 } 
		.shp10 { fill: #829d63 } 
		.shp11 { fill: #060606 } 
	</style>
	<path id="Background" class="shp0" d="M260.16 -0.7L520.31 149.5L520.31 449.91L260.16 600.11L0 449.91L0 149.5L260.16 -0.7Z" />
	<g id="Layer 1">
		<path id="Path 0" class="shp1" d="M257.45 18.92C256.93 19.42 250.65 23.18 243.5 27.27C236.35 31.36 219.92 40.78 207 48.2C194.07 55.63 178.89 64.47 173.25 67.85C167.61 71.23 162.77 74 162.5 74C162.22 74 158.74 75.94 154.75 78.32C150.76 80.7 143 85.26 137.5 88.45C132 91.64 124.57 95.95 121 98.02C117.42 100.09 108.87 105.02 102 108.99C95.12 112.96 85.45 118.58 80.5 121.47C75.55 124.36 69.47 127.85 67 129.23C64.52 130.6 56.42 135.23 49 139.5C41.57 143.78 31.45 149.63 26.5 152.52C21.55 155.4 17.16 158.49 16.75 159.38C16.34 160.27 15.99 223.66 15.98 300.25C15.97 411.13 16.22 439.84 17.23 441.15C17.93 442.05 21.54 444.64 25.25 446.9C28.96 449.15 32.22 451 32.5 451C32.77 451 38.06 454.01 44.25 457.69C50.44 461.37 60 466.9 65.5 469.99C71 473.08 81.35 479 88.5 483.16C95.65 487.32 105.89 493.26 111.25 496.36C116.61 499.46 125.39 504.55 130.75 507.66C136.11 510.77 144.77 515.79 150 518.81C155.22 521.83 160.85 525.07 162.5 526C164.15 526.93 176.97 534.33 191 542.45C205.02 550.57 224.37 561.73 234 567.24C243.62 572.75 253.19 578.33 255.25 579.63C257.31 580.93 259.9 582 261 582C262.1 582 265.81 580.27 269.25 578.15C272.69 576.04 280.22 571.58 286 568.26C291.77 564.94 309.55 554.68 325.5 545.47C341.45 536.25 356.97 527.36 360 525.71C363.02 524.06 365.95 522.37 366.5 521.96C367.05 521.55 372 518.62 377.5 515.45C383 512.28 395.82 504.88 406 499C416.17 493.13 431.25 484.42 439.5 479.64C447.75 474.86 454.61 470.96 454.75 470.98C454.89 470.99 460.51 467.72 467.25 463.72C473.99 459.72 485.06 453.31 491.86 449.47C499.75 445.02 504.54 441.69 505.11 440.25C505.62 438.97 506.01 378.35 506.02 299.25C506.03 188.78 505.78 160.16 504.77 158.83C504.07 157.91 499 154.58 493.5 151.43C488 148.27 482.15 144.92 480.5 143.97C478.85 143.02 470.3 138.07 461.5 132.96C452.7 127.85 442.57 122.03 439 120.04C435.42 118.05 427.1 113.23 420.5 109.34C413.9 105.45 403.55 99.43 397.5 95.97C391.45 92.5 382.22 87.23 377 84.24C371.77 81.26 367.05 78.47 366.5 78.05C365.95 77.63 363.02 75.93 360 74.27C356.97 72.62 346.17 66.4 336 60.47C325.82 54.54 314.12 47.81 310 45.51C305.87 43.22 298.45 38.96 293.5 36.04C288.55 33.12 280.9 28.71 276.5 26.24C272.1 23.78 267.26 20.91 265.75 19.88C264.24 18.85 261.96 18 260.7 18C259.43 18 257.97 18.41 257.45 18.92Z" />
		<path id="Path 1" class="shp2" d="M244.92 32.25C236.44 37.2 219.15 47.22 206.5 54.51C193.85 61.81 176.52 71.82 168 76.75C159.47 81.69 140.57 92.6 126 101.01C111.42 109.42 88.25 122.81 74.5 130.75C60.75 138.7 43.09 148.87 35.26 153.35L21.02 161.5L21.02 438.5C43.09 451.15 60.75 461.32 74.5 469.26C88.25 477.2 111.42 490.58 126 498.99C140.57 507.4 156.77 516.75 162 519.76C167.22 522.78 189.05 535.38 210.5 547.76C231.95 560.15 251.97 571.75 255 573.56C260.3 576.72 260.61 576.78 263.5 575.26C265.15 574.4 279.32 566.29 295 557.25C310.67 548.2 329.12 537.53 336 533.54C342.87 529.55 362 518.5 378.5 508.98C395 499.47 417.95 486.21 429.5 479.53C441.05 472.84 458.6 462.72 468.5 457.04C478.4 451.35 489.65 444.85 493.5 442.59L500.5 438.48C501.04 188.4 500.85 162.28 499.8 161.34C499.08 160.7 492.65 156.83 485.5 152.73C478.35 148.64 462.15 139.32 449.5 132.02C436.85 124.72 420.87 115.5 414 111.53C407.12 107.56 385.3 94.94 365.5 83.5C345.7 72.05 324.77 59.98 319 56.68C313.22 53.38 299.05 45.19 287.5 38.48C275.95 31.77 265.11 25.59 263.42 24.76C260.36 23.26 260.24 23.3 244.92 32.25Z" />
	</g>
	<path id="Path 0" class="shp3" d="M250 63.95C244.77 67.1 228.8 76.44 214.5 84.69C200.2 92.94 172.52 108.93 153 120.21C133.47 131.5 102.44 149.38 84.02 159.96L50.55 179.18L50.95 421.5C72.3 433.82 98.3 448.83 122.5 462.79C146.7 476.76 170.55 490.56 175.5 493.47C180.45 496.37 196.65 505.73 211.5 514.26C226.35 522.79 243.22 532.52 249 535.89C254.77 539.25 260.17 541.99 261 541.98C261.82 541.97 277.35 533.35 295.5 522.83C313.65 512.32 341.55 496.18 357.5 486.97C373.45 477.76 399.55 462.7 415.5 453.5C431.45 444.3 450.46 433.33 457.74 429.13L470.97 421.5L471.09 179.5C421.81 150.9 389.27 132.07 367 119.2C344.72 106.33 322.45 93.44 317.5 90.55C312.55 87.66 300.17 80.54 290 74.72C279.82 68.91 269.25 62.75 266.5 61.04C263.75 59.33 261.05 57.99 260.5 58.07C259.95 58.14 255.22 60.79 250 63.95Z" />
	<path id="Path 0" class="shp4" d="M230 75.11C213.77 84.53 170.8 109.35 134.5 130.26C98.2 151.17 64.34 170.69 59.25 173.64L50 179L49.99 300.5C57.92 311.35 64.4 320.57 69.49 328C77.02 338.97 79.81 342.2 84.38 345.25C88.46 347.98 91.27 350.98 94.64 356.25C97.19 360.24 101.1 365.75 103.34 368.5C105.57 371.25 113.05 379.28 119.95 386.34C126.85 393.41 137.22 403.34 143 408.41C148.77 413.48 158 421 163.5 425.11C169 429.23 176.42 434.4 180 436.6C183.57 438.8 189.2 441.79 192.5 443.23C195.8 444.68 203 447.51 208.5 449.51C214 451.51 222.32 454.48 227 456.12C231.67 457.75 238.42 459.71 242 460.46C245.57 461.22 252.77 462.15 258 462.53C263.22 462.91 270.31 463.85 273.75 464.61C278.21 465.6 281.36 465.74 284.75 465.08C287.36 464.58 294.34 462.33 300.25 460.08C306.16 457.84 315.84 454.68 321.75 453.07C327.66 451.46 337.45 448.51 343.5 446.52C349.55 444.53 360.57 439.97 368 436.39C375.42 432.81 384.65 427.51 388.5 424.62C392.35 421.73 398.87 415.63 403 411.08C407.12 406.53 413.65 400.25 417.5 397.13C422.19 393.32 432.16 387.51 447.75 379.48L471 367.5L471 179C452.79 168.37 414.65 146.26 374.5 123.01C334.35 99.76 292.72 75.63 282 69.39C271.27 63.14 261.82 58.02 261 58.01C260.17 57.99 246.22 65.69 230 75.11Z" />
	<path id="Path 0" fill-rule="evenodd" class="shp1" d="M260.75 58.08C261.44 58.04 268.41 61.76 276.25 66.37C284.09 70.97 322 92.96 360.5 115.25C399 137.53 439.63 161.11 471.08 179.5L471 422L453.75 431.86C444.26 437.29 402.52 461.31 361 485.25C319.47 509.19 280.21 531.75 273.75 535.39C267.29 539.02 261.32 542 260.5 542C259.67 542 251.69 537.78 242.75 532.62C233.81 527.46 187.12 500.45 51.5 421.96L50.85 416.73C50.49 413.85 50.14 359.3 49.93 179.5L121.72 138.07C161.2 115.29 207 88.81 223.5 79.22C240 69.64 254.85 60.98 256.5 59.98C258.15 58.98 260.06 58.13 260.75 58.08ZM127.75 140.78L56 182C56 412.47 56.1 419.03 57.75 419.58C58.71 419.9 104.27 446.08 159 477.75C213.72 509.42 259.17 535.5 260 535.7C260.82 535.89 273.9 528.95 289.05 520.28C304.21 511.6 350.21 485.15 391.27 461.5L465.94 418.5L465.93 182.5C344.7 112.39 298.92 85.91 286 78.42C273.07 70.92 262.05 64.62 261.5 64.41C260.95 64.19 246.77 72.02 230 81.79C213.22 91.56 167.21 118.11 127.75 140.78Z" />
	<g id="Layer 2 copy 4">
		<path id="Path 0" class="shp5" d="M259.32 225.81C259.29 226.4 259.65 226.9 260.12 226.93C260.59 226.96 261.5 227.11 262.16 227.27C262.99 227.47 263.3 227.2 263.17 226.37C263.07 225.64 262.29 225.09 261.18 224.96C259.91 224.81 259.35 225.07 259.32 225.81Z" />
		<path id="Path 1" class="shp6" d="M254.89 228.07C253.96 229.47 252.87 232.15 252.46 234.02C252.05 235.89 250.79 245.39 249.67 255.12C248.18 268.11 247.47 278.4 246.99 293.9C246.63 305.5 246.18 315.45 245.99 316.01C245.8 316.57 245.49 322.39 245.32 328.94C245.15 335.49 244.7 349.11 244.34 359.22C243.97 369.32 243.5 382.49 243.29 388.47C243.08 394.46 242.62 404.72 242.28 411.27C241.93 417.82 241.48 428.07 241.26 434.06C241.05 440.05 241.11 452.24 241.4 461.16C241.88 476.27 242.01 477.44 243.28 478.35C244.03 478.89 245.56 479.32 246.68 479.31C247.8 479.3 249.03 479.06 249.4 478.79C249.78 478.51 250.16 477.91 250.25 477.44C250.35 476.97 250.12 476.59 249.74 476.59C249.37 476.59 249.09 475.29 249.13 473.7C249.19 471.17 249.27 471.02 249.79 472.5C250.24 473.81 250.3 473.57 250.02 471.48C249.82 469.99 249.42 456.82 249.12 442.23C248.82 427.63 248.67 410.18 248.79 403.44C248.9 396.71 249.31 383.54 249.7 374.19C250.08 364.83 250.7 355.19 251.08 352.75C251.45 350.32 251.77 345.73 251.79 342.55C251.81 339.37 252.11 334.62 252.44 332C252.83 329.05 252.82 327.17 252.42 327.07C252.07 326.97 251.78 325.14 251.78 322.99C251.77 320.83 252 317.64 252.29 315.89C252.57 314.14 252.96 312.81 253.14 312.94C253.33 313.06 253.79 305.62 254.16 296.39C254.54 287.16 254.77 276.17 254.67 271.96C254.56 267.02 254.75 264.42 255.18 264.64C255.59 264.85 255.87 263.56 255.87 261.41C255.87 259.44 256.32 252.02 256.87 244.91C257.47 237.16 258.28 231.03 258.88 229.6C259.68 227.73 259.72 227.03 259.07 226.36C258.62 225.88 257.87 225.5 257.4 225.51C256.94 225.51 255.81 226.67 254.89 228.07ZM266.38 227.56C265.97 228 266.13 229.8 266.84 232.5C267.45 234.83 268.74 241.34 269.72 246.95C270.7 252.56 271.97 263.43 272.55 271.1C273.23 280.1 273.41 286.93 273.07 290.33C272.66 294.39 272.73 295.61 273.39 295.61C273.85 295.6 274.16 295.98 274.07 296.45C273.97 296.95 274.6 297.3 275.6 297.3C277.23 297.3 277.3 297.13 277.25 293.22C277.22 290.97 276.83 283.01 276.38 275.53C275.93 268.04 275.24 258.7 274.86 254.77C274.48 250.85 273.4 244.11 272.47 239.81C271.54 235.5 270.26 230.93 269.62 229.64C268.98 228.35 268.13 227.2 267.74 227.08C267.35 226.96 266.73 227.17 266.38 227.56Z" />
		<path id="Path 2" class="shp7" d="M249.56 229.43C248.58 230.46 247.3 232.45 246.72 233.85C246.13 235.26 245.66 238.01 245.67 239.98C245.67 241.94 245.04 246.61 244.26 250.35C243.48 254.09 242.56 260.07 242.22 263.62C241.88 267.18 241.16 278.96 240.61 289.82C240.07 300.67 239.44 315.98 239.22 323.84C239.01 331.69 238.51 342.26 238.12 347.31C237.73 352.36 236.96 360.48 236.42 365.34C235.88 370.21 235.11 375.26 234.71 376.57C234.23 378.16 234.01 394.53 234.06 425.9C234.11 453.64 234.41 473.89 234.8 475.4C235.25 477.16 235.93 478.08 236.98 478.36C237.83 478.59 239.36 478.59 240.39 478.36C242 478.01 242.21 477.69 241.89 476.08C241.69 475.05 241.48 463.18 241.42 449.71C241.36 436.03 241.69 419.21 242.17 411.61C242.65 404.12 243.01 396.32 242.98 394.26C242.95 392.2 243.23 383.93 243.6 375.89C243.96 367.84 244.44 355.29 244.65 347.99C244.86 340.69 245.17 331.05 245.34 326.56C245.51 322.07 245.82 317.32 246.02 316.01C246.23 314.7 246.67 304.6 247 293.56C247.38 280.5 248.18 268.14 249.29 258.18C250.22 249.76 251 242.41 251.01 241.85C251.02 241.29 251.47 238.68 252 236.06C252.53 233.44 253.3 230.69 253.72 229.94C254.13 229.19 254.25 228.34 253.98 228.05C253.71 227.76 253 227.53 252.42 227.54C251.83 227.55 250.55 228.4 249.56 229.43ZM259.2 229.61C258.65 230.81 258 234.28 257.74 237.33C257.48 240.37 256.96 245.93 256.59 249.67C256.22 253.41 255.9 258.85 255.89 261.75C255.88 264.65 255.64 267.02 255.35 267.02C255.07 267.03 254.75 272.15 254.63 278.42C254.51 284.69 254.26 294.87 254.07 301.04C253.85 308.22 253.37 313.25 252.75 314.99C252.18 316.59 251.85 319.61 251.95 322.3C252.05 324.83 252.35 326.89 252.63 326.9C252.91 326.9 252.96 328.51 252.73 330.47C252.51 332.43 252.21 336.19 252.08 338.81C251.95 341.42 251.72 346.02 251.57 349.01C251.42 352 251.1 354.84 250.86 355.3C250.62 355.77 250.05 364.81 249.59 375.38C249.11 386.27 248.84 408.31 248.96 426.24C249.08 443.64 249.27 459.87 249.4 462.3C249.52 464.73 249.79 468.41 250.01 470.46C250.3 473.26 250.23 473.78 249.74 472.5C249.22 471.13 249.17 471.33 249.49 473.53C249.71 475.02 249.97 476.71 250.06 477.27C250.15 477.83 251.12 478.55 252.2 478.87C253.37 479.22 254.71 479.19 255.53 478.8C256.76 478.2 256.87 477.56 256.7 472.09C256.59 468.76 256.51 465.58 256.51 465.02C256.51 464.46 256.47 444.56 256.42 420.79C256.37 397.03 256.29 373 256.23 367.38C256.17 361.77 256.39 353.2 256.71 348.33C257.02 343.47 257.44 338.11 257.64 336.42C257.83 334.74 258.27 330.91 258.61 327.92C258.95 324.92 259.55 316.5 259.94 309.21C260.33 301.91 260.67 293.03 260.7 289.48C260.74 285.92 260.54 276.12 260.27 267.7C260 259.28 260.03 247.19 260.34 240.83C260.74 232.76 261.04 230.19 261.35 232.32L261.78 235.38C261.91 231.16 261.55 229.38 261.07 228.69C260.25 227.52 260.12 227.58 259.2 229.61Z" />
		<path id="Path 3" class="shp6" d="M260.99 230.06C260.83 230.69 260.62 241.33 260.52 253.71C260.42 266.08 260.42 280.8 260.54 286.41C260.65 292.03 260.4 302.44 259.99 309.55C259.58 316.66 258.93 325.38 258.54 328.94C258.15 332.49 257.53 338.01 257.15 341.19C256.78 344.37 256.48 353.71 256.5 361.94C256.52 370.17 256.61 399.51 256.71 427.14C256.88 476.49 256.91 477.39 258.25 478.35C259 478.89 260.22 479.32 260.97 479.31C261.72 479.3 262.73 479.06 263.21 478.79C263.89 478.41 264.15 474.71 264.31 463.32C264.47 452.11 264.81 447.24 265.66 443.93C266.66 440.06 266.71 438 266.12 427.6C265.65 419.42 265.66 412.28 266.16 404.8C266.55 398.82 266.71 393 266.5 391.88C266.29 390.75 265.43 388.92 264.59 387.79C263.74 386.67 262.58 384.2 262.01 382.31C261.22 379.69 261.09 377.56 261.48 373.46C261.77 370.49 262.07 362.47 262.16 355.65C262.25 348.82 262.1 343.23 261.82 343.23C261.54 343.23 261.45 340.4 261.62 336.93C261.79 333.47 261.94 329.95 261.96 329.11C261.98 328.27 262.3 327.58 262.67 327.58C263.04 327.58 263.2 326.97 263.01 326.22C262.82 325.47 263.02 324.17 263.45 323.33C263.88 322.48 263.96 321.72 263.62 321.62C263.28 321.53 263.14 320 263.29 318.22C263.53 315.48 263.65 315.25 264.1 316.69C264.45 317.83 264.61 316.83 264.57 313.63C264.54 311.01 264.86 308.03 265.29 307C265.72 305.97 265.84 305.12 265.56 305.11C265.28 305.11 265.51 304.81 266.07 304.46C266.94 303.91 267.13 300.04 267.33 278.1C267.55 253.03 267.51 252.12 265.76 241.17C264.78 234.99 263.83 229.71 263.66 229.43C263.49 229.15 262.88 228.92 262.31 228.92C261.74 228.92 261.15 229.43 260.99 230.06Z" />
		<path id="Path 4" fill-rule="evenodd" class="shp7" d="M264.98 228.92C265.8 228.92 266.4 230.41 267.4 234.87C268.13 238.15 269.35 244.5 270.11 248.99C270.87 253.48 271.96 263.43 272.55 271.1C273.14 278.8 273.42 287.34 273.18 290.16C272.85 294.07 272.97 295.37 273.67 295.73C274.32 296.07 273.71 296.99 271.51 298.98C269.83 300.51 268.15 301.65 267.77 301.52C267.33 301.36 267.14 291.62 267.24 273.77C267.32 258.15 267.12 245.98 266.77 245.59C266.43 245.22 266.04 243.23 265.89 241.17C265.74 239.11 265.45 237.12 265.24 236.74C265.04 236.37 264.64 234.46 264.37 232.49C263.96 229.46 264.05 228.92 264.98 228.92ZM272.23 230.96C272.58 230.96 273.34 231.65 273.9 232.49C274.46 233.33 275.38 237.08 275.93 240.83C276.48 244.57 277.41 253.75 277.99 261.24C278.56 268.72 279.35 279.44 279.74 285.05C280.13 290.67 280.28 295.64 280.07 296.11C279.85 296.58 279.22 296.96 278.66 296.96C277.88 296.96 277.61 296.02 277.51 293.05C277.44 290.9 277.26 288.22 277.11 287.09C276.96 285.97 276.69 281.99 276.52 278.25C276.34 274.51 276.08 269.45 275.94 267.02C275.79 264.59 275.33 259.23 274.92 255.12C274.5 251 273.41 244.19 272.5 239.98C271.58 235.77 271 232.02 271.21 231.64C271.41 231.27 271.87 230.96 272.23 230.96ZM266.58 260.56C266.7 264.3 266.7 270.27 266.58 273.83C266.46 277.38 266.36 274.32 266.36 267.02C266.36 259.72 266.46 256.82 266.58 260.56Z" />
		<path id="Path 5" class="shp5" d="M323.45 260.73C323.98 261.76 325.22 265.36 326.21 268.72C327.2 272.09 328.64 278.67 329.41 283.35C330.38 289.21 331.03 297.68 331.49 310.57C331.86 320.86 332.27 331.88 332.42 335.06C332.56 338.24 332.71 347.58 332.74 355.82C332.78 364.05 332.49 374 332.1 377.93C331.7 381.86 331.06 387.22 330.66 389.84C330.26 392.46 329.31 396.89 328.54 399.7C327.78 402.51 326.38 407.41 325.44 410.59C324.51 413.77 322.74 418.51 321.52 421.13C320.3 423.75 318.27 426.9 317.01 428.14C315.75 429.37 313.34 431.56 311.66 433C309.71 434.67 307.11 436.05 304.51 436.8C302.27 437.45 299.36 438.51 298.05 439.15C296.74 439.8 293.98 440.49 291.93 440.69C288.64 441 288.43 440.96 290.23 440.29C291.35 439.88 296.09 437.65 300.77 435.35C308.29 431.64 309.6 430.73 312.06 427.5C313.6 425.5 315.94 422.02 317.27 419.77C318.59 417.53 320.66 412.63 321.85 408.89C323.05 405.14 324.6 399.48 325.3 396.3C326 393.12 327.02 386.69 327.57 382.01C328.13 377.33 328.95 368.61 329.39 362.62C329.92 355.52 330.03 346.29 329.72 336.08C329.45 327.48 329.06 320.13 328.85 319.75C328.63 319.38 328.21 313.1 327.91 305.81C327.56 297.34 326.64 287.61 325.35 278.93C324.25 271.44 323.01 264.48 322.6 263.45C322.2 262.42 321.41 261.58 320.84 261.58C320.28 261.58 319.83 261.2 319.84 260.73C319.85 260.26 319.71 260.03 319.54 260.22C319.36 260.41 318.87 263.62 318.46 267.36C317.78 273.61 317.86 274.92 319.43 283.35C320.37 288.4 321.45 297.59 321.83 303.76C322.21 309.94 322.84 320.96 323.22 328.26C323.61 335.56 323.92 346.96 323.91 353.6C323.91 360.25 323.59 368.67 323.2 372.32C322.81 375.96 321.7 382.16 320.72 386.09C319.74 390.02 317.95 395.99 316.74 399.36C315.54 402.73 313.56 407.47 312.34 409.91C311.13 412.34 308.54 416.32 306.58 418.75C304.63 421.19 301.83 423.96 300.37 424.93C298.91 425.89 296.18 427.59 294.31 428.7C292.44 429.8 289.83 431.14 288.52 431.67C287.21 432.19 285.92 432.95 285.64 433.34C285.37 433.74 285.14 435.52 285.13 437.29C285.13 439.07 285.35 440.53 285.63 440.53C285.91 440.53 286.14 441.42 286.14 442.5L286.14 444.47C296.71 445.34 297.53 445.21 305.53 442.62C313.42 440.08 314.4 439.56 318.95 435.61C321.65 433.26 324.58 430.27 325.45 428.96C326.32 427.65 327.69 425.35 328.48 423.86C329.28 422.36 330.72 419.07 331.68 416.54C332.64 414.02 333.43 411.64 333.43 411.27C333.43 410.89 333.95 409.59 334.58 408.38C335.21 407.16 335.79 404.94 335.88 403.44C335.97 401.95 336.53 397.81 337.14 394.26C337.89 389.83 338.43 380.28 338.84 363.98C339.17 350.88 339.66 337.56 339.92 334.38C340.2 331.03 340.09 326.17 339.65 322.82C339.24 319.63 338.14 308.92 337.21 299C336.29 289.08 334.95 278.52 334.25 275.53C333.54 272.53 332.14 268.25 331.12 266C330.1 263.76 328.6 261.22 327.78 260.37C326.91 259.47 325.49 258.83 324.39 258.84C322.54 258.86 322.51 258.91 323.45 260.73Z" />
		<path id="Path 6" class="shp8" d="M316.38 261.1C315.72 261.77 315.61 264.19 315.89 271.13C316.1 276.17 316.46 282.89 316.68 286.07C316.91 289.25 317.25 295.38 317.45 299.68C317.65 303.99 317.94 309.04 318.09 310.91C318.25 312.78 318.58 317.22 318.83 320.77C319.07 324.33 319.25 336.42 319.22 347.65C319.19 358.88 319 369.29 318.81 370.78C318.61 372.28 318.32 375.04 318.15 376.91C317.98 378.78 317.06 383.3 316.11 386.94C315.16 390.59 314.53 393.88 314.72 394.26C314.91 394.63 314.75 394.94 314.38 394.94C314.01 394.94 313.32 396.55 312.86 398.51C312.39 400.48 312.01 402.43 312.01 402.85C312 403.27 311.77 403.5 311.49 403.36C311.21 403.22 310.8 403.95 310.59 404.97C310.38 406 308.77 409.13 307.02 411.92C305.15 414.89 301.93 418.69 299.21 421.1C296.67 423.37 294.22 425.34 293.77 425.48C293.32 425.63 292.18 426.06 291.25 426.43C290.31 426.81 288.7 427.07 287.67 427.02C285.93 426.92 285.8 427.1 285.8 429.64C285.8 431.37 286.11 432.35 286.65 432.34C287.12 432.34 290.11 430.91 293.29 429.17C296.47 427.43 300.11 425.22 301.37 424.25C302.64 423.29 304.86 420.96 306.3 419.09C307.74 417.22 309.16 415.37 309.44 414.99C309.73 414.6 311.26 411.69 312.85 408.52C314.44 405.36 315.74 402.38 315.74 401.91C315.74 401.44 316.24 400.07 316.85 398.85C317.46 397.63 318.55 394.34 319.27 391.54C320 388.73 320.74 385.82 320.92 385.07C321.11 384.32 321.42 382.95 321.62 382.01C321.82 381.08 322.09 379.54 322.2 378.61C322.32 377.67 322.67 375.07 322.98 372.83C323.29 370.58 323.55 361.24 323.55 352.07C323.55 342.9 323.31 330.35 323.02 324.18C322.74 318 322.04 307.13 321.48 300.02C320.91 292.91 320.16 286.79 319.8 286.41C319.45 286.04 319.29 285.58 319.47 285.39C319.64 285.21 319.31 282.6 318.75 279.61C317.92 275.27 317.85 272.85 318.39 267.7C318.77 264.15 318.93 261.01 318.77 260.73C318.6 260.45 318.19 260.22 317.86 260.22C317.53 260.22 316.86 260.61 316.38 261.1Z" />
		<path id="Path 7" class="shp5" d="M312.94 263.79C312.51 264.63 311.85 268.69 311.49 272.81C311.13 276.98 311.03 287.06 311.29 295.6C311.53 304.02 311.85 314.74 311.99 319.41C312.12 324.09 312.46 334.04 312.73 341.53C313.06 350.77 312.96 357.64 312.4 362.96C311.94 367.26 310.85 374 309.97 377.93C309.08 381.86 307.23 388.44 305.85 392.56C304.47 396.67 302.53 401.66 301.55 403.63C300.56 405.61 298.1 408.82 296.07 410.78C294.05 412.73 290.74 416.47 288.73 419.09C286.5 421.98 285.14 424.39 285.27 425.22C285.41 426.17 286.08 426.64 287.51 426.77C288.63 426.88 290.67 426.58 292.05 426.09C293.42 425.61 296.62 423.38 299.15 421.13C301.68 418.89 305.13 414.91 306.81 412.29C308.49 409.67 310.71 405.08 311.74 402.08C312.78 399.09 314.55 392.97 315.68 388.47C316.81 383.98 318.06 377.48 318.44 374.02C318.83 370.55 319.16 358.15 319.17 346.46C319.19 334.77 318.87 321.37 318.47 316.69C318.08 312.01 317.46 303.59 317.1 297.98C316.74 292.37 316.27 282.26 316.05 275.53C315.83 268.79 315.52 263.05 315.36 262.77C315.19 262.49 314.76 262.26 314.4 262.26C314.04 262.26 313.38 262.95 312.94 263.79ZM191.85 264.14C191.32 264.32 190.03 265.27 188.98 266.26C187.92 267.25 186.64 269.55 186.09 271.44C185.55 273.32 184.65 276.99 184.09 279.61C183.53 282.23 182.48 289.42 181.75 295.6C180.93 302.57 180.4 311.73 180.35 319.75C180.3 326.86 180.41 336.2 180.58 340.51C180.75 344.81 181.39 350.63 182.01 353.43C182.62 356.24 183.39 360.07 183.72 361.94C184.04 363.81 184.83 366.87 185.48 368.74C186.12 370.61 187.67 374.36 188.93 377.08C190.19 379.79 191.53 382.01 191.91 382.01C192.28 382.01 193.42 383.77 194.44 385.92C195.57 388.31 198.29 391.91 201.41 395.16C204.23 398.09 207.88 401.31 209.53 402.31C211.18 403.31 213.09 404.97 213.78 406C214.48 407.02 216.34 408.35 217.93 408.94C220 409.71 222.59 409.95 227.06 409.79C230.49 409.67 233.5 409.41 233.74 409.23C233.98 409.04 234.01 408.2 233.8 407.36C233.55 406.38 232.73 405.68 231.54 405.44C230.51 405.22 228.44 404.55 226.95 403.95C225.45 403.35 221.32 401.23 217.76 399.25C214.21 397.26 209.78 394.49 207.93 393.08C206.08 391.67 202.76 388.37 200.56 385.75C198.36 383.13 195.49 378.69 194.18 375.89C192.87 373.08 190.87 368.49 189.74 365.68C187.73 360.67 187.7 360.43 188.13 352.07C188.38 347.11 188.3 343.28 187.93 342.89C187.58 342.51 186.93 339.45 186.48 336.08C185.86 331.36 185.85 327.32 186.47 318.39C186.91 312.03 187.85 301.47 188.56 294.92C189.26 288.37 190.16 280.87 190.56 278.25C190.95 275.63 191.64 272.31 192.1 270.87C192.56 269.42 193.47 267.74 194.14 267.12C195.17 266.17 195.35 266.15 195.33 267.02C195.32 267.58 194.86 274.01 194.3 281.31C193.75 288.61 192.83 300.86 192.26 308.53C191.7 316.2 191.23 325.23 191.24 328.6C191.24 331.97 191.69 336.41 192.24 338.46C192.79 340.52 193.29 343.89 193.34 345.95C193.4 348.01 194.35 353.37 195.45 357.86C196.94 363.89 198.7 368.59 202.21 375.89C206.81 385.43 207.17 385.96 213.55 392.22C219.87 398.41 220.4 398.77 226.44 400.89C229.9 402.11 233.04 402.95 233.41 402.76C233.79 402.58 234.09 401.35 234.09 400.04C234.09 397.94 233.71 397.42 230.86 395.63C229.08 394.52 225.39 391.99 222.66 390.02C219.93 388.05 217.33 386.31 216.88 386.15C216.43 385.99 214.58 384.46 212.77 382.75C210.96 381.03 208.37 377.64 207.02 375.21C205.66 372.77 203.87 368.79 203.04 366.36C202.2 363.93 201.15 359.18 200.69 355.82C200.24 352.45 199.73 342.8 199.56 334.38C199.4 325.96 199.61 310.35 200.04 299.68C200.61 285.53 200.62 278.63 200.08 274.17C199.67 270.8 199.27 267.49 199.19 266.81C199.11 266.13 198.52 265.27 197.86 264.9C197.21 264.52 196.14 264.31 195.48 264.41C194.83 264.52 193.96 264.43 193.55 264.21C193.14 263.99 192.38 263.96 191.85 264.14Z" />
		<path id="Path 8" class="shp8" d="M323.23 264.47C323.23 264.56 323.99 269.85 324.93 276.21C325.87 282.57 326.79 288.69 326.97 289.82C327.15 290.94 327.46 293.69 327.66 295.94C327.86 298.18 328.15 304 328.29 308.87C328.44 313.73 328.88 321.39 329.27 325.88C329.67 330.37 329.85 341.24 329.69 350.03C329.53 358.83 329.24 367.71 329.05 369.76C328.86 371.82 328.56 375.04 328.39 376.91C328.21 378.78 327.61 383.22 327.06 386.77C326.5 390.33 325.59 395.23 325.03 397.66C324.47 400.09 323.03 405.14 321.84 408.89C320.52 413.05 318.37 417.8 316.3 421.13C314.44 424.13 312.28 427.5 311.48 428.62C310.69 429.74 308.49 431.51 306.6 432.55C304.7 433.6 301.08 435.43 298.54 436.64C296 437.84 293.93 439.21 293.95 439.68C293.96 440.14 294.27 440.53 294.65 440.53C295.02 440.53 296.63 439.85 298.22 439.03C299.81 438.21 301.42 437.48 301.79 437.41C302.17 437.34 303.85 436.9 305.53 436.43C307.22 435.96 309.52 434.69 310.64 433.59C311.76 432.5 313.44 431.19 314.38 430.69C315.32 430.18 316.72 428.9 317.51 427.83C318.29 426.77 319.5 424.83 320.2 423.52C320.9 422.21 321.56 420.9 321.67 420.62C321.78 420.34 321.9 419.88 321.95 419.6C321.99 419.32 321.99 418.86 321.95 418.58C321.9 418.3 322.17 418.07 322.55 418.07C322.92 418.07 323.84 416.16 324.59 413.82C325.34 411.48 325.95 408.95 325.93 408.21C325.92 407.46 326.15 406.59 326.44 406.27C326.73 405.95 327.03 405.19 327.1 404.57C327.18 403.95 327.46 402.68 327.73 401.74C328 400.81 328.32 399.81 328.44 399.53C328.57 399.25 328.72 398.79 328.77 398.51C328.83 398.23 328.94 397.69 329.01 397.32C329.08 396.95 329.32 396.18 329.53 395.62C329.75 395.06 330.1 393.07 330.31 391.2C330.53 389.33 330.87 386.42 331.07 384.73C331.27 383.05 331.6 380.75 331.79 379.63C331.99 378.51 332.26 367.02 332.39 354.11C332.52 341.2 332.37 328.5 332.05 325.88C331.73 323.26 331.31 314.99 331.12 307.51C330.92 300.02 330.6 292.52 330.4 290.84C330.2 289.15 329.55 284.71 328.96 280.97C328.37 277.23 327.63 273.71 327.32 273.15C327.01 272.58 326.73 271.9 326.69 271.61C326.66 271.33 326.38 269.57 326.09 267.7C325.68 265.16 325.26 264.3 324.39 264.3C323.75 264.3 323.23 264.38 323.23 264.47ZM192.97 268.55C192.83 269.02 192.37 270.48 191.95 271.79C191.53 273.09 191 275.7 190.77 277.57C190.54 279.44 190.3 281.43 190.23 281.99C190.17 282.55 189.92 283.78 189.67 284.71C189.43 285.65 189.07 288.71 188.88 291.52C188.69 294.32 188.4 297.54 188.24 298.66C188.08 299.78 187.78 302.69 187.57 305.12C187.37 307.56 186.99 312.3 186.73 315.67C186.47 319.04 186.3 325.16 186.34 329.28C186.4 333.65 186.88 338.46 187.51 340.85C188.35 344.03 188.49 346.65 188.14 352.75L187.69 360.58C191.55 370.07 193.25 373.74 193.97 374.87C194.68 375.99 195.27 377.37 195.26 377.93C195.26 378.49 196.8 381.02 198.69 383.54C200.95 386.57 202.4 387.96 202.96 387.62C203.46 387.32 203.61 387.39 203.32 387.79C203.06 388.17 203.83 389.43 205.03 390.59C206.23 391.76 208.21 393.29 209.44 393.99C210.66 394.7 211.65 395.51 211.65 395.79C211.64 396.07 212.02 396.29 212.49 396.29C212.96 396.28 214.3 396.97 215.47 397.82C216.65 398.67 219.25 400.18 221.26 401.18C223.26 402.18 225.83 403.37 226.95 403.84C228.07 404.31 229.3 404.75 229.67 404.83C230.04 404.9 231.04 405.15 231.88 405.39C233.1 405.74 233.41 405.55 233.41 404.46C233.41 403.39 232.58 402.86 229.5 401.97C227.35 401.35 224.82 400.43 223.89 399.93C222.95 399.44 221.8 399.03 221.33 399.03C220.87 399.02 217.35 395.88 213.51 392.05C207.05 385.58 206.26 384.5 202.79 377.25C200.74 372.94 198.8 369.27 198.48 369.08C198.17 368.9 197.94 368.51 197.97 368.23C198 367.95 197.8 366.8 197.52 365.67C197.24 364.53 196.86 363.61 196.67 363.62C196.48 363.63 196.26 362.64 196.17 361.43C196.09 360.21 195.7 359.14 195.32 359.05C194.94 358.95 194.78 358.57 194.97 358.2C195.16 357.82 194.89 355.6 194.37 353.26C193.85 350.92 193.38 347.48 193.32 345.61C193.27 343.74 192.78 340.52 192.23 338.46C191.69 336.41 191.24 331.97 191.23 328.6C191.23 325.23 191.51 318.65 191.86 313.97C192.22 309.29 192.68 302.86 192.89 299.68C193.1 296.5 193.58 289.76 193.96 284.71C194.33 279.66 194.72 273.77 194.83 271.61C194.97 268.74 194.79 267.7 194.13 267.7C193.64 267.7 193.12 268.09 192.97 268.55ZM200.12 287.6C199.96 297.8 199.83 315.79 199.84 327.58C199.85 339.37 200.09 350.54 200.37 352.41C200.65 354.28 201.31 358.26 201.84 361.26C202.45 364.79 203.79 368.73 205.63 372.49C207.49 376.28 209.77 379.6 212.27 382.15C214.35 384.29 216.37 386.04 216.74 386.05C217.12 386.06 219.57 387.69 222.19 389.69C224.8 391.68 228.24 394.06 229.83 394.97C231.41 395.89 232.84 396.49 233 396.3C233.17 396.11 233.51 395.04 233.76 393.92C234.19 391.99 233.73 391.42 225.48 383.71C220.67 379.22 214.88 373.71 212.61 371.46C209.53 368.42 208.09 366.34 206.95 363.3C205.78 360.16 205.18 356.06 204.35 345.61C203.41 333.81 203.38 330.46 204.15 320.43C204.72 313.1 204.83 307.75 204.45 305.81C204.12 304.12 203.93 297.08 204.03 290.16C204.19 279.61 204.02 276.92 203 273.55C202.32 271.33 201.47 269.42 201.09 269.29C200.65 269.15 200.31 275.67 200.12 287.6Z" />
		<path id="Path 9" class="shp9" d="M273.36 298.49C273.2 298.96 273.37 308.07 273.75 318.73C274.13 329.4 274.42 343.79 274.39 350.71C274.35 359.09 273.96 365.46 273.21 369.76C272.6 373.32 271.49 378.06 270.75 380.31C270.01 382.56 268.8 385.23 268.08 386.26C267.35 387.29 266.75 388.75 266.75 389.5C266.75 390.24 267.21 391.01 267.77 391.2C268.33 391.38 269.79 391.53 271 391.53C272.22 391.52 273.59 391.29 274.04 391.02C274.49 390.74 275.5 388.07 276.27 385.07C277.04 382.08 278.3 376.72 279.07 373.17C279.93 369.17 280.61 362.81 280.85 356.5C281.07 350.87 280.86 340.49 280.39 333.36C279.92 326.25 278.96 317.07 278.25 312.95C277.55 308.83 276.96 304.16 276.96 302.57C276.96 300.98 276.8 299.22 276.62 298.66C276.43 298.1 275.69 297.64 274.97 297.64C274.26 297.64 273.53 298.02 273.36 298.49Z" />
		<path id="Path 10" class="shp10" d="M276.8 301.21C276.9 302.8 277.59 308.39 278.32 313.63C279.05 318.87 279.91 325.3 280.24 327.92C280.56 330.54 280.78 340.34 280.72 349.69C280.63 365.66 280.51 367.2 278.75 374.87C277.71 379.36 276.78 383.34 276.68 383.71C276.57 384.09 276.26 385.31 275.98 386.43C275.7 387.56 275.34 388.93 275.18 389.5C275.01 390.08 275.48 390.74 276.26 391.03C277.27 391.4 278.17 391.04 279.66 389.67C280.93 388.49 281.45 387.54 281.05 387.11C280.67 386.7 280.7 385.24 281.12 383.37C281.49 381.69 281.96 379.09 282.16 377.59C282.35 376.09 282.81 370.73 283.18 365.68C283.54 360.63 283.71 351.29 283.54 344.93C283.37 338.57 282.89 328.77 282.47 323.16C282.05 317.54 281.33 310.72 280.87 308C280.3 304.7 280.25 302.83 280.7 302.42C281.15 302 280.97 301.19 280.19 300.05C279.53 299.1 278.46 298.32 277.81 298.32C276.83 298.32 276.65 298.84 276.8 301.21ZM271 299.85C270.64 300.32 270.15 301.54 269.91 302.57C269.64 303.73 269.73 304.31 270.15 304.1C270.61 303.88 270.61 304.22 270.15 305.12C269.78 305.87 269.44 307.17 269.41 308.02C269.37 308.86 269.31 314.6 269.28 320.77C269.25 326.95 269.35 341.03 269.5 352.07C269.73 369.44 269.61 372.6 268.64 375.55C267.95 377.62 266.56 379.81 265.09 381.16C263.76 382.38 262.66 383.75 262.66 384.22C262.65 384.69 263.34 386.07 264.19 387.29L265.73 389.5C268.56 385.54 269.99 382.56 270.74 380.31C271.48 378.06 272.56 373.47 273.14 370.1C273.71 366.74 274.27 359.08 274.38 353.09C274.49 347.11 274.34 334.71 274.04 325.54C273.75 316.37 273.37 306.65 273.2 303.93C273.03 301.22 272.61 299 272.28 299C271.94 299 271.37 299.38 271 299.85Z" />
		<path id="Path 11" class="shp9" d="M267.38 303.15C266.1 304.26 265.28 305.16 265.56 305.15C265.84 305.14 265.72 305.97 265.29 307C264.86 308.03 264.56 310.93 264.61 313.46C264.67 316.13 264.43 318.05 264.03 318.05C263.66 318.05 263.34 319.2 263.33 320.6C263.32 322.01 263.24 324.15 263.16 325.36C263.08 326.58 262.78 327.57 262.5 327.57C262.22 327.58 261.98 328.27 261.96 329.11C261.94 329.95 261.79 333.47 261.62 336.93C261.45 340.4 261.54 343.23 261.82 343.23C262.1 343.23 262.25 348.82 262.15 355.65C262.05 362.47 261.8 370.67 261.59 373.85C261.39 377.03 261.39 380.32 261.6 381.16C261.82 382 262.37 382.7 262.84 382.71C263.31 382.71 264.51 381.87 265.52 380.83C266.52 379.8 267.71 378.03 268.17 376.91C268.62 375.79 269.24 371.65 269.55 367.72C269.88 363.51 269.8 351.08 269.34 337.44C268.8 321.19 268.78 312.9 269.28 309.55C269.7 306.75 269.74 304.29 269.39 303.59C268.99 302.79 269.07 302.32 269.64 302.16C270.11 302.02 270.32 301.73 270.1 301.52C269.88 301.3 268.65 302.04 267.38 303.15ZM280.67 302.38C280.26 302.8 280.33 304.87 280.87 308C281.33 310.72 282.05 317.54 282.47 323.16C282.88 328.77 283.37 338.41 283.55 344.59C283.73 350.76 283.54 360.71 283.13 366.7C282.72 372.69 281.95 379.58 281.42 382.01C280.84 384.7 280.71 386.7 281.09 387.11C281.43 387.49 281.48 388.04 281.2 388.35C280.93 388.66 281.43 388.66 282.32 388.35C283.21 388.04 284.02 387.33 284.11 386.77C284.2 386.21 284.79 384.07 285.41 382.01C286.05 379.87 286.81 373.75 287.17 367.72C287.52 361.92 287.81 350.75 287.82 342.89C287.83 335.03 287.51 325.08 287.1 320.77C286.7 316.47 285.91 311.11 285.36 308.87C284.8 306.62 283.91 304.1 283.37 303.25C282.84 302.41 282.16 301.72 281.86 301.72C281.56 301.72 281.02 302.02 280.67 302.38ZM228.8 323.73C227.95 324.22 226.49 325.97 225.56 327.63C224.42 329.66 223.88 331.69 223.88 333.87C223.88 335.65 223.45 338.71 222.93 340.68C222.29 343.03 221.84 349.71 221.59 360.24C221.39 369.03 221.06 376.76 220.85 377.42C220.63 378.15 221.24 379.46 222.45 380.82C224.22 382.81 224.52 382.93 225.54 382.01C226.46 381.18 226.66 379.66 226.64 373.85C226.62 369.92 227.23 361.34 227.99 354.79C228.74 348.25 229.51 339.37 229.7 335.06C229.88 330.76 230.12 326.24 230.24 325.03C230.35 323.81 230.42 322.82 230.4 322.83C230.37 322.83 229.65 323.24 228.8 323.73Z" />
		<path id="Path 12" class="shp10" d="M230.41 325.54C230.11 327.22 229.77 331.66 229.65 335.4C229.53 339.15 228.78 347.87 227.99 354.79C227.19 361.72 226.56 370.29 226.59 373.85C226.61 377.4 226.45 381.08 226.24 382.01C226.02 382.95 226.25 384.29 226.74 385C227.23 385.72 227.93 386.13 228.31 385.92C228.68 385.72 229.23 381 229.51 375.45C229.8 369.89 230.34 361.67 230.71 357.18C231.07 352.69 231.54 344.42 231.76 338.81C231.97 333.19 231.87 327.22 231.55 325.54L230.96 322.48L230.41 325.54Z" />
		<path id="Path 13" class="shp9" d="M231.71 333.93C231.71 339.98 231.3 350.13 230.79 356.5C230.28 362.86 229.67 372.12 229.43 377.07C229.04 384.99 229.13 386.28 230.18 387.79C230.83 388.73 231.75 389.49 232.22 389.48C232.79 389.48 232.73 389.25 232.05 388.81C231.14 388.23 231.14 388.15 232.05 388.06C232.61 388.01 233.3 388.01 233.58 388.05C233.86 388.1 234.09 385.3 234.08 381.84C234.07 378.38 234.34 375.24 234.68 374.87C235.01 374.49 235.48 373.04 235.71 371.63C235.96 370.11 235.86 369.08 235.45 369.08C235.08 369.08 234.92 368.55 235.11 367.89C235.29 367.24 235.79 361.96 236.23 356.16C236.66 350.35 237.03 344.54 237.05 343.23C237.07 341.92 236.98 337.63 236.85 333.7C236.71 329.77 236.3 325.95 235.93 325.2C235.55 324.45 234.91 323.61 234.5 323.34C234.09 323.06 233.52 322.83 233.24 322.83C232.96 322.82 232.94 323.2 233.2 323.67C233.57 324.32 233.45 324.34 232.69 323.72C231.85 323.04 231.71 324.44 231.71 333.93Z" />
		<path id="Path 14" class="shp10" d="M185.99 328.94C185.99 331 186.11 331.76 186.27 330.64C186.43 329.52 186.43 327.83 186.27 326.9C186.11 325.96 185.99 326.88 185.99 328.94ZM236.72 326.69C236.57 326.99 236.53 330.07 236.63 333.53C236.77 338.41 237.04 339.9 237.83 340.17C238.7 340.46 238.83 339.48 238.68 333.59C238.58 329.22 238.23 326.57 237.75 326.41C237.33 326.26 236.87 326.39 236.72 326.69ZM236.89 347.48C236.5 350.57 235.93 356.69 235.64 361.09C235.35 365.49 235.27 369.09 235.45 369.1C235.64 369.1 236.01 367.95 236.28 366.54C236.55 365.13 237.09 359.69 237.48 354.45C237.88 349.22 238.3 344.24 238.42 343.4C238.54 342.56 238.41 341.87 238.13 341.87C237.85 341.87 237.29 344.39 236.89 347.48Z" />
		<path id="Path 15" class="shp7" d="M245.23 357.18C245.23 360.92 245.34 362.3 245.48 360.24C245.62 358.18 245.62 355.12 245.48 353.43C245.34 351.75 245.23 353.43 245.23 357.18ZM282.06 388.57C280.94 389.16 279.65 390.14 279.19 390.76C278.67 391.47 278.59 392.25 278.98 392.9C279.31 393.46 279.83 402.18 280.12 412.29C280.41 422.39 280.61 437.55 280.55 445.97C280.5 454.39 280.15 464.95 279.77 469.44C279.15 476.81 279.2 477.69 280.23 478.4C281.02 478.95 282.12 479.01 283.76 478.59C285.07 478.25 286.37 477.73 286.65 477.45C286.92 477.16 286.83 473.71 286.44 469.78C286.05 465.85 285.83 457.66 285.94 451.58C286.05 445.5 285.91 440.52 285.63 440.52C285.35 440.53 285.29 436.47 285.49 431.51C285.68 426.55 285.87 422.19 285.9 421.81C285.93 421.44 285.69 413.98 285.37 405.25C285.05 396.51 284.55 389.24 284.27 389.09C283.99 388.94 283.9 388.51 284.08 388.13C284.25 387.76 284.33 387.47 284.25 387.48C284.17 387.5 283.18 387.99 282.06 388.57Z" />
		<path id="Path 16" class="shp10" d="M256.83 401.06C256.83 408.36 256.93 411.42 257.05 407.87C257.18 404.31 257.18 398.34 257.05 394.6C256.93 390.86 256.83 393.76 256.83 401.06Z" />
		<path id="Path 17" class="shp7" d="M267.06 391.48C266.97 391.7 266.69 396.16 266.45 401.4C266.21 406.64 265.86 411.39 265.68 411.95C265.5 412.51 265.66 419.02 266.05 426.41C266.51 435.24 266.52 440.72 266.08 442.4C265.72 443.8 265.18 446.63 264.89 448.69C264.61 450.75 264.37 458.24 264.37 465.34L264.37 478.26C267.5 479.42 268.71 479.43 269.92 478.97C271.71 478.3 271.73 478.22 271.46 472.84C271.3 469.85 271.33 461.89 271.51 455.15C271.7 448.42 271.85 431.58 271.85 417.73C271.85 403.89 272.03 394.24 272.25 396.3L272.65 400.04C272.81 394.77 272.63 392.9 272.35 392.48C272.08 392.06 270.81 391.58 269.54 391.4C268.27 391.23 267.16 391.26 267.06 391.48Z" />
		<path id="Path 18" class="shp6" d="M272.88 391.52C272 392.08 271.82 396.67 271.6 424.34C271.46 442.04 271.38 460.8 271.42 466.04C271.46 471.28 271.66 476.26 271.85 477.1C272.07 478.07 272.87 478.78 274.07 479.05C275.1 479.27 276.55 479.17 277.3 478.81C278.05 478.45 278.86 477.27 279.11 476.18C279.36 475.1 279.96 466.55 280.43 457.2C281.11 443.78 281.12 437.67 280.48 428.28C280.03 421.73 279.67 411.24 279.67 404.97C279.68 394.48 279.57 393.47 278.32 392.22C277.57 391.47 276.27 390.86 275.43 390.87C274.58 390.87 273.44 391.17 272.88 391.52Z" />
		<path id="Path 19" class="shp7" d="M257.44 422.15C257.44 424.59 257.57 425.51 257.72 424.2C257.87 422.89 257.87 420.9 257.72 419.77C257.57 418.65 257.44 419.72 257.44 422.15ZM279.91 440.19C279.92 443.18 280.03 444.25 280.18 442.57C280.32 440.88 280.32 438.43 280.17 437.12C280.03 435.81 279.91 437.19 279.91 440.19Z" />
	</g>
	<path id="Path 0" fill-rule="evenodd" class="shp11" d="M261.17 224.21C263.3 224.47 265.89 225.03 266.92 225.44C267.95 225.86 269.9 227.19 271.25 228.41C272.6 229.63 274.24 231.54 274.91 232.66C275.68 233.97 276.28 236.9 276.57 240.83C276.82 244.19 277.76 254.3 278.65 263.28C279.54 272.26 280.47 283.44 280.71 288.11C281.11 295.92 281.34 297.03 283.47 301.55C284.75 304.27 286.08 307.94 286.43 309.72C286.77 311.5 287.42 317.24 287.88 322.48C288.46 329.12 288.57 338.28 288.23 352.75C287.96 364.17 287.46 375.19 287.12 377.25C286.78 379.31 286.3 386.35 286.07 392.9C285.84 399.45 285.87 408.33 286.65 420.45L288.44 418.11C289.42 416.82 292.41 413.61 295.09 410.97C298.13 407.96 300.7 404.64 301.97 402.08C303.09 399.84 305.4 393.56 307.11 388.13C308.81 382.71 310.52 376.43 310.9 374.19C311.27 371.94 311.95 366.58 312.4 362.28C312.92 357.33 313.04 351.33 312.74 345.95C312.47 341.27 311.95 330.1 311.57 321.11C311.2 312.13 310.75 299.12 310.58 292.2C310.4 285.27 310.57 276.09 310.96 271.79C311.44 266.49 312.07 263.3 312.9 261.92C313.58 260.8 315.03 259.34 316.13 258.69C317.22 258.04 319.71 257.43 321.64 257.33C324.3 257.2 325.62 257.49 327 258.52C328.01 259.27 329.71 261.41 330.77 263.28C331.91 265.28 333.42 269.84 334.43 274.34C335.38 278.55 336.45 284.82 336.81 288.28C337.17 291.75 337.77 297.79 338.14 301.72C338.51 305.65 338.99 311.01 339.2 313.63C339.41 316.25 339.92 321 340.33 324.18C340.75 327.36 340.86 331.18 340.59 332.68C340.32 334.18 339.87 346.88 339.6 360.92C339.32 374.95 338.72 388.88 338.26 391.88C337.81 394.87 336.38 401.61 335.09 406.85C333.7 412.49 331.68 418.59 330.13 421.81C328.69 424.81 325.94 429.17 324.01 431.51C322.08 433.85 318.9 436.96 316.93 438.42C314.97 439.89 311.68 441.6 309.62 442.22C307.56 442.85 304.65 443.87 303.16 444.5C301.11 445.35 298.75 445.59 286.48 445.29L286.48 457.71C286.47 464.54 286.77 471.81 287.14 473.87C287.53 476.01 287.56 477.9 287.22 478.29C286.9 478.66 284.68 479.22 282.3 479.53C279.92 479.83 274.61 480.04 270.49 479.99C266.38 479.94 256.68 479.84 248.95 479.77C241.21 479.7 234.63 479.39 234.32 479.08C234.01 478.77 233.6 463.16 233.07 410.25L216.93 410.25L213.77 406.77C212.04 404.85 208.81 402.1 206.59 400.64C204.38 399.19 201.2 396.47 199.54 394.6C197.87 392.73 195.36 388.9 193.95 386.09C192.55 383.29 190.62 380.07 189.67 378.95C188.72 377.83 187.32 375.53 186.57 373.85C185.82 372.16 184.43 367.57 183.48 363.64C182.53 359.71 181.4 354.51 180.96 352.07C180.53 349.64 180.23 346.88 180.3 345.95C180.36 345.01 180.32 342.1 180.21 339.49C180.09 336.87 180 328.29 180 320.43C180 312.58 180.24 303.24 180.53 299.68C180.81 296.13 181.22 292.15 181.44 290.84C181.65 289.53 182.73 283.86 183.85 278.25C184.97 272.64 186.27 267.43 186.74 266.68C187.21 265.93 188.79 264.75 190.26 264.04C192.2 263.11 193.76 262.87 195.99 263.15C197.67 263.37 199.58 264.1 200.23 264.77C200.88 265.45 202.1 267.84 202.95 270.08C204.32 273.7 204.52 275.62 204.69 286.75C204.8 293.68 204.93 303.02 204.99 307.51C205.04 312 204.95 320.88 204.79 327.24C204.63 333.6 204.75 342.63 205.06 347.31C205.46 353.24 206.16 357.46 207.36 361.26C208.98 366.35 209.44 367.05 220.14 377.59L220.57 372.14C220.81 369.15 221.09 361.34 221.2 354.79C221.31 348.25 221.83 339.98 222.37 336.42C222.9 332.87 223.69 329.04 224.12 327.92C224.55 326.8 225.67 324.99 226.6 323.91C227.54 322.83 229 321.68 229.84 321.36C230.76 321.01 232.11 321.06 233.24 321.5C234.27 321.9 235.8 322.89 236.63 323.71C237.87 324.92 238.21 325.01 238.45 324.18C238.61 323.61 238.92 316.88 239.14 309.21C239.36 301.54 239.84 289.9 240.19 283.35C240.55 276.8 241.17 267.77 241.58 263.28C241.98 258.79 242.58 254.2 242.91 253.07C243.24 251.95 243.87 248.89 244.32 246.27C244.77 243.65 244.99 240.59 244.81 239.47C244.63 238.34 244.92 236.2 245.46 234.7C246 233.21 247.05 231.15 247.8 230.13C248.56 229.12 251 227.26 253.23 226C256.98 223.9 257.57 223.76 261.17 224.21ZM253.57 235.04C253.35 236.35 252.22 245.84 251.07 256.14C249.6 269.38 248.81 280.61 248.38 294.58C248.04 305.43 247.46 317.83 247.08 322.14C246.7 326.44 246.44 332.41 246.5 335.4C246.57 338.4 246.26 352.18 245.81 366.02C245.37 379.87 244.51 399.46 243.9 409.57C243.11 422.58 242.85 435.02 243.03 452.21C243.17 465.55 243.43 476.66 243.62 476.88C243.81 477.1 244.93 477.36 246.12 477.45C247.3 477.53 248.53 477.36 248.84 477.06C249.15 476.75 248.94 472.92 248.38 468.55C247.59 462.42 247.36 452.87 247.36 426.92C247.36 408.39 247.59 385.97 247.87 377.08C248.15 368.19 248.51 360.54 248.67 360.07C248.83 359.6 249.18 357.38 249.44 355.13C249.7 352.89 249.99 347.99 250.09 344.25C250.19 340.51 250.75 332.85 251.34 327.24C251.93 321.62 252.47 310.76 252.54 303.08C252.61 295.41 252.9 285.77 253.19 281.65C253.48 277.53 253.89 270.34 254.11 265.66C254.33 260.98 254.72 253.94 254.98 250.01C255.23 246.08 255.37 242.56 255.28 242.19C255.19 241.81 255.48 239.06 255.92 236.06C256.36 233.07 257.09 229.78 257.53 228.75C257.98 227.72 258.11 226.88 257.81 226.88C257.51 226.88 256.53 228.18 255.62 229.77C254.72 231.36 253.79 233.73 253.57 235.04ZM270.9 244.02C271.8 248.78 272.69 252.51 272.88 252.33C273.06 252.14 272.8 249.63 272.3 246.75C271.79 243.87 270.93 239.67 270.38 237.42C269.82 235.18 269.09 232.19 268.74 230.79C268.4 229.39 267.83 228.24 267.48 228.24C267.14 228.24 267.4 229.85 268.06 231.81C268.72 233.78 270 239.27 270.9 244.02ZM249.06 232.38C248.24 234 247.45 237.52 247.05 241.34C246.7 244.8 245.96 249.77 245.42 252.39C244.88 255.01 243.94 262.97 243.35 270.08C242.75 277.19 241.83 295.26 241.31 310.23C240.79 325.2 240.38 338.21 240.4 339.15C240.42 340.08 240.08 344.21 239.64 348.33C239.2 352.45 238.51 359.18 238.1 363.3C237.69 367.42 236.91 373.08 236.37 375.89C235.83 378.69 235.38 383.75 235.36 387.11C235.34 390.48 235.3 395.23 235.27 397.66C235.25 400.09 235.3 417.54 235.38 436.44C235.47 455.34 235.75 472.18 236.01 473.87C236.46 476.83 236.56 476.93 239.03 477.1L241.58 477.27C241.1 470.68 240.78 462.49 240.56 454.81C240.35 447.14 240.49 433.67 240.88 424.88C241.28 416.08 241.9 405.21 242.26 400.72C242.61 396.23 243.08 384.14 243.29 373.85C243.51 363.55 243.99 346.41 244.36 335.74C244.74 325.08 245.15 315.13 245.29 313.63C245.43 312.13 245.86 302.03 246.25 291.18C246.64 280.32 247.09 270.83 247.25 270.08C247.41 269.34 247.9 265.36 248.33 261.24C248.76 257.12 249.23 252.68 249.38 251.37C249.52 250.06 250.16 245.01 250.78 240.15C251.41 235.28 252.14 230.77 252.42 230.11C252.69 229.46 252.74 228.94 252.52 228.97C252.3 229 251.74 229.18 251.27 229.38C250.8 229.57 249.81 230.92 249.06 232.38ZM257.25 250.69C256.85 257.99 256.2 268.71 255.81 274.51C255.42 280.31 254.82 294.54 254.47 306.15C254.12 317.75 253.54 329.38 253.17 332C252.81 334.62 252.49 339.37 252.47 342.55C252.45 345.73 252.14 350.32 251.77 352.75C251.4 355.19 250.95 361.92 250.77 367.72C250.58 373.52 250.12 383.93 249.73 390.86C249.25 399.55 249.25 413.55 249.74 436.1C250.13 454.07 250.6 470.68 250.78 473.02L251.1 477.27L255.87 477.27C255.88 472.26 255.94 451.97 256 428.96C256.06 405.94 255.89 379.92 255.62 371.12C255.32 361.11 255.41 352.21 255.87 347.31C256.27 343.01 257.02 336.27 257.55 332.34C258.07 328.41 258.67 321.06 258.88 316.01C259.09 310.96 259.54 301.62 259.87 295.26C260.2 288.9 260.38 283.39 260.26 283.01C260.14 282.64 259.85 280.03 259.61 277.23C259.37 274.42 259.18 266.61 259.19 259.88C259.2 253.14 259.41 243.73 259.65 238.96C259.9 234.18 259.93 230.28 259.72 230.28C259.52 230.28 259.04 231.89 258.66 233.85C258.29 235.82 257.65 243.4 257.25 250.69ZM272.85 237.08C273.98 241.55 274.14 241.85 274.17 239.47C274.19 237.97 273.62 235.52 272.91 234.02C272.2 232.53 271.61 231.45 271.6 231.64C271.58 231.83 272.15 234.28 272.85 237.08ZM261.92 255.63C261.88 266.2 262.06 277.3 262.31 280.29C262.57 283.28 262.43 291.4 262.01 298.32C261.6 305.24 260.96 315.81 260.6 321.79C260.24 327.78 259.59 334.37 259.14 336.42C258.56 339.12 258.31 356.95 258.24 400.38C258.19 433.5 258.32 464.35 258.54 468.94L258.93 477.28L263.01 477.27C262.67 462.24 262.9 452.98 263.3 446.99C263.7 441 264.08 429.37 264.14 421.13C264.2 412.9 264.46 403.1 264.72 399.36C265.08 394.32 264.97 392.12 264.32 390.86C263.83 389.92 262.75 387.78 261.91 386.09C260.44 383.15 260.41 382.64 260.97 373.17C261.3 367.74 261.53 359.47 261.48 354.79C261.43 350.12 261.34 342.62 261.27 338.12C261.2 333.06 261.6 327.25 262.32 322.82C262.96 318.89 263.35 315.21 263.17 314.65C263 314.09 263.14 311.79 263.49 309.55C263.83 307.3 264.4 305.16 264.73 304.78C265.08 304.4 265.34 291.67 265.33 275.53C265.32 251.62 265.12 245.78 264.13 239.81C263.22 234.26 262.84 233.08 262.47 234.53C262.21 235.56 261.96 245.05 261.92 255.63ZM267.17 245.08C268.07 251.05 268.23 256.76 268.02 276.09C267.89 289.13 267.85 299.92 267.94 300.08C268.04 300.23 268.65 299.81 269.3 299.13C269.96 298.46 270.89 297.77 271.38 297.6C272.03 297.38 272.3 295.07 272.4 288.8C272.47 284.12 272.28 276.46 271.96 271.79C271.65 267.11 270.94 260.22 270.38 256.48C269.83 252.73 269.09 247.83 268.74 245.59C268.4 243.34 267.68 239.98 267.15 238.1C266.62 236.23 266.17 235.39 266.13 236.23C266.1 237.08 266.57 241.06 267.17 245.08ZM325.88 262.6C326.23 263.72 327.31 267.24 328.28 270.42C329.25 273.61 330.76 281.41 331.62 287.77C332.74 295.99 333.24 303.28 333.35 312.95C333.44 320.43 333.72 327.63 333.98 328.94C334.24 330.25 334.44 340.97 334.42 352.75C334.39 369 334.1 376.41 333.2 383.37C332.55 388.42 330.95 396.69 329.64 401.74C328.33 406.79 326.04 414.14 324.55 418.07C322.37 423.82 321.21 425.87 318.62 428.52C316.85 430.34 313.72 433.27 311.66 435.02C308.79 437.47 307.16 438.32 304.68 438.69C302.91 438.95 300.3 439.74 298.9 440.44C297.5 441.14 294.82 441.95 292.95 442.25C289.85 442.75 289.73 442.83 291.59 443.2C292.71 443.42 295.31 443.41 297.37 443.17C299.43 442.93 304.03 441.71 307.6 440.44C311.17 439.18 315.15 437.25 316.45 436.16C317.74 435.07 320.22 432.62 321.96 430.72C323.74 428.76 326.32 424.67 327.91 421.3C329.45 418.03 331.06 413.9 331.49 412.12C331.92 410.34 332.83 406.74 333.52 404.12C334.21 401.5 335.25 396.3 335.83 392.56C336.6 387.67 337.01 378.17 337.29 358.88C337.5 344.1 337.95 331.47 338.28 330.81C338.61 330.16 338.73 329.24 338.55 328.77C338.38 328.3 337.62 320.88 336.87 312.27C336.12 303.66 335.06 292.79 334.52 288.11C333.97 283.44 332.87 277.01 332.06 273.83C331.25 270.65 329.88 266.51 329.01 264.64C328.14 262.77 326.93 261.02 326.32 260.75C325.71 260.48 325.21 260.33 325.22 260.41C325.24 260.49 325.53 261.48 325.88 262.6ZM316.52 271.44L316.6 277.57C317.53 269.13 317.72 265.61 317.62 264.3C317.46 262.11 317.4 262.05 316.94 263.62C316.67 264.56 316.48 268.08 316.52 271.44ZM320.84 282.33C321.71 286.82 322.59 291.87 322.81 293.56C323.03 295.24 323.51 302.9 323.88 310.57C324.25 318.24 324.91 330.03 325.35 336.76C325.81 343.88 325.95 353.58 325.69 359.9C325.44 365.89 324.79 373.85 324.24 377.59C323.7 381.33 321.84 388.83 320.11 394.26C318.38 399.68 315.8 406.57 314.39 409.57C312.45 413.66 310.22 416.75 305.44 421.99C300.97 426.89 298.06 429.46 295.67 430.62C293.8 431.53 290.97 432.6 289.38 433C286.62 433.69 286.48 433.84 286.47 436.27L286.47 438.82C291.63 438.11 295.57 436.52 299.41 434.45C302.97 432.53 306.03 430.97 306.22 430.96C306.4 430.96 307.55 430.21 308.77 429.28C309.98 428.35 312.66 424.77 314.72 421.3C317.18 417.16 319.25 412.45 320.79 407.53C322.07 403.41 323.59 397.59 324.17 394.6C324.75 391.6 325.52 386.71 325.89 383.71C326.26 380.72 326.76 375.05 327.01 371.12C327.25 367.19 327.58 363.75 327.72 363.47C327.87 363.19 327.98 356.61 327.96 348.84C327.95 341.08 327.8 333.65 327.63 332.34C327.46 331.03 327.06 322 326.74 312.27C326.42 302.54 325.99 294.27 325.79 293.9C325.58 293.52 325.2 290.92 324.95 288.11C324.7 285.31 323.92 279.18 323.22 274.51C322.52 269.83 321.68 265.24 321.34 264.3C320.85 262.91 320.6 263.67 320 268.38C319.34 273.54 319.43 275.06 320.84 282.33ZM313.05 289.82C313.07 296.55 313.36 309.56 313.7 318.73C314.05 327.9 314.53 340.3 314.77 346.29C315.11 354.48 314.94 359.54 314.1 366.7C313.3 373.48 312.08 379.27 309.87 386.77C308.17 392.57 305.59 399.62 304.15 402.42C302.46 405.7 300.11 408.89 297.57 411.33C295.4 413.42 292.55 416.48 291.22 418.13C289.9 419.78 288.29 421.98 287.65 423.01C287.01 424.03 286.48 425.03 286.48 425.22C286.48 425.4 287.02 425.56 287.67 425.55C288.33 425.55 290.09 425.21 291.59 424.79C293.42 424.27 295.83 422.55 298.98 419.52C301.67 416.91 304.9 412.86 306.63 409.91C308.27 407.1 310.2 402.81 310.93 400.38C311.65 397.95 313.21 392.28 314.39 387.79C316.49 379.79 316.55 379.2 317.12 357.86C317.44 345.88 317.59 332.41 317.47 327.92C317.34 323.43 316.76 314.55 316.18 308.19C315.61 301.82 314.93 289.58 314.67 280.97C314.42 272.36 314.17 265.27 314.12 265.2C314.08 265.13 313.81 267.89 313.53 271.32C313.25 274.76 313.03 283.08 313.05 289.82ZM187.85 270.56C187.83 271.42 187.05 275.11 186.12 278.76C185.19 282.41 183.78 291.13 183 298.15C181.81 308.83 181.65 313.07 182.03 324.18C182.28 331.47 182.57 340.2 182.68 343.57C182.79 346.94 183.09 350.92 183.35 352.41C183.61 353.91 184.61 358.35 185.57 362.28C186.53 366.21 187.74 370.65 188.28 372.14C188.81 373.64 190.09 375.94 191.12 377.25C192.16 378.56 194.32 382.08 195.93 385.07C197.53 388.07 199.94 391.74 201.27 393.24C202.61 394.73 205.72 397.38 208.18 399.12C210.64 400.86 213.65 403.39 214.87 404.74C216.09 406.08 217.77 407.43 218.61 407.74C219.46 408.04 223.05 408.16 226.61 408L233.07 407.72C227.27 405.9 221.99 403.41 217.59 401.01C211.04 397.43 208.38 395.47 202.91 390.18C197.04 384.5 195.8 382.88 192.78 376.91C190.89 373.17 188.54 367.73 187.56 364.83C186.58 361.93 185.92 359.02 186.09 358.37C186.26 357.71 186.45 354.73 186.51 351.73C186.57 348.74 186.09 343.69 185.44 340.51C184.47 335.75 184.34 332.78 184.72 323.84C184.96 317.85 185.29 311.57 185.44 309.89C185.58 308.2 185.89 304.38 186.12 301.38C186.34 298.39 187.29 290.28 188.23 283.35C189.41 274.57 190.29 270.25 191.13 269.06C191.79 268.13 192.48 266.98 192.66 266.51C192.84 266.04 192.58 265.66 192.08 265.66C191.57 265.66 190.43 266.41 189.53 267.33C188.62 268.25 187.87 269.7 187.85 270.56ZM195.7 284.03C195.17 289.83 194.52 298.71 194.27 303.76C194.01 308.82 193.68 313.56 193.53 314.31C193.38 315.06 193.06 319.35 192.83 323.84C192.49 330.63 192.65 333.09 193.82 338.46C194.59 342.02 195.21 346.31 195.21 347.99C195.2 349.67 195.84 353.65 196.64 356.84C197.43 360.02 198.43 363.54 198.85 364.66C199.28 365.78 201.61 370.84 204.02 375.89C207.97 384.13 208.99 385.66 213.94 390.75C216.98 393.87 220.31 396.86 221.33 397.38C222.36 397.91 223.74 398.34 224.4 398.35C225.05 398.35 227.19 399.12 229.16 400.05L232.73 401.74C232.73 398.81 232.12 398.03 230.52 397.21C229.3 396.58 224.79 393.57 220.48 390.51C216.18 387.45 211.62 383.9 210.35 382.63C209.07 381.35 206.89 378.63 205.49 376.57C204.09 374.51 202.17 370.38 201.22 367.38C200.27 364.39 199.3 359.49 199.08 356.5C198.85 353.5 198.39 349.98 198.05 348.67C197.7 347.33 197.61 337.21 197.84 325.54C198.06 314.12 198.25 297.13 198.26 287.77C198.27 277.13 197.99 270 197.53 268.72C196.81 266.76 196.78 266.81 196.73 270.08C196.69 271.96 196.23 278.23 195.7 284.03ZM325.25 273.15C325.62 275.2 326.41 280.87 327.02 285.73C327.62 290.6 328.37 302.23 328.68 311.59C328.99 320.94 329.57 329.67 329.96 330.98C330.41 332.46 330.57 339.27 330.4 349.01C330.25 357.62 329.97 365.58 329.77 366.7C329.57 367.82 329.08 372.72 328.67 377.59C328.26 382.45 327.48 389.04 326.93 392.22C326.38 395.4 325.44 399.84 324.84 402.08C324.24 404.33 323.13 408.16 322.37 410.59C321.62 413.02 319.93 416.85 318.62 419.09C317.31 421.34 315.06 424.78 313.61 426.75C312.16 428.71 309.83 431.04 308.43 431.92C307.02 432.81 303.66 434.64 300.94 436.01C298.23 437.37 296.16 438.71 296.33 438.99C296.51 439.28 297.05 439.14 297.52 438.7C298 438.25 300.23 437.47 302.47 436.95C304.72 436.44 307.63 435.36 308.94 434.57C310.25 433.77 313.19 431.19 315.48 428.83C319.23 424.96 319.94 423.76 322.56 416.71C324.16 412.41 326.04 406.74 326.74 404.12C327.44 401.5 328.6 396.61 329.32 393.24C330.04 389.87 331.02 383.44 331.5 378.95C332.04 373.86 332.31 364 332.2 352.75C332.1 342.84 331.85 333.04 331.65 330.98C331.45 328.92 331.18 320.66 331.07 312.61C330.95 304.56 330.52 295.68 330.12 292.88C329.72 290.07 328.92 284.64 328.35 280.8C327.78 276.96 326.71 272.37 325.98 270.59C325.26 268.82 324.64 267.82 324.62 268.38C324.6 268.94 324.88 271.09 325.25 273.15ZM191.3 277.57C190.9 280.56 190.1 286.53 189.52 290.84C188.94 295.14 188.17 302.95 187.81 308.19C187.45 313.43 186.96 321.08 186.72 325.2C186.44 330.03 186.58 334.49 187.13 337.78C187.6 340.59 188.18 343.19 188.41 343.57C188.65 343.94 188.85 348.38 188.85 353.43C188.85 361.75 189.01 363.04 190.62 367.04C191.6 369.47 193.84 374.07 195.59 377.25C197.81 381.26 200.48 384.75 204.36 388.65C208.01 392.33 211.47 395.07 214.36 396.59L218.78 398.9C207.77 387.84 206.54 386.1 202.96 378.95C200.71 374.46 197.9 368.03 196.72 364.66C195.53 361.29 194.12 356.39 193.58 353.77C193.03 351.15 192.59 347.48 192.6 345.61C192.61 343.74 192.14 340.83 191.55 339.15C190.7 336.68 190.55 333.84 190.8 324.52C190.97 318.15 191.43 309.58 191.83 305.47C192.23 301.35 192.87 293.39 193.27 287.77C193.66 282.16 194.15 275.5 194.36 272.98C194.57 270.45 194.56 268.38 194.36 268.38C194.15 268.38 193.54 269.23 193 270.25C192.46 271.28 191.69 274.57 191.3 277.57ZM200.23 310.57C199.66 318.48 199.61 326.12 200.06 336.42C200.4 344.47 201.01 353.81 201.41 357.18C201.8 360.54 202.63 364.83 203.25 366.7C203.87 368.57 205.12 371.48 206.04 373.17C206.96 374.85 208.66 377.45 209.82 378.95C210.99 380.45 212.71 382.28 213.64 383.03C214.57 383.78 218.1 386.3 221.48 388.63C224.86 390.97 228.78 393.49 230.18 394.25L232.73 395.62C232.75 393.02 230.41 390.29 225.04 385.07C220.79 380.96 215.41 375.9 213.08 373.85C210.76 371.79 208.28 369.19 207.58 368.06C206.87 366.94 205.81 364.64 205.21 362.96C204.61 361.28 203.82 356.53 203.45 352.41C203.08 348.3 202.58 341.56 202.34 337.44C202.09 333.15 202.28 325.03 202.79 318.39C203.52 308.79 203.51 306.36 202.76 304.1C202.1 302.13 201.9 297.85 202.03 288.45C202.14 281.34 201.94 274.76 201.59 273.83C201.18 272.7 200.98 276.71 201 285.73C201.01 293.22 200.67 304.39 200.23 310.57ZM318.17 306.49C318.75 313.41 319.47 322.44 319.77 326.56C320.07 330.67 320.16 334.35 319.97 334.72C319.78 335.1 319.54 344.59 319.44 355.82C319.28 374.54 319.12 376.88 317.58 384.05C316.66 388.36 314.89 395.09 313.64 399.02C312.31 403.22 310.03 408.41 308.11 411.61C306.22 414.75 303.04 418.72 300.59 421.01C298.26 423.18 295.43 425.44 294.31 426.02C293.19 426.61 291.04 427.28 289.55 427.53C287.2 427.91 286.8 428.23 286.65 429.82C286.5 431.47 286.64 431.6 287.84 431C288.59 430.63 289.89 430.31 290.74 430.29C291.58 430.27 293.52 429.58 295.06 428.76C296.6 427.93 300.42 424.49 303.57 421.12C307.58 416.79 310.01 413.46 311.73 409.89C313.08 407.09 315.28 401.59 316.62 397.66C317.95 393.73 319.66 388.07 320.4 385.07C321.14 382.08 322.08 377.03 322.5 373.85C322.91 370.67 323.25 361.63 323.27 353.77C323.28 345.92 322.97 334.89 322.59 329.28C322.21 323.67 321.88 315.71 321.87 311.59C321.85 307.47 321.56 302.11 321.22 299.68C320.89 297.25 320.42 293.73 320.18 291.86C319.94 289.99 319.28 286.16 318.71 283.35C318.13 280.55 317.53 278.1 317.36 277.91C317.2 277.72 317.07 281.24 317.09 285.73C317.1 290.22 317.59 299.56 318.17 306.49ZM275.43 296.28C275.91 296.28 276.26 295.48 276.23 294.41C276.2 293.38 275.95 291.16 275.66 289.48C275.16 286.48 275.14 286.52 274.86 291.35C274.65 295 274.8 296.28 275.43 296.28ZM279 312.95C279.79 317.45 280.64 327.36 281.14 337.78C281.75 350.83 281.77 357.16 281.19 363.3C280.77 367.79 279.61 374.53 278.61 378.27C277.6 382.01 276.67 386.22 276.53 387.62C276.39 389.03 276.51 390.17 276.79 390.17C277.07 390.16 277.68 389.93 278.15 389.65C278.62 389.38 279.48 387.01 280.06 384.39C280.63 381.77 281.44 377.79 281.84 375.55C282.25 373.3 282.61 363.2 282.66 353.09C282.7 342.99 282.37 329.82 281.91 323.84C281.45 317.85 280.8 312.03 280.47 310.91C280.13 309.79 279.67 306.95 279.43 304.61C279.19 302.28 278.72 300.19 278.39 299.98C278.05 299.77 277.76 300.92 277.73 302.53C277.7 304.15 278.27 308.83 279 312.95ZM269.81 341.19L269.81 375.55C267.02 380.29 265.57 382.21 264.78 382.86C263.5 383.93 263.44 384.27 264.2 386.1C264.67 387.23 265.2 388.15 265.39 388.16C265.58 388.16 266.42 387.24 267.26 386.11C268.1 384.98 269.27 382.75 269.85 381.16C270.44 379.57 271.53 375.21 272.28 371.46C273.33 366.23 273.67 361.69 273.73 351.73C273.78 344.62 273.57 330.69 273.26 320.77C272.96 310.86 272.46 302.44 272.17 302.06C271.86 301.67 271.24 302.54 270.72 304.1C270.01 306.23 269.81 314.34 269.81 341.19ZM282.73 310.91C283.27 313.9 283.73 318.65 283.75 321.45C283.77 324.26 284.12 328.55 284.53 330.98C284.94 333.41 285.49 338.31 285.77 341.87L286.26 348.33C286.41 334.62 286.02 326.2 285.48 320.77C284.95 315.35 284.07 309.3 283.54 307.34C283.01 305.37 282.38 303.76 282.15 303.76C281.91 303.76 281.73 304.15 281.73 304.61C281.74 305.08 282.19 307.91 282.73 310.91ZM265.64 311.37C265.52 313.74 265.25 317.81 265.04 320.43C264.84 323.05 264.38 326.27 264.02 327.58C263.67 328.89 263.41 333.02 263.45 336.76C263.48 340.51 263.54 349.39 263.57 356.5C263.59 363.61 263.4 372.1 263.14 375.38C262.84 379.21 262.91 381.33 263.35 381.33C263.72 381.33 264.87 379.72 265.9 377.76L267.77 374.19C267.77 346.24 267.54 334.14 267.26 329.28C266.93 323.6 267.03 317.68 267.55 312.74C267.99 308.51 268.2 304.93 268.01 304.78C267.83 304.63 267.27 305.08 266.77 305.79C266.28 306.49 265.77 309.01 265.64 311.37ZM275.45 320.43C275.72 329.42 275.91 343.35 275.87 351.39C275.83 359.64 275.43 368.1 274.96 370.78C274.5 373.4 273.54 377.38 272.83 379.63C272.12 381.87 270.76 384.78 269.81 386.09C268.87 387.4 268.1 388.86 268.1 389.33C268.11 389.86 269.12 390.18 270.83 390.18C273.12 390.18 273.6 389.93 273.84 388.64C273.99 387.8 274.79 384.21 275.62 380.65C276.44 377.09 277.39 373.5 277.72 372.66C278.05 371.81 278.64 366.61 279.03 361.09C279.55 353.82 279.53 347.01 278.96 336.42C278.47 327.37 277.56 318.42 276.57 312.95L274.97 304.1L275.45 320.43ZM232.84 350.37C232.38 355.99 231.7 364.18 231.34 368.57C230.98 372.97 230.69 378.79 230.7 381.5C230.71 384.21 230.94 386.8 231.21 387.24C231.49 387.68 232.24 381.86 232.89 374.31C233.53 366.76 234.3 357.98 234.59 354.79C234.88 351.61 235.03 343.65 234.93 337.1C234.81 329.82 234.46 324.93 234.02 324.52C233.51 324.04 233.35 326.25 233.49 332C233.6 336.49 233.31 344.76 232.84 350.37ZM225.26 335.23C225.26 337.57 224.99 339.79 224.65 340.17C224.31 340.54 223.7 349.42 223.29 359.9C222.6 377.64 222.63 379.04 223.73 380.21C224.85 381.42 224.93 380.93 225.32 370.01C225.55 363.7 226.12 355.93 226.59 352.75C227.06 349.57 227.52 343.91 227.61 340.17C227.71 336.42 227.99 331.45 228.24 329.11C228.5 326.77 228.56 324.86 228.39 324.86C228.23 324.86 227.45 326.23 226.67 327.92C225.7 330.01 225.25 332.33 225.26 335.23ZM230 335.91C230.01 337.32 230.32 338.46 230.69 338.46C231.08 338.46 231.37 336.42 231.37 333.7C231.37 331.08 231.25 328.94 231.1 328.94C230.95 328.94 230.64 329.93 230.41 331.15C230.18 332.37 230 334.51 230 335.91ZM237.99 335.06C238.14 333.75 238.13 331.92 237.98 330.98C237.82 330.04 237.7 331.12 237.71 333.36C237.71 335.61 237.84 336.37 237.99 335.06ZM227.98 360.92C227.61 364.47 227.34 370.44 227.38 374.19C227.42 377.93 227.68 381.91 227.97 383.03C228.35 384.53 228.51 383.67 228.57 379.8C228.61 376.9 229.13 368.63 229.71 361.43C230.3 354.22 230.68 347.26 230.55 345.95C230.39 344.16 230.12 344.92 229.49 349.01C229.03 352 228.35 357.36 227.98 360.92ZM283.79 377.93C283.4 379.24 282.95 381.53 282.78 383.03C282.51 385.43 282.64 385.26 283.81 381.67C284.8 378.65 285.26 374.79 285.57 366.87C285.79 360.98 285.83 356.16 285.65 356.16C285.47 356.16 285.14 360.52 284.91 365.85C284.68 371.18 284.18 376.62 283.79 377.93ZM280.02 391.69C280.28 409.76 280.72 420.83 281.15 427.94C281.76 437.95 281.75 444.63 281.1 457.54C280.64 466.7 280.13 474.89 279.97 475.74C279.71 477.12 279.95 477.27 282.4 477.27L285.12 477.27C284.62 470.68 284.24 453.15 283.96 434.06C283.68 414.98 283.49 396.99 283.53 394.09C283.58 391.19 283.57 388.83 283.52 388.84C283.47 388.85 282.66 389.5 281.72 390.27L280.02 391.69ZM265.92 428.62C265.48 441.72 265.1 457.84 265.08 464.45C265.07 471.07 265.2 476.65 265.39 476.86C265.58 477.08 266.88 477.48 268.28 477.77L270.83 478.29C270.57 461.41 270.77 447.48 271.1 436.44C271.44 425.4 271.51 410.94 271.27 404.29L270.83 392.22C267.69 392.22 267.6 392.48 267.17 398.51C266.92 401.97 266.35 415.52 265.92 428.62ZM273.38 435.08L273.22 477.61C277.49 477.94 277.64 477.8 277.69 475.74C277.71 474.52 277.85 472.61 278 471.48C278.15 470.36 278.59 462.63 278.98 454.3C279.49 443.21 279.47 436.48 278.88 429.13C278.45 423.61 278.15 413.89 278.21 407.53C278.28 401.16 278.18 395.12 277.99 394.09C277.7 392.54 277.29 392.22 275.6 392.22C274.47 392.22 273.55 392.29 273.55 392.39C273.55 392.48 273.47 411.69 273.38 435.08ZM222.53 401.12C223.84 401.93 225.67 402.9 226.61 403.27C227.54 403.64 229.3 404.21 230.52 404.54C231.74 404.87 232.73 404.91 232.72 404.63C232.72 404.35 230.81 403.32 228.47 402.34C226.14 401.36 223.31 400.35 222.19 400.1L220.14 399.64L222.53 401.12Z" />
</svg>