<svg xmlns="http://www.w3.org/2000/svg" viewBox="0 0 520 600" width="520" height="600">
	<style>
		tspan { white-space:pre }
		.shp0 { fill: #808080 } 
		.shp1 { fill: #000000 } 
		.shp2 { fill: #baac5b } 
		.shp3 { fill: #8e8033 } 
		.shp4 { fill: #b7aa62 } 
		.shp5 { fill: #152809 } 
		.shp6 { fill: #2e5108 } 
		.shp7 { fill: #54762e } 
		.shp8 { fill: #82bb5e } 
		.shp9 { fill: #354c27 } 
		.shp10 { fill: #829d63 } 
		.shp11 { fill: #060606 } 
	</style>
	<path id="Background" class="shp0" d="M260.16 -0.7L520.31 149.5L520.31 449.91L260.16 600.11L0 449.91L0 149.5L260.16 -0.7Z" />
	<g id="Layer 1">
		<path id="Path 0" class="shp1" d="M257.45 18.92C256.93 19.42 250.65 23.18 243.5 27.27C236.35 31.36 219.92 40.78 207 48.2C194.07 55.63 178.89 64.47 173.25 67.85C167.61 71.23 162.77 74 162.5 74C162.22 74 158.74 75.94 154.75 78.32C150.76 80.7 143 85.26 137.5 88.45C132 91.64 124.57 95.95 121 98.02C117.42 100.09 108.87 105.02 102 108.99C95.12 112.96 85.45 118.58 80.5 121.47C75.55 124.36 69.47 127.85 67 129.23C64.52 130.6 56.42 135.23 49 139.5C41.57 143.78 31.45 149.63 26.5 152.52C21.55 155.4 17.16 158.49 16.75 159.38C16.34 160.27 15.99 223.66 15.98 300.25C15.97 411.13 16.22 439.84 17.23 441.15C17.93 442.05 21.54 444.64 25.25 446.9C28.96 449.15 32.22 451 32.5 451C32.77 451 38.06 454.01 44.25 457.69C50.44 461.37 60 466.9 65.5 469.99C71 473.08 81.35 479 88.5 483.16C95.65 487.32 105.89 493.26 111.25 496.36C116.61 499.46 125.39 504.55 130.75 507.66C136.11 510.77 144.77 515.79 150 518.81C155.22 521.83 160.85 525.07 162.5 526C164.15 526.93 176.97 534.33 191 542.45C205.02 550.57 224.37 561.73 234 567.24C243.62 572.75 253.19 578.33 255.25 579.63C257.31 580.93 259.9 582 261 582C262.1 582 265.81 580.27 269.25 578.15C272.69 576.04 280.22 571.58 286 568.26C291.77 564.94 309.55 554.68 325.5 545.47C341.45 536.25 356.97 527.36 360 525.71C363.02 524.06 365.95 522.37 366.5 521.96C367.05 521.55 372 518.62 377.5 515.45C383 512.28 395.82 504.88 406 499C416.17 493.13 431.25 484.42 439.5 479.64C447.75 474.86 454.61 470.96 454.75 470.98C454.89 470.99 460.51 467.72 467.25 463.72C473.99 459.72 485.06 453.31 491.86 449.47C499.75 445.02 504.54 441.69 505.11 440.25C505.62 438.97 506.01 378.35 506.02 299.25C506.03 188.78 505.78 160.16 504.77 158.83C504.07 157.91 499 154.58 493.5 151.43C488 148.27 482.15 144.92 480.5 143.97C478.85 143.02 470.3 138.07 461.5 132.96C452.7 127.85 442.57 122.03 439 120.04C435.42 118.05 427.1 113.23 420.5 109.34C413.9 105.45 403.55 99.43 397.5 95.97C391.45 92.5 382.22 87.23 377 84.24C371.77 81.26 367.05 78.47 366.5 78.05C365.95 77.63 363.02 75.93 360 74.27C356.97 72.62 346.17 66.4 336 60.47C325.82 54.54 314.12 47.81 310 45.51C305.87 43.22 298.45 38.96 293.5 36.04C288.55 33.12 280.9 28.71 276.5 26.24C272.1 23.78 267.26 20.91 265.75 19.88C264.24 18.85 261.96 18 260.7 18C259.43 18 257.97 18.41 257.45 18.92Z" />
		<path id="Path 1" class="shp2" d="M244.92 32.25C236.44 37.2 219.15 47.22 206.5 54.51C193.85 61.81 176.52 71.82 168 76.75C159.47 81.69 140.57 92.6 126 101.01C111.42 109.42 88.25 122.81 74.5 130.75C60.75 138.7 43.09 148.87 35.26 153.35L21.02 161.5L21.02 438.5C43.09 451.15 60.75 461.32 74.5 469.26C88.25 477.2 111.42 490.58 126 498.99C140.57 507.4 156.77 516.75 162 519.76C167.22 522.78 189.05 535.38 210.5 547.76C231.95 560.15 251.97 571.75 255 573.56C260.3 576.72 260.61 576.78 263.5 575.26C265.15 574.4 279.32 566.29 295 557.25C310.67 548.2 329.12 537.53 336 533.54C342.87 529.55 362 518.5 378.5 508.98C395 499.47 417.95 486.21 429.5 479.53C441.05 472.84 458.6 462.72 468.5 457.04C478.4 451.35 489.65 444.85 493.5 442.59L500.5 438.48C501.04 188.4 500.85 162.28 499.8 161.34C499.08 160.7 492.65 156.83 485.5 152.73C478.35 148.64 462.15 139.32 449.5 132.02C436.85 124.72 420.87 115.5 414 111.53C407.12 107.56 385.3 94.94 365.5 83.5C345.7 72.05 324.77 59.98 319 56.68C313.22 53.38 299.05 45.19 287.5 38.48C275.95 31.77 265.11 25.59 263.42 24.76C260.36 23.26 260.24 23.3 244.92 32.25Z" />
	</g>
	<path id="Path 0" class="shp3" d="M250 63.95C244.77 67.1 228.8 76.44 214.5 84.69C200.2 92.94 172.52 108.93 153 120.21C133.47 131.5 102.44 149.38 84.02 159.96L50.55 179.18L50.95 421.5C72.3 433.82 98.3 448.83 122.5 462.79C146.7 476.76 170.55 490.56 175.5 493.47C180.45 496.37 196.65 505.73 211.5 514.26C226.35 522.79 243.22 532.52 249 535.89C254.77 539.25 260.17 541.99 261 541.98C261.82 541.97 277.35 533.35 295.5 522.83C313.65 512.32 341.55 496.18 357.5 486.97C373.45 477.76 399.55 462.7 415.5 453.5C431.45 444.3 450.46 433.33 457.74 429.13L470.97 421.5L471.09 179.5C421.81 150.9 389.27 132.07 367 119.2C344.72 106.33 322.45 93.44 317.5 90.55C312.55 87.66 300.17 80.54 290 74.72C279.82 68.91 269.25 62.75 266.5 61.04C263.75 59.33 261.05 57.99 260.5 58.07C259.95 58.14 255.22 60.79 250 63.95Z" />
	<path id="Path 0" class="shp4" d="M230 75.11C213.78 84.53 170.8 109.35 134.5 130.26C98.2 151.17 64.34 170.69 59.25 173.64L50 179L49.99 300.5C57.92 311.35 64.4 320.57 69.49 328C77.02 338.97 79.81 342.2 84.38 345.25C88.46 347.98 91.27 350.98 94.64 356.25C97.19 360.24 101.1 365.75 103.34 368.5C105.57 371.25 113.05 379.28 119.95 386.34C126.85 393.41 137.22 403.34 143 408.41C148.78 413.48 158 421 163.5 425.11C169 429.23 176.43 434.4 180 436.6C183.57 438.8 189.2 441.79 192.5 443.23C195.8 444.68 203 447.51 208.5 449.51C214 451.51 222.32 454.48 227 456.12C231.68 457.75 238.43 459.71 242 460.46C245.57 461.22 252.78 462.15 258 462.53C263.23 462.91 270.31 463.85 273.75 464.61C278.21 465.6 281.36 465.74 284.75 465.08C287.36 464.58 294.34 462.33 300.25 460.08C306.16 457.84 315.84 454.68 321.75 453.07C327.66 451.46 337.45 448.51 343.5 446.52C349.55 444.53 360.57 439.97 368 436.39C375.43 432.81 384.65 427.51 388.5 424.62C392.35 421.73 398.88 415.63 403 411.08C407.13 406.53 413.65 400.25 417.5 397.13C422.19 393.32 432.16 387.51 447.75 379.48L471 367.5L471 179C452.79 168.37 414.65 146.26 374.5 123.01C334.35 99.76 292.73 75.63 282 69.39C271.27 63.14 261.82 58.02 261 58.01C260.18 57.99 246.22 65.69 230 75.11Z" />
	<path id="Path 0" fill-rule="evenodd" class="shp1" d="M260.75 58.08C261.44 58.04 268.41 61.76 276.25 66.37C284.09 70.97 322 92.96 360.5 115.25C399 137.53 439.63 161.11 471.08 179.5L471 422L453.75 431.86C444.26 437.29 402.52 461.31 361 485.25C319.47 509.19 280.21 531.75 273.75 535.39C267.29 539.02 261.32 542 260.5 542C259.67 542 251.69 537.78 242.75 532.62C233.81 527.46 187.12 500.45 51.5 421.96L50.85 416.73C50.49 413.85 50.14 359.3 49.93 179.5L121.72 138.07C161.2 115.29 207 88.81 223.5 79.22C240 69.64 254.85 60.98 256.5 59.98C258.15 58.98 260.06 58.13 260.75 58.08ZM127.75 140.78L56 182C56 412.47 56.1 419.03 57.75 419.58C58.71 419.9 104.27 446.08 159 477.75C213.72 509.42 259.17 535.5 260 535.7C260.82 535.89 273.9 528.95 289.05 520.28C304.21 511.6 350.21 485.15 391.27 461.5L465.94 418.5L465.93 182.5C344.7 112.39 298.92 85.91 286 78.42C273.07 70.92 262.05 64.62 261.5 64.41C260.95 64.19 246.77 72.02 230 81.79C213.22 91.56 167.21 118.11 127.75 140.78Z" />
	<g id="Layer 2 copy 4">
		<path id="Path 0" class="shp5" d="M259.32 261.81C259.29 262.4 259.65 262.9 260.12 262.93C260.59 262.96 261.5 263.11 262.16 263.27C262.99 263.47 263.3 263.2 263.17 262.37C263.07 261.64 262.29 261.09 261.18 260.96C259.91 260.81 259.35 261.07 259.32 261.81Z" />
		<path id="Path 1" class="shp6" d="M254.89 264.07C253.96 265.47 252.87 268.15 252.46 270.02C252.05 271.89 250.79 281.39 249.67 291.12C248.18 304.11 247.47 314.4 246.99 329.9C246.63 341.5 246.18 351.45 245.99 352.01C245.8 352.57 245.49 358.39 245.32 364.94C245.15 371.49 244.7 385.11 244.34 395.22C243.97 405.32 243.5 418.49 243.29 424.47C243.08 430.46 242.62 440.72 242.28 447.27C241.93 453.82 241.48 464.07 241.26 470.06C241.05 476.05 241.11 488.24 241.4 497.16C241.88 512.27 242.01 513.44 243.28 514.35C244.03 514.89 245.56 515.32 246.68 515.31C247.8 515.3 249.03 515.06 249.4 514.79C249.78 514.51 250.16 513.91 250.25 513.44C250.35 512.97 250.12 512.59 249.74 512.59C249.37 512.59 249.09 511.29 249.13 509.7C249.19 507.17 249.27 507.02 249.79 508.5C250.24 509.81 250.3 509.57 250.02 507.48C249.82 505.99 249.42 492.82 249.12 478.23C248.82 463.63 248.67 446.18 248.79 439.44C248.9 432.71 249.31 419.54 249.7 410.19C250.08 400.83 250.7 391.19 251.08 388.75C251.45 386.32 251.77 381.73 251.79 378.55C251.81 375.37 252.11 370.62 252.44 368C252.83 365.05 252.82 363.17 252.42 363.07C252.07 362.97 251.78 361.14 251.78 358.99C251.77 356.83 252 353.64 252.29 351.89C252.57 350.14 252.96 348.81 253.14 348.94C253.33 349.06 253.79 341.62 254.16 332.39C254.54 323.16 254.77 312.17 254.67 307.96C254.56 303.02 254.75 300.42 255.18 300.64C255.59 300.85 255.87 299.56 255.87 297.41C255.87 295.44 256.32 288.02 256.87 280.91C257.47 273.16 258.28 267.03 258.88 265.6C259.68 263.73 259.72 263.03 259.07 262.36C258.62 261.88 257.87 261.5 257.4 261.51C256.94 261.51 255.81 262.67 254.89 264.07ZM266.38 263.56C265.97 264 266.13 265.8 266.84 268.5C267.45 270.83 268.74 277.34 269.72 282.95C270.7 288.56 271.97 299.43 272.55 307.1C273.23 316.1 273.41 322.93 273.07 326.33C272.66 330.39 272.73 331.61 273.39 331.61C273.85 331.6 274.16 331.98 274.07 332.45C273.97 332.95 274.6 333.3 275.6 333.3C277.23 333.3 277.3 333.13 277.25 329.22C277.22 326.97 276.83 319.01 276.38 311.53C275.93 304.04 275.24 294.7 274.86 290.77C274.48 286.85 273.4 280.11 272.47 275.81C271.54 271.5 270.26 266.93 269.62 265.64C268.98 264.35 268.13 263.2 267.74 263.08C267.35 262.96 266.73 263.17 266.38 263.56Z" />
		<path id="Path 2" class="shp7" d="M249.56 265.43C248.58 266.46 247.3 268.45 246.72 269.85C246.13 271.26 245.66 274.01 245.67 275.98C245.67 277.94 245.04 282.61 244.26 286.35C243.48 290.09 242.56 296.07 242.22 299.62C241.88 303.18 241.16 314.96 240.61 325.82C240.07 336.67 239.44 351.98 239.22 359.84C239.01 367.69 238.51 378.26 238.12 383.31C237.73 388.36 236.96 396.48 236.42 401.34C235.88 406.21 235.11 411.26 234.71 412.57C234.23 414.16 234.01 430.53 234.06 461.9C234.11 489.64 234.41 509.89 234.8 511.4C235.25 513.16 235.93 514.08 236.98 514.36C237.83 514.59 239.36 514.59 240.39 514.36C242 514.01 242.21 513.69 241.89 512.08C241.69 511.05 241.48 499.18 241.42 485.71C241.36 472.03 241.69 455.21 242.17 447.61C242.65 440.12 243.01 432.32 242.98 430.26C242.95 428.2 243.23 419.93 243.6 411.89C243.96 403.84 244.44 391.29 244.65 383.99C244.86 376.69 245.17 367.05 245.34 362.56C245.51 358.07 245.82 353.32 246.02 352.01C246.23 350.7 246.67 340.6 247 329.56C247.38 316.5 248.18 304.14 249.29 294.18C250.22 285.76 251 278.41 251.01 277.85C251.02 277.29 251.47 274.68 252 272.06C252.53 269.44 253.3 266.69 253.72 265.94C254.13 265.19 254.25 264.34 253.98 264.05C253.71 263.76 253 263.53 252.42 263.54C251.83 263.55 250.55 264.4 249.56 265.43ZM259.2 265.61C258.65 266.81 258 270.28 257.74 273.33C257.48 276.37 256.96 281.93 256.59 285.67C256.22 289.41 255.9 294.85 255.89 297.75C255.88 300.65 255.64 303.02 255.35 303.02C255.07 303.03 254.75 308.15 254.63 314.42C254.51 320.69 254.26 330.87 254.07 337.04C253.85 344.22 253.37 349.25 252.75 350.99C252.18 352.59 251.85 355.61 251.95 358.3C252.05 360.83 252.35 362.89 252.63 362.9C252.91 362.9 252.96 364.51 252.73 366.47C252.51 368.43 252.21 372.19 252.08 374.81C251.95 377.42 251.72 382.02 251.57 385.01C251.42 388 251.1 390.84 250.86 391.3C250.62 391.77 250.05 400.81 249.59 411.38C249.11 422.27 248.84 444.31 248.96 462.24C249.08 479.64 249.27 495.87 249.4 498.3C249.52 500.73 249.79 504.41 250.01 506.46C250.3 509.26 250.23 509.78 249.74 508.5C249.22 507.13 249.17 507.33 249.49 509.53C249.71 511.02 249.97 512.71 250.06 513.27C250.15 513.83 251.12 514.55 252.2 514.87C253.37 515.22 254.71 515.19 255.53 514.8C256.76 514.2 256.87 513.56 256.7 508.09C256.59 504.76 256.51 501.58 256.51 501.02C256.51 500.46 256.47 480.56 256.42 456.79C256.37 433.03 256.29 409 256.23 403.38C256.17 397.77 256.39 389.2 256.71 384.33C257.02 379.47 257.44 374.11 257.64 372.42C257.83 370.74 258.27 366.91 258.61 363.92C258.95 360.92 259.55 352.5 259.94 345.21C260.33 337.91 260.67 329.03 260.7 325.48C260.74 321.92 260.54 312.12 260.27 303.7C260 295.28 260.03 283.19 260.34 276.83C260.74 268.76 261.04 266.19 261.35 268.32L261.78 271.38C261.91 267.16 261.55 265.38 261.07 264.69C260.25 263.52 260.12 263.58 259.2 265.61Z" />
		<path id="Path 3" class="shp6" d="M260.99 266.06C260.83 266.69 260.62 277.33 260.52 289.71C260.42 302.08 260.42 316.8 260.54 322.41C260.65 328.03 260.4 338.44 259.99 345.55C259.58 352.66 258.93 361.38 258.54 364.94C258.15 368.49 257.53 374.01 257.15 377.19C256.78 380.37 256.48 389.71 256.5 397.94C256.52 406.17 256.61 435.51 256.71 463.14C256.88 512.49 256.91 513.39 258.25 514.35C259 514.89 260.22 515.32 260.97 515.31C261.72 515.3 262.73 515.06 263.21 514.79C263.89 514.41 264.15 510.71 264.31 499.32C264.47 488.11 264.81 483.24 265.66 479.93C266.66 476.06 266.71 474 266.12 463.6C265.65 455.42 265.66 448.28 266.16 440.8C266.55 434.82 266.71 429 266.5 427.88C266.29 426.75 265.43 424.92 264.59 423.79C263.74 422.67 262.58 420.2 262.01 418.31C261.22 415.69 261.09 413.56 261.48 409.46C261.77 406.49 262.07 398.47 262.16 391.65C262.25 384.82 262.1 379.23 261.82 379.23C261.54 379.23 261.45 376.4 261.62 372.93C261.79 369.47 261.94 365.95 261.96 365.11C261.98 364.27 262.3 363.58 262.67 363.58C263.04 363.58 263.2 362.97 263.01 362.22C262.82 361.47 263.02 360.17 263.45 359.33C263.88 358.48 263.96 357.72 263.62 357.62C263.28 357.53 263.14 356 263.29 354.22C263.53 351.48 263.65 351.25 264.1 352.69C264.45 353.83 264.61 352.83 264.57 349.63C264.54 347.01 264.86 344.03 265.29 343C265.72 341.97 265.84 341.12 265.56 341.11C265.28 341.11 265.51 340.81 266.07 340.46C266.94 339.91 267.13 336.04 267.33 314.1C267.55 289.03 267.51 288.12 265.76 277.17C264.78 270.99 263.83 265.71 263.66 265.43C263.49 265.15 262.88 264.92 262.31 264.92C261.74 264.92 261.15 265.43 260.99 266.06Z" />
		<path id="Path 4" fill-rule="evenodd" class="shp7" d="M264.98 264.92C265.8 264.92 266.4 266.41 267.4 270.87C268.13 274.15 269.35 280.5 270.11 284.99C270.87 289.48 271.96 299.43 272.55 307.1C273.14 314.8 273.42 323.34 273.18 326.16C272.85 330.07 272.97 331.37 273.67 331.73C274.32 332.07 273.71 332.99 271.51 334.98C269.83 336.51 268.15 337.65 267.77 337.52C267.33 337.36 267.14 327.62 267.24 309.77C267.32 294.15 267.12 281.98 266.77 281.59C266.43 281.22 266.04 279.23 265.89 277.17C265.74 275.11 265.45 273.12 265.24 272.74C265.04 272.37 264.64 270.46 264.37 268.49C263.96 265.46 264.05 264.92 264.98 264.92ZM272.23 266.96C272.58 266.96 273.34 267.65 273.9 268.49C274.46 269.33 275.38 273.08 275.93 276.83C276.48 280.57 277.41 289.75 277.99 297.24C278.56 304.72 279.35 315.44 279.74 321.05C280.13 326.67 280.28 331.64 280.07 332.11C279.85 332.58 279.22 332.96 278.66 332.96C277.88 332.96 277.61 332.02 277.51 329.05C277.44 326.9 277.26 324.22 277.11 323.09C276.96 321.97 276.69 317.99 276.52 314.25C276.34 310.51 276.08 305.45 275.94 303.02C275.79 300.59 275.33 295.23 274.92 291.12C274.5 287 273.41 280.19 272.5 275.98C271.58 271.77 271 268.02 271.21 267.64C271.41 267.27 271.87 266.96 272.23 266.96ZM266.58 296.56C266.7 300.3 266.7 306.27 266.58 309.83C266.46 313.38 266.36 310.32 266.36 303.02C266.36 295.72 266.46 292.82 266.58 296.56Z" />
		<path id="Path 5" class="shp5" d="M323.45 296.73C323.98 297.76 325.22 301.36 326.21 304.72C327.2 308.09 328.64 314.67 329.41 319.35C330.38 325.21 331.03 333.68 331.49 346.57C331.86 356.86 332.27 367.88 332.42 371.06C332.56 374.24 332.71 383.58 332.74 391.82C332.78 400.05 332.49 410 332.1 413.93C331.7 417.86 331.06 423.22 330.66 425.84C330.26 428.46 329.31 432.89 328.54 435.7C327.78 438.51 326.38 443.41 325.44 446.59C324.51 449.77 322.74 454.51 321.52 457.13C320.3 459.75 318.27 462.9 317.01 464.14C315.75 465.37 313.34 467.56 311.66 469C309.71 470.67 307.11 472.05 304.51 472.8C302.27 473.45 299.36 474.51 298.05 475.15C296.74 475.8 293.98 476.49 291.93 476.69C288.64 477 288.43 476.96 290.23 476.29C291.35 475.88 296.09 473.65 300.77 471.35C308.29 467.64 309.6 466.73 312.06 463.5C313.6 461.5 315.94 458.02 317.27 455.77C318.59 453.53 320.66 448.63 321.85 444.89C323.05 441.14 324.6 435.48 325.3 432.3C326 429.12 327.02 422.69 327.57 418.01C328.13 413.33 328.95 404.61 329.39 398.62C329.92 391.52 330.03 382.29 329.72 372.08C329.45 363.48 329.06 356.13 328.85 355.75C328.63 355.38 328.21 349.1 327.91 341.81C327.56 333.34 326.64 323.61 325.35 314.93C324.25 307.44 323.01 300.48 322.6 299.45C322.2 298.42 321.41 297.58 320.84 297.58C320.28 297.58 319.83 297.2 319.84 296.73C319.85 296.26 319.71 296.03 319.54 296.22C319.36 296.41 318.87 299.62 318.46 303.36C317.78 309.61 317.86 310.92 319.43 319.35C320.37 324.4 321.45 333.59 321.83 339.76C322.21 345.94 322.84 356.96 323.22 364.26C323.61 371.56 323.92 382.96 323.91 389.6C323.91 396.25 323.59 404.67 323.2 408.32C322.81 411.96 321.7 418.16 320.72 422.09C319.74 426.02 317.95 431.99 316.74 435.36C315.54 438.73 313.56 443.48 312.34 445.91C311.13 448.34 308.54 452.32 306.58 454.75C304.63 457.19 301.83 459.96 300.37 460.93C298.91 461.89 296.18 463.59 294.31 464.7C292.44 465.8 289.83 467.14 288.52 467.67C287.21 468.19 285.92 468.95 285.64 469.34C285.37 469.74 285.14 471.52 285.13 473.29C285.13 475.07 285.35 476.53 285.63 476.53C285.91 476.53 286.14 477.42 286.14 478.5L286.14 480.47C296.71 481.34 297.53 481.21 305.53 478.62C313.42 476.08 314.4 475.56 318.95 471.61C321.65 469.26 324.58 466.27 325.45 464.96C326.32 463.65 327.69 461.35 328.48 459.86C329.28 458.36 330.72 455.07 331.68 452.54C332.64 450.02 333.43 447.64 333.43 447.27C333.43 446.89 333.95 445.59 334.58 444.38C335.21 443.16 335.79 440.94 335.88 439.44C335.97 437.95 336.53 433.81 337.14 430.26C337.89 425.83 338.43 416.28 338.84 399.98C339.17 386.88 339.66 373.56 339.92 370.38C340.2 367.03 340.09 362.17 339.65 358.82C339.24 355.63 338.14 344.92 337.21 335C336.29 325.08 334.95 314.52 334.25 311.53C333.54 308.53 332.14 304.25 331.12 302C330.1 299.76 328.6 297.22 327.78 296.37C326.91 295.47 325.49 294.83 324.39 294.84C322.54 294.86 322.51 294.91 323.45 296.73Z" />
		<path id="Path 6" class="shp8" d="M316.38 297.1C315.72 297.77 315.61 300.19 315.89 307.13C316.1 312.17 316.46 318.89 316.68 322.07C316.91 325.25 317.25 331.38 317.45 335.68C317.65 339.99 317.94 345.04 318.09 346.91C318.25 348.78 318.58 353.22 318.83 356.77C319.07 360.33 319.25 372.42 319.22 383.65C319.19 394.88 319 405.29 318.81 406.78C318.61 408.28 318.32 411.04 318.15 412.91C317.98 414.78 317.06 419.3 316.11 422.94C315.16 426.59 314.53 429.88 314.72 430.26C314.91 430.63 314.75 430.94 314.38 430.94C314.01 430.94 313.32 432.55 312.86 434.51C312.39 436.48 312.01 438.43 312.01 438.85C312 439.27 311.77 439.5 311.49 439.36C311.21 439.22 310.8 439.95 310.59 440.97C310.38 442 308.77 445.13 307.02 447.92C305.15 450.89 301.93 454.69 299.21 457.1C296.67 459.37 294.22 461.34 293.77 461.48C293.32 461.63 292.18 462.06 291.25 462.43C290.31 462.81 288.7 463.07 287.67 463.02C285.93 462.92 285.8 463.1 285.8 465.64C285.8 467.37 286.11 468.35 286.65 468.34C287.12 468.34 290.11 466.91 293.29 465.17C296.47 463.43 300.11 461.22 301.37 460.25C302.64 459.29 304.86 456.96 306.3 455.09C307.74 453.22 309.16 451.37 309.44 450.99C309.73 450.6 311.26 447.69 312.85 444.52C314.44 441.36 315.74 438.38 315.74 437.91C315.74 437.44 316.24 436.07 316.85 434.85C317.46 433.63 318.55 430.34 319.27 427.54C320 424.73 320.74 421.82 320.92 421.07C321.11 420.32 321.42 418.95 321.62 418.01C321.82 417.08 322.09 415.54 322.2 414.61C322.32 413.67 322.67 411.07 322.98 408.83C323.29 406.58 323.55 397.24 323.55 388.07C323.55 378.9 323.31 366.35 323.02 360.18C322.74 354 322.04 343.13 321.48 336.02C320.91 328.91 320.16 322.79 319.8 322.41C319.45 322.04 319.29 321.58 319.47 321.39C319.64 321.21 319.31 318.6 318.75 315.61C317.92 311.27 317.85 308.85 318.39 303.7C318.77 300.15 318.93 297.01 318.77 296.73C318.6 296.45 318.19 296.22 317.86 296.22C317.53 296.22 316.86 296.61 316.38 297.1Z" />
		<path id="Path 7" class="shp5" d="M312.94 299.79C312.51 300.63 311.85 304.69 311.49 308.81C311.13 312.98 311.03 323.06 311.29 331.6C311.53 340.02 311.85 350.74 311.99 355.41C312.12 360.09 312.46 370.04 312.73 377.53C313.06 386.77 312.96 393.64 312.4 398.96C311.94 403.26 310.85 410 309.97 413.93C309.08 417.86 307.23 424.44 305.85 428.56C304.47 432.67 302.53 437.66 301.55 439.63C300.56 441.61 298.1 444.82 296.07 446.78C294.05 448.73 290.74 452.47 288.73 455.09C286.5 457.98 285.14 460.39 285.27 461.22C285.41 462.17 286.08 462.64 287.51 462.77C288.63 462.88 290.67 462.58 292.05 462.09C293.42 461.61 296.62 459.38 299.15 457.13C301.68 454.89 305.13 450.91 306.81 448.29C308.49 445.67 310.71 441.08 311.74 438.08C312.78 435.09 314.55 428.97 315.68 424.47C316.81 419.98 318.06 413.48 318.44 410.02C318.83 406.55 319.16 394.15 319.17 382.46C319.19 370.77 318.87 357.37 318.47 352.69C318.08 348.01 317.46 339.59 317.1 333.98C316.74 328.37 316.27 318.26 316.05 311.53C315.83 304.79 315.52 299.05 315.36 298.77C315.19 298.49 314.76 298.26 314.4 298.26C314.04 298.26 313.38 298.95 312.94 299.79ZM191.85 300.14C191.32 300.32 190.03 301.27 188.98 302.26C187.92 303.25 186.64 305.55 186.09 307.44C185.55 309.32 184.65 312.99 184.09 315.61C183.53 318.23 182.48 325.42 181.75 331.6C180.93 338.57 180.4 347.73 180.35 355.75C180.3 362.86 180.41 372.2 180.58 376.51C180.75 380.81 181.39 386.63 182.01 389.43C182.62 392.24 183.39 396.07 183.72 397.94C184.04 399.81 184.83 402.87 185.48 404.74C186.12 406.61 187.67 410.36 188.93 413.08C190.19 415.79 191.53 418.01 191.91 418.01C192.28 418.01 193.42 419.77 194.44 421.92C195.57 424.31 198.29 427.91 201.41 431.16C204.23 434.09 207.88 437.31 209.53 438.31C211.18 439.31 213.09 440.97 213.78 442C214.48 443.02 216.34 444.35 217.93 444.94C220 445.71 222.59 445.95 227.06 445.79C230.49 445.67 233.5 445.41 233.74 445.23C233.98 445.04 234.01 444.2 233.8 443.36C233.55 442.38 232.73 441.68 231.54 441.44C230.51 441.22 228.44 440.55 226.95 439.95C225.45 439.35 221.32 437.23 217.76 435.25C214.21 433.26 209.78 430.49 207.93 429.08C206.08 427.67 202.76 424.37 200.56 421.75C198.36 419.13 195.49 414.69 194.18 411.89C192.87 409.08 190.87 404.49 189.74 401.68C187.73 396.67 187.7 396.43 188.13 388.07C188.38 383.11 188.3 379.28 187.93 378.89C187.58 378.51 186.93 375.45 186.48 372.08C185.86 367.36 185.85 363.32 186.47 354.39C186.91 348.03 187.85 337.47 188.56 330.92C189.26 324.37 190.16 316.87 190.56 314.25C190.95 311.63 191.64 308.31 192.1 306.87C192.56 305.42 193.47 303.74 194.14 303.12C195.17 302.17 195.35 302.15 195.33 303.02C195.32 303.58 194.86 310.01 194.3 317.31C193.75 324.61 192.83 336.86 192.26 344.53C191.7 352.2 191.23 361.23 191.24 364.6C191.24 367.97 191.69 372.41 192.24 374.46C192.79 376.52 193.29 379.89 193.34 381.95C193.4 384.01 194.35 389.37 195.45 393.86C196.94 399.89 198.7 404.59 202.21 411.89C206.81 421.43 207.18 421.96 213.55 428.22C219.87 434.41 220.4 434.77 226.44 436.89C229.9 438.11 233.04 438.95 233.41 438.76C233.79 438.58 234.09 437.35 234.09 436.04C234.09 433.94 233.71 433.42 230.86 431.63C229.08 430.52 225.39 427.99 222.66 426.02C219.93 424.05 217.33 422.31 216.88 422.15C216.43 421.99 214.58 420.46 212.77 418.75C210.96 417.03 208.37 413.64 207.02 411.21C205.66 408.77 203.87 404.79 203.04 402.36C202.2 399.93 201.15 395.18 200.69 391.82C200.24 388.45 199.73 378.8 199.56 370.38C199.4 361.96 199.61 346.35 200.04 335.68C200.61 321.53 200.62 314.63 200.08 310.17C199.67 306.8 199.27 303.49 199.19 302.81C199.11 302.13 198.52 301.27 197.86 300.9C197.21 300.52 196.14 300.31 195.48 300.41C194.83 300.52 193.96 300.43 193.55 300.21C193.14 299.99 192.38 299.96 191.85 300.14Z" />
		<path id="Path 8" class="shp8" d="M323.23 300.47C323.23 300.56 323.99 305.85 324.93 312.21C325.87 318.57 326.79 324.69 326.97 325.82C327.15 326.94 327.46 329.69 327.66 331.94C327.86 334.18 328.15 340 328.29 344.87C328.44 349.73 328.88 357.39 329.27 361.88C329.67 366.37 329.85 377.24 329.69 386.03C329.53 394.83 329.24 403.71 329.05 405.76C328.86 407.82 328.56 411.04 328.39 412.91C328.21 414.78 327.61 419.22 327.06 422.77C326.5 426.33 325.59 431.23 325.03 433.66C324.47 436.09 323.03 441.14 321.84 444.89C320.52 449.05 318.37 453.8 316.3 457.13C314.44 460.13 312.28 463.5 311.48 464.62C310.69 465.74 308.49 467.51 306.6 468.55C304.7 469.6 301.08 471.43 298.54 472.64C296 473.84 293.93 475.21 293.95 475.68C293.96 476.14 294.27 476.53 294.65 476.53C295.02 476.53 296.63 475.85 298.22 475.03C299.81 474.21 301.42 473.48 301.79 473.41C302.17 473.34 303.85 472.9 305.53 472.43C307.22 471.96 309.52 470.69 310.64 469.59C311.76 468.5 313.44 467.19 314.38 466.69C315.32 466.18 316.72 464.9 317.51 463.83C318.29 462.77 319.5 460.83 320.2 459.52C320.9 458.21 321.56 456.9 321.67 456.62C321.78 456.34 321.9 455.88 321.95 455.6C321.99 455.32 321.99 454.86 321.95 454.58C321.9 454.3 322.17 454.07 322.55 454.07C322.92 454.07 323.84 452.16 324.59 449.82C325.34 447.48 325.95 444.95 325.93 444.21C325.92 443.46 326.15 442.59 326.44 442.27C326.73 441.95 327.03 441.19 327.1 440.57C327.18 439.95 327.46 438.68 327.73 437.74C328 436.81 328.32 435.81 328.44 435.53C328.57 435.25 328.72 434.79 328.77 434.51C328.83 434.23 328.94 433.69 329.01 433.32C329.08 432.95 329.32 432.18 329.53 431.62C329.75 431.06 330.1 429.07 330.31 427.2C330.53 425.33 330.87 422.42 331.07 420.73C331.27 419.05 331.6 416.75 331.79 415.63C331.99 414.51 332.26 403.02 332.39 390.11C332.52 377.2 332.37 364.5 332.05 361.88C331.73 359.26 331.31 350.99 331.12 343.51C330.92 336.02 330.6 328.52 330.4 326.84C330.2 325.15 329.55 320.71 328.96 316.97C328.37 313.23 327.63 309.71 327.32 309.15C327.01 308.58 326.73 307.9 326.69 307.61C326.66 307.33 326.38 305.57 326.09 303.7C325.68 301.16 325.26 300.3 324.39 300.3C323.75 300.3 323.23 300.38 323.23 300.47ZM192.97 304.55C192.83 305.02 192.37 306.48 191.95 307.79C191.53 309.09 191 311.7 190.77 313.57C190.54 315.44 190.3 317.43 190.23 317.99C190.17 318.55 189.92 319.78 189.67 320.71C189.43 321.65 189.07 324.71 188.88 327.52C188.69 330.32 188.4 333.54 188.24 334.66C188.08 335.78 187.78 338.69 187.57 341.12C187.37 343.56 186.99 348.3 186.73 351.67C186.47 355.04 186.3 361.16 186.34 365.28C186.4 369.65 186.88 374.46 187.51 376.85C188.35 380.03 188.49 382.65 188.14 388.75L187.69 396.58C191.55 406.07 193.25 409.74 193.97 410.87C194.68 411.99 195.27 413.37 195.26 413.93C195.26 414.49 196.8 417.02 198.69 419.54C200.95 422.57 202.4 423.96 202.96 423.62C203.46 423.32 203.61 423.39 203.32 423.79C203.06 424.17 203.83 425.43 205.03 426.59C206.23 427.76 208.21 429.29 209.44 429.99C210.66 430.7 211.65 431.51 211.65 431.79C211.64 432.07 212.02 432.29 212.49 432.29C212.96 432.28 214.3 432.97 215.47 433.82C216.65 434.67 219.25 436.18 221.26 437.18C223.26 438.18 225.83 439.37 226.95 439.84C228.07 440.31 229.3 440.75 229.67 440.83C230.04 440.9 231.04 441.15 231.88 441.39C233.1 441.74 233.41 441.55 233.41 440.46C233.41 439.39 232.58 438.86 229.5 437.97C227.35 437.35 224.82 436.43 223.89 435.93C222.95 435.44 221.8 435.03 221.33 435.03C220.87 435.02 217.35 431.88 213.51 428.05C207.05 421.58 206.26 420.5 202.79 413.25C200.74 408.94 198.8 405.27 198.48 405.08C198.17 404.9 197.94 404.51 197.97 404.23C198 403.95 197.8 402.8 197.52 401.67C197.24 400.53 196.86 399.61 196.67 399.62C196.48 399.63 196.26 398.64 196.17 397.43C196.09 396.21 195.7 395.14 195.32 395.05C194.94 394.95 194.78 394.57 194.97 394.2C195.16 393.82 194.89 391.6 194.37 389.26C193.85 386.92 193.38 383.48 193.32 381.61C193.27 379.74 192.78 376.52 192.23 374.46C191.69 372.41 191.24 367.97 191.23 364.6C191.23 361.23 191.51 354.65 191.86 349.97C192.22 345.29 192.68 338.86 192.89 335.68C193.1 332.5 193.58 325.76 193.96 320.71C194.33 315.66 194.72 309.77 194.83 307.61C194.97 304.74 194.79 303.7 194.13 303.7C193.64 303.7 193.12 304.09 192.97 304.55ZM200.12 323.6C199.96 333.8 199.83 351.79 199.84 363.58C199.85 375.37 200.09 386.54 200.37 388.41C200.65 390.28 201.31 394.26 201.84 397.26C202.45 400.79 203.79 404.73 205.63 408.49C207.49 412.28 209.77 415.6 212.27 418.15C214.35 420.29 216.37 422.04 216.74 422.05C217.12 422.06 219.57 423.69 222.19 425.69C224.8 427.68 228.24 430.06 229.83 430.97C231.41 431.89 232.84 432.49 233 432.3C233.17 432.11 233.51 431.04 233.76 429.92C234.19 427.99 233.73 427.42 225.48 419.71C220.67 415.22 214.88 409.71 212.61 407.46C209.53 404.42 208.09 402.34 206.95 399.3C205.78 396.16 205.18 392.06 204.35 381.61C203.41 369.81 203.38 366.46 204.15 356.43C204.72 349.1 204.83 343.75 204.45 341.81C204.12 340.12 203.93 333.08 204.03 326.16C204.19 315.61 204.02 312.92 203 309.55C202.32 307.33 201.47 305.42 201.09 305.29C200.65 305.15 200.31 311.67 200.12 323.6Z" />
		<path id="Path 9" class="shp9" d="M273.36 334.49C273.2 334.96 273.37 344.07 273.75 354.73C274.13 365.4 274.42 379.79 274.39 386.71C274.35 395.09 273.96 401.46 273.21 405.76C272.6 409.32 271.49 414.06 270.75 416.31C270.01 418.56 268.8 421.23 268.08 422.26C267.35 423.29 266.75 424.75 266.75 425.5C266.75 426.24 267.21 427.01 267.77 427.2C268.33 427.38 269.79 427.53 271 427.53C272.22 427.52 273.59 427.29 274.04 427.02C274.49 426.74 275.5 424.07 276.27 421.07C277.04 418.08 278.3 412.72 279.07 409.17C279.93 405.17 280.61 398.81 280.85 392.5C281.07 386.87 280.86 376.49 280.39 369.36C279.92 362.25 278.96 353.07 278.25 348.95C277.55 344.83 276.96 340.16 276.96 338.57C276.96 336.98 276.8 335.22 276.62 334.66C276.43 334.1 275.69 333.64 274.97 333.64C274.26 333.64 273.53 334.02 273.36 334.49Z" />
		<path id="Path 10" class="shp10" d="M276.8 337.21C276.9 338.8 277.59 344.39 278.32 349.63C279.05 354.87 279.91 361.3 280.24 363.92C280.56 366.54 280.78 376.34 280.72 385.69C280.63 401.66 280.51 403.2 278.75 410.87C277.71 415.36 276.78 419.34 276.68 419.71C276.57 420.09 276.26 421.31 275.98 422.43C275.7 423.56 275.34 424.93 275.18 425.5C275.01 426.08 275.48 426.74 276.26 427.03C277.27 427.4 278.17 427.04 279.66 425.67C280.93 424.49 281.45 423.54 281.05 423.11C280.67 422.7 280.7 421.24 281.12 419.37C281.49 417.69 281.96 415.09 282.16 413.59C282.35 412.09 282.81 406.73 283.18 401.68C283.54 396.63 283.71 387.29 283.54 380.93C283.37 374.57 282.89 364.77 282.47 359.16C282.05 353.54 281.33 346.72 280.87 344C280.3 340.7 280.25 338.83 280.7 338.42C281.15 338 280.97 337.19 280.19 336.05C279.53 335.1 278.46 334.32 277.81 334.32C276.83 334.32 276.65 334.84 276.8 337.21ZM271 335.85C270.64 336.32 270.15 337.54 269.91 338.57C269.64 339.73 269.73 340.31 270.15 340.1C270.61 339.88 270.61 340.22 270.15 341.12C269.78 341.87 269.44 343.17 269.41 344.02C269.37 344.86 269.31 350.6 269.28 356.77C269.25 362.95 269.35 377.03 269.5 388.07C269.73 405.44 269.61 408.6 268.64 411.55C267.95 413.62 266.56 415.81 265.09 417.16C263.76 418.38 262.66 419.75 262.66 420.22C262.65 420.69 263.34 422.07 264.19 423.29L265.73 425.5C268.56 421.54 269.99 418.56 270.74 416.31C271.48 414.06 272.56 409.47 273.14 406.1C273.71 402.74 274.27 395.08 274.38 389.09C274.49 383.11 274.34 370.71 274.04 361.54C273.75 352.37 273.37 342.65 273.2 339.93C273.03 337.22 272.61 335 272.28 335C271.94 335 271.37 335.38 271 335.85Z" />
		<path id="Path 11" class="shp9" d="M267.38 339.15C266.1 340.26 265.28 341.16 265.56 341.15C265.84 341.14 265.72 341.97 265.29 343C264.86 344.03 264.56 346.93 264.61 349.46C264.67 352.13 264.43 354.05 264.03 354.05C263.66 354.05 263.34 355.2 263.33 356.6C263.32 358.01 263.24 360.15 263.16 361.36C263.08 362.58 262.78 363.57 262.5 363.57C262.22 363.58 261.98 364.27 261.96 365.11C261.94 365.95 261.79 369.47 261.62 372.93C261.45 376.4 261.54 379.23 261.82 379.23C262.1 379.23 262.25 384.82 262.15 391.65C262.05 398.47 261.8 406.67 261.59 409.85C261.39 413.03 261.39 416.32 261.6 417.16C261.82 418 262.37 418.7 262.84 418.71C263.31 418.71 264.51 417.87 265.52 416.83C266.52 415.8 267.71 414.03 268.17 412.91C268.62 411.79 269.24 407.65 269.55 403.72C269.88 399.51 269.8 387.08 269.34 373.44C268.8 357.19 268.78 348.9 269.28 345.55C269.7 342.75 269.74 340.29 269.39 339.59C268.99 338.79 269.07 338.32 269.64 338.16C270.11 338.02 270.32 337.73 270.1 337.52C269.88 337.3 268.65 338.04 267.38 339.15ZM280.67 338.38C280.26 338.8 280.33 340.87 280.87 344C281.33 346.72 282.05 353.54 282.47 359.16C282.88 364.77 283.37 374.41 283.55 380.59C283.73 386.76 283.54 396.71 283.13 402.7C282.72 408.69 281.95 415.58 281.42 418.01C280.84 420.7 280.71 422.7 281.09 423.11C281.43 423.49 281.48 424.04 281.2 424.35C280.93 424.66 281.43 424.66 282.32 424.35C283.21 424.04 284.02 423.33 284.11 422.77C284.2 422.21 284.79 420.07 285.41 418.01C286.05 415.87 286.81 409.75 287.17 403.72C287.52 397.92 287.81 386.75 287.82 378.89C287.83 371.03 287.51 361.08 287.11 356.77C286.7 352.47 285.91 347.11 285.36 344.87C284.8 342.62 283.91 340.1 283.37 339.25C282.84 338.41 282.16 337.72 281.86 337.72C281.56 337.72 281.02 338.02 280.67 338.38ZM228.8 359.73C227.95 360.22 226.49 361.97 225.56 363.63C224.42 365.66 223.88 367.69 223.88 369.87C223.88 371.65 223.45 374.71 222.93 376.68C222.29 379.03 221.84 385.71 221.59 396.24C221.39 405.03 221.06 412.76 220.85 413.42C220.63 414.15 221.24 415.46 222.45 416.82C224.22 418.81 224.52 418.93 225.54 418.01C226.46 417.18 226.66 415.66 226.64 409.85C226.62 405.92 227.23 397.34 227.99 390.79C228.74 384.25 229.51 375.37 229.7 371.06C229.88 366.76 230.12 362.24 230.24 361.03C230.35 359.81 230.42 358.82 230.4 358.83C230.37 358.83 229.65 359.24 228.8 359.73Z" />
		<path id="Path 12" class="shp10" d="M230.41 361.54C230.11 363.22 229.77 367.66 229.65 371.4C229.53 375.15 228.78 383.87 227.99 390.79C227.19 397.72 226.56 406.29 226.59 409.85C226.61 413.4 226.45 417.08 226.24 418.01C226.02 418.95 226.25 420.29 226.74 421C227.23 421.72 227.93 422.13 228.31 421.92C228.68 421.72 229.23 417 229.51 411.45C229.8 405.89 230.34 397.67 230.71 393.18C231.07 388.69 231.54 380.42 231.76 374.81C231.97 369.19 231.87 363.22 231.55 361.54L230.96 358.48L230.41 361.54Z" />
		<path id="Path 13" class="shp9" d="M231.71 369.93C231.71 375.98 231.3 386.13 230.79 392.5C230.28 398.86 229.67 408.12 229.43 413.07C229.04 420.99 229.13 422.28 230.18 423.79C230.83 424.73 231.75 425.49 232.22 425.48C232.79 425.48 232.73 425.25 232.05 424.81C231.14 424.23 231.14 424.15 232.05 424.06C232.61 424.01 233.3 424.01 233.58 424.05C233.86 424.1 234.09 421.3 234.08 417.84C234.07 414.38 234.34 411.24 234.68 410.87C235.01 410.49 235.48 409.04 235.71 407.63C235.96 406.11 235.86 405.08 235.45 405.08C235.08 405.08 234.92 404.55 235.11 403.89C235.29 403.24 235.79 397.96 236.23 392.16C236.66 386.35 237.03 380.54 237.05 379.23C237.07 377.92 236.98 373.63 236.85 369.7C236.71 365.77 236.3 361.95 235.93 361.2C235.55 360.45 234.91 359.61 234.5 359.34C234.09 359.06 233.52 358.83 233.24 358.83C232.96 358.82 232.94 359.2 233.2 359.67C233.57 360.32 233.45 360.34 232.69 359.72C231.85 359.04 231.71 360.44 231.71 369.93Z" />
		<path id="Path 14" class="shp10" d="M185.99 364.94C185.99 367 186.11 367.76 186.27 366.64C186.43 365.52 186.43 363.83 186.27 362.9C186.11 361.96 185.99 362.88 185.99 364.94ZM236.72 362.69C236.57 362.99 236.53 366.07 236.63 369.53C236.77 374.41 237.04 375.9 237.83 376.17C238.7 376.46 238.83 375.48 238.69 369.59C238.58 365.22 238.23 362.57 237.75 362.41C237.33 362.26 236.87 362.39 236.72 362.69ZM236.89 383.48C236.5 386.57 235.93 392.69 235.64 397.09C235.35 401.49 235.27 405.09 235.45 405.1C235.64 405.1 236.01 403.95 236.28 402.54C236.55 401.13 237.09 395.69 237.48 390.45C237.88 385.22 238.3 380.24 238.42 379.4C238.54 378.56 238.41 377.87 238.13 377.87C237.85 377.87 237.29 380.39 236.89 383.48Z" />
		<path id="Path 15" class="shp7" d="M245.23 393.18C245.23 396.92 245.34 398.3 245.48 396.24C245.62 394.18 245.62 391.12 245.48 389.43C245.34 387.75 245.23 389.43 245.23 393.18ZM282.06 424.57C280.94 425.16 279.65 426.14 279.19 426.76C278.67 427.47 278.59 428.25 278.98 428.9C279.31 429.46 279.83 438.18 280.12 448.29C280.41 458.39 280.61 473.55 280.55 481.97C280.5 490.39 280.15 500.95 279.77 505.44C279.15 512.81 279.2 513.69 280.23 514.4C281.02 514.95 282.12 515.01 283.76 514.59C285.07 514.25 286.37 513.73 286.65 513.45C286.92 513.16 286.83 509.71 286.44 505.78C286.05 501.85 285.83 493.66 285.94 487.58C286.05 481.5 285.91 476.52 285.63 476.52C285.35 476.53 285.29 472.47 285.49 467.51C285.68 462.55 285.87 458.19 285.9 457.81C285.93 457.44 285.69 449.98 285.37 441.25C285.05 432.51 284.55 425.24 284.27 425.09C283.99 424.94 283.9 424.51 284.08 424.13C284.25 423.76 284.33 423.47 284.25 423.48C284.17 423.5 283.18 423.99 282.06 424.57Z" />
		<path id="Path 16" class="shp10" d="M256.83 437.06C256.83 444.36 256.93 447.42 257.05 443.87C257.18 440.31 257.18 434.34 257.05 430.6C256.93 426.86 256.83 429.76 256.83 437.06Z" />
		<path id="Path 17" class="shp7" d="M267.06 427.48C266.97 427.7 266.69 432.16 266.45 437.4C266.21 442.64 265.86 447.39 265.68 447.95C265.5 448.51 265.66 455.02 266.05 462.41C266.51 471.24 266.52 476.72 266.08 478.4C265.72 479.8 265.18 482.63 264.89 484.69C264.61 486.75 264.37 494.24 264.37 501.34L264.37 514.26C267.5 515.42 268.71 515.43 269.92 514.97C271.71 514.3 271.73 514.22 271.46 508.84C271.3 505.85 271.33 497.89 271.51 491.15C271.7 484.42 271.85 467.58 271.85 453.73C271.85 439.89 272.03 430.24 272.25 432.3L272.65 436.04C272.81 430.77 272.63 428.9 272.35 428.48C272.08 428.06 270.81 427.58 269.54 427.4C268.27 427.23 267.16 427.26 267.06 427.48Z" />
		<path id="Path 18" class="shp6" d="M272.88 427.52C272 428.08 271.82 432.67 271.6 460.34C271.46 478.04 271.38 496.8 271.42 502.04C271.46 507.28 271.66 512.26 271.85 513.1C272.07 514.07 272.87 514.78 274.07 515.05C275.1 515.27 276.55 515.17 277.3 514.81C278.05 514.45 278.86 513.27 279.11 512.18C279.36 511.1 279.96 502.55 280.43 493.2C281.11 479.78 281.12 473.67 280.48 464.28C280.03 457.73 279.67 447.24 279.67 440.97C279.68 430.48 279.57 429.47 278.32 428.22C277.57 427.47 276.27 426.86 275.43 426.87C274.58 426.87 273.44 427.17 272.88 427.52Z" />
		<path id="Path 19" class="shp7" d="M257.44 458.15C257.44 460.59 257.57 461.51 257.72 460.2C257.87 458.89 257.87 456.9 257.72 455.77C257.57 454.65 257.44 455.72 257.44 458.15ZM279.91 476.19C279.92 479.18 280.03 480.25 280.18 478.57C280.32 476.88 280.32 474.43 280.17 473.12C280.03 471.81 279.91 473.19 279.91 476.19Z" />
	</g>
	<path id="Path 0" fill-rule="evenodd" class="shp11" d="M261.17 260.21C263.3 260.47 265.89 261.03 266.92 261.45C267.95 261.86 269.9 263.19 271.25 264.41C272.6 265.63 274.24 267.54 274.91 268.66C275.68 269.97 276.28 272.9 276.57 276.83C276.82 280.19 277.76 290.3 278.65 299.28C279.54 308.26 280.47 319.44 280.71 324.11C281.11 331.92 281.34 333.03 283.47 337.55C284.76 340.27 286.08 343.94 286.43 345.72C286.77 347.5 287.42 353.24 287.88 358.48C288.46 365.12 288.57 374.28 288.23 388.75C287.96 400.17 287.46 411.19 287.12 413.25C286.78 415.31 286.3 422.35 286.07 428.9C285.84 435.45 285.87 444.33 286.65 456.45L288.44 454.11C289.42 452.82 292.41 449.61 295.09 446.97C298.13 443.96 300.7 440.64 301.97 438.08C303.09 435.84 305.4 429.56 307.11 424.13C308.81 418.71 310.52 412.43 310.9 410.19C311.27 407.94 311.95 402.58 312.4 398.28C312.92 393.33 313.04 387.33 312.74 381.95C312.47 377.27 311.95 366.1 311.57 357.11C311.2 348.13 310.75 335.12 310.58 328.2C310.4 321.27 310.57 312.09 310.96 307.79C311.44 302.49 312.07 299.3 312.9 297.92C313.58 296.8 315.03 295.34 316.13 294.69C317.22 294.04 319.71 293.43 321.64 293.33C324.3 293.2 325.62 293.49 327 294.52C328.01 295.27 329.71 297.41 330.77 299.28C331.91 301.28 333.42 305.84 334.43 310.34C335.38 314.55 336.45 320.82 336.81 324.28C337.17 327.75 337.77 333.79 338.14 337.72C338.51 341.65 338.99 347.01 339.2 349.63C339.41 352.25 339.92 357 340.33 360.18C340.75 363.36 340.86 367.18 340.59 368.68C340.32 370.18 339.87 382.88 339.6 396.92C339.32 410.95 338.72 424.88 338.26 427.88C337.81 430.87 336.38 437.61 335.09 442.85C333.7 448.49 331.68 454.59 330.13 457.81C328.69 460.81 325.94 465.17 324.01 467.51C322.08 469.85 318.9 472.96 316.93 474.42C314.97 475.89 311.68 477.6 309.62 478.22C307.56 478.85 304.65 479.87 303.16 480.5C301.11 481.35 298.75 481.59 286.48 481.29L286.48 493.71C286.47 500.54 286.77 507.81 287.14 509.87C287.53 512.01 287.56 513.9 287.22 514.29C286.9 514.66 284.68 515.22 282.3 515.53C279.92 515.83 274.61 516.04 270.49 515.99C266.38 515.94 256.68 515.84 248.95 515.77C241.21 515.7 234.63 515.39 234.32 515.08C234.01 514.77 233.6 499.16 233.07 446.25L216.93 446.25L213.77 442.77C212.04 440.85 208.81 438.1 206.59 436.64C204.38 435.19 201.2 432.47 199.54 430.6C197.87 428.73 195.36 424.9 193.95 422.09C192.55 419.29 190.62 416.07 189.67 414.95C188.72 413.83 187.32 411.53 186.57 409.85C185.82 408.16 184.43 403.57 183.48 399.64C182.53 395.71 181.4 390.51 180.96 388.07C180.53 385.64 180.23 382.88 180.3 381.95C180.36 381.01 180.32 378.11 180.21 375.49C180.09 372.87 180 364.29 180 356.43C180 348.58 180.24 339.24 180.53 335.68C180.81 332.13 181.22 328.15 181.44 326.84C181.65 325.53 182.73 319.86 183.85 314.25C184.97 308.64 186.27 303.43 186.74 302.68C187.21 301.93 188.79 300.75 190.26 300.04C192.2 299.11 193.76 298.87 195.99 299.15C197.67 299.37 199.58 300.1 200.23 300.77C200.88 301.45 202.1 303.84 202.95 306.08C204.32 309.7 204.52 311.62 204.69 322.75C204.8 329.68 204.93 339.02 204.99 343.51C205.04 348 204.95 356.88 204.79 363.24C204.63 369.6 204.75 378.63 205.06 383.31C205.46 389.24 206.16 393.46 207.36 397.26C208.98 402.35 209.44 403.05 220.14 413.59L220.57 408.14C220.81 405.15 221.09 397.34 221.2 390.79C221.31 384.25 221.83 375.98 222.37 372.42C222.9 368.87 223.69 365.04 224.12 363.92C224.55 362.8 225.67 360.99 226.6 359.91C227.54 358.83 229 357.68 229.84 357.36C230.76 357.01 232.11 357.06 233.24 357.5C234.27 357.9 235.8 358.89 236.63 359.71C237.87 360.92 238.21 361.01 238.45 360.18C238.61 359.61 238.92 352.88 239.14 345.21C239.36 337.54 239.84 325.9 240.19 319.35C240.55 312.8 241.17 303.77 241.58 299.28C241.98 294.79 242.58 290.2 242.91 289.07C243.24 287.95 243.87 284.89 244.32 282.27C244.77 279.65 244.99 276.59 244.81 275.47C244.63 274.34 244.92 272.2 245.46 270.7C246 269.21 247.05 267.15 247.8 266.13C248.56 265.12 251 263.26 253.23 262C256.98 259.9 257.57 259.76 261.17 260.21ZM253.57 271.04C253.35 272.35 252.22 281.84 251.07 292.14C249.6 305.38 248.81 316.61 248.38 330.58C248.04 341.43 247.46 353.83 247.08 358.14C246.7 362.44 246.44 368.41 246.5 371.4C246.57 374.4 246.26 388.18 245.81 402.02C245.37 415.87 244.51 435.46 243.9 445.57C243.11 458.58 242.85 471.02 243.03 488.21C243.17 501.55 243.43 512.66 243.62 512.88C243.81 513.1 244.93 513.36 246.12 513.45C247.3 513.53 248.53 513.36 248.84 513.06C249.15 512.75 248.94 508.92 248.38 504.55C247.59 498.42 247.36 488.87 247.36 462.92C247.36 444.39 247.59 421.97 247.87 413.08C248.15 404.19 248.51 396.54 248.67 396.07C248.83 395.6 249.18 393.38 249.44 391.13C249.7 388.89 249.99 383.99 250.09 380.25C250.19 376.51 250.75 368.85 251.34 363.24C251.93 357.62 252.47 346.76 252.54 339.08C252.61 331.41 252.9 321.77 253.19 317.65C253.48 313.53 253.89 306.34 254.11 301.66C254.33 296.98 254.72 289.94 254.98 286.01C255.23 282.08 255.37 278.56 255.28 278.19C255.19 277.81 255.48 275.06 255.92 272.06C256.36 269.07 257.09 265.78 257.53 264.75C257.98 263.72 258.11 262.88 257.81 262.88C257.51 262.88 256.53 264.18 255.62 265.77C254.72 267.36 253.79 269.73 253.57 271.04ZM270.9 280.02C271.8 284.78 272.69 288.51 272.88 288.33C273.06 288.14 272.8 285.63 272.3 282.75C271.79 279.87 270.93 275.67 270.38 273.42C269.82 271.18 269.09 268.19 268.74 266.79C268.4 265.39 267.83 264.24 267.48 264.24C267.14 264.24 267.4 265.85 268.06 267.81C268.72 269.78 270 275.27 270.9 280.02ZM249.06 268.38C248.24 270 247.45 273.52 247.05 277.34C246.7 280.8 245.96 285.77 245.42 288.39C244.88 291.01 243.94 298.97 243.35 306.08C242.75 313.19 241.83 331.26 241.31 346.23C240.79 361.2 240.38 374.21 240.4 375.15C240.42 376.08 240.08 380.21 239.64 384.33C239.2 388.45 238.51 395.18 238.1 399.3C237.69 403.42 236.91 409.08 236.37 411.89C235.83 414.69 235.38 419.75 235.36 423.11C235.34 426.48 235.3 431.23 235.27 433.66C235.25 436.09 235.3 453.55 235.38 472.44C235.47 491.34 235.75 508.18 236.01 509.87C236.46 512.83 236.56 512.93 239.03 513.1L241.58 513.27C241.1 506.68 240.78 498.49 240.56 490.81C240.35 483.14 240.49 469.67 240.88 460.88C241.28 452.08 241.9 441.21 242.26 436.72C242.61 432.23 243.08 420.14 243.29 409.85C243.51 399.55 243.99 382.41 244.36 371.74C244.74 361.08 245.15 351.13 245.29 349.63C245.43 348.13 245.86 338.03 246.25 327.18C246.64 316.32 247.09 306.83 247.25 306.08C247.41 305.34 247.9 301.36 248.33 297.24C248.76 293.12 249.23 288.68 249.38 287.37C249.52 286.06 250.16 281.01 250.78 276.15C251.41 271.28 252.14 266.77 252.42 266.11C252.69 265.46 252.74 264.94 252.52 264.97C252.3 265 251.74 265.18 251.27 265.38C250.8 265.57 249.81 266.92 249.06 268.38ZM257.25 286.69C256.85 293.99 256.2 304.71 255.81 310.51C255.42 316.31 254.82 330.54 254.47 342.15C254.12 353.75 253.54 365.38 253.17 368C252.81 370.62 252.49 375.37 252.47 378.55C252.45 381.73 252.14 386.32 251.77 388.75C251.4 391.19 250.95 397.92 250.77 403.72C250.58 409.52 250.12 419.93 249.73 426.86C249.25 435.55 249.25 449.55 249.74 472.1C250.13 490.07 250.6 506.68 250.78 509.02L251.1 513.27L255.87 513.27C255.88 508.26 255.94 487.97 256 464.96C256.06 441.94 255.89 415.92 255.62 407.12C255.32 397.11 255.41 388.21 255.87 383.31C256.27 379.01 257.02 372.27 257.55 368.34C258.07 364.41 258.67 357.06 258.88 352.01C259.09 346.96 259.54 337.62 259.87 331.26C260.2 324.9 260.38 319.39 260.26 319.01C260.14 318.64 259.85 316.03 259.61 313.23C259.37 310.42 259.18 302.61 259.19 295.88C259.2 289.14 259.41 279.73 259.65 274.96C259.9 270.18 259.93 266.28 259.72 266.28C259.52 266.28 259.04 267.89 258.66 269.85C258.29 271.82 257.65 279.4 257.25 286.69ZM272.85 273.08C273.98 277.55 274.14 277.85 274.17 275.47C274.19 273.97 273.62 271.52 272.91 270.02C272.2 268.53 271.61 267.45 271.6 267.64C271.58 267.83 272.15 270.28 272.85 273.08ZM261.92 291.63C261.88 302.2 262.06 313.3 262.31 316.29C262.57 319.28 262.43 327.4 262.01 334.32C261.6 341.24 260.96 351.81 260.6 357.79C260.24 363.78 259.59 370.37 259.14 372.42C258.56 375.12 258.31 392.95 258.24 436.38C258.19 469.5 258.32 500.35 258.54 504.94L258.93 513.28L263.01 513.27C262.67 498.24 262.9 488.98 263.3 482.99C263.7 477 264.08 465.37 264.14 457.13C264.2 448.9 264.46 439.1 264.72 435.36C265.08 430.32 264.97 428.12 264.32 426.86C263.83 425.92 262.75 423.78 261.91 422.09C260.44 419.15 260.41 418.64 260.97 409.17C261.3 403.74 261.53 395.47 261.48 390.79C261.43 386.12 261.34 378.62 261.27 374.12C261.2 369.06 261.6 363.25 262.32 358.82C262.96 354.89 263.35 351.21 263.17 350.65C263 350.09 263.14 347.79 263.49 345.55C263.83 343.3 264.4 341.16 264.73 340.78C265.08 340.4 265.34 327.67 265.33 311.53C265.32 287.62 265.12 281.78 264.13 275.81C263.22 270.26 262.84 269.08 262.47 270.53C262.21 271.56 261.96 281.05 261.92 291.63ZM267.17 281.08C268.07 287.05 268.23 292.76 268.02 312.09C267.89 325.13 267.85 335.92 267.94 336.08C268.04 336.23 268.65 335.81 269.3 335.13C269.96 334.46 270.89 333.77 271.38 333.6C272.03 333.38 272.3 331.07 272.4 324.8C272.47 320.12 272.28 312.46 271.96 307.79C271.65 303.11 270.94 296.22 270.38 292.48C269.83 288.73 269.09 283.83 268.74 281.59C268.4 279.34 267.68 275.98 267.15 274.1C266.62 272.23 266.17 271.39 266.13 272.23C266.1 273.08 266.57 277.06 267.17 281.08ZM325.88 298.6C326.23 299.72 327.31 303.24 328.28 306.42C329.25 309.61 330.76 317.41 331.62 323.77C332.74 331.99 333.24 339.28 333.35 348.95C333.44 356.43 333.72 363.63 333.98 364.94C334.24 366.25 334.44 376.97 334.42 388.75C334.39 405 334.1 412.41 333.2 419.37C332.55 424.42 330.95 432.69 329.64 437.74C328.33 442.79 326.04 450.14 324.55 454.07C322.37 459.82 321.21 461.87 318.62 464.52C316.85 466.34 313.72 469.27 311.66 471.02C308.79 473.47 307.16 474.32 304.68 474.69C302.91 474.95 300.3 475.74 298.9 476.44C297.5 477.14 294.82 477.95 292.95 478.25C289.85 478.75 289.73 478.83 291.59 479.2C292.71 479.42 295.31 479.41 297.37 479.17C299.43 478.93 304.03 477.71 307.6 476.44C311.17 475.18 315.15 473.25 316.45 472.16C317.74 471.07 320.22 468.62 321.96 466.72C323.74 464.76 326.32 460.67 327.91 457.3C329.45 454.03 331.06 449.9 331.49 448.12C331.92 446.34 332.83 442.74 333.52 440.12C334.21 437.5 335.25 432.3 335.83 428.56C336.6 423.67 337.01 414.17 337.29 394.88C337.5 380.1 337.95 367.47 338.28 366.81C338.61 366.16 338.73 365.24 338.55 364.77C338.38 364.3 337.62 356.88 336.87 348.27C336.12 339.66 335.06 328.79 334.52 324.11C333.97 319.44 332.87 313.01 332.06 309.83C331.25 306.65 329.88 302.51 329.01 300.64C328.14 298.77 326.93 297.02 326.32 296.75C325.71 296.48 325.21 296.33 325.22 296.41C325.24 296.49 325.53 297.48 325.88 298.6ZM316.52 307.44L316.6 313.57C317.53 305.13 317.72 301.61 317.62 300.3C317.46 298.11 317.4 298.05 316.94 299.62C316.67 300.56 316.48 304.08 316.52 307.44ZM320.84 318.33C321.71 322.82 322.59 327.87 322.81 329.56C323.03 331.24 323.51 338.9 323.88 346.57C324.25 354.24 324.91 366.03 325.35 372.76C325.81 379.88 325.95 389.58 325.69 395.9C325.44 401.89 324.79 409.85 324.24 413.59C323.7 417.33 321.84 424.83 320.11 430.26C318.38 435.68 315.8 442.57 314.39 445.57C312.45 449.66 310.22 452.75 305.44 457.99C300.97 462.89 298.06 465.46 295.67 466.62C293.8 467.53 290.97 468.6 289.38 469C286.62 469.69 286.48 469.84 286.47 472.27L286.47 474.82C291.63 474.11 295.57 472.52 299.41 470.45C302.97 468.53 306.03 466.97 306.22 466.96C306.4 466.96 307.55 466.21 308.77 465.28C309.98 464.35 312.66 460.77 314.72 457.3C317.18 453.16 319.25 448.45 320.79 443.53C322.07 439.41 323.59 433.59 324.17 430.6C324.75 427.6 325.52 422.71 325.89 419.71C326.26 416.72 326.76 411.05 327.01 407.12C327.25 403.19 327.58 399.75 327.72 399.47C327.87 399.19 327.98 392.61 327.96 384.84C327.95 377.08 327.8 369.65 327.63 368.34C327.46 367.03 327.06 358 326.74 348.27C326.42 338.54 325.99 330.27 325.79 329.9C325.58 329.52 325.2 326.92 324.95 324.11C324.7 321.31 323.92 315.18 323.22 310.51C322.52 305.83 321.68 301.24 321.34 300.3C320.85 298.91 320.6 299.67 320 304.38C319.34 309.54 319.43 311.06 320.84 318.33ZM313.05 325.82C313.07 332.55 313.36 345.56 313.7 354.73C314.05 363.9 314.53 376.3 314.77 382.29C315.11 390.48 314.94 395.54 314.1 402.7C313.3 409.48 312.08 415.27 309.87 422.77C308.17 428.57 305.59 435.62 304.15 438.42C302.46 441.7 300.11 444.89 297.57 447.33C295.4 449.42 292.55 452.48 291.22 454.13C289.9 455.78 288.29 457.98 287.65 459.01C287.01 460.03 286.48 461.03 286.48 461.22C286.48 461.4 287.02 461.56 287.67 461.55C288.33 461.55 290.09 461.21 291.59 460.79C293.42 460.27 295.83 458.55 298.98 455.52C301.67 452.91 304.9 448.86 306.63 445.91C308.27 443.1 310.2 438.81 310.93 436.38C311.65 433.95 313.21 428.28 314.39 423.79C316.49 415.79 316.55 415.2 317.12 393.86C317.44 381.88 317.59 368.41 317.47 363.92C317.34 359.43 316.76 350.55 316.18 344.19C315.61 337.82 314.93 325.58 314.67 316.97C314.42 308.36 314.17 301.27 314.12 301.2C314.08 301.13 313.81 303.89 313.53 307.32C313.25 310.76 313.03 319.08 313.05 325.82ZM187.85 306.56C187.83 307.42 187.05 311.11 186.12 314.76C185.19 318.41 183.78 327.13 183 334.15C181.81 344.83 181.65 349.07 182.03 360.18C182.28 367.47 182.57 376.2 182.68 379.57C182.79 382.94 183.09 386.92 183.35 388.41C183.61 389.91 184.61 394.35 185.57 398.28C186.53 402.21 187.74 406.65 188.28 408.14C188.81 409.64 190.09 411.94 191.12 413.25C192.16 414.56 194.32 418.08 195.93 421.07C197.53 424.07 199.94 427.74 201.27 429.24C202.61 430.73 205.72 433.38 208.18 435.12C210.64 436.86 213.65 439.39 214.87 440.74C216.09 442.08 217.77 443.43 218.61 443.74C219.46 444.04 223.05 444.16 226.61 444L233.07 443.72C227.27 441.9 221.99 439.41 217.59 437.01C211.04 433.43 208.38 431.47 202.91 426.18C197.04 420.5 195.8 418.88 192.78 412.91C190.89 409.17 188.54 403.73 187.56 400.83C186.58 397.93 185.92 395.02 186.09 394.37C186.26 393.71 186.45 390.73 186.51 387.73C186.57 384.74 186.09 379.69 185.44 376.51C184.47 371.75 184.34 368.78 184.72 359.84C184.96 353.85 185.29 347.57 185.44 345.89C185.58 344.2 185.89 340.38 186.12 337.38C186.34 334.39 187.29 326.28 188.23 319.35C189.41 310.57 190.29 306.25 191.13 305.06C191.79 304.13 192.48 302.98 192.66 302.51C192.84 302.04 192.58 301.66 192.08 301.66C191.57 301.66 190.43 302.41 189.53 303.33C188.62 304.25 187.87 305.7 187.85 306.56ZM195.7 320.03C195.17 325.83 194.52 334.71 194.27 339.76C194.01 344.82 193.68 349.56 193.53 350.31C193.38 351.06 193.06 355.35 192.83 359.84C192.49 366.63 192.65 369.09 193.82 374.46C194.59 378.02 195.21 382.31 195.21 383.99C195.2 385.67 195.84 389.65 196.64 392.84C197.43 396.02 198.43 399.54 198.85 400.66C199.28 401.78 201.61 406.84 204.02 411.89C207.97 420.13 208.99 421.66 213.94 426.75C216.98 429.87 220.31 432.86 221.33 433.38C222.36 433.91 223.74 434.34 224.4 434.35C225.05 434.35 227.19 435.12 229.16 436.05L232.73 437.74C232.73 434.81 232.12 434.03 230.52 433.21C229.3 432.58 224.79 429.57 220.48 426.51C216.18 423.45 211.62 419.9 210.35 418.63C209.07 417.35 206.89 414.63 205.49 412.57C204.09 410.51 202.17 406.38 201.22 403.38C200.27 400.39 199.3 395.49 199.08 392.5C198.85 389.5 198.39 385.98 198.05 384.67C197.7 383.33 197.61 373.21 197.84 361.54C198.06 350.12 198.25 333.13 198.26 323.77C198.27 313.13 197.99 306 197.53 304.72C196.81 302.76 196.78 302.81 196.73 306.08C196.69 307.96 196.23 314.23 195.7 320.03ZM325.25 309.15C325.62 311.2 326.41 316.87 327.02 321.73C327.62 326.6 328.37 338.23 328.68 347.59C328.99 356.94 329.57 365.67 329.96 366.98C330.41 368.46 330.57 375.27 330.4 385.01C330.25 393.62 329.97 401.58 329.77 402.7C329.57 403.82 329.08 408.72 328.67 413.59C328.26 418.45 327.48 425.04 326.93 428.22C326.38 431.4 325.44 435.84 324.84 438.08C324.24 440.33 323.13 444.16 322.37 446.59C321.62 449.02 319.93 452.85 318.62 455.09C317.31 457.34 315.06 460.78 313.61 462.75C312.16 464.71 309.83 467.04 308.43 467.92C307.02 468.81 303.66 470.64 300.94 472.01C298.23 473.37 296.16 474.71 296.33 474.99C296.51 475.28 297.05 475.14 297.52 474.7C298 474.25 300.23 473.47 302.47 472.95C304.72 472.44 307.63 471.36 308.94 470.57C310.25 469.77 313.19 467.19 315.48 464.83C319.23 460.96 319.94 459.76 322.56 452.71C324.16 448.41 326.04 442.74 326.74 440.12C327.44 437.5 328.6 432.61 329.32 429.24C330.04 425.87 331.02 419.44 331.5 414.95C332.04 409.86 332.31 400 332.2 388.75C332.1 378.84 331.85 369.04 331.65 366.98C331.45 364.92 331.18 356.66 331.07 348.61C330.95 340.56 330.52 331.68 330.12 328.88C329.72 326.07 328.92 320.64 328.35 316.8C327.78 312.96 326.71 308.37 325.98 306.59C325.26 304.82 324.64 303.82 324.62 304.38C324.6 304.94 324.88 307.09 325.25 309.15ZM191.3 313.57C190.9 316.56 190.1 322.53 189.52 326.84C188.94 331.14 188.17 338.95 187.81 344.19C187.45 349.43 186.96 357.08 186.72 361.2C186.44 366.03 186.58 370.49 187.13 373.78C187.6 376.59 188.18 379.19 188.41 379.57C188.65 379.94 188.85 384.38 188.85 389.43C188.85 397.75 189.01 399.04 190.62 403.04C191.6 405.47 193.84 410.07 195.59 413.25C197.81 417.26 200.48 420.75 204.36 424.65C208.01 428.33 211.47 431.07 214.36 432.59L218.78 434.9C207.77 423.84 206.54 422.1 202.96 414.95C200.71 410.46 197.9 404.03 196.72 400.66C195.53 397.29 194.12 392.39 193.58 389.77C193.03 387.15 192.59 383.48 192.6 381.61C192.61 379.74 192.14 376.83 191.55 375.15C190.7 372.68 190.55 369.84 190.8 360.52C190.97 354.15 191.43 345.58 191.83 341.47C192.23 337.35 192.87 329.39 193.27 323.77C193.66 318.16 194.15 311.5 194.36 308.98C194.57 306.45 194.56 304.38 194.36 304.38C194.15 304.38 193.54 305.23 193 306.25C192.46 307.28 191.69 310.57 191.3 313.57ZM200.23 346.57C199.66 354.48 199.61 362.12 200.06 372.42C200.4 380.47 201.01 389.81 201.41 393.18C201.8 396.54 202.63 400.83 203.25 402.7C203.87 404.57 205.12 407.48 206.04 409.17C206.96 410.85 208.66 413.45 209.82 414.95C210.99 416.45 212.71 418.28 213.64 419.03C214.57 419.78 218.1 422.3 221.48 424.63C224.86 426.97 228.78 429.49 230.18 430.25L232.73 431.62C232.75 429.02 230.41 426.29 225.04 421.07C220.79 416.96 215.41 411.9 213.08 409.85C210.76 407.79 208.28 405.19 207.58 404.06C206.87 402.94 205.81 400.64 205.21 398.96C204.61 397.28 203.82 392.53 203.45 388.41C203.08 384.3 202.58 377.56 202.34 373.44C202.09 369.15 202.28 361.03 202.79 354.39C203.52 344.79 203.51 342.36 202.76 340.1C202.1 338.13 201.9 333.85 202.03 324.46C202.14 317.34 201.94 310.76 201.59 309.83C201.18 308.7 200.98 312.71 201 321.73C201.01 329.22 200.67 340.39 200.23 346.57ZM318.17 342.49C318.75 349.41 319.47 358.44 319.77 362.56C320.07 366.67 320.16 370.35 319.97 370.72C319.78 371.1 319.54 380.59 319.44 391.82C319.28 410.54 319.12 412.88 317.58 420.05C316.66 424.36 314.89 431.09 313.64 435.02C312.31 439.22 310.03 444.41 308.11 447.61C306.22 450.75 303.04 454.72 300.59 457.01C298.26 459.18 295.43 461.44 294.31 462.02C293.19 462.61 291.04 463.28 289.55 463.53C287.2 463.91 286.8 464.23 286.65 465.82C286.5 467.47 286.64 467.6 287.84 467C288.59 466.63 289.89 466.31 290.74 466.29C291.58 466.27 293.52 465.58 295.06 464.76C296.6 463.93 300.42 460.49 303.57 457.12C307.58 452.79 310.01 449.46 311.73 445.89C313.08 443.09 315.28 437.59 316.62 433.66C317.95 429.73 319.66 424.07 320.4 421.07C321.14 418.08 322.08 413.03 322.5 409.85C322.91 406.67 323.25 397.63 323.27 389.77C323.28 381.92 322.97 370.89 322.59 365.28C322.21 359.67 321.88 351.71 321.87 347.59C321.85 343.47 321.56 338.11 321.22 335.68C320.89 333.25 320.42 329.73 320.18 327.86C319.94 325.99 319.28 322.16 318.71 319.35C318.13 316.55 317.53 314.1 317.36 313.91C317.2 313.72 317.07 317.24 317.09 321.73C317.1 326.22 317.59 335.56 318.17 342.49ZM275.43 332.28C275.91 332.28 276.26 331.48 276.23 330.41C276.2 329.38 275.95 327.16 275.66 325.48C275.16 322.48 275.14 322.52 274.86 327.35C274.65 331 274.8 332.28 275.43 332.28ZM279 348.95C279.79 353.45 280.64 363.36 281.14 373.78C281.75 386.83 281.77 393.16 281.19 399.3C280.77 403.79 279.61 410.53 278.61 414.27C277.6 418.01 276.67 422.22 276.53 423.62C276.39 425.03 276.51 426.17 276.79 426.17C277.07 426.16 277.68 425.93 278.15 425.65C278.62 425.38 279.48 423.01 280.06 420.39C280.63 417.77 281.44 413.79 281.84 411.55C282.25 409.3 282.61 399.2 282.66 389.09C282.7 378.99 282.37 365.82 281.91 359.84C281.45 353.85 280.8 348.03 280.47 346.91C280.13 345.79 279.67 342.95 279.43 340.61C279.19 338.28 278.72 336.19 278.39 335.98C278.05 335.77 277.76 336.92 277.73 338.53C277.7 340.15 278.27 344.83 279 348.95ZM269.81 377.19L269.81 411.55C267.02 416.29 265.57 418.21 264.78 418.86C263.5 419.93 263.44 420.27 264.2 422.1C264.67 423.23 265.2 424.15 265.39 424.16C265.58 424.16 266.42 423.24 267.26 422.11C268.1 420.98 269.27 418.75 269.85 417.16C270.44 415.57 271.53 411.21 272.28 407.46C273.33 402.23 273.67 397.69 273.73 387.73C273.78 380.62 273.57 366.69 273.26 356.77C272.96 346.86 272.46 338.44 272.17 338.06C271.86 337.67 271.24 338.54 270.72 340.1C270.01 342.23 269.81 350.34 269.81 377.19ZM282.73 346.91C283.27 349.9 283.73 354.65 283.75 357.45C283.77 360.26 284.12 364.55 284.53 366.98C284.94 369.41 285.49 374.31 285.77 377.87L286.26 384.33C286.41 370.62 286.02 362.2 285.48 356.77C284.95 351.35 284.07 345.3 283.54 343.34C283.01 341.37 282.38 339.76 282.15 339.76C281.91 339.76 281.73 340.15 281.73 340.61C281.74 341.08 282.19 343.91 282.73 346.91ZM265.64 347.37C265.52 349.74 265.25 353.81 265.04 356.43C264.84 359.05 264.38 362.27 264.02 363.58C263.67 364.89 263.41 369.02 263.45 372.76C263.48 376.51 263.54 385.39 263.57 392.5C263.59 399.61 263.4 408.1 263.14 411.38C262.84 415.21 262.91 417.33 263.35 417.33C263.72 417.33 264.87 415.72 265.9 413.76L267.77 410.19C267.77 382.24 267.54 370.14 267.26 365.28C266.93 359.6 267.03 353.68 267.55 348.74C267.99 344.51 268.2 340.93 268.01 340.78C267.83 340.63 267.27 341.08 266.77 341.79C266.28 342.49 265.77 345.01 265.64 347.37ZM275.45 356.43C275.72 365.42 275.91 379.35 275.87 387.39C275.83 395.64 275.43 404.1 274.96 406.78C274.5 409.4 273.54 413.38 272.83 415.63C272.12 417.87 270.76 420.78 269.81 422.09C268.87 423.4 268.1 424.86 268.1 425.33C268.11 425.86 269.12 426.18 270.83 426.18C273.12 426.18 273.6 425.93 273.84 424.64C273.99 423.8 274.79 420.21 275.62 416.65C276.44 413.09 277.39 409.5 277.72 408.66C278.05 407.81 278.64 402.61 279.03 397.09C279.55 389.82 279.53 383.01 278.96 372.42C278.47 363.37 277.56 354.42 276.57 348.95L274.97 340.1L275.45 356.43ZM232.84 386.37C232.38 391.99 231.7 400.18 231.34 404.57C230.98 408.97 230.69 414.79 230.7 417.5C230.71 420.21 230.94 422.8 231.21 423.24C231.49 423.68 232.24 417.86 232.89 410.31C233.53 402.76 234.3 393.98 234.59 390.79C234.88 387.61 235.03 379.65 234.93 373.1C234.81 365.82 234.46 360.93 234.02 360.52C233.51 360.04 233.35 362.25 233.49 368C233.6 372.49 233.31 380.76 232.84 386.37ZM225.26 371.23C225.26 373.57 224.99 375.79 224.65 376.17C224.31 376.54 223.7 385.42 223.29 395.9C222.6 413.64 222.63 415.04 223.73 416.21C224.85 417.42 224.93 416.93 225.32 406.01C225.55 399.7 226.12 391.93 226.59 388.75C227.06 385.57 227.52 379.91 227.61 376.17C227.71 372.42 227.99 367.45 228.24 365.11C228.5 362.77 228.56 360.86 228.39 360.86C228.23 360.86 227.45 362.23 226.67 363.92C225.7 366.01 225.25 368.33 225.26 371.23ZM230 371.91C230.01 373.32 230.32 374.46 230.69 374.46C231.08 374.46 231.37 372.42 231.37 369.7C231.37 367.08 231.25 364.94 231.1 364.94C230.95 364.94 230.64 365.93 230.41 367.15C230.18 368.37 230 370.51 230 371.91ZM237.99 371.06C238.14 369.75 238.13 367.92 237.98 366.98C237.82 366.04 237.7 367.12 237.71 369.36C237.71 371.61 237.84 372.37 237.99 371.06ZM227.98 396.92C227.61 400.47 227.34 406.44 227.38 410.19C227.42 413.93 227.68 417.91 227.97 419.03C228.35 420.53 228.51 419.67 228.57 415.8C228.61 412.9 229.13 404.63 229.71 397.43C230.3 390.22 230.68 383.26 230.55 381.95C230.39 380.16 230.12 380.92 229.49 385.01C229.03 388 228.35 393.36 227.98 396.92ZM283.79 413.93C283.4 415.24 282.95 417.53 282.78 419.03C282.51 421.43 282.64 421.26 283.81 417.67C284.8 414.65 285.26 410.79 285.57 402.87C285.79 396.98 285.83 392.16 285.65 392.16C285.47 392.16 285.14 396.52 284.91 401.85C284.68 407.18 284.18 412.62 283.79 413.93ZM280.02 427.69C280.28 445.76 280.72 456.83 281.15 463.94C281.76 473.95 281.75 480.63 281.1 493.54C280.64 502.7 280.13 510.89 279.97 511.74C279.71 513.12 279.95 513.27 282.4 513.27L285.12 513.27C284.62 506.68 284.24 489.15 283.96 470.06C283.68 450.98 283.49 432.99 283.53 430.09C283.58 427.19 283.57 424.83 283.52 424.84C283.47 424.85 282.66 425.5 281.72 426.27L280.02 427.69ZM265.92 464.62C265.48 477.72 265.1 493.84 265.08 500.45C265.07 507.07 265.2 512.65 265.39 512.86C265.58 513.08 266.88 513.48 268.28 513.77L270.83 514.29C270.57 497.41 270.77 483.48 271.1 472.44C271.44 461.4 271.51 446.94 271.27 440.29L270.83 428.22C267.69 428.22 267.6 428.48 267.17 434.51C266.92 437.97 266.35 451.52 265.92 464.62ZM273.38 471.08L273.22 513.61C277.49 513.94 277.64 513.8 277.69 511.74C277.71 510.52 277.85 508.61 278 507.48C278.15 506.36 278.59 498.63 278.98 490.3C279.49 479.21 279.47 472.48 278.88 465.13C278.45 459.61 278.15 449.89 278.21 443.53C278.28 437.16 278.18 431.12 277.99 430.09C277.7 428.54 277.29 428.22 275.6 428.22C274.47 428.22 273.55 428.29 273.55 428.39C273.55 428.48 273.47 447.69 273.38 471.08ZM222.53 437.12C223.84 437.93 225.67 438.9 226.61 439.27C227.54 439.64 229.3 440.21 230.52 440.54C231.74 440.87 232.73 440.91 232.72 440.63C232.72 440.35 230.81 439.32 228.47 438.34C226.14 437.36 223.31 436.35 222.19 436.1L220.14 435.64L222.53 437.12Z" />
</svg>