<svg xmlns="http://www.w3.org/2000/svg" viewBox="0 0 520 600" width="520" height="600">
	<style>
		tspan { white-space:pre }
		.shp0 { fill: #808080 } 
		.shp1 { fill: #000000 } 
		.shp2 { fill: #42f131 } 
		.shp3 { fill: #3e7d38 } 
		.shp4 { fill: #1a5f13 } 
		.shp5 { fill: #6d532e } 
		.shp6 { fill: #5b4525 } 
		.shp7 { fill: #4d9646 } 
		.shp8 { fill: #5fcf54 } 
	</style>
	<path id="Background" class="shp0" d="M260.16 -0.7L520.31 149.5L520.31 449.91L260.16 600.11L0 449.91L0 149.5L260.16 -0.7Z" />
	<g id="Layer 1">
		<path id="Path 0" class="shp1" d="M257.45 18.92C256.93 19.42 250.65 23.18 243.5 27.27C236.35 31.36 219.93 40.78 207 48.2C194.07 55.63 178.89 64.47 173.25 67.85C167.61 71.23 162.78 74 162.5 74C162.22 74 158.74 75.94 154.75 78.32C150.76 80.7 143 85.26 137.5 88.45C132 91.64 124.58 95.95 121 98.02C117.42 100.09 108.88 105.02 102 108.99C95.13 112.96 85.45 118.58 80.5 121.47C75.55 124.36 69.47 127.85 67 129.23C64.53 130.6 56.42 135.23 49 139.5C41.58 143.78 31.45 149.63 26.5 152.52C21.55 155.4 17.16 158.49 16.75 159.38C16.34 160.27 15.99 223.66 15.98 300.25C15.97 411.13 16.22 439.84 17.23 441.15C17.93 442.05 21.54 444.64 25.25 446.9C28.96 449.15 32.23 451 32.5 451C32.77 451 38.06 454.01 44.25 457.69C50.44 461.37 60 466.9 65.5 469.99C71 473.08 81.35 479 88.5 483.16C95.65 487.32 105.89 493.26 111.25 496.36C116.61 499.46 125.39 504.55 130.75 507.66C136.11 510.77 144.78 515.79 150 518.81C155.22 521.83 160.85 525.07 162.5 526C164.15 526.93 176.97 534.33 191 542.45C205.03 550.57 224.38 561.73 234 567.24C243.63 572.75 253.19 578.33 255.25 579.63C257.31 580.93 259.9 582 261 582C262.1 582 265.81 580.27 269.25 578.15C272.69 576.04 280.23 571.58 286 568.26C291.77 564.94 309.55 554.68 325.5 545.47C341.45 536.25 356.98 527.36 360 525.71C363.02 524.06 365.95 522.37 366.5 521.96C367.05 521.55 372 518.62 377.5 515.45C383 512.28 395.82 504.88 406 499C416.18 493.13 431.25 484.42 439.5 479.64C447.75 474.86 454.61 470.96 454.75 470.98C454.89 470.99 460.51 467.72 467.25 463.72C473.99 459.72 485.06 453.31 491.86 449.47C499.75 445.02 504.54 441.69 505.11 440.25C505.62 438.97 506.01 378.35 506.02 299.25C506.03 188.78 505.78 160.16 504.77 158.83C504.07 157.91 499 154.58 493.5 151.43C488 148.27 482.15 144.92 480.5 143.97C478.85 143.02 470.3 138.07 461.5 132.96C452.7 127.85 442.57 122.03 439 120.04C435.43 118.05 427.1 113.23 420.5 109.34C413.9 105.45 403.55 99.43 397.5 95.97C391.45 92.5 382.23 87.23 377 84.24C371.77 81.26 367.05 78.47 366.5 78.05C365.95 77.63 363.02 75.93 360 74.27C356.98 72.62 346.18 66.4 336 60.47C325.82 54.54 314.13 47.81 310 45.52C305.88 43.22 298.45 38.96 293.5 36.04C288.55 33.12 280.9 28.71 276.5 26.24C272.1 23.78 267.26 20.91 265.75 19.88C264.24 18.85 261.97 18 260.7 18C259.44 18 257.97 18.41 257.45 18.92Z" />
		<path id="Path 1" class="shp2" d="M244.92 32.25C236.44 37.2 219.15 47.22 206.5 54.51C193.85 61.81 176.53 71.82 168 76.75C159.47 81.69 140.57 92.6 126 101.01C111.42 109.42 88.25 122.81 74.5 130.75C60.75 138.7 43.09 148.87 35.26 153.35L21.02 161.5L21.02 438.5C43.09 451.15 60.75 461.32 74.5 469.26C88.25 477.2 111.42 490.58 126 498.99C140.57 507.4 156.78 516.75 162 519.76C167.22 522.78 189.05 535.38 210.5 547.76C231.95 560.15 251.97 571.75 255 573.56C260.31 576.72 260.61 576.78 263.5 575.26C265.15 574.4 279.32 566.29 295 557.25C310.68 548.2 329.13 537.53 336 533.54C342.88 529.55 362 518.5 378.5 508.98C395 499.47 417.95 486.21 429.5 479.53C441.05 472.84 458.6 462.72 468.5 457.04C478.4 451.35 489.65 444.85 493.5 442.59L500.5 438.48C501.04 188.4 500.85 162.28 499.8 161.34C499.08 160.7 492.65 156.83 485.5 152.73C478.35 148.64 462.15 139.32 449.5 132.02C436.85 124.72 420.88 115.5 414 111.53C407.13 107.56 385.3 94.94 365.5 83.5C345.7 72.05 324.77 59.98 319 56.68C313.23 53.38 299.05 45.19 287.5 38.48C275.95 31.77 265.11 25.59 263.42 24.76C260.36 23.26 260.24 23.3 244.92 32.25Z" />
	</g>
	<path id="Path 0" class="shp3" d="M250 63.95C244.78 67.1 228.8 76.44 214.5 84.69C200.2 92.94 172.53 108.93 153 120.21C133.47 131.5 102.44 149.38 84.02 159.96L50.55 179.18L50.95 421.5C72.3 433.82 98.3 448.83 122.5 462.79C146.7 476.76 170.55 490.56 175.5 493.47C180.45 496.37 196.65 505.73 211.5 514.26C226.35 522.79 243.22 532.52 249 535.89C254.78 539.25 260.18 541.99 261 541.98C261.82 541.97 277.35 533.35 295.5 522.83C313.65 512.32 341.55 496.18 357.5 486.97C373.45 477.76 399.55 462.7 415.5 453.5C431.45 444.3 450.46 433.33 457.74 429.13L470.97 421.5L471.09 179.5C421.81 150.9 389.27 132.07 367 119.2C344.73 106.33 322.45 93.44 317.5 90.55C312.55 87.66 300.18 80.54 290 74.72C279.82 68.91 269.25 62.75 266.5 61.04C263.75 59.33 261.05 57.99 260.5 58.07C259.95 58.14 255.22 60.79 250 63.95Z" />
	<path id="Path 0" class="shp4" d="M99.64 212.02C96.41 212.5 90.79 213.6 87.14 214.46C83.49 215.32 73.85 217.93 65.73 220.26L50.96 224.5L50.99 421.5C115.71 458.94 161.95 485.69 195.5 505.09C229.05 524.5 257.63 540.79 259 541.29C261.15 542.08 264 540.79 279.5 531.97C289.4 526.34 326.75 504.86 362.5 484.23C398.25 463.61 436.5 441.56 447.5 435.24C458.5 428.91 467.73 423.59 468 423.41C468.27 423.23 466.48 422.56 464 421.93C461.52 421.3 457.25 419.64 454.5 418.25C451.75 416.86 446.35 413.57 442.5 410.94C438.65 408.31 430.55 401.85 424.5 396.58C418.45 391.3 409.45 383.66 404.5 379.59C399.55 375.52 387.63 367.16 378 361C368.38 354.85 358.25 348.09 355.5 345.97C352.75 343.86 344.76 336.25 337.75 329.06C326.76 317.8 323.9 315.45 317 312C309.25 308.13 308.68 308 298.75 307.96C292.63 307.94 287.63 307.44 286.33 306.71C285.14 306.05 283.23 304.26 282.08 302.75C280.94 301.24 279.32 300 278.5 300C277.68 300 275.88 298.65 274.5 297C273.13 295.35 272 293.32 272 292.5C272 291.51 269.68 290.31 265.25 288.98C261.54 287.87 252.88 286.15 246 285.15C233.92 283.41 233.4 283.41 230.5 285.17C228.85 286.17 226.6 287 225.5 287.01C224.4 287.01 219.45 285.65 214.5 283.97C209.55 282.29 204.82 280.32 204 279.59C203.18 278.85 200.7 277.7 198.5 277.02C196.3 276.33 192.47 274.62 190 273.2C187.53 271.78 183.3 268.57 180.61 266.06C177.92 263.55 172.36 257.23 168.26 252C164.16 246.78 159.16 241.02 157.15 239.2C155.14 237.39 148.32 231.97 142 227.17C135.68 222.36 128.03 217.02 125 215.29C120.76 212.87 117.9 212.04 112.5 211.65C108.65 211.37 102.86 211.54 99.64 212.02Z" />
	<path id="Path 0" fill-rule="evenodd" class="shp1" d="M260.75 58.08C261.44 58.04 268.41 61.76 276.25 66.37C284.09 70.97 322 92.96 360.5 115.25C399 137.53 439.63 161.11 471.08 179.5L471 422L453.75 431.86C444.26 437.29 402.52 461.31 361 485.25C319.48 509.19 280.21 531.75 273.75 535.39C267.29 539.02 261.32 542 260.5 542C259.68 542 251.69 537.78 242.75 532.62C233.81 527.46 187.13 500.45 51.5 421.96L50.85 416.73C50.49 413.85 50.14 359.3 49.93 179.5L121.72 138.07C161.2 115.29 207 88.81 223.5 79.22C240 69.64 254.85 60.98 256.5 59.98C258.15 58.98 260.06 58.13 260.75 58.08ZM127.75 140.78L56 182C56 412.47 56.1 419.03 57.75 419.58C58.71 419.9 104.28 446.08 159 477.75C213.72 509.42 259.18 535.5 260 535.7C260.82 535.89 273.9 528.95 289.05 520.28C304.21 511.6 350.21 485.15 391.27 461.5L465.94 418.5L465.93 182.5C344.7 112.39 298.93 85.91 286 78.42C273.07 70.92 262.05 64.62 261.5 64.41C260.95 64.19 246.78 72.02 230 81.79C213.22 91.56 167.21 118.11 127.75 140.78Z" />
	<path id="Path 0" class="shp5" d="M250.86 291.25L244.5 316.5C230.55 321.43 226.05 323.06 225.5 323.29C224.95 323.53 224.72 324 225 324.34C225.28 324.68 230.56 325.87 236.75 326.98L248 329C247.98 347.99 247.64 353.98 247.23 354.57C246.83 355.16 243.35 356.88 239.5 358.4C235.65 359.91 229.9 362.36 226.71 363.83C223.53 365.3 220.94 366.84 220.96 367.25C220.98 367.66 226.63 368 233.5 368L246 368C246.86 376.91 247.31 380.51 247.55 381.75C247.91 383.54 247.12 384.55 243.75 386.65C241.41 388.11 237.03 390.9 234 392.85C229.62 395.67 228.91 396.48 230.5 396.78C231.6 397 235.65 396.42 239.5 395.5C243.35 394.59 246.57 393.99 246.66 394.17C246.74 394.35 247.1 399.45 247.45 405.5L248.1 416.5C232.52 426.96 228.11 430.24 228.25 430.52C228.39 430.81 232.55 430.36 237.5 429.53C242.45 428.69 246.84 428 247.25 428C247.66 428 247.99 430.59 247.98 433.75C247.97 436.91 246.85 447.6 245.49 457.5C244.13 467.4 243.02 477.19 243.01 479.25L243 483C281.94 483 287 482.71 286.98 481.75C286.97 481.06 285.64 476.23 284.03 471C282.41 465.77 278.82 453.06 276.04 442.75C273.27 432.44 271 423.32 271 422.5C271 421.68 271.11 420.99 271.25 420.98C271.39 420.98 277.8 423.16 285.5 425.84C293.2 428.53 300.74 431.01 302.25 431.36C303.95 431.75 304.81 431.62 304.5 431C304.23 430.45 296.59 425.39 287.53 419.75C273.15 410.8 270.98 409.12 270.51 406.5C270.21 404.85 269.63 399.78 269.23 395.24C268.67 388.91 268.79 386.99 269.75 386.99C270.44 387 276.29 388.81 282.75 391.02C289.21 393.24 295.06 395.04 295.75 395.02C296.44 395.01 297 394.66 297 394.25C297 393.84 291.71 390.21 285.25 386.19C278.79 382.17 272.38 378.03 271 376.98C269.01 375.46 268.26 373.6 267.33 367.79C266.69 363.78 266.38 360.27 266.64 360C266.9 359.73 272.83 360.09 279.81 360.8C286.79 361.52 292.61 361.85 292.75 361.55C292.89 361.25 286.7 357.85 279 354L265 347L264.99 329.5C280.11 325.63 284.5 324.05 284.5 323.5C284.5 322.95 280.33 320.48 275.23 318C270.13 315.52 265.71 312.82 265.41 312C265.11 311.18 264.65 306 264.41 300.5C264.16 295 263.57 290.27 263.1 290C262.63 289.73 261.73 285.45 261.1 280.5C260.47 275.55 259.81 270.26 259.63 268.75C259.46 267.24 258.84 266 258.26 266C257.69 266 254.36 277.36 250.86 291.25Z" />
	<path id="Path 0" class="shp6" d="M266.53 317.85C266.25 319.86 266.02 323.19 266.01 325.25C266 327.31 266.23 329 266.5 329C266.77 329 270.71 328.07 275.25 326.93C279.79 325.79 283.86 324.55 284.29 324.18C284.73 323.8 284.5 323.01 283.79 322.42C283.08 321.82 279.02 319.73 274.77 317.77L267.04 314.21L266.53 317.85ZM258.17 407.5C254.69 444.9 251.54 477.2 251.17 479.27L250.5 483.04C282.68 483 287 482.7 286.98 481.75C286.97 481.06 285.64 476.23 284.03 471C282.41 465.77 278.82 453.06 276.04 442.75C273.27 432.44 271 423.32 271 422.5C271 421.68 271.11 420.99 271.25 420.98C271.39 420.98 277.8 423.16 285.5 425.84C293.2 428.53 300.74 431.01 302.25 431.36C303.95 431.75 304.81 431.62 304.5 431C304.23 430.45 296.59 425.39 287.53 419.75C273.15 410.8 270.98 409.12 270.51 406.5C270.21 404.85 269.63 399.78 269.23 395.24C268.67 388.91 268.79 386.99 269.75 386.99C270.44 387 276.29 388.81 282.75 391.02C289.21 393.24 295.06 395.04 295.75 395.02C296.44 395.01 297 394.66 297 394.25C297 393.84 291.71 390.21 285.25 386.19C278.79 382.17 272.38 378.03 271 376.98C269.01 375.46 268.26 373.6 267.33 367.79C266.69 363.78 266.38 360.27 266.64 360C266.9 359.73 272.83 360.09 279.81 360.8C286.79 361.52 292.61 361.85 292.75 361.55C292.89 361.25 286.7 357.85 279 354L265 347C264.61 341.19 261.65 370.1 258.17 407.5Z" />
	<path id="Path 0" class="shp7" d="M247.27 251.75C241.29 258.76 231.9 269.9 226.4 276.5C220.9 283.1 215.63 289.63 214.69 291C213.75 292.38 212.99 294.06 212.99 294.75C213 295.53 215.14 296.22 218.75 296.6C221.91 296.93 224.84 297.38 225.25 297.6C225.66 297.82 219.25 304.98 211 313.5C202.75 322.02 195.99 329.34 195.99 329.75C195.98 330.16 199.24 331.57 203.24 332.87C207.23 334.17 211.56 335.75 212.85 336.37C215.16 337.48 215.01 337.74 203.92 352C197.72 359.98 190.92 368.75 188.83 371.5C186.73 374.25 185.01 377.29 185 378.25C185 379.59 186.1 380.13 189.75 380.55C192.36 380.85 195.96 381.3 197.75 381.55C200.95 381.99 200.98 382.04 199.57 384.75C198.78 386.26 192.04 395.15 184.6 404.5C177.15 413.85 171.04 421.95 171.02 422.5C171 423.16 174.69 423.22 181.74 422.69C187.66 422.24 193.85 421.59 195.5 421.24C198.42 420.61 198.33 420.81 192 428.84C188.43 433.38 182.03 441.68 177.78 447.29C173.53 452.91 169.26 458.94 168.28 460.71C167.3 462.47 166.72 464.18 167 464.51C167.28 464.83 172.22 464.17 178 463.02C183.78 461.88 200.65 458.21 215.5 454.85C230.35 451.5 242.95 448.33 243.5 447.81C244.05 447.29 244.72 443.76 245 439.96C245.28 436.17 245.39 432.6 245.25 432.03C245.11 431.46 243.88 431 242.5 431C241.13 431 235.16 432.13 229.25 433.51C223.34 434.88 217.6 436.23 216.5 436.5C215.32 436.8 214.91 436.65 215.5 436.14C216.05 435.67 222.91 430.94 230.75 425.64L245 416C245 397.3 244.93 397 242.75 397.03C241.51 397.05 234.2 398.59 226.5 400.45C218.8 402.31 212.4 403.75 212.28 403.66C212.16 403.57 219.55 399 228.69 393.5L245.32 383.5C244.31 375.75 244.01 372.71 244.01 371.75C244 370.15 242.33 369.98 224.94 369.75L205.89 369.5L245.5 354.23L246 331C237.86 329.46 231.22 328.12 226 327.03C220.78 325.94 216.28 324.85 216 324.6C215.72 324.35 221.13 322.34 228 320.13C234.88 317.91 241.02 315.51 241.65 314.8C242.28 314.08 246.03 300.68 249.99 285C253.95 269.32 257.59 256.05 258.08 255.5C258.57 254.95 259.18 254.72 259.44 255C259.71 255.28 260.82 261.35 261.91 268.5C263 275.65 264.43 287.13 265.09 294C265.74 300.88 267.01 308.06 267.89 309.97C269.3 313.01 270.91 314.08 280.78 318.47C286.99 321.24 292.05 323.84 292.03 324.25C292.01 324.66 286.98 326.24 280.85 327.75C272.07 329.92 269.56 330.92 268.99 332.5C268.6 333.6 268.1 336.89 267.89 339.82C267.61 343.57 267.92 345.48 268.92 346.32C269.7 346.97 278.47 351.65 288.42 356.72C298.36 361.79 306.05 365.94 305.5 365.95C304.95 365.95 297.07 365.07 288 363.98C278.93 362.9 271.16 362.01 270.75 362C270.34 362 270 364.25 270 367C270 369.75 270.4 372.79 270.88 373.75C271.36 374.71 283.03 382.48 296.81 391C310.59 399.52 321.78 406.59 321.68 406.7C321.58 406.81 310.81 403.1 297.75 398.45C284.69 393.8 273.55 390 273 390C272.38 390 272.13 393.52 272.35 399.25C272.64 406.95 273.01 408.73 274.6 409.86C275.64 410.61 287.98 418.2 302 426.73C316.02 435.26 326.82 442.02 326 441.76C325.18 441.5 313.38 437.51 299.78 432.89C286.19 428.28 274.81 424.73 274.49 425C274.17 425.27 275.11 430.23 276.57 436C278.04 441.77 279.74 447.05 280.37 447.73C280.99 448.41 299.95 452.12 322.5 455.98C345.05 459.84 364.06 463 364.75 463C365.44 463 366 462.55 366 462C366 461.45 362.89 457.51 359.1 453.25C355.3 448.99 346.41 440.26 339.35 433.85C332.28 427.44 325.38 421.31 324 420.23L321.5 418.27L359.5 419.23C354.85 414.24 345.67 405.75 336.09 397.14L318.68 381.5C328.62 379.56 333.86 378.55 336.75 378C340.31 377.32 342 376.52 342 375.5C342 374.68 333.46 366.24 323.03 356.75C312.59 347.26 304.27 339.16 304.53 338.75C304.79 338.34 308.15 336.43 312 334.5C315.85 332.57 319 330.55 319 330C319 329.45 313.04 323.53 305.75 316.85C298.46 310.17 292.38 304.43 292.23 304.1C292.09 303.77 294.45 302.26 297.48 300.75C300.52 299.24 302.85 297.44 302.67 296.75C302.48 296.06 292.92 282.82 281.42 267.33C269.91 251.83 259.97 239.12 259.33 239.08C258.68 239.04 253.26 244.74 247.27 251.75Z" />
	<path id="Path 0" class="shp8" d="M247.27 251.75C241.29 258.76 231.9 269.9 226.4 276.5C220.9 283.1 215.63 289.63 214.69 291C213.75 292.38 212.99 294.06 212.99 294.75C213 295.53 215.14 296.22 218.75 296.6C221.91 296.93 224.84 297.38 225.25 297.6C225.66 297.82 219.25 304.98 211 313.5C202.75 322.02 195.99 329.34 195.99 329.75C195.98 330.16 199.24 331.57 203.24 332.87C207.23 334.17 211.56 335.75 212.85 336.37C215.16 337.48 215.01 337.74 203.92 352C197.72 359.98 190.92 368.75 188.83 371.5C186.73 374.25 185.01 377.29 185 378.25C185 379.59 186.1 380.13 189.75 380.55C192.36 380.85 195.96 381.3 197.75 381.55C200.95 381.99 200.98 382.04 199.57 384.75C198.78 386.26 192.04 395.15 184.6 404.5C177.15 413.85 171.05 421.84 171.03 422.25C171.01 422.66 171.68 423 172.5 423C173.32 423 189.77 412.54 209.05 399.75C243.28 377.04 244.09 376.42 244.05 373.25L244 370L205.89 369.5L245.5 354.23L246 331C237.86 329.46 231.22 328.12 226 327.03C220.78 325.94 216.28 324.85 216 324.6C215.72 324.35 221.13 322.34 228 320.13C234.88 317.91 241.02 315.51 241.65 314.8C242.28 314.08 246.03 300.68 249.99 285C253.95 269.32 257.59 256.05 258.08 255.5C258.57 254.95 259.18 254.72 259.44 255C259.71 255.28 260.82 261.35 261.91 268.5C263 275.65 264.43 287.13 265.09 294C265.74 300.88 267.01 308.06 267.89 309.97C269.3 313.01 270.91 314.08 280.78 318.47C286.99 321.24 292.05 323.84 292.03 324.25C292.01 324.66 286.98 326.24 280.85 327.75C272.07 329.92 269.56 330.92 268.99 332.5C268.6 333.6 268.1 336.92 267.89 339.88C267.51 345.1 267.6 345.33 271 347.48C272.93 348.7 275.85 350.41 277.5 351.27L280.5 352.84C308.4 334.4 316.63 328.7 316.79 328.27C316.96 327.85 311.56 322.38 304.79 316.12C298.03 309.86 292.38 304.46 292.23 304.12C292.09 303.78 294.45 302.26 297.48 300.75C300.52 299.24 302.85 297.44 302.67 296.75C302.48 296.06 292.92 282.82 281.42 267.33C269.91 251.83 259.97 239.12 259.33 239.08C258.68 239.04 253.26 244.74 247.27 251.75Z" />
</svg>