<svg xmlns="http://www.w3.org/2000/svg" viewBox="0 0 520 600" width="520" height="600">
	<style>
		tspan { white-space:pre }
		.shp0 { fill: #808080 } 
		.shp1 { fill: #000000 } 
		.shp2 { fill: #42f131 } 
		.shp3 { fill: #25761d } 
		.shp4 { fill: #487d43 } 
		.shp5 { fill: #6d532e } 
		.shp6 { fill: #5b4525 } 
		.shp7 { fill: #175711 } 
		.shp8 { fill: #3daa35 } 
	</style>
	<path id="Background" class="shp0" d="M260.16 -0.7L520.31 149.5L520.31 449.91L260.16 600.11L0 449.91L0 149.5L260.16 -0.7Z" />
	<g id="Layer 1">
		<path id="Path 0" class="shp1" d="M257.45 18.92C256.93 19.42 250.65 23.18 243.5 27.27C236.35 31.36 219.92 40.78 207 48.2C194.07 55.63 178.89 64.47 173.25 67.85C167.61 71.23 162.77 74 162.5 74C162.22 74 158.74 75.94 154.75 78.32C150.76 80.7 143 85.26 137.5 88.45C132 91.64 124.57 95.95 121 98.02C117.42 100.09 108.87 105.02 102 108.99C95.12 112.96 85.45 118.58 80.5 121.47C75.55 124.36 69.47 127.85 67 129.23C64.52 130.6 56.42 135.23 49 139.5C41.57 143.78 31.45 149.63 26.5 152.52C21.55 155.4 17.16 158.49 16.75 159.38C16.34 160.27 15.99 223.66 15.98 300.25C15.97 411.13 16.22 439.84 17.23 441.15C17.93 442.05 21.54 444.64 25.25 446.9C28.96 449.15 32.22 451 32.5 451C32.77 451 38.06 454.01 44.25 457.69C50.44 461.37 60 466.9 65.5 469.99C71 473.08 81.35 479 88.5 483.16C95.65 487.32 105.89 493.26 111.25 496.36C116.61 499.46 125.39 504.55 130.75 507.66C136.11 510.77 144.77 515.79 150 518.81C155.22 521.83 160.85 525.07 162.5 526C164.15 526.93 176.97 534.33 191 542.45C205.02 550.57 224.37 561.73 234 567.24C243.62 572.75 253.19 578.33 255.25 579.63C257.31 580.93 259.9 582 261 582C262.1 582 265.81 580.27 269.25 578.15C272.69 576.04 280.22 571.58 286 568.26C291.77 564.94 309.55 554.68 325.5 545.47C341.45 536.25 356.97 527.36 360 525.71C363.02 524.06 365.95 522.37 366.5 521.96C367.05 521.55 372 518.62 377.5 515.45C383 512.28 395.82 504.88 406 499C416.17 493.13 431.25 484.42 439.5 479.64C447.75 474.86 454.61 470.96 454.75 470.98C454.89 470.99 460.51 467.72 467.25 463.72C473.99 459.72 485.06 453.31 491.86 449.47C499.75 445.02 504.54 441.69 505.11 440.25C505.62 438.97 506.01 378.35 506.02 299.25C506.03 188.78 505.78 160.16 504.77 158.83C504.07 157.91 499 154.58 493.5 151.43C488 148.27 482.15 144.92 480.5 143.97C478.85 143.02 470.3 138.07 461.5 132.96C452.7 127.85 442.57 122.03 439 120.04C435.42 118.05 427.1 113.23 420.5 109.34C413.9 105.45 403.55 99.43 397.5 95.97C391.45 92.5 382.22 87.23 377 84.24C371.77 81.26 367.05 78.47 366.5 78.05C365.95 77.63 363.02 75.93 360 74.27C356.97 72.62 346.17 66.4 336 60.47C325.82 54.54 314.12 47.81 310 45.51C305.87 43.22 298.45 38.96 293.5 36.04C288.55 33.12 280.9 28.71 276.5 26.24C272.1 23.78 267.26 20.91 265.75 19.88C264.24 18.85 261.96 18 260.7 18C259.43 18 257.97 18.41 257.45 18.92Z" />
		<path id="Path 1" class="shp2" d="M244.92 32.25C236.44 37.2 219.15 47.22 206.5 54.51C193.85 61.81 176.52 71.82 168 76.75C159.47 81.69 140.57 92.6 126 101.01C111.42 109.42 88.25 122.81 74.5 130.75C60.75 138.7 43.09 148.87 35.26 153.35L21.02 161.5L21.02 438.5C43.09 451.15 60.75 461.32 74.5 469.26C88.25 477.2 111.42 490.58 126 498.99C140.57 507.4 156.77 516.75 162 519.76C167.22 522.78 189.05 535.38 210.5 547.76C231.95 560.15 251.97 571.75 255 573.56C260.3 576.72 260.61 576.78 263.5 575.26C265.15 574.4 279.32 566.29 295 557.25C310.67 548.2 329.12 537.53 336 533.54C342.87 529.55 362 518.5 378.5 508.98C395 499.47 417.95 486.21 429.5 479.53C441.05 472.84 458.6 462.72 468.5 457.04C478.4 451.35 489.65 444.85 493.5 442.59L500.5 438.48C501.04 188.4 500.85 162.28 499.8 161.34C499.08 160.7 492.65 156.83 485.5 152.73C478.35 148.64 462.15 139.32 449.5 132.02C436.85 124.72 420.87 115.5 414 111.53C407.12 107.56 385.3 94.94 365.5 83.5C345.7 72.05 324.77 59.98 319 56.68C313.22 53.38 299.05 45.19 287.5 38.48C275.95 31.77 265.11 25.59 263.42 24.76C260.36 23.26 260.24 23.3 244.92 32.25Z" />
	</g>
	<path id="Path 0" class="shp3" d="M250 63.95C244.77 67.1 228.8 76.44 214.5 84.69C200.2 92.94 172.52 108.93 153 120.21C133.47 131.5 102.44 149.38 84.02 159.96L50.55 179.18L50.95 421.5C72.3 433.82 98.3 448.83 122.5 462.79C146.7 476.76 170.55 490.56 175.5 493.47C180.45 496.37 196.65 505.73 211.5 514.26C226.35 522.79 243.22 532.52 249 535.89C254.77 539.25 260.17 541.99 261 541.98C261.82 541.97 277.35 533.35 295.5 522.83C313.65 512.32 341.55 496.18 357.5 486.97C373.45 477.76 399.55 462.7 415.5 453.5C431.45 444.3 450.46 433.33 457.74 429.13L470.97 421.5L471.09 179.5C421.81 150.9 389.27 132.07 367 119.2C344.72 106.33 322.45 93.44 317.5 90.55C312.55 87.66 300.17 80.54 290 74.72C279.82 68.91 269.25 62.75 266.5 61.04C263.75 59.33 261.05 57.99 260.5 58.07C259.95 58.14 255.22 60.79 250 63.95Z" />
	<path id="Path 0" class="shp4" d="M246 65.84C238.57 70.14 210.68 86.28 184 101.7C157.32 117.12 121.95 137.56 105.39 147.12C88.84 156.68 74.39 165.18 73.29 166C71.34 167.47 71.32 167.88 72.6 184.5C73.32 193.85 74.33 205.55 74.84 210.5C75.37 215.64 76.67 221.54 77.88 224.25C79.43 227.73 81.27 229.8 84.75 232C87.36 233.64 94.22 236.61 100 238.6C105.82 240.59 113.62 244.2 117.5 246.69C121.6 249.32 129.89 256.63 137.53 264.34C144.7 271.58 152.85 280.88 155.65 285C158.44 289.13 164.45 299.02 169 307C173.55 314.98 178.88 323.75 180.84 326.5C182.81 329.25 186.46 333.91 188.96 336.86C191.46 339.81 196.43 344.15 200 346.5C203.57 348.84 209.43 352.23 213 354.01C216.57 355.8 223.32 358.6 228 360.25C232.68 361.9 240.32 364.32 245 365.63C249.68 366.94 263.18 370.28 275 373.06C286.82 375.83 301 379.4 306.5 381C312 382.6 319.65 385.09 323.5 386.53C327.35 387.96 334.32 391.19 339 393.69C345.91 397.39 349.56 400.34 358.5 409.45C364.55 415.61 371.07 421.74 372.99 423.07C374.91 424.41 378.28 426.31 380.49 427.3C382.69 428.28 389.9 430.68 396.5 432.63C403.1 434.58 411.43 437.75 415 439.68C418.57 441.61 422.63 444.23 424 445.51L426.5 447.83C442.77 438.46 452.79 432.65 459.25 428.87L471 422L470.5 178.7C447.25 165.23 413.5 145.65 380.5 126.5C347.5 107.35 311.73 86.63 301 80.46C290.27 74.29 277.23 66.71 272 63.63C266.77 60.54 261.82 58.02 261 58.03C260.18 58.03 253.43 61.55 246 65.84Z" />
	<path id="Path 0" fill-rule="evenodd" class="shp1" d="M260.75 58.08C261.44 58.04 268.41 61.76 276.25 66.37C284.09 70.97 322 92.96 360.5 115.25C399 137.53 439.63 161.11 471.08 179.5L471 422L453.75 431.86C444.26 437.29 402.52 461.31 361 485.25C319.47 509.19 280.21 531.75 273.75 535.39C267.29 539.02 261.32 542 260.5 542C259.67 542 251.69 537.78 242.75 532.62C233.81 527.46 187.12 500.45 51.5 421.96L50.85 416.73C50.49 413.85 50.14 359.3 49.93 179.5L121.72 138.07C161.2 115.29 207 88.81 223.5 79.22C240 69.64 254.85 60.98 256.5 59.98C258.15 58.98 260.06 58.13 260.75 58.08ZM127.75 140.78L56 182C56 412.47 56.1 419.03 57.75 419.58C58.71 419.9 104.27 446.08 159 477.75C213.72 509.42 259.17 535.5 260 535.7C260.82 535.89 273.9 528.95 289.05 520.28C304.21 511.6 350.21 485.15 391.27 461.5L465.94 418.5L465.93 182.5C344.7 112.39 298.92 85.91 286 78.42C273.07 70.92 262.05 64.62 261.5 64.41C260.95 64.19 246.77 72.02 230 81.79C213.22 91.56 167.21 118.11 127.75 140.78Z" />
	<path id="Path 0" class="shp5" d="M245.86 283.25L239.5 308.5C225.55 313.43 221.05 315.06 220.5 315.29C219.95 315.53 219.72 316 220 316.34C220.27 316.68 225.56 317.87 231.75 318.98L243 321C242.98 339.99 242.64 345.98 242.23 346.57C241.83 347.16 238.35 348.88 234.5 350.4C230.65 351.91 224.9 354.36 221.71 355.83C218.53 357.3 215.94 358.84 215.96 359.25C215.98 359.66 221.62 360 228.5 360L241 360C241.86 368.91 242.31 372.51 242.55 373.75C242.91 375.54 242.12 376.55 238.75 378.65C236.41 380.11 232.02 382.9 229 384.85C224.62 387.67 223.91 388.48 225.5 388.78C226.6 389 230.65 388.42 234.5 387.5C238.35 386.59 241.57 385.99 241.66 386.17C241.74 386.35 242.1 391.45 242.45 397.5L243.1 408.5C227.52 418.96 223.11 422.24 223.25 422.52C223.39 422.81 227.55 422.36 232.5 421.53C237.45 420.69 241.84 420 242.25 420C242.66 420 242.99 422.59 242.98 425.75C242.97 428.91 241.85 439.6 240.49 449.5C239.13 459.4 238.02 469.19 238.01 471.25L238 475C276.94 475 282 474.71 281.98 473.75C281.97 473.06 280.64 468.22 279.03 463C277.41 457.77 273.82 445.06 271.04 434.75C268.27 424.44 266 415.32 266 414.5C266 413.67 266.11 412.99 266.25 412.98C266.39 412.98 272.8 415.16 280.5 417.84C288.2 420.53 295.74 423.01 297.25 423.36C298.95 423.75 299.81 423.62 299.5 423C299.22 422.45 291.59 417.39 282.53 411.75C268.15 402.8 265.98 401.12 265.51 398.5C265.21 396.85 264.63 391.78 264.23 387.24C263.67 380.91 263.79 378.99 264.75 378.99C265.44 379 271.29 380.81 277.75 383.02C284.21 385.24 290.06 387.03 290.75 387.02C291.44 387.01 292 386.66 292 386.25C292 385.84 286.71 382.21 280.25 378.19C273.79 374.17 267.37 370.03 266 368.98C264.01 367.46 263.26 365.6 262.33 359.79C261.69 355.78 261.38 352.27 261.64 352C261.9 351.72 267.83 352.09 274.81 352.8C281.79 353.52 287.61 353.85 287.75 353.55C287.89 353.25 281.7 349.85 274 346L260 339L259.99 321.5C275.11 317.62 279.5 316.05 279.5 315.5C279.5 314.95 275.33 312.47 270.23 310C265.13 307.52 260.71 304.82 260.41 304C260.11 303.17 259.65 298 259.41 292.5C259.16 287 258.57 282.27 258.1 282C257.63 281.72 256.73 277.45 256.1 272.5C255.47 267.55 254.81 262.26 254.63 260.75C254.46 259.24 253.84 258 253.26 258C252.69 258 249.36 269.36 245.86 283.25Z" />
	<path id="Path 0" class="shp6" d="M261.53 309.85C261.25 311.86 261.02 315.19 261.01 317.25C261 319.31 261.22 321 261.5 321C261.77 321 265.71 320.07 270.25 318.93C274.79 317.79 278.86 316.55 279.29 316.18C279.73 315.8 279.5 315.01 278.79 314.42C278.08 313.82 274.02 311.73 269.77 309.77L262.04 306.21L261.53 309.85ZM253.17 399.5C249.69 436.9 246.54 469.2 246.17 471.27L245.5 475.04C277.68 475 282 474.7 281.98 473.75C281.97 473.06 280.64 468.22 279.03 463C277.41 457.77 273.82 445.06 271.04 434.75C268.27 424.44 266 415.32 266 414.5C266 413.67 266.11 412.99 266.25 412.98C266.39 412.98 272.8 415.16 280.5 417.84C288.2 420.53 295.74 423.01 297.25 423.36C298.95 423.75 299.81 423.62 299.5 423C299.22 422.45 291.59 417.39 282.53 411.75C268.15 402.8 265.98 401.12 265.51 398.5C265.21 396.85 264.63 391.78 264.23 387.24C263.67 380.91 263.79 378.99 264.75 378.99C265.44 379 271.29 380.81 277.75 383.02C284.21 385.24 290.06 387.03 290.75 387.02C291.44 387.01 292 386.66 292 386.25C292 385.84 286.71 382.21 280.25 378.19C273.79 374.17 267.37 370.03 266 368.98C264.01 367.46 263.26 365.6 262.33 359.79C261.69 355.78 261.38 352.27 261.64 352C261.9 351.72 267.83 352.09 274.81 352.8C281.79 353.52 287.61 353.85 287.75 353.55C287.89 353.25 281.7 349.85 274 346L260 339C259.61 333.19 256.65 362.1 253.17 399.5Z" />
	<path id="Path 0" class="shp7" d="M242.27 243.75C236.29 250.76 226.9 261.9 221.4 268.5C215.9 275.1 210.63 281.62 209.69 283C208.75 284.37 207.99 286.06 207.99 286.75C208 287.53 210.14 288.22 213.75 288.6C216.91 288.93 219.84 289.38 220.25 289.6C220.66 289.82 214.25 296.97 206 305.5C197.75 314.02 190.99 321.34 190.99 321.75C190.98 322.16 194.24 323.57 198.24 324.87C202.23 326.17 206.56 327.75 207.85 328.37C210.16 329.48 210.01 329.74 198.92 344C192.72 351.97 185.92 360.75 183.83 363.5C181.73 366.25 180.01 369.29 180 370.25C180 371.59 181.1 372.13 184.75 372.55C187.36 372.85 190.96 373.3 192.75 373.55C195.95 373.99 195.98 374.04 194.57 376.75C193.78 378.26 187.04 387.15 179.6 396.5C172.15 405.85 166.04 413.95 166.02 414.5C166 415.16 169.69 415.22 176.74 414.69C182.66 414.24 188.85 413.59 190.5 413.24C193.42 412.61 193.33 412.81 187 420.84C183.42 425.38 177.03 433.68 172.78 439.29C168.53 444.91 164.26 450.94 163.28 452.71C162.3 454.47 161.72 456.18 162 456.51C162.27 456.83 167.22 456.17 173 455.02C178.77 453.88 195.65 450.21 210.5 446.85C225.35 443.5 237.95 440.33 238.5 439.81C239.05 439.29 239.72 435.76 240 431.96C240.27 428.17 240.39 424.6 240.25 424.03C240.11 423.46 238.87 423 237.5 423C236.12 423 230.16 424.13 224.25 425.51C218.34 426.88 212.6 428.23 211.5 428.5C210.32 428.8 209.91 428.65 210.5 428.14C211.05 427.67 217.91 422.94 225.75 417.64L240 408C240 389.3 239.93 389 237.75 389.03C236.51 389.05 229.2 390.59 221.5 392.45C213.8 394.31 207.4 395.75 207.28 395.66C207.16 395.57 214.55 391 223.69 385.5L240.32 375.5C239.31 367.75 239.01 364.71 239.01 363.75C239 362.15 237.33 361.98 219.94 361.75L200.89 361.5L240.5 346.23L241 323C232.86 321.46 226.22 320.12 221 319.03C215.77 317.94 211.27 316.85 211 316.6C210.72 316.35 216.12 314.34 223 312.13C229.87 309.91 236.02 307.51 236.65 306.8C237.28 306.08 241.03 292.67 244.99 277C248.95 261.32 252.59 248.05 253.08 247.5C253.57 246.95 254.18 246.72 254.44 247C254.71 247.27 255.82 253.35 256.91 260.5C258 267.65 259.43 279.12 260.09 286C260.74 292.87 262.01 300.06 262.89 301.97C264.3 305.01 265.91 306.08 275.78 310.47C281.99 313.24 287.05 315.84 287.03 316.25C287.01 316.66 281.98 318.24 275.85 319.75C267.07 321.92 264.56 322.92 263.99 324.5C263.6 325.6 263.1 328.89 262.89 331.82C262.61 335.57 262.92 337.48 263.92 338.32C264.7 338.97 273.47 343.65 283.42 348.72C293.36 353.79 301.05 357.94 300.5 357.95C299.95 357.95 292.07 357.07 283 355.98C273.92 354.9 266.16 354.01 265.75 354C265.34 354 265 356.25 265 359C265 361.75 265.4 364.79 265.88 365.75C266.36 366.71 278.03 374.47 291.81 383C305.59 391.52 316.78 398.59 316.68 398.7C316.58 398.81 305.81 395.1 292.75 390.45C279.69 385.8 268.55 382 268 382C267.38 382 267.13 385.52 267.35 391.25C267.64 398.95 268.01 400.73 269.6 401.86C270.64 402.61 282.97 410.2 297 418.73C311.02 427.26 321.82 434.02 321 433.76C320.17 433.5 308.38 429.51 294.78 424.89C281.19 420.28 269.81 416.72 269.49 417C269.17 417.27 270.11 422.22 271.57 428C273.04 433.77 274.74 439.05 275.37 439.73C275.99 440.41 294.95 444.12 317.5 447.98C340.05 451.84 359.06 455 359.75 455C360.44 455 361 454.55 361 454C361 453.45 357.89 449.51 354.1 445.25C350.3 440.99 341.41 432.26 334.35 425.85C327.28 419.44 320.37 413.31 319 412.23L316.5 410.27L354.5 411.23C349.85 406.24 340.67 397.75 331.09 389.14L313.68 373.5C323.62 371.56 328.86 370.55 331.75 370C335.31 369.32 337 368.52 337 367.5C337 366.67 328.46 358.24 318.03 348.75C307.59 339.26 299.27 331.16 299.53 330.75C299.79 330.34 303.15 328.42 307 326.5C310.85 324.57 314 322.55 314 322C314 321.45 308.04 315.53 300.75 308.85C293.46 302.17 287.38 296.43 287.23 296.1C287.09 295.77 289.45 294.26 292.48 292.75C295.52 291.24 297.85 289.44 297.67 288.75C297.48 288.06 287.92 274.82 276.42 259.33C264.91 243.83 254.97 231.12 254.33 231.08C253.68 231.04 248.26 236.74 242.27 243.75Z" />
	<path id="Path 0" class="shp8" d="M246.12 238.75C242.26 243.01 232.33 254.6 224.05 264.5C215.78 274.4 208.73 283.63 208.39 285C208 286.61 208.26 287.76 209.14 288.23C209.89 288.64 212.19 288.98 214.25 288.98C216.31 288.99 218.22 289.45 218.5 290C218.78 290.55 212.71 297.64 205.02 305.75C197.33 313.86 191.02 320.95 190.99 321.5C190.96 322.05 195 323.96 199.97 325.75C207.79 328.56 208.88 329.23 208.1 330.75C207.61 331.71 201.28 340.15 194.03 349.5C186.79 358.85 180.62 367.63 180.32 369C179.98 370.57 180.29 371.76 181.14 372.18C181.89 372.56 185.31 373.12 188.75 373.43C192.19 373.74 195 374.23 195 374.5C195 374.77 194.01 376.46 192.8 378.25C191.59 380.04 185.07 388.59 178.3 397.25C171.54 405.91 166 413.45 166 414C166 414.55 166.79 414.99 167.75 414.98C168.71 414.97 175.8 411.08 183.5 406.34C191.2 401.59 201.78 394.66 207 390.92C212.98 386.65 220.3 380.03 226.75 373.07C236.38 362.67 236.83 361.99 234.25 361.88C232.74 361.82 225.44 361.48 218.03 361.13L204.55 360.5L241.05 346.5L241.03 322.5C229.77 320.47 223.16 319.12 219.07 318.19L211.65 316.5L237.1 307.5C240.05 297.43 243.37 285.05 246.39 273.5C249.4 261.95 252.27 251.38 252.76 250C253.26 248.63 253.93 247.95 254.26 248.5C254.6 249.05 256.02 258.27 257.43 269C258.84 279.73 260.44 291.43 261 295C261.55 298.57 262.68 302.51 263.5 303.75C264.33 304.99 269.51 308.14 275.03 310.75C280.55 313.36 285.05 315.84 285.03 316.25C285.01 316.66 280.44 318.24 274.87 319.75C269.11 321.31 264.43 323.15 264.01 324C263.61 324.82 263.01 327.52 262.68 330C262.35 332.48 262.31 335.4 262.58 336.5C262.86 337.6 265.43 339.79 268.29 341.37C272.63 343.75 273.88 344.04 275.75 343.12C276.99 342.5 279.01 341.58 280.25 341.06C281.49 340.54 286.55 338.23 291.5 335.92C296.45 333.62 300.84 331.23 301.25 330.62C301.66 330 304.58 328.15 307.74 326.5C310.9 324.85 313.63 322.82 313.8 322C313.98 321.13 308.67 315.47 301.13 308.5C294 301.9 288.35 296.16 288.58 295.75C288.81 295.34 290.8 294.1 293 293C295.2 291.9 297.23 290.32 297.5 289.5C297.78 288.66 295.08 283.95 291.33 278.75C287.66 273.66 278.55 261.46 271.08 251.64C263.61 241.81 257.05 233.16 256.5 232.42C255.95 231.68 254.97 231.06 254.31 231.04C253.66 231.02 249.97 234.49 246.12 238.75Z" />
</svg>