<svg xmlns="http://www.w3.org/2000/svg" viewBox="0 0 734 413" width="734" height="413">
	<style>
		tspan { white-space:pre }
		.shp0 { fill: #000000 } 
		.shp1 { fill: #d99740 } 
		.shp2 { fill: #ac1f1f } 
		.shp3 { fill: #174c83 } 
	</style>
	<g id="Path 1">
		<path id="Path 0" class="shp0" d="M355.5 4.22C351.65 6.44 293.38 40.09 226 78.99C158.63 117.9 82.13 162 56 177.01C29.88 192.02 7.49 204.9 6.25 205.65C5.01 206.39 3.1 208.46 2 210.25C0.05 213.44 0.01 215.31 0 308.75C0 391.42 0.2 404.4 1.5 407C2.33 408.65 4.35 410.9 6 412C8.99 413.99 10.67 414 367 414C723.33 414 725.01 413.99 728 412C729.65 410.9 731.77 408.54 732.7 406.75C734.27 403.77 734.44 395.63 734.81 309L735.22 214.5C728.52 207.25 715.92 199.51 683.5 180.93C659.3 167.06 612.5 140.19 579.5 121.22C546.5 102.25 487.1 68.05 447.5 45.22C407.9 22.39 374.26 2.88 372.75 1.86C371.19 0.8 368.38 0.04 366.25 0.09C363.81 0.14 360.06 1.58 355.5 4.22Z" />
		<path id="Path 1" class="shp1" d="M357.15 17.28C352.39 20.03 290.68 55.68 220 96.49C149.32 137.3 75.08 180.16 55 191.72C34.92 203.28 17.04 213.47 15.25 214.37L12 216L12 402L722 402L721.36 217.16C585.07 138.55 505.07 92.45 455.65 64L365.81 12.27L357.15 17.28Z" />
	</g>
	<g id="6  copy 2">
		<path id="Path 0" fill-rule="evenodd" class="shp0" d="M206 146.09C210.13 146.04 221.15 147.14 230.5 148.54C239.85 149.94 250.2 151.78 253.5 152.63C256.8 153.48 261.67 155.15 264.33 156.34C267.74 157.87 269.34 159.23 269.77 161C270.11 162.38 270.41 172.5 270.44 183.5C270.49 200.9 270.27 203.86 268.75 206.25C267.79 207.76 266.32 209 265.5 209C264.68 209 256.91 206.72 248.25 203.92C239.59 201.13 229.13 198.35 225 197.74C219.67 196.96 214.6 196.94 207.5 197.68C199.25 198.53 196.38 199.31 191.1 202.11C187.57 203.98 182.64 207.75 180.1 210.52C177.57 213.29 174.15 218.57 172.5 222.27C170.85 225.96 169.72 229.19 170 229.45C170.28 229.7 174.78 228.54 180 226.86C189.42 223.84 189.64 223.82 207.5 224.24C223.04 224.6 226.39 224.97 232 226.95C235.57 228.22 242.1 231.09 246.5 233.34C252.51 236.41 256.62 239.55 263.03 245.96C269.12 252.06 272.67 256.65 275.46 262C277.61 266.13 280.23 272.65 281.28 276.5C282.45 280.79 283.4 288.33 283.71 296C284.09 305.05 283.8 310.84 282.65 317C281.78 321.68 279.7 328.88 278.03 333C276.35 337.13 273.92 342.07 272.63 344C271.34 345.93 268.42 349.86 266.14 352.75C263.86 355.64 258.74 360.43 254.75 363.39C250.76 366.36 244.35 370.36 240.5 372.29C236.65 374.21 231.03 376.5 228 377.36C224.97 378.23 217.1 379.89 210.5 381.05C203.57 382.27 196.39 382.95 193.5 382.67C190.75 382.4 184.22 381.46 179 380.57C173.78 379.68 166.57 378.02 163 376.88C159.43 375.73 154.25 373.66 151.5 372.26C148.75 370.86 144.03 368.05 141 366C137.97 363.96 133.03 359.62 130 356.37C126.97 353.12 122.4 347.32 119.82 343.48C117.25 339.64 113.81 333.35 112.17 329.5C110.54 325.65 108.29 319.35 107.17 315.5C106.05 311.65 104.34 304.45 103.36 299.5C101.96 292.47 101.57 285.56 101.57 268C101.57 248.49 101.87 243.97 103.87 234C105.14 227.68 107.5 218.9 109.12 214.5C110.74 210.1 113.89 203.13 116.13 199C118.36 194.88 122.51 188.38 125.34 184.56C128.18 180.74 133.88 174.73 138 171.2C142.13 167.68 148.88 162.81 153 160.39C157.13 157.97 164.1 154.79 168.5 153.33C172.9 151.87 181.45 149.67 187.5 148.43C193.55 147.19 201.88 146.14 206 146.09ZM180.31 281.51C179.63 282.6 178.15 286.09 177.03 289.25C175.48 293.64 175 297.49 175 305.5C175 311.88 175.49 316.99 176.25 318.53C176.94 319.92 177.72 321.04 178 321.02C178.28 321 179.28 322.45 180.23 324.24C181.29 326.24 184 328.63 187.23 330.4C191.8 332.91 193.16 333.21 197.5 332.65C200.25 332.29 204.19 330.87 206.25 329.5C208.54 327.97 211.03 324.96 212.65 321.75C215 317.12 215.36 315.02 215.76 304C216.21 291.83 216.14 291.35 213.36 285.7C211.12 281.16 209.63 279.48 206.5 277.96C203.72 276.62 200.36 276.03 195.5 276.02C190.8 276.01 187.36 276.58 185.03 277.76C183.12 278.73 181 280.41 180.31 281.51Z" />
		<path id="Path 0" fill-rule="evenodd" class="shp2" d="M207.5 154.08C218.08 154.02 226.04 154.58 234.5 155.98C241.1 157.07 250.32 159.02 263.5 162.64L263.77 181.07C263.91 191.21 263.8 200.06 263.52 200.75C263.14 201.67 260.42 201.05 253.25 198.42C247.89 196.46 239.9 194.02 235.5 193.01C231.1 192 224.57 190.88 221 190.54C217.43 190.19 210.68 190.35 206 190.89C201.32 191.42 195.03 192.8 192 193.94C188.97 195.08 183.84 198.15 180.58 200.76C177.33 203.37 172.96 207.97 170.89 211C168.81 214.03 165.92 220.1 164.46 224.5C163 228.9 161.54 234.97 160.62 243.5L165.56 240.65C168.28 239.08 174.44 236.27 179.25 234.4C187.92 231.03 188.16 231 204.25 231C217.43 231 221.87 231.37 227.75 233C231.74 234.1 238.26 236.65 242.25 238.66C247.46 241.29 251.95 244.74 258.17 250.91C264.97 257.64 267.62 261.12 270.42 267C272.38 271.13 274.66 277.65 275.48 281.5C276.3 285.38 276.97 293.73 276.98 300.25C276.99 307.57 276.38 314.73 275.36 319.25C274.46 323.24 272.19 329.65 270.31 333.5C268.44 337.35 265.34 342.52 263.42 345C261.51 347.48 256.7 352.33 252.72 355.78C248.75 359.24 242.35 363.69 238.5 365.68C234.65 367.67 227.22 370.41 222 371.76C215.28 373.5 208.69 374.37 199.5 374.73C188.65 375.15 184.68 374.87 175.5 373.02C168.58 371.63 161.53 369.42 156.5 367.06C152.1 364.99 145.8 361.25 142.5 358.75C139.2 356.24 134.22 351.34 131.43 347.85C128.65 344.36 124.8 338.8 122.88 335.5C120.97 332.2 118.41 327.02 117.2 324C115.98 320.98 113.86 314 112.48 308.5C111.1 303 109.47 293.55 108.85 287.5C108.19 281.1 107.95 269.6 108.28 260C108.65 249.25 109.55 240.19 110.87 234C111.98 228.78 113.76 222.03 114.81 219C115.87 215.97 118.06 210.57 119.67 207C121.29 203.43 124.38 197.81 126.55 194.53C128.72 191.25 132.97 185.9 136 182.64C139.03 179.38 143.97 174.81 147 172.49C150.03 170.16 155.65 166.6 159.5 164.56C163.35 162.53 169.43 159.99 173 158.92C176.57 157.84 182.43 156.34 186 155.56C189.82 154.74 198.69 154.13 207.5 154.08ZM179.01 274.87C178.18 276.03 176.22 280.92 174.66 285.74C172.06 293.75 171.85 295.49 172.21 306C172.52 315.09 173.04 318.44 174.73 322C175.9 324.48 178.35 327.98 180.18 329.79C182.01 331.59 185.07 333.5 187 334.03C188.93 334.56 193.2 334.98 196.5 334.97C201.13 334.96 203.63 334.33 207.47 332.23C210.7 330.45 213.42 327.93 215.25 325C217.68 321.12 218.15 319.13 218.68 310.5C219.06 304.24 218.79 296.76 217.95 290.5C217.04 283.7 215.95 279.57 214.55 277.59C213.42 275.99 211.23 273.74 209.67 272.59C207.42 270.94 205.13 270.45 198.67 270.26C194.04 270.12 188.34 270.62 185.51 271.4C182.76 272.15 179.83 273.72 179.01 274.87Z" />
		<path id="Path 2" fill-rule="evenodd" class="shp0" d="M198.5 265.73C200.7 265.99 204.07 266.59 206 267.06C207.93 267.53 211.46 269.62 213.85 271.71C216.31 273.86 219.24 277.78 220.6 280.75C222.04 283.89 223.35 289.32 223.88 294.25C224.38 298.99 224.38 306.32 223.87 311.5C223.28 317.44 222.17 322.2 220.59 325.5C219.28 328.25 216.24 332.21 213.85 334.29C211.46 336.38 207.7 338.57 205.5 339.16C203.3 339.75 198.8 340.23 195.5 340.23C192.2 340.23 187.7 339.75 185.5 339.16C183.3 338.57 179.54 336.38 177.15 334.29C174.76 332.21 171.72 328.25 170.41 325.5C168.83 322.2 167.72 317.44 167.13 311.5C166.65 306.55 166.62 298.9 167.07 294.5C167.52 290.1 168.75 284.48 169.8 282C170.85 279.52 173.01 275.99 174.61 274.13C176.2 272.28 178.85 269.94 180.5 268.93C182.15 267.92 185.97 266.68 189 266.18C192.03 265.68 196.3 265.48 198.5 265.73ZM179.84 278.05C178.89 279.4 177.34 282.3 176.39 284.5C175.19 287.26 174.52 292.21 174.2 300.5C173.85 309.67 174.13 313.86 175.37 318.25C176.27 321.41 178.24 325.43 179.75 327.17C181.26 328.91 183.96 330.93 185.75 331.67C187.54 332.4 191.93 333 195.5 333C199.07 333 203.46 332.4 205.25 331.67C207.04 330.93 209.74 328.91 211.25 327.17C212.76 325.43 214.73 321.41 215.63 318.25C216.87 313.86 217.15 309.67 216.8 300.5C216.48 292.21 215.81 287.26 214.61 284.5C213.66 282.3 211.9 279.43 210.69 278.12C209.49 276.81 207.04 275.13 205.25 274.37C203.46 273.62 198.96 273.02 195.25 273.04C191.54 273.06 186.94 273.65 185.04 274.34C183.13 275.03 180.79 276.7 179.84 278.05Z" />
	</g>
	<g id="Shape 1 copy 8">
		<path id="Path 0" class="shp0" d="M532.5 146.84C529.75 147.77 525.48 149.72 523 151.17C520.52 152.62 516.58 155.76 514.23 158.15C511.89 160.54 508.65 164.97 507.04 168C505.43 171.03 503.55 176.65 502.87 180.5C501.87 186.11 501.87 188.89 502.88 194.5C503.58 198.35 505.45 203.97 507.05 207C508.65 210.03 512.1 214.65 514.73 217.27C517.35 219.9 521.98 223.35 525 224.95C528.02 226.55 533.65 228.42 537.5 229.12C543.11 230.13 545.89 230.13 551.5 229.13C555.35 228.45 560.98 226.57 564 224.97C567.02 223.36 571.65 219.9 574.27 217.27C576.9 214.65 580.36 210.03 581.97 207C583.57 203.97 585.45 198.35 586.13 194.5C587.13 188.89 587.13 186.11 586.12 180.5C585.42 176.65 583.55 171.03 581.94 168C580.34 164.97 577.11 160.54 574.77 158.15C572.42 155.76 568.48 152.62 566 151.17C563.52 149.73 559.02 147.74 556 146.76C552.83 145.73 547.75 145.01 544 145.06C540.42 145.1 535.25 145.9 532.5 146.84ZM386.5 148.39C383.75 149.05 379.09 150.93 376.15 152.55C373.21 154.17 368.81 157.53 366.38 160C363.95 162.47 360.64 166.97 359.03 170C357.43 173.03 355.55 178.65 354.87 182.5C353.87 188.11 353.87 190.89 354.88 196.5C355.58 200.35 357.45 205.97 359.05 209C360.65 212.03 364.1 216.65 366.73 219.27C369.35 221.9 373.98 225.35 377 226.95C380.02 228.55 385.65 230.42 389.5 231.12C395.11 232.13 397.89 232.13 403.5 231.13C407.35 230.45 412.98 228.57 416 226.97C419.02 225.36 423.65 221.9 426.27 219.27C428.9 216.65 432.36 212.03 433.97 209C435.57 205.97 437.45 200.35 438.13 196.5C439.13 190.89 439.13 188.11 438.12 182.5C437.42 178.65 435.55 173.03 433.95 170C432.35 166.97 428.9 162.35 426.27 159.73C423.65 157.1 419.02 153.66 416 152.09C412.98 150.51 408.14 148.72 405.25 148.11C402.36 147.5 398.09 147.04 395.75 147.09C393.41 147.13 389.25 147.72 386.5 148.39ZM462.5 223.39C459.75 224.05 455.09 225.93 452.15 227.55C449.21 229.17 444.81 232.53 442.38 235C439.95 237.47 436.64 241.97 435.03 245C433.43 248.03 431.55 253.65 430.87 257.5C429.87 263.11 429.87 265.89 430.88 271.5C431.58 275.35 433.45 280.98 435.05 284C436.65 287.02 440.1 291.65 442.73 294.27C445.35 296.9 449.98 300.35 453 301.95C456.02 303.55 461.65 305.42 465.5 306.12C471.11 307.13 473.89 307.13 479.5 306.13C483.35 305.45 488.98 303.57 492 301.97C495.02 300.36 499.65 296.9 502.27 294.27C504.9 291.65 508.36 287.02 509.97 284C511.57 280.98 513.45 275.35 514.13 271.5C515.13 265.89 515.13 263.11 514.12 257.5C513.42 253.65 511.55 248.03 509.95 245C508.35 241.97 504.9 237.35 502.27 234.73C499.65 232.1 495.02 228.66 492 227.09C488.98 225.51 484.14 223.72 481.25 223.11C478.36 222.5 474.09 222.04 471.75 222.09C469.41 222.13 465.25 222.72 462.5 223.39ZM387.5 297.39C384.75 298.05 380.09 299.93 377.15 301.55C374.21 303.17 369.81 306.52 367.38 309C364.95 311.48 361.64 315.98 360.03 319C358.43 322.02 356.55 327.65 355.87 331.5C354.87 337.11 354.87 339.89 355.88 345.5C356.58 349.35 358.45 354.98 360.06 358C361.66 361.02 364.89 365.46 367.23 367.85C369.58 370.24 373.52 373.38 376 374.83C378.48 376.27 382.98 378.26 386 379.24C389.02 380.23 394.2 381.03 397.5 381.03C400.8 381.03 405.98 380.23 409 379.24C412.02 378.26 416.52 376.27 419 374.83C421.48 373.38 425.42 370.24 427.77 367.85C430.11 365.46 433.35 361.02 434.96 358C436.57 354.98 438.45 349.35 439.13 345.5C440.13 339.89 440.13 337.11 439.12 331.5C438.42 327.65 436.55 322.02 434.95 319C433.35 315.98 429.9 311.35 427.27 308.73C424.65 306.1 420.02 302.66 417 301.09C413.98 299.51 409.14 297.72 406.25 297.11C403.36 296.5 399.09 296.04 396.75 296.09C394.41 296.13 390.25 296.72 387.5 297.39ZM540.5 297.39C537.75 298.05 533.09 299.93 530.15 301.55C527.21 303.17 522.81 306.52 520.38 309C517.95 311.48 514.64 315.98 513.03 319C511.43 322.02 509.55 327.65 508.87 331.5C507.87 337.11 507.87 339.89 508.88 345.5C509.58 349.35 511.45 354.98 513.06 358C514.66 361.02 517.89 365.46 520.23 367.85C522.58 370.24 526.52 373.38 529 374.83C531.48 376.27 535.98 378.26 539 379.24C542.02 380.23 547.2 381.03 550.5 381.03C553.8 381.03 558.98 380.23 562 379.24C565.02 378.26 569.52 376.27 572 374.83C574.48 373.38 578.42 370.24 580.77 367.85C583.11 365.46 586.35 361.02 587.96 358C589.57 354.98 591.45 349.35 592.13 345.5C593.13 339.89 593.13 337.11 592.12 331.5C591.42 327.65 589.55 322.02 587.95 319C586.35 315.98 582.9 311.35 580.27 308.73C577.65 306.1 573.02 302.66 570 301.09C566.98 299.51 562.14 297.72 559.25 297.11C556.36 296.5 552.09 296.04 549.75 296.09C547.41 296.13 543.25 296.72 540.5 297.39Z" />
		<path id="Path 3" class="shp3" d="M465 230.09C462.52 230.62 458.31 232.28 455.64 233.78C452.97 235.27 449.22 238.07 447.32 240C445.42 241.93 442.44 246.43 440.7 250C437.97 255.64 437.55 257.56 437.55 264.5C437.55 271.44 437.97 273.36 440.7 279C442.44 282.57 445.58 287.22 447.68 289.32C449.78 291.42 454.43 294.56 458 296.3C463.64 299.03 465.56 299.45 472.5 299.45C479.44 299.45 481.36 299.03 487 296.3C490.57 294.56 495.22 291.42 497.32 289.32C499.42 287.22 502.56 282.57 504.3 279C507.03 273.36 507.45 271.44 507.45 264.5C507.45 257.56 507.03 255.64 504.3 250C502.56 246.43 499.42 241.78 497.32 239.68C495.22 237.58 490.8 234.56 487.5 232.97C483.74 231.15 479.26 229.9 475.5 229.6C472.2 229.33 467.48 229.55 465 230.09ZM537 153.09C534.52 153.62 530.31 155.28 527.64 156.78C524.97 158.27 521.22 161.07 519.32 163C517.42 164.93 514.44 169.43 512.7 173C509.97 178.64 509.55 180.56 509.55 187.5C509.55 194.44 509.97 196.36 512.7 202C514.44 205.57 517.58 210.22 519.68 212.32C521.78 214.42 526.42 217.56 530 219.3C535.64 222.03 537.56 222.45 544.5 222.45C551.44 222.45 553.36 222.03 559 219.3C562.58 217.56 567.22 214.42 569.32 212.32C571.42 210.22 574.56 205.57 576.3 202C579.03 196.36 579.45 194.44 579.45 187.5C579.45 180.56 579.03 178.64 576.3 173C574.56 169.43 571.42 164.78 569.32 162.68C567.22 160.58 562.8 157.56 559.5 155.97C555.74 154.15 551.26 152.9 547.5 152.6C544.2 152.33 539.48 152.55 537 153.09ZM389 155.09C386.52 155.62 382.31 157.28 379.64 158.78C376.97 160.27 373.22 163.07 371.32 165C369.42 166.93 366.44 171.43 364.7 175C361.97 180.64 361.55 182.56 361.55 189.5C361.55 196.44 361.97 198.36 364.7 204C366.44 207.57 369.58 212.22 371.68 214.32C373.78 216.42 378.43 219.56 382 221.3C387.64 224.03 389.56 224.45 396.5 224.45C403.44 224.45 405.36 224.03 411 221.3C414.57 219.56 419.22 216.42 421.32 214.32C423.42 212.22 426.56 207.57 428.3 204C431.03 198.36 431.45 196.44 431.45 189.5C431.45 182.56 431.03 180.64 428.3 175C426.56 171.43 423.42 166.78 421.32 164.68C419.22 162.58 414.8 159.56 411.5 157.97C407.74 156.15 403.26 154.9 399.5 154.6C396.2 154.33 391.48 154.55 389 155.09ZM390 304.09C387.52 304.62 383.31 306.28 380.64 307.78C377.97 309.27 374.22 312.07 372.32 314C370.42 315.93 367.44 320.43 365.7 324C362.97 329.64 362.55 331.56 362.55 338.5C362.55 345.44 362.97 347.36 365.7 353C367.44 356.57 370.58 361.22 372.68 363.32C374.78 365.42 379.43 368.56 383 370.3C388.64 373.03 390.56 373.45 397.5 373.45C404.44 373.45 406.36 373.03 412 370.3C415.57 368.56 420.22 365.42 422.32 363.32C424.42 361.22 427.56 356.57 429.3 353C432.03 347.36 432.45 345.44 432.45 338.5C432.45 331.56 432.03 329.64 429.3 324C427.56 320.43 424.42 315.78 422.32 313.68C420.22 311.58 415.8 308.56 412.5 306.97C408.74 305.15 404.26 303.9 400.5 303.6C397.2 303.33 392.48 303.55 390 304.09ZM543 304.09C540.52 304.62 536.31 306.28 533.64 307.78C530.97 309.27 527.22 312.07 525.32 314C523.42 315.93 520.44 320.43 518.7 324C515.97 329.64 515.55 331.56 515.55 338.5C515.55 345.44 515.97 347.36 518.7 353C520.44 356.57 523.58 361.22 525.68 363.32C527.78 365.42 532.42 368.56 536 370.3C541.64 373.03 543.56 373.45 550.5 373.45C557.44 373.45 559.36 373.03 565 370.3C568.58 368.56 573.22 365.42 575.32 363.32C577.42 361.22 580.56 356.57 582.3 353C585.03 347.36 585.45 345.44 585.45 338.5C585.45 331.56 585.03 329.64 582.3 324C580.56 320.43 577.42 315.78 575.32 313.68C573.22 311.58 568.8 308.56 565.5 306.97C561.74 305.15 557.26 303.9 553.5 303.6C550.2 303.33 545.48 303.55 543 304.09Z" />
	</g>
</svg>