<svg xmlns="http://www.w3.org/2000/svg" viewBox="0 0 734 413" width="734" height="413">
	<style>
		tspan { white-space:pre }
		.shp0 { fill: #000000 } 
		.shp1 { fill: #d99740 } 
		.txt2 { font-size: 150px;fill: #000000;font-family: "DejaVu Sans";font-weight: 700 } 
		.shp3 { fill: #174c83 } 
	</style>
	<g id="Path 1">
		<path id="Path 0" class="shp0" d="M355.5 4.22C351.65 6.44 293.37 40.09 226 78.99C158.62 117.9 82.12 162 56 177.01C29.87 192.02 7.49 204.9 6.25 205.65C5.01 206.39 3.1 208.46 2 210.25C0.05 213.44 0.01 215.31 0 308.75C0 391.42 0.2 404.4 1.5 407C2.32 408.65 4.35 410.9 6 412C8.99 413.99 10.67 414 367 414C723.33 414 725.01 413.99 728 412C729.65 410.9 731.77 408.54 732.7 406.75C734.27 403.77 734.44 395.63 734.81 309L735.22 214.5C728.52 207.25 715.92 199.51 683.5 180.93C659.3 167.06 612.5 140.19 579.5 121.22C546.5 102.25 487.1 68.05 447.5 45.22C407.9 22.39 374.26 2.88 372.75 1.86C371.19 0.8 368.38 0.04 366.25 0.09C363.81 0.14 360.06 1.58 355.5 4.22Z" />
		<path id="Path 1" class="shp1" d="M357.15 17.28C352.39 20.03 290.67 55.68 220 96.49C149.32 137.3 75.07 180.16 55 191.72C34.92 203.28 17.04 213.47 15.25 214.37L12 216L12 402L722 402L721.36 217.16C585.07 138.55 505.07 92.45 455.65 64L365.81 12.27L357.15 17.28Z" />
	</g>
	<text id="5 " style="transform: matrix(2.1,0,0,2.1,112.725,384.488)" >
		<tspan x="0" y="0" class="txt2">5</tspan>
	</text>
	<g id="Path 3">
		<path id="Path 0" class="shp0" d="M531 155.39C527.97 156.61 523.47 158.98 521 160.65C518.52 162.32 514.76 165.67 512.63 168.1C510.49 170.52 507.71 174.75 506.44 177.5C505.17 180.25 503.57 185.2 502.88 188.5C501.88 193.31 501.88 195.88 502.9 201.5C503.59 205.35 505.33 210.97 506.76 214C508.19 217.02 511.87 222 514.93 225.06C517.99 228.11 522.75 231.68 525.5 232.99C528.25 234.29 532.75 235.95 535.5 236.67C538.25 237.39 542.3 237.97 544.5 237.97C546.7 237.97 551.2 237.26 554.5 236.41C557.8 235.55 562.52 233.66 565 232.21C567.47 230.76 571.04 228.2 572.93 226.53C574.81 224.87 578.08 220.8 580.2 217.5C582.76 213.5 584.58 209 585.68 204C587.05 197.73 587.13 195.39 586.16 189.75C585.52 186.04 583.9 180.64 582.55 177.75C581.2 174.86 578.39 170.52 576.3 168.1C574.21 165.67 570.7 162.46 568.5 160.96C566.3 159.46 561.57 157.05 558 155.6C552.84 153.51 549.95 152.99 544 153.07C538.77 153.15 534.83 153.85 531 155.39ZM388.5 155.93C386.3 156.39 381.8 158.02 378.5 159.56C375 161.2 370.17 164.69 366.91 167.93C363.83 170.99 360.39 175.3 359.26 177.5C358.12 179.7 356.49 184.2 355.62 187.5C354.75 190.8 354.03 195.3 354.03 197.5C354.03 199.7 354.61 203.75 355.33 206.5C356.05 209.25 357.71 213.75 359.01 216.5C360.32 219.25 363.89 224 366.94 227.06C370 230.11 374.75 233.68 377.5 234.99C380.25 236.29 384.75 237.95 387.5 238.67C390.25 239.39 394.3 239.97 396.5 239.97C398.7 239.97 403.2 239.26 406.5 238.41C409.8 237.55 414.52 235.66 417 234.21C419.47 232.76 423.04 230.2 424.93 228.53C426.81 226.87 429.98 223.02 431.97 220C434.16 216.66 436.31 211.55 437.43 207C438.62 202.18 439.09 197.71 438.74 194.5C438.44 191.75 437.34 187.02 436.29 184C435.24 180.97 432.94 176.36 431.19 173.75C429.43 171.14 425.41 166.99 422.25 164.53C419.09 162.07 414.02 159.12 411 157.99C407.97 156.85 402.57 155.74 399 155.51C395.42 155.28 390.7 155.47 388.5 155.93Z" />
		<path id="Path 1" class="shp3" d="M533 162.35C531.07 163.07 527.43 165.09 524.91 166.85C522.38 168.61 519.15 171.5 517.73 173.28C516.32 175.05 514 178.86 512.58 181.75C510.42 186.14 510 188.39 510 195.5C510 202.71 510.42 204.87 512.75 209.75C514.26 212.91 517.52 217.52 520 220C522.47 222.47 527.09 225.74 530.25 227.25C535.13 229.58 537.29 230 544.5 230C551.71 230 553.87 229.58 558.75 227.25C561.91 225.74 566.52 222.47 569 220C571.47 217.52 574.74 212.91 576.25 209.75C578.58 204.87 579 202.71 579 195.5C579 188.26 578.59 186.17 576.25 181.37C574.74 178.27 571.92 173.94 570 171.76C568.04 169.53 563.66 166.4 560.03 164.64C554.52 161.97 552.27 161.47 545.03 161.27C539.91 161.14 535.1 161.57 533 162.35ZM385 164.35C383.07 165.07 379.43 167.09 376.91 168.85C374.38 170.61 371.15 173.5 369.73 175.28C368.32 177.05 366 180.86 364.58 183.75C362.42 188.14 362 190.39 362 197.5C362 204.71 362.42 206.87 364.75 211.75C366.26 214.91 369.52 219.52 372 222C374.47 224.47 379.09 227.74 382.25 229.25C387.13 231.58 389.29 232 396.5 232C403.71 232 405.87 231.58 410.75 229.25C413.91 227.74 418.52 224.47 421 222C423.47 219.52 426.74 214.91 428.25 211.75C430.58 206.87 431 204.71 431 197.5C431 190.26 430.59 188.17 428.25 183.37C426.74 180.27 423.92 175.94 422 173.76C420.04 171.53 415.66 168.4 412.03 166.64C406.52 163.97 404.27 163.47 397.03 163.27C391.91 163.14 387.1 163.57 385 164.35Z" />
		<path id="Path 2" class="shp0" d="M389.5 304.99C387.3 305.41 382.8 307.02 379.5 308.56C376.06 310.17 371.09 313.74 367.85 316.93C364.59 320.15 361.13 324.83 359.67 328C358.28 331.02 356.57 336.2 355.88 339.5C354.92 344.13 354.89 346.98 355.77 352C356.4 355.57 357.87 360.75 359.03 363.5C360.2 366.25 362.62 370.3 364.41 372.5C366.2 374.7 369.66 378.07 372.08 379.99C374.51 381.91 379.54 384.72 383.25 386.24C388.55 388.41 391.61 389 397.5 389C403.39 389 406.45 388.41 411.75 386.24C415.46 384.72 420.49 381.91 422.92 379.99C425.34 378.07 428.8 374.7 430.6 372.5C432.4 370.3 434.77 366.47 435.87 364C436.97 361.52 438.41 356.57 439.09 353C440.05 347.85 440.05 345.15 439.06 340C438.37 336.42 436.65 331.02 435.23 328C433.8 324.96 430.16 320.03 427.07 316.97C424.01 313.93 418.91 310.22 415.75 308.72C412.59 307.22 407.64 305.55 404.75 304.99C401.86 304.43 398.15 304.03 396.5 304.1C394.85 304.17 391.7 304.57 389.5 304.99ZM542.5 304.93C540.3 305.39 535.8 307.02 532.5 308.56C529 310.2 524.17 313.69 520.91 316.93C517.83 319.99 514.39 324.3 513.26 326.5C512.12 328.7 510.49 333.2 509.62 336.5C508.75 339.8 508.03 344.3 508.03 346.5C508.03 348.7 508.63 352.75 509.37 355.5C510.12 358.25 511.49 362.3 512.43 364.5C513.37 366.7 515.6 370.3 517.4 372.5C519.2 374.7 522.66 378.07 525.08 379.99C527.51 381.91 532.54 384.72 536.25 386.24C541.55 388.41 544.61 389 550.5 389C556.39 389 559.45 388.41 564.75 386.24C568.46 384.72 573.49 381.91 575.92 379.99C578.34 378.07 581.78 374.7 583.54 372.5C585.31 370.3 587.44 367.15 588.28 365.5C589.12 363.85 590.57 359.57 591.51 356C592.59 351.88 593.03 347.49 592.71 344C592.44 340.97 591.35 336.02 590.3 333C589.24 329.97 586.94 325.36 585.19 322.75C583.43 320.14 579.41 315.99 576.25 313.53C573.09 311.07 568.02 308.12 565 306.99C561.97 305.85 556.57 304.74 553 304.51C549.42 304.28 544.7 304.47 542.5 304.93Z" />
		<path id="Path 3" class="shp3" d="M386 313.35C384.07 314.07 380.43 316.09 377.91 317.85C375.38 319.61 372.15 322.5 370.73 324.28C369.32 326.05 367 329.86 365.58 332.75C363.42 337.14 363 339.39 363 346.5C363 353.71 363.42 355.87 365.75 360.75C367.26 363.91 370.52 368.52 373 371C375.47 373.47 380.09 376.74 383.25 378.25C388.13 380.58 390.29 381 397.5 381C404.71 381 406.87 380.58 411.75 378.25C414.91 376.74 419.52 373.47 422 371C424.47 368.52 427.74 363.91 429.25 360.75C431.58 355.87 432 353.71 432 346.5C432 339.26 431.59 337.17 429.25 332.37C427.74 329.27 424.92 324.94 423 322.76C421.04 320.53 416.66 317.4 413.03 315.64C407.52 312.97 405.27 312.47 398.03 312.27C392.91 312.14 388.1 312.57 386 313.35ZM539 313.35C537.07 314.07 533.43 316.09 530.91 317.85C528.38 319.61 525.15 322.5 523.73 324.28C522.32 326.05 520 329.86 518.58 332.75C516.42 337.14 516 339.39 516 346.5C516 353.71 516.42 355.87 518.75 360.75C520.26 363.91 523.52 368.52 526 371C528.47 373.47 533.09 376.74 536.25 378.25C541.13 380.58 543.29 381 550.5 381C557.71 381 559.87 380.58 564.75 378.25C567.91 376.74 572.52 373.47 575 371C577.47 368.52 580.74 363.91 582.25 360.75C584.58 355.87 585 353.71 585 346.5C585 339.26 584.59 337.17 582.25 332.37C580.74 329.27 577.92 324.94 576 322.76C574.04 320.53 569.66 317.4 566.03 315.64C560.52 312.97 558.27 312.47 551.03 312.27C545.91 312.14 541.1 312.57 539 313.35Z" />
	</g>
</svg>