<svg xmlns="http://www.w3.org/2000/svg" viewBox="0 0 104 150" width="104" height="150">
	<style>
		tspan { white-space:pre }
		.shp0 { fill: #000000 } 
		.shp1 { fill: #d3d3b0 } 
		.txt2 { font-size: 90px;fill: #ac1f1f;font-family: "DejaVu Sans";font-weight: 700 } 
		.shp3 { fill: #0000ff } 
	</style>
	<g id="Shape 5 copy">
		<path id="Path 0" class="shp0" d="M24.29 -2.25C23.22 -1.29 19.45 3.98 15.92 9.45L9.5 19.41C0.93 90.61 -0.67 107.23 -0.13 108.5C0.34 109.6 6.95 119.95 14.55 131.5C22.15 143.05 28.85 152.83 29.44 153.23C30.02 153.64 39.72 153.98 51 154C66.01 154.03 71.96 153.69 73.23 152.77C74.18 152.07 81.49 141.6 89.46 129.5C102.77 109.32 103.96 107.13 103.95 103C103.94 100.53 101.81 80.7 99.21 58.95L94.5 19.4C84.55 3.98 80.72 -1.31 79.58 -2.29C77.69 -3.92 75.11 -4.08 51.87 -4.04C28.91 -4 26.04 -3.82 24.29 -2.25Z" />
		<path id="Path 1" class="shp1" d="M40 3.76L24.5 4.08L13.63 20.5C6.22 81.72 3.96 101.3 3.83 103.5C3.61 107.12 4.81 109.35 16.3 126.75L29 146L73.5 146.02C97.06 110.44 99.99 105.28 99.96 102.75C99.94 100.96 97.78 81.72 95.16 60L90.39 20.5L78.5 2.93C60.67 3.33 48.53 3.59 40 3.76Z" />
	</g>
	<text id="6 " style="transform: matrix(1,0,0,1,21,76)" >
		<tspan x="0" y="0" class="txt2">6</tspan>
	</text>
	<path id="Shape 4" class="shp3" d="M52 112C46.47 112 42 107.53 42 102C42 96.47 46.47 92 52 92C57.53 92 62 96.47 62 102C62 107.53 57.53 112 52 112Z" />
	<path id="Shape 4 copy" class="shp3" d="M67 132C61.47 132 57 127.53 57 122C57 116.47 61.47 112 67 112C72.53 112 77 116.47 77 122C77 127.53 72.53 132 67 132Z" />
	<path id="Shape 4 copy 2" class="shp3" d="M37 132C31.47 132 27 127.53 27 122C27 116.47 31.47 112 37 112C42.53 112 47 116.47 47 122C47 127.53 42.53 132 37 132Z" />
	<path id="Shape 4 copy 3" class="shp3" d="M22 112C16.47 112 12 107.53 12 102C12 96.47 16.47 92 22 92C27.53 92 32 96.47 32 102C32 107.53 27.53 112 22 112Z" />
	<path id="Shape 4 copy 4" class="shp3" d="M82 112C76.47 112 72 107.53 72 102C72 96.47 76.47 92 82 92C87.53 92 92 96.47 92 102C92 107.53 87.53 112 82 112Z" />
</svg>