<svg xmlns="http://www.w3.org/2000/svg" viewBox="0 0 520 600" width="520" height="600">
	<style>
		tspan { white-space:pre }
		.shp0 { fill: #808080 } 
		.shp1 { fill: #000000 } 
		.shp2 { fill: #94af2b } 
		.shp3 { fill: #757d00 } 
		.shp4 { fill: #aeb727 } 
		.shp5 { fill: #a3a3a3 } 
		.shp6 { fill: #e9e9e9 } 
		.shp7 { fill: #a4a4a4 } 
		.shp8 { fill: #505050 } 
	</style>
	<path id="Background" class="shp0" d="M260.16 -0.7L520.31 149.5L520.31 449.91L260.16 600.11L0 449.91L0 149.5L260.16 -0.7Z" />
	<g id="Layer 1">
		<path id="Path 0" class="shp1" d="M257.45 18.92C256.93 19.42 250.65 23.18 243.5 27.27C236.35 31.36 219.92 40.78 207 48.2C194.07 55.63 178.89 64.47 173.25 67.85C167.61 71.23 162.77 74 162.5 74C162.22 74 158.74 75.94 154.75 78.32C150.76 80.7 143 85.26 137.5 88.45C132 91.64 124.57 95.95 121 98.02C117.42 100.09 108.87 105.02 102 108.99C95.12 112.96 85.45 118.58 80.5 121.47C75.55 124.36 69.47 127.85 67 129.23C64.52 130.6 56.42 135.23 49 139.5C41.57 143.78 31.45 149.63 26.5 152.52C21.55 155.4 17.16 158.49 16.75 159.38C16.34 160.27 15.99 223.66 15.98 300.25C15.97 411.13 16.22 439.84 17.23 441.15C17.93 442.05 21.54 444.64 25.25 446.9C28.96 449.15 32.22 451 32.5 451C32.77 451 38.06 454.01 44.25 457.69C50.44 461.37 60 466.9 65.5 469.99C71 473.08 81.35 479 88.5 483.16C95.65 487.32 105.89 493.26 111.25 496.36C116.61 499.46 125.39 504.55 130.75 507.66C136.11 510.77 144.77 515.79 150 518.81C155.22 521.83 160.85 525.07 162.5 526C164.15 526.93 176.97 534.33 191 542.45C205.02 550.57 224.37 561.73 234 567.24C243.62 572.75 253.19 578.33 255.25 579.63C257.31 580.93 259.9 582 261 582C262.1 582 265.81 580.27 269.25 578.15C272.69 576.04 280.22 571.58 286 568.26C291.77 564.94 309.55 554.68 325.5 545.47C341.45 536.25 356.97 527.36 360 525.71C363.02 524.06 365.95 522.37 366.5 521.96C367.05 521.55 372 518.62 377.5 515.45C383 512.28 395.82 504.88 406 499C416.17 493.13 431.25 484.42 439.5 479.64C447.75 474.86 454.61 470.96 454.75 470.98C454.89 470.99 460.51 467.72 467.25 463.72C473.99 459.72 485.06 453.31 491.86 449.47C499.75 445.02 504.54 441.69 505.11 440.25C505.62 438.97 506.01 378.35 506.02 299.25C506.03 188.78 505.78 160.16 504.77 158.83C504.07 157.91 499 154.58 493.5 151.43C488 148.27 482.15 144.92 480.5 143.97C478.85 143.02 470.3 138.07 461.5 132.96C452.7 127.85 442.57 122.03 439 120.04C435.42 118.05 427.1 113.23 420.5 109.34C413.9 105.45 403.55 99.43 397.5 95.97C391.45 92.5 382.22 87.23 377 84.24C371.77 81.26 367.05 78.47 366.5 78.05C365.95 77.63 363.02 75.93 360 74.27C356.97 72.62 346.17 66.4 336 60.47C325.82 54.54 314.12 47.81 310 45.51C305.87 43.22 298.45 38.96 293.5 36.04C288.55 33.12 280.9 28.71 276.5 26.24C272.1 23.78 267.26 20.91 265.75 19.88C264.24 18.85 261.96 18 260.7 18C259.43 18 257.97 18.41 257.45 18.92Z" />
		<path id="Path 1" class="shp2" d="M244.92 32.25C236.44 37.2 219.15 47.22 206.5 54.51C193.85 61.81 176.52 71.82 168 76.75C159.47 81.69 140.57 92.6 126 101.01C111.42 109.42 88.25 122.81 74.5 130.75C60.75 138.7 43.09 148.87 35.26 153.35L21.02 161.5L21.02 438.5C43.09 451.15 60.75 461.32 74.5 469.26C88.25 477.2 111.42 490.58 126 498.99C140.57 507.4 156.77 516.75 162 519.76C167.22 522.78 189.05 535.38 210.5 547.76C231.95 560.15 251.97 571.75 255 573.56C260.3 576.72 260.61 576.78 263.5 575.26C265.15 574.4 279.32 566.29 295 557.25C310.67 548.2 329.12 537.53 336 533.54C342.87 529.55 362 518.5 378.5 508.98C395 499.47 417.95 486.21 429.5 479.53C441.05 472.84 458.6 462.72 468.5 457.04C478.4 451.35 489.65 444.85 493.5 442.59L500.5 438.48C501.04 188.4 500.85 162.28 499.8 161.34C499.08 160.7 492.65 156.83 485.5 152.73C478.35 148.64 462.15 139.32 449.5 132.02C436.85 124.72 420.87 115.5 414 111.53C407.12 107.56 385.3 94.94 365.5 83.5C345.7 72.05 324.77 59.98 319 56.68C313.22 53.38 299.05 45.19 287.5 38.48C275.95 31.77 265.11 25.59 263.42 24.76C260.36 23.26 260.24 23.3 244.92 32.25Z" />
	</g>
	<path id="Path 0" class="shp3" d="M250 63.95C244.77 67.1 228.8 76.44 214.5 84.69C200.2 92.94 172.52 108.93 153 120.21C133.47 131.5 102.44 149.38 84.02 159.96L50.55 179.18L50.95 421.5C72.3 433.82 98.3 448.83 122.5 462.79C146.7 476.76 170.55 490.56 175.5 493.47C180.45 496.37 196.65 505.73 211.5 514.26C226.35 522.79 243.22 532.52 249 535.89C254.77 539.25 260.17 541.99 261 541.98C261.82 541.97 277.35 533.35 295.5 522.83C313.65 512.32 341.55 496.18 357.5 486.97C373.45 477.76 399.55 462.7 415.5 453.5C431.45 444.3 450.46 433.33 457.74 429.13L470.97 421.5L471.09 179.5C421.81 150.9 389.27 132.07 367 119.2C344.72 106.33 322.45 93.44 317.5 90.55C312.55 87.66 300.17 80.54 290 74.72C279.82 68.91 269.25 62.75 266.5 61.04C263.75 59.33 261.05 57.99 260.5 58.07C259.95 58.14 255.22 60.79 250 63.95Z" />
	<path id="Path 0" class="shp4" d="M246 65.81C238.57 70.1 215.4 83.52 194.5 95.63C173.6 107.74 135.35 129.82 109.5 144.7C83.65 159.58 59.69 173.39 56.25 175.38L50 179L50 273C59.69 273.05 65.87 273.67 70 274.4C74.12 275.14 81.1 277.18 85.5 278.95C89.9 280.72 96.16 283.81 99.41 285.83C102.65 287.85 107.72 291.86 110.66 294.75L116 300C127.01 298.88 127.84 299.08 131.5 301.79C133.7 303.41 138.87 306.45 143 308.53C147.12 310.62 152.54 314.39 155.04 316.91C157.54 319.44 162.97 325.77 167.11 331C171.26 336.22 176.41 341.91 178.57 343.64C180.73 345.37 186.1 348.92 190.5 351.52C194.9 354.12 204.12 359.06 211 362.49C217.87 365.92 227.55 370.34 232.5 372.31C237.45 374.27 246.22 377.22 252 378.86C257.77 380.49 267 382.64 272.5 383.64C279.46 384.91 287.36 385.46 298.5 385.46C310.72 385.45 318.99 384.8 333.5 382.69C343.95 381.16 356.32 379.23 361 378.4C365.67 377.56 373.32 375.68 378 374.21C382.67 372.74 388.75 370.18 391.5 368.5C394.25 366.83 399.65 362.98 403.5 359.94C407.35 356.9 415.67 350.87 422 346.55C428.32 342.23 441.96 332.8 452.3 325.6L471.1 312.5L470.5 178.7C413.15 145.41 376.92 124.4 353 110.52C329.07 96.65 298.92 79.16 286 71.67C273.07 64.17 261.82 58.03 261 58.02C260.17 58 253.42 61.51 246 65.81Z" />
	<path id="Path 0" fill-rule="evenodd" class="shp1" d="M260.75 58.08C261.44 58.04 268.41 61.76 276.25 66.37C284.09 70.97 322 92.96 360.5 115.25C399 137.53 439.63 161.11 471.08 179.5L471 422L453.75 431.86C444.26 437.29 402.52 461.31 361 485.25C319.47 509.19 280.21 531.75 273.75 535.39C267.29 539.02 261.32 542 260.5 542C259.67 542 251.69 537.78 242.75 532.62C233.81 527.46 187.12 500.45 51.5 421.96L50.85 416.73C50.49 413.85 50.14 359.3 49.93 179.5L121.72 138.07C161.2 115.29 207 88.81 223.5 79.22C240 69.64 254.85 60.98 256.5 59.98C258.15 58.98 260.06 58.13 260.75 58.08ZM127.75 140.78L56 182C56 412.47 56.1 419.03 57.75 419.58C58.71 419.9 104.27 446.08 159 477.75C213.72 509.42 259.17 535.5 260 535.7C260.82 535.89 273.9 528.95 289.05 520.28C304.21 511.6 350.21 485.15 391.27 461.5L465.94 418.5L465.93 182.5C344.7 112.39 298.92 85.91 286 78.42C273.07 70.92 262.05 64.62 261.5 64.41C260.95 64.19 246.77 72.02 230 81.79C213.22 91.56 167.21 118.11 127.75 140.78Z" />
	<g id="Layer 3 copy 5">
		<path id="Path 0" fill-rule="evenodd" class="shp1" d="M172.5 234.09C173.05 234.02 180.03 237.58 188 242.01C195.97 246.44 205.65 251.01 209.5 252.17C213.35 253.33 217.74 254.89 219.25 255.64C220.76 256.39 223.74 259.59 225.87 262.75C228 265.91 232.94 272.32 236.85 277C241.94 283.09 244.61 287.32 248.5 298.3L254.5 297.54C257.8 297.12 272.65 296.69 314.5 296.43L322 299.6C326.13 301.35 332.43 304.02 336 305.53C339.57 307.04 343.58 309.01 344.89 309.89C346.2 310.78 350.53 315.55 354.5 320.5C358.47 325.45 362.99 331.75 364.53 334.5C367.21 339.26 367.32 339.94 366.75 348.5C366.24 356.13 365.48 359.09 361.71 368C359.27 373.77 355.56 381.43 353.46 385C351.37 388.57 346.71 396.23 336.56 412.5L336.43 420.5C336.36 424.9 335.83 432.77 335.25 438C334.65 443.48 332.68 452.26 330.6 458.75C327.77 467.59 326.28 470.7 323.64 473.25C321.79 475.04 317.96 477.74 315.14 479.25C312.31 480.76 308.43 482 306.5 482C304.57 482 301.54 481.14 299.75 480.1C297.96 479.05 293.13 477.6 289 476.87C284.88 476.14 280.15 474.61 278.5 473.48C276.85 472.34 275.05 470.17 274.5 468.65C273.71 466.46 274.19 463.2 276.74 453.19C278.52 446.21 280.32 437.8 280.74 434.5C281.16 431.2 281.27 426.48 281 424C280.51 419.57 280.45 419.5 277 419.7C275.07 419.82 268.55 420.24 251.5 421.38L246.79 431.44C244.2 436.97 240.67 446.23 238.94 452C237.22 457.77 234.78 464.52 233.53 467C231.87 470.28 230.21 471.96 227.38 473.18C225.25 474.11 221.7 475.15 219.5 475.49C216.68 475.94 211.97 475.24 203.5 473.13C196.9 471.48 189.93 469.89 188 469.59C186.06 469.28 182.84 467.58 180.8 465.77C178.26 463.53 177.08 461.63 177.05 459.75C177.02 458.13 179.28 453.2 182.55 447.75C185.71 442.47 189.32 434.64 190.96 429.5C192.55 424.55 194.38 418.48 196.25 411.5L187.78 400C183.12 393.68 177.04 386.48 174.26 384C169.92 380.14 168.95 378.57 167.44 373C166.47 369.43 164.92 364.93 163.99 363C163.05 361.07 161.99 357.93 161.63 356C161.26 354.07 160.26 344.85 159.4 335.5C158.38 324.38 156.97 315.56 155.35 310C153.89 305.04 153.1 300.35 153.43 298.75C153.74 297.24 155.8 293.3 162 284L159.25 281.18C157.74 279.62 155.67 276.59 152.79 270.5L156.96 256C159.25 248.03 161.67 240.66 162.34 239.64C163.01 238.61 165.34 236.97 167.53 236C169.71 235.02 171.95 234.16 172.5 234.09ZM193.25 263.39C192.29 263.06 192.96 263.96 194.75 265.39C196.54 266.83 198.02 268.56 198.03 269.25C198.05 269.94 197.2 271.63 196.14 273C194.43 275.21 194.37 275.73 195.63 277.5C196.52 278.75 196.84 280.63 196.47 282.5C196.02 284.76 196.14 285.13 196.92 284C197.5 283.18 197.98 281.38 197.99 280C198 278.63 198.72 276.15 199.59 274.5C200.61 272.54 200.95 270.28 200.56 268C200.23 266.07 199.41 263.92 198.73 263.21C198.05 262.49 196.94 261.93 196.25 261.96C195.56 261.98 195 262.45 195 263C195 263.55 194.21 263.73 193.25 263.39ZM214.15 269.8C215.48 271.17 215.6 272.09 214.78 274.5C214.14 276.37 214.08 278.96 214.62 281.39C215.11 283.53 216.31 285.78 217.31 286.39C218.76 287.28 219.4 287.11 220.58 285.5C221.47 284.27 222.03 281.19 222.03 277.5C222.02 272.22 221.66 271.11 219.01 268.25C217.35 266.46 215.54 265 214.98 265C214.41 265 213.62 265.7 213.23 266.55C212.79 267.47 213.16 268.78 214.15 269.8Z" />
		<path id="Path 0" fill-rule="evenodd" class="shp5" d="M168 246C168.55 246 170.01 247.36 171.25 249.02C172.49 250.68 174.29 252.03 175.25 252.02C176.21 252.01 177.76 250.66 180.37 246.06L185.43 249.14C188.22 250.83 192.3 253.66 194.5 255.44C197.07 257.52 198.79 259.89 199.31 262.09C199.75 263.96 200.36 267.07 200.67 269C201.02 271.17 200.65 273.64 199.71 275.5C198.88 277.15 197.89 280.07 197.51 282C196.93 285.02 195.64 286.29 188.17 291.28C180.72 296.24 178.93 297.02 171.5 296.5L170.43 290C169.84 286.43 168.87 282.6 168.27 281.5C167.68 280.4 165.78 277.7 164.06 275.5C162.34 273.3 160.95 270.71 160.97 269.75C160.98 268.79 161.45 267.1 162 266C162.86 264.29 163.29 264.18 165 265.25C166.49 266.18 167.46 266.22 168.75 265.4C169.71 264.79 170.64 263.44 170.81 262.4C170.98 261.35 170.18 259.6 169.03 258.5C167.41 256.96 166.94 255.3 166.97 251.25C166.99 248.36 167.45 246 168 246ZM189.23 270.5C189.46 273.1 189.93 273.53 192.75 273.75C195.38 273.95 196.12 273.57 196.62 271.75C196.96 270.51 197.03 268.82 196.77 268C196.51 267.18 195.07 266.23 193.57 265.89C192.05 265.55 190.43 265.77 189.9 266.39C189.38 267 189.07 268.85 189.23 270.5Z" />
		<path id="Path 0" class="shp6" d="M206.79 262.15C206.42 263.44 206.69 265.85 207.38 267.5C208.5 270.16 208.37 271.01 206.24 275C204.49 278.27 204.04 280.18 204.6 282C205.03 283.38 206.64 285.96 208.19 287.75C210.09 289.95 210.76 291.53 210.25 292.65C209.62 294.03 208.48 294.2 203.33 293.69C197.31 293.1 197.03 293.18 192.33 296.88C189.67 298.97 186.15 301.36 184.5 302.19C182.85 303.03 180.04 304 178.25 304.36C176.07 304.79 173.6 304.39 170.75 303.15C168.41 302.13 165.6 300.31 164.5 299.11C163.4 297.91 162.16 296.95 161.75 296.97C161.34 296.99 161 298.57 161 300.5C161 302.43 161.95 305.91 163.11 308.25C164.75 311.57 165.39 315.46 166.03 326C166.49 333.43 167.34 340.74 167.93 342.25C168.52 343.76 168.99 347.59 168.98 350.75C168.97 355.27 169.5 357.25 171.44 360C173.09 362.34 174.09 365.4 174.46 369.25C174.8 372.88 175.64 375.6 176.75 376.62C177.71 377.51 180.07 379.1 182 380.15C184.26 381.4 186.47 383.91 188.24 387.29C189.74 390.15 193.58 395.2 196.76 398.5C199.94 401.8 204.78 405.8 207.52 407.4C210.26 408.99 213.51 410.9 214.75 411.65L217 413C213.2 419.64 213.13 420.46 214.25 424.54C215.25 428.17 215.25 430.73 214.25 437.29C213.57 441.81 213.01 446.74 213 448.25C213 450.53 213.72 451.31 217.25 452.84C219.59 453.85 223.18 455.31 225.23 456.09C227.73 457.03 229.31 457.17 229.99 456.5C230.54 455.95 231.5 452.35 232.1 448.5C232.94 443.17 234.7 438.63 239.47 429.5C245.14 418.65 245.69 417.07 245.21 413C244.76 409.14 244.99 408.32 246.84 407.25C248.03 406.56 249.79 406.22 250.75 406.48C251.71 406.74 253.06 408.32 253.75 409.98C254.67 412.2 255.86 413.16 258.25 413.6C260.04 413.93 263.3 413.99 265.5 413.73C267.7 413.48 272.65 412.5 276.5 411.54C280.35 410.59 286.54 408.73 290.25 407.4C293.96 406.08 298.13 405 299.5 405C301.83 405 301.96 405.26 301.41 408.75C300.96 411.6 301.44 413.76 303.41 417.75C304.83 420.64 306 424.69 305.99 426.75C305.99 428.81 304.86 435.34 303.49 441.25C302.12 447.16 301.34 452.69 301.75 453.54C302.16 454.39 305.2 455.97 308.5 457.05C311.8 458.13 316.41 459.01 318.75 459.01C322.69 459 323.07 458.76 323.91 455.75C324.41 453.96 325.6 449.13 326.55 445C327.67 440.13 328.05 435.83 327.64 432.75C327.19 429.39 327.42 427.34 328.45 425.75C329.59 423.98 329.69 422.53 328.91 419C328.36 416.52 328.24 413.15 328.64 411.5C329.05 409.85 330.35 407.38 331.55 406C332.75 404.63 334.63 401.7 335.74 399.5C336.85 397.3 340.18 392.12 343.13 388C346.08 383.87 349.81 377.57 351.42 374C353.03 370.42 354.56 365.48 354.82 363C355.22 359.26 354.68 357.23 351.62 351C349.59 346.88 348.18 342.71 348.47 341.75C348.76 340.79 349.9 340 351 340C352.1 340 354.07 341.46 355.38 343.25C356.8 345.18 358.22 346.2 358.88 345.75C359.5 345.34 360 343.88 360 342.5C360 341.13 359.02 338.54 357.82 336.75C356.62 334.96 352.57 329.56 348.82 324.75C342.36 316.46 341.67 315.9 335.75 314.02C332.31 312.92 327.36 310.67 324.75 309.02C322.14 307.36 317.86 305.27 315.25 304.37C311.51 303.1 308.91 302.92 303 303.55C298.88 303.98 291.9 304.35 287.5 304.37C283.1 304.38 276.57 304.01 273 303.55C267.59 302.85 265.29 303.07 259.25 304.85C255.26 306.03 250.99 306.99 249.75 306.98C248.02 306.96 247.32 307.71 246.74 310.23C246.32 312.03 245.98 314.74 245.99 316.25C245.99 317.76 244.88 320.35 243.5 322C241.97 323.84 239.16 325.54 236.25 326.4C232.47 327.51 230.51 327.56 226.68 326.65C223.18 325.81 220.73 324.33 217.68 321.21C214.11 317.54 213.5 316.31 213.51 312.71C213.52 309.95 215.04 305.04 217.9 298.5C221.36 290.58 222.38 286.94 222.8 281C223.28 274.09 223.11 273.18 220.65 269.5C219.19 267.3 218.01 265.05 218.04 264.5C218.07 263.95 217.51 262.97 216.79 262.31C216.08 261.66 213.69 260.83 211.48 260.46C207.84 259.85 207.39 260.01 206.79 262.15Z" />
		<path id="Path 3" class="shp7" d="M230.02 286.25C230.03 287.49 229.42 290.3 228.66 292.5C227.9 294.7 225.92 299.42 224.25 303C222.59 306.57 220.95 310.29 220.61 311.25C220.26 312.26 220.78 313.95 221.84 315.25C222.85 316.49 224.99 318.1 226.59 318.84C228.34 319.65 230.99 319.95 233.25 319.59C236.02 319.16 237.26 318.35 238 316.5C238.55 315.12 239 309.84 239 304.75C239 299.66 238.54 293.92 237.98 292C237.41 290.07 235.95 287.48 234.73 286.22C233.5 284.97 231.94 283.96 231.25 283.97C230.56 283.99 230.01 285.01 230.02 286.25ZM203.12 416.92C203.05 418.61 201.88 423.49 200.52 427.75C199.15 432.01 197.12 436.96 196.02 438.75C194.91 440.54 194 442.22 194 442.5C194 442.77 194.67 443 195.5 443C196.32 443 197.83 444.24 198.85 445.75C199.88 447.26 201.68 448.84 202.85 449.25C204.72 449.9 205.06 449.58 205.43 446.75C205.67 444.96 206.34 440.24 206.93 436.25C207.52 432.26 207.66 428.44 207.25 427.75C206.84 427.06 206.28 423.84 206 420.58C205.73 417.32 204.99 414.47 204.37 414.25C203.69 414 203.19 415.08 203.12 416.92ZM289.51 415.69C288.41 415.94 287.63 416.79 287.76 417.57C287.89 418.36 288.53 420.91 289.17 423.25C290.12 426.7 290.02 429.38 288.64 437.5C287.71 443 286.69 448.62 286.39 450C285.89 452.27 286.18 452.55 289.67 453C293.2 453.46 293.52 453.3 293.69 451C293.78 449.62 294.57 446.02 295.44 443C296.31 439.97 297.31 434.57 297.65 431C298.17 425.61 297.91 423.69 296.14 419.75C294.96 417.14 293.44 415.05 292.75 415.12C292.06 415.18 290.6 415.44 289.51 415.69ZM305.96 426.68C305.71 428.43 305.86 429.56 306.3 429.18C306.74 428.81 306.95 427.37 306.76 426C306.46 423.77 306.37 423.85 305.96 426.68Z" />
		<path id="Path 4" class="shp8" d="M195.55 444C195.25 444.55 195.11 445.03 195.25 445.08C195.39 445.12 196.4 445.35 197.5 445.59C199.11 445.93 199.3 445.72 198.47 444.51C197.9 443.68 197.13 443 196.77 443C196.4 443 195.85 443.45 195.55 444ZM184.83 451.74C183 453.25 180.95 455.17 180.28 455.99C179.61 456.82 179.04 457.95 179 458.5C178.97 459.05 180.19 460.08 181.72 460.8C184 461.86 184.63 461.86 185.23 460.8C185.64 460.08 185.98 459.16 185.98 458.75C185.99 458.34 187.12 456.2 188.5 454C189.87 451.8 191 449.77 191 449.5C191 449.22 190.36 449 189.58 449C188.8 449 186.67 450.23 184.83 451.74ZM191.6 455.5C190.72 456.87 189.77 459.12 189.5 460.5C189.03 462.87 189.23 463 193.5 463C197.18 463 198.32 462.54 199.75 460.47C200.71 459.09 201.27 457.85 201 457.72C200.72 457.6 199.04 456.48 197.25 455.25C195.46 454.01 193.82 453 193.6 453C193.38 453 192.48 454.12 191.6 455.5ZM205.69 459.25C204.37 461.04 203 463.06 202.65 463.75C202.29 464.44 202.56 465.69 203.25 466.54C203.94 467.39 205.17 468.07 206 468.05C206.91 468.03 208.07 466.14 208.95 463.26C209.75 460.64 210.46 457.94 210.54 457.25C210.61 456.56 210.09 456 209.38 456C208.67 456 207.01 457.46 205.69 459.25ZM279.45 460.22C278.55 461.44 277.85 463.47 277.9 464.72C277.96 465.98 278.9 467.45 280 468C281.69 468.84 282.31 468.49 283.97 465.75C285.05 463.96 285.95 461.71 285.97 460.75C285.99 459.79 285.32 458.77 284.5 458.5C283.67 458.22 282.57 458 282.05 458C281.53 458 280.36 459 279.45 460.22ZM212.93 461.25C212.88 462.49 212.66 464.51 212.43 465.75C212.03 467.83 212.36 468 216.75 467.96C219.36 467.95 222.62 467.32 224 466.58C226.49 465.23 226.48 465.21 220.25 462.11C216.81 460.4 213.77 459 213.5 459C213.22 459 212.97 460.01 212.93 461.25ZM287.48 463.86C286.7 466.41 286.27 468.84 286.53 469.25C286.79 469.66 288.01 470.01 289.25 470.02C291.01 470.04 291.77 469.17 292.75 466.02C293.44 463.81 293.83 461.66 293.63 461.25C293.43 460.84 292.28 460.21 291.08 459.86C289.18 459.3 288.72 459.8 287.48 463.86ZM298 466C298 470.07 298.42 471.29 300.25 472.53C302.47 474.04 302.5 474 302.77 469.28C302.96 465.79 302.56 464.02 301.27 462.72C300.29 461.74 299.16 460.95 298.75 460.97C298.34 460.99 298 463.25 298 466ZM306.98 469.02C307 472.47 307.3 473 309.25 473C310.49 473.01 313.3 471.82 315.5 470.37C318.56 468.35 319.15 467.56 318 467C317.17 466.6 314.35 465.99 311.73 465.65L306.96 465.04L306.98 469.02Z" />
	</g>
</svg>