<svg xmlns="http://www.w3.org/2000/svg" viewBox="0 0 520 600" width="520" height="600">
	<style>
		tspan { white-space:pre }
		.shp0 { fill: #808080 } 
		.shp1 { fill: #000000 } 
		.shp2 { fill: #94af2b } 
		.shp3 { fill: #757d00 } 
		.shp4 { fill: #aeb727 } 
		.shp5 { fill: #a4a4a4 } 
		.shp6 { fill: #d3d3d3 } 
		.shp7 { fill: #505050 } 
	</style>
	<path id="Background" class="shp0" d="M260.16 -0.7L520.31 149.5L520.31 449.91L260.16 600.11L0 449.91L0 149.5L260.16 -0.7Z" />
	<g id="Layer 1">
		<path id="Path 0" class="shp1" d="M257.45 18.92C256.93 19.42 250.65 23.18 243.5 27.27C236.35 31.36 219.92 40.78 207 48.2C194.07 55.63 178.89 64.47 173.25 67.85C167.61 71.23 162.77 74 162.5 74C162.22 74 158.74 75.94 154.75 78.32C150.76 80.7 143 85.26 137.5 88.45C132 91.64 124.57 95.95 121 98.02C117.42 100.09 108.87 105.02 102 108.99C95.12 112.96 85.45 118.58 80.5 121.47C75.55 124.36 69.47 127.85 67 129.23C64.52 130.6 56.42 135.23 49 139.5C41.57 143.78 31.45 149.63 26.5 152.52C21.55 155.4 17.16 158.49 16.75 159.38C16.34 160.27 15.99 223.66 15.98 300.25C15.97 411.13 16.22 439.84 17.23 441.15C17.93 442.05 21.54 444.64 25.25 446.9C28.96 449.15 32.22 451 32.5 451C32.77 451 38.06 454.01 44.25 457.69C50.44 461.37 60 466.9 65.5 469.99C71 473.08 81.35 479 88.5 483.16C95.65 487.32 105.89 493.26 111.25 496.36C116.61 499.46 125.39 504.55 130.75 507.66C136.11 510.77 144.77 515.79 150 518.81C155.22 521.83 160.85 525.07 162.5 526C164.15 526.93 176.97 534.33 191 542.45C205.02 550.57 224.37 561.73 234 567.24C243.62 572.75 253.19 578.33 255.25 579.63C257.31 580.93 259.9 582 261 582C262.1 582 265.81 580.27 269.25 578.15C272.69 576.04 280.22 571.58 286 568.26C291.77 564.94 309.55 554.68 325.5 545.47C341.45 536.25 356.97 527.36 360 525.71C363.02 524.06 365.95 522.37 366.5 521.96C367.05 521.55 372 518.62 377.5 515.45C383 512.28 395.82 504.88 406 499C416.17 493.13 431.25 484.42 439.5 479.64C447.75 474.86 454.61 470.96 454.75 470.98C454.89 470.99 460.51 467.72 467.25 463.72C473.99 459.72 485.06 453.31 491.86 449.47C499.75 445.02 504.54 441.69 505.11 440.25C505.62 438.97 506.01 378.35 506.02 299.25C506.03 188.78 505.78 160.16 504.77 158.83C504.07 157.91 499 154.58 493.5 151.43C488 148.27 482.15 144.92 480.5 143.97C478.85 143.02 470.3 138.07 461.5 132.96C452.7 127.85 442.57 122.03 439 120.04C435.42 118.05 427.1 113.23 420.5 109.34C413.9 105.45 403.55 99.43 397.5 95.97C391.45 92.5 382.22 87.23 377 84.24C371.77 81.26 367.05 78.47 366.5 78.05C365.95 77.63 363.02 75.93 360 74.27C356.97 72.62 346.17 66.4 336 60.47C325.82 54.54 314.12 47.81 310 45.51C305.87 43.22 298.45 38.96 293.5 36.04C288.55 33.12 280.9 28.71 276.5 26.24C272.1 23.78 267.26 20.91 265.75 19.88C264.24 18.85 261.96 18 260.7 18C259.43 18 257.97 18.41 257.45 18.92Z" />
		<path id="Path 1" class="shp2" d="M244.92 32.25C236.44 37.2 219.15 47.22 206.5 54.51C193.85 61.81 176.52 71.82 168 76.75C159.47 81.69 140.57 92.6 126 101.01C111.42 109.42 88.25 122.81 74.5 130.75C60.75 138.7 43.09 148.87 35.26 153.35L21.02 161.5L21.02 438.5C43.09 451.15 60.75 461.32 74.5 469.26C88.25 477.2 111.42 490.58 126 498.99C140.57 507.4 156.77 516.75 162 519.76C167.22 522.78 189.05 535.38 210.5 547.76C231.95 560.15 251.97 571.75 255 573.56C260.3 576.72 260.61 576.78 263.5 575.26C265.15 574.4 279.32 566.29 295 557.25C310.67 548.2 329.12 537.53 336 533.54C342.87 529.55 362 518.5 378.5 508.98C395 499.47 417.95 486.21 429.5 479.53C441.05 472.84 458.6 462.72 468.5 457.04C478.4 451.35 489.65 444.85 493.5 442.59L500.5 438.48C501.04 188.4 500.85 162.28 499.8 161.34C499.08 160.7 492.65 156.83 485.5 152.73C478.35 148.64 462.15 139.32 449.5 132.02C436.85 124.72 420.87 115.5 414 111.53C407.12 107.56 385.3 94.94 365.5 83.5C345.7 72.05 324.77 59.98 319 56.68C313.22 53.38 299.05 45.19 287.5 38.48C275.95 31.77 265.11 25.59 263.42 24.76C260.36 23.26 260.24 23.3 244.92 32.25Z" />
	</g>
	<path id="Path 0" class="shp3" d="M250 63.95C244.77 67.1 228.8 76.44 214.5 84.69C200.2 92.94 172.52 108.93 153 120.21C133.47 131.5 102.44 149.38 84.02 159.96L50.55 179.18L50.95 421.5C72.3 433.82 98.3 448.83 122.5 462.79C146.7 476.76 170.55 490.56 175.5 493.47C180.45 496.37 196.65 505.73 211.5 514.26C226.35 522.79 243.22 532.52 249 535.89C254.77 539.25 260.17 541.99 261 541.98C261.82 541.97 277.35 533.35 295.5 522.83C313.65 512.32 341.55 496.18 357.5 486.97C373.45 477.76 399.55 462.7 415.5 453.5C431.45 444.3 450.46 433.33 457.74 429.13L470.97 421.5L471.09 179.5C421.81 150.9 389.27 132.07 367 119.2C344.72 106.33 322.45 93.44 317.5 90.55C312.55 87.66 300.17 80.54 290 74.72C279.82 68.91 269.25 62.75 266.5 61.04C263.75 59.33 261.05 57.99 260.5 58.07C259.95 58.14 255.22 60.79 250 63.95Z" />
	<path id="Path 0" class="shp4" d="M246 65.81C238.57 70.1 215.4 83.52 194.5 95.63C173.6 107.74 135.35 129.82 109.5 144.7C83.65 159.58 59.69 173.39 56.25 175.38L50 179L50 273C59.69 273.05 65.88 273.67 70 274.4C74.13 275.14 81.1 277.18 85.5 278.95C89.9 280.72 96.16 283.81 99.41 285.83C102.65 287.85 107.72 291.86 110.66 294.75L116 300C127.01 298.88 127.84 299.08 131.5 301.79C133.7 303.41 138.88 306.45 143 308.53C147.13 310.62 152.54 314.39 155.04 316.91C157.54 319.44 162.97 325.77 167.11 331C171.26 336.23 176.41 341.91 178.57 343.64C180.73 345.37 186.1 348.92 190.5 351.52C194.9 354.12 204.13 359.06 211 362.49C217.88 365.92 227.55 370.34 232.5 372.31C237.45 374.27 246.22 377.22 252 378.86C257.77 380.49 267 382.64 272.5 383.64C279.46 384.91 287.36 385.46 298.5 385.46C310.72 385.45 318.99 384.8 333.5 382.69C343.95 381.16 356.32 379.23 361 378.4C365.68 377.56 373.32 375.68 378 374.21C382.68 372.74 388.75 370.18 391.5 368.5C394.25 366.83 399.65 362.98 403.5 359.94C407.35 356.9 415.68 350.87 422 346.55C428.32 342.23 441.96 332.8 452.3 325.6L471.1 312.5L470.5 178.7C413.15 145.41 376.93 124.4 353 110.52C329.07 96.65 298.93 79.16 286 71.67C273.07 64.17 261.82 58.03 261 58.02C260.18 58 253.43 61.51 246 65.81Z" />
	<path id="Path 0" fill-rule="evenodd" class="shp1" d="M260.75 58.08C261.44 58.04 268.41 61.76 276.25 66.37C284.09 70.97 322 92.96 360.5 115.25C399 137.53 439.63 161.11 471.08 179.5L471 422L453.75 431.86C444.26 437.29 402.52 461.31 361 485.25C319.47 509.19 280.21 531.75 273.75 535.39C267.29 539.02 261.32 542 260.5 542C259.67 542 251.69 537.78 242.75 532.62C233.81 527.46 187.12 500.45 51.5 421.96L50.85 416.73C50.49 413.85 50.14 359.3 49.93 179.5L121.72 138.07C161.2 115.29 207 88.81 223.5 79.22C240 69.64 254.85 60.98 256.5 59.98C258.15 58.98 260.06 58.13 260.75 58.08ZM127.75 140.78L56 182C56 412.47 56.1 419.03 57.75 419.58C58.71 419.9 104.27 446.08 159 477.75C213.72 509.42 259.17 535.5 260 535.7C260.82 535.89 273.9 528.95 289.05 520.28C304.21 511.6 350.21 485.15 391.27 461.5L465.94 418.5L465.93 182.5C344.7 112.39 298.92 85.91 286 78.42C273.07 70.92 262.05 64.62 261.5 64.41C260.95 64.19 246.77 72.02 230 81.79C213.22 91.56 167.21 118.11 127.75 140.78Z" />
	<g id="Layer 3 copy 5">
		<path id="Path 0" class="shp1" d="M171.55 257C171.25 257.55 170.34 258 169.53 258C168.72 258 166.58 259.05 164.78 260.34C162.04 262.29 161.36 263.57 160.68 268.09C160.24 271.07 159.06 275.3 158.08 277.5C157.1 279.7 155.71 283.98 155.01 287C154.3 290.02 153.98 293.63 154.29 295C154.61 296.38 156.66 299.52 158.86 302L162.86 306.5C157.75 312.7 155.75 315.51 155.13 316.75C154.51 317.99 153.98 321.14 153.97 323.75C153.94 326.94 154.56 329.32 155.85 331C156.91 332.38 158.28 336.43 158.91 340C159.54 343.57 160.06 346.95 160.08 347.5C160.09 348.05 159.83 350.3 159.5 352.5C159.11 355.05 159.51 358.5 160.59 362C161.58 365.21 162.23 370.31 162.14 374.25C162.02 380.28 162.29 381.34 164.75 384.2C166.88 386.68 167.66 388.87 168.2 393.95C168.77 399.27 169.43 401.02 171.7 403.26C173.24 404.78 175.8 406.58 177.39 407.26C178.97 407.94 180.95 409.85 181.77 411.5C182.59 413.15 186.36 418.66 190.13 423.75L197 433C194.44 446.45 192.59 451.81 190.43 455.75C188.54 459.19 187.01 463.01 187.01 464.25C187.02 465.5 184.8 469.16 182 472.5C178.85 476.26 176.98 479.43 177 481C177.02 482.64 178.63 485.05 181.69 488C186.3 492.45 186.43 492.5 193.43 492.56C198.97 492.61 201.69 493.2 206 495.29C209.98 497.22 213.09 497.96 217.25 497.98C220.41 497.99 224.69 497.3 226.75 496.44C228.81 495.59 231.52 493.9 232.76 492.69C234 491.49 235.29 489.15 235.62 487.5C235.95 485.85 236.8 483.82 237.5 483C238.2 482.18 239.28 479.14 239.89 476.25C240.5 473.36 241.01 469.76 241.02 468.25C241.04 466.74 243.85 460.39 247.27 454.14L253.5 442.78C268.41 443.04 273.05 442.57 276 441.55C278.48 440.7 280.54 440.12 280.59 440.25C280.64 440.39 281.24 442.52 281.92 445C282.9 448.53 282.91 451.23 281.99 457.5C281.34 461.9 280.13 468.2 279.3 471.5C278.47 474.8 276.9 479.52 275.8 482C274.42 485.12 274.02 487.42 274.51 489.5C274.9 491.15 276.43 493.63 277.92 495C279.4 496.38 282.39 497.83 284.56 498.24C286.73 498.65 290.3 498.99 292.5 498.99C294.98 499 298.02 499.95 300.5 501.47C302.7 502.83 305.63 503.95 307 503.95C308.38 503.96 311.52 503.27 314 502.41C316.48 501.55 319.85 499.83 321.5 498.58C323.15 497.33 325.29 495.57 326.25 494.66C327.21 493.75 328.28 491.31 328.63 489.25C328.97 487.19 329.81 484.82 330.5 484C331.18 483.18 332.29 480.02 332.96 477C333.63 473.98 334.86 469.7 335.69 467.5C336.73 464.74 337.01 461.72 336.6 457.75C336.14 453.38 336.39 451.34 337.65 449.25C339.18 446.7 339.18 446.2 337.65 442.25C336.74 439.91 336.23 437.1 336.5 436C336.77 434.9 338.35 432.65 340 431C341.65 429.35 342.99 427.21 342.97 426.25C342.95 425.29 345.42 421.13 348.45 417C351.49 412.88 355.77 405.9 357.96 401.5C360.15 397.1 362.52 391.13 363.22 388.23C363.92 385.34 364.84 382.97 365.25 382.98C365.66 382.99 366.52 381.99 367.15 380.75C367.78 379.51 368.43 374.45 368.59 369.5C368.87 360.59 368.84 360.44 365.19 354.96C363.16 351.91 358.25 345.39 354.29 340.46C347.36 331.85 346.8 331.41 340.29 329.31C336.55 328.1 331.25 325.62 328.5 323.79C325.75 321.96 320.8 319.63 317.5 318.61C312.93 317.19 309.95 316.9 305 317.4C301.43 317.75 296.93 318.54 295 319.15C292.26 320.02 289.12 319.88 280.5 318.49L269.5 316.71C255.55 320.29 250.82 321.09 250 320.81C249.1 320.5 248 317.85 247.25 314.15C246.29 309.42 245.02 306.82 241.75 302.91C239.41 300.11 234.93 295.27 231.79 292.16C228.65 289.05 226.08 285.6 226.08 284.5C226.07 283.4 225.22 281.38 224.18 280C223.02 278.46 220.02 276.79 216.4 275.66C213.15 274.64 209.04 273.74 207.25 273.66C205.23 273.56 200.9 271.51 195.75 268.2C191.21 265.28 184.8 261.33 181.5 259.41C178.2 257.5 174.73 255.95 173.8 255.97C172.86 255.99 171.85 256.45 171.55 257Z" />
		<path id="Path 1" class="shp5" d="M168.74 268.7C168.44 269.14 168.11 270.85 167.99 272.5C167.88 274.15 167.84 276.06 167.89 276.75C167.95 277.44 169.24 279.11 170.75 280.46C173.23 282.68 173.38 283.17 172.25 285.46C171.56 286.86 169.99 288.25 168.75 288.56C167.39 288.9 165.9 288.52 165 287.59C163.66 286.21 163.42 286.41 162.75 289.52C162.26 291.8 162.43 293.61 163.24 294.75C163.91 295.71 165.73 297.85 167.27 299.5C168.81 301.15 170.5 304.07 171.03 306C171.56 307.93 171.99 311.41 171.99 313.75C172 316.64 172.48 318.16 173.5 318.5C174.32 318.77 176.35 319 178 319C180.15 319 182.92 317.44 187.75 313.51C191.46 310.49 195.29 308.02 196.25 308.01C197.7 308 198 307.07 198 302.5L198 297C192.96 297.03 190.93 296.46 190.23 295.77C189.54 295.07 188.95 293.38 188.94 292C188.92 290.63 189.65 288.82 190.56 288C191.75 286.92 193.14 286.71 195.6 287.25C198.85 287.97 199.03 287.86 199.62 284.75C200.16 281.92 199.8 281.14 196.87 278.72C195.02 277.19 190.57 274.16 187 271.98C180.69 268.13 180.49 268.08 180.26 270.25C180.14 271.49 179.35 273.06 178.51 273.75C177.68 274.44 176.1 274.77 175 274.5C173.9 274.23 172.8 273.21 172.56 272.25C172.31 271.29 171.48 269.92 170.7 269.2C169.92 268.49 169.04 268.26 168.74 268.7Z" />
		<path id="Path 2" class="shp6" d="M207.86 285.07C207.66 286.75 208.08 288.66 208.79 289.31C209.51 289.97 210.06 291.4 210.02 292.5C209.99 293.6 209.11 295.4 208.07 296.5C207.02 297.6 206.08 299.18 205.97 300C205.86 300.82 205.8 302.4 205.85 303.5C205.9 304.6 207.53 307.19 209.47 309.25C212.59 312.56 212.85 313.24 211.75 315.06C210.68 316.83 209.85 317.04 206 316.51C203.53 316.16 200.71 315.69 199.75 315.44C198.66 315.17 196.21 316.67 193.25 319.43C190.64 321.87 186.81 324.57 184.75 325.43C182.69 326.29 179.09 327.01 176.75 327.01C173.79 327.02 171.21 326.19 168.24 324.26C165.9 322.74 163.99 320.94 163.99 320.25C164 319.56 163.55 319 163 319C162.45 319 162 320.57 162 322.5C162 324.46 162.97 327.43 164.21 329.25C165.42 331.04 166.58 334.52 166.79 337C167 339.48 167.32 345.77 167.5 351C167.71 356.8 168.51 362.25 169.56 365C170.75 368.13 171.08 370.87 170.65 374C170.1 377.94 170.33 378.81 172.54 381C174.53 382.97 175.19 384.87 175.66 390C175.99 393.57 176.77 397.11 177.38 397.85C178 398.59 180.07 399.92 182 400.81C183.93 401.69 186.07 403.11 186.77 403.96C187.46 404.81 188.73 407.07 189.59 409C190.45 410.93 192.69 414.19 194.58 416.25C196.46 418.31 198.45 420.9 199 422C199.55 423.1 201.91 424.88 204.25 425.96C206.59 427.03 209.4 428.85 210.5 429.99C211.6 431.13 213.18 432.04 214 432.02C214.82 431.99 216.07 432.54 216.77 433.23C217.46 433.93 218.03 435.06 218.02 435.75C218.01 436.44 217.1 438.13 216 439.5C214.33 441.59 214.18 442.46 215.09 444.75C215.69 446.26 216.37 448.51 216.59 449.75C216.82 450.99 216.33 455.94 215.5 460.75C214.68 465.56 214 470.29 214 471.25C214 472.21 214.56 473 215.25 472.99C215.94 472.99 219.2 474.33 222.5 475.96C225.8 477.6 229.06 478.95 229.75 478.97C230.44 478.99 231.45 477.31 231.99 475.25C232.54 473.19 232.99 470.38 232.99 469C233 467.63 233.37 465.15 233.83 463.5C234.29 461.85 237.33 455.77 240.57 450C243.82 444.23 246.39 438.82 246.27 438C246.16 437.18 245.82 435.26 245.53 433.75C245.24 432.24 245.56 430.3 246.25 429.46C246.94 428.61 248.96 427.93 250.75 427.96C253.53 427.99 254.11 428.44 254.75 431.05C255.34 433.42 256.27 434.3 259 435.04C260.93 435.56 263.63 435.97 265 435.95C266.38 435.93 269.3 435.22 271.5 434.38C273.7 433.54 277.52 432.61 280 432.33C282.48 432.04 287.2 430.68 290.5 429.29C293.8 427.9 297.96 426.6 299.75 426.38C302.35 426.08 303.1 426.4 303.5 428C303.77 429.1 303.44 430.69 302.75 431.54C301.72 432.8 302.05 434.08 304.63 438.79C306.95 443.02 307.68 445.53 307.47 448.5C307.31 450.7 306.92 454.19 306.59 456.25C306.27 458.31 305.13 463.26 304.07 467.25C302.58 472.86 302.41 474.8 303.32 475.82C303.97 476.55 307.43 478.02 311 479.09C314.57 480.17 318.63 481.05 320 481.07C321.38 481.08 323.01 480.51 323.64 479.79C324.27 479.08 325.05 476.7 325.37 474.5C325.69 472.3 326.65 468.25 327.5 465.5C328.63 461.85 328.84 458.97 328.27 454.82C327.64 450.14 327.8 448.83 329.2 447.32C330.37 446.06 330.61 445.04 329.96 444C329.45 443.18 329.02 439.91 329.02 436.75C329 431.74 329.36 430.65 331.84 428.25C333.39 426.74 335.19 423.93 335.83 422C336.46 420.07 338.67 416.38 340.74 413.79C342.81 411.21 345.71 407.16 347.18 404.79C348.65 402.43 351.09 397.8 352.58 394.5C354.08 391.2 355.52 386.93 355.77 385C356.08 382.55 355.35 379.55 353.32 375C351.72 371.43 349.87 368.16 349.21 367.75C348.39 367.24 348.27 366.11 348.82 364.25C349.28 362.73 350.5 361.34 351.57 361.14C352.86 360.91 354.54 362.07 356.63 364.64L359.76 368.5C360.86 363.39 360.52 361.79 359.28 360.12C358.3 358.82 356.82 356.73 356 355.49C355.18 354.24 353.38 351.93 352 350.35C350.63 348.77 347.93 345.37 346 342.81C343.28 339.19 341.5 337.87 338 336.91C335.52 336.22 333.27 335.61 333 335.54C332.73 335.47 330.93 334.58 329 333.56C327.07 332.54 324.04 330.65 322.25 329.35C320.46 328.06 318.44 327.18 317.75 327.39C317.06 327.61 315.6 327.15 314.5 326.38C313.4 325.6 310.93 324.97 309 324.98C307.07 324.99 302.24 325.68 298.25 326.5C294.26 327.33 288.86 327.82 286.25 327.59C283.64 327.37 278.8 326.6 275.5 325.9C270.59 324.84 268.69 324.85 265 325.92C262.52 326.64 259.15 327.72 257.5 328.32C255.85 328.92 253.04 329.32 251.25 329.2C248.08 329 248 329.1 247.87 333.25C247.8 335.59 247.61 338.63 247.45 340C247.29 341.38 245.88 343.72 244.33 345.2C242.77 346.69 239.36 348.49 236.75 349.2C233.14 350.19 231.1 350.24 228.25 349.4C226.19 348.79 223.89 348.11 223.15 347.9C222.4 347.68 220.43 346.15 218.77 344.5C217.11 342.85 215.3 340.6 214.76 339.5C214.22 338.4 213.77 335.93 213.76 334C213.75 332.07 214.65 328.7 215.76 326.5C216.87 324.3 218.96 319.57 220.41 316C221.85 312.43 223.01 308.82 222.99 308C222.97 307.18 221.5 305.32 219.72 303.87C216.63 301.35 216.56 301.13 218 298.6C218.82 297.15 219.95 296.03 220.5 296.1C221.05 296.18 222.06 296.18 222.75 296.12C223.44 296.05 223.78 295.55 223.5 295C223.22 294.45 222.44 294.3 221.75 294.66C221.06 295.02 220.82 294.91 221.22 294.41C221.61 293.91 221.27 292.6 220.46 291.5C219.65 290.4 218.99 288.49 218.99 287.25C219 285.78 218.13 284.65 216.5 284C215.13 283.45 212.7 282.78 211.11 282.51C208.5 282.06 208.19 282.31 207.86 285.07Z" />
		<path id="Path 3" class="shp5" d="M231.02 308.25C231.03 309.49 230.42 312.3 229.66 314.5C228.9 316.7 226.92 321.43 225.25 325C223.59 328.57 221.95 332.29 221.61 333.25C221.26 334.26 221.78 335.95 222.84 337.25C223.85 338.49 225.99 340.1 227.59 340.84C229.34 341.65 231.99 341.95 234.25 341.59C237.02 341.16 238.26 340.35 239 338.5C239.55 337.13 240 331.84 240 326.75C240 321.66 239.54 315.93 238.98 314C238.41 312.07 236.95 309.48 235.73 308.22C234.5 306.97 232.94 305.96 232.25 305.97C231.56 305.99 231.01 307.01 231.02 308.25ZM204.12 438.92C204.05 440.61 202.88 445.49 201.52 449.75C200.15 454.01 198.12 458.96 197.02 460.75C195.91 462.54 195 464.23 195 464.5C195 464.77 195.68 465 196.5 465C197.32 465 198.83 466.24 199.85 467.75C200.88 469.26 202.68 470.84 203.85 471.25C205.72 471.9 206.06 471.58 206.43 468.75C206.67 466.96 207.34 462.24 207.93 458.25C208.52 454.26 208.66 450.44 208.25 449.75C207.84 449.06 207.28 445.84 207 442.58C206.73 439.32 205.99 436.47 205.37 436.25C204.69 436 204.19 437.08 204.12 438.92ZM290.51 437.69C289.41 437.94 288.63 438.79 288.76 439.57C288.89 440.36 289.53 442.91 290.17 445.25C291.12 448.7 291.02 451.38 289.64 459.5C288.71 465 287.69 470.63 287.39 472C286.89 474.27 287.18 474.55 290.67 475C294.2 475.46 294.52 475.3 294.69 473C294.78 471.63 295.57 468.02 296.44 465C297.31 461.98 298.31 456.57 298.65 453C299.17 447.61 298.91 445.69 297.14 441.75C295.96 439.14 294.44 437.05 293.75 437.12C293.06 437.18 291.6 437.44 290.51 437.69ZM306.96 448.68C306.71 450.43 306.86 451.56 307.3 451.18C307.74 450.81 307.95 449.38 307.76 448C307.46 445.77 307.37 445.85 306.96 448.68Z" />
		<path id="Path 4" class="shp7" d="M196.55 466C196.25 466.55 196.11 467.03 196.25 467.08C196.39 467.12 197.4 467.35 198.5 467.59C200.11 467.93 200.3 467.72 199.47 466.51C198.9 465.68 198.13 465 197.77 465C197.4 465 196.85 465.45 196.55 466ZM185.83 473.74C184 475.25 181.95 477.17 181.28 477.99C180.61 478.82 180.04 479.95 180 480.5C179.97 481.05 181.19 482.08 182.72 482.8C185 483.86 185.63 483.86 186.23 482.8C186.64 482.08 186.98 481.16 186.98 480.75C186.99 480.34 188.13 478.2 189.5 476C190.88 473.8 192 471.77 192 471.5C192 471.23 191.36 471 190.58 471C189.8 471 187.67 472.23 185.83 473.74ZM192.6 477.5C191.72 478.88 190.78 481.13 190.5 482.5C190.03 484.87 190.23 485 194.5 485C198.18 485 199.32 484.54 200.75 482.47C201.71 481.09 202.28 479.85 202 479.72C201.72 479.6 200.04 478.48 198.25 477.25C196.46 476.01 194.82 475 194.6 475C194.38 475 193.48 476.13 192.6 477.5ZM206.69 481.25C205.37 483.04 204 485.06 203.65 485.75C203.29 486.44 203.56 487.7 204.25 488.54C204.94 489.39 206.18 490.07 207 490.05C207.91 490.03 209.07 488.14 209.95 485.26C210.75 482.64 211.46 479.94 211.54 479.25C211.61 478.56 211.09 478 210.38 478C209.67 478 208.01 479.46 206.69 481.25ZM280.45 482.22C279.55 483.44 278.85 485.47 278.9 486.72C278.96 487.98 279.9 489.45 281 490C282.69 490.84 283.31 490.49 284.97 487.75C286.05 485.96 286.95 483.71 286.97 482.75C286.99 481.79 286.32 480.77 285.5 480.5C284.68 480.23 283.57 480 283.05 480C282.53 480 281.36 481 280.45 482.22ZM213.93 483.25C213.88 484.49 213.66 486.51 213.43 487.75C213.03 489.83 213.36 490 217.75 489.96C220.36 489.95 223.63 489.32 225 488.58C227.49 487.23 227.48 487.21 221.25 484.11C217.81 482.4 214.78 481 214.5 481C214.22 481 213.97 482.01 213.93 483.25ZM288.48 485.86C287.7 488.41 287.27 490.84 287.53 491.25C287.79 491.66 289.01 492.01 290.25 492.02C292.01 492.04 292.77 491.17 293.75 488.02C294.44 485.81 294.83 483.66 294.63 483.25C294.43 482.84 293.28 482.21 292.08 481.86C290.18 481.3 289.72 481.8 288.48 485.86ZM299 488C299 492.07 299.42 493.29 301.25 494.53C303.47 496.04 303.5 496 303.77 491.28C303.96 487.79 303.56 486.02 302.27 484.72C301.29 483.74 300.16 482.95 299.75 482.97C299.34 482.99 299 485.25 299 488ZM307.98 491.02C308 494.47 308.3 495 310.25 495C311.49 495.01 314.3 493.82 316.5 492.37C319.56 490.35 320.15 489.56 319 489C318.18 488.6 315.35 487.99 312.73 487.65L307.96 487.04L307.98 491.02Z" />
	</g>
</svg>