<svg xmlns="http://www.w3.org/2000/svg" viewBox="0 0 520 600" width="520" height="600">
	<style>
		tspan { white-space:pre }
		.shp0 { fill: #808080 } 
		.shp1 { fill: #000000 } 
		.shp2 { fill: #94af2b } 
		.shp3 { fill: #757d00 } 
		.shp4 { fill: #aeb727 } 
		.shp5 { fill: #a4a4a4 } 
		.shp6 { fill: #e9e9e9 } 
		.shp7 { fill: #505050 } 
	</style>
	<path id="Background" class="shp0" d="M260.16 -0.7L520.31 149.5L520.31 449.91L260.16 600.11L0 449.91L0 149.5L260.16 -0.7Z" />
	<g id="Layer 1">
		<path id="Path 0" class="shp1" d="M257.45 18.92C256.93 19.42 250.65 23.18 243.5 27.27C236.35 31.36 219.92 40.78 207 48.2C194.07 55.63 178.89 64.47 173.25 67.85C167.61 71.23 162.77 74 162.5 74C162.22 74 158.74 75.94 154.75 78.32C150.76 80.7 143 85.26 137.5 88.45C132 91.64 124.57 95.95 121 98.02C117.42 100.09 108.87 105.02 102 108.99C95.12 112.96 85.45 118.58 80.5 121.47C75.55 124.36 69.47 127.85 67 129.23C64.52 130.6 56.42 135.23 49 139.5C41.57 143.78 31.45 149.63 26.5 152.52C21.55 155.4 17.16 158.49 16.75 159.38C16.34 160.27 15.99 223.66 15.98 300.25C15.97 411.13 16.22 439.84 17.23 441.15C17.93 442.05 21.54 444.64 25.25 446.9C28.96 449.15 32.22 451 32.5 451C32.77 451 38.06 454.01 44.25 457.69C50.44 461.37 60 466.9 65.5 469.99C71 473.08 81.35 479 88.5 483.16C95.65 487.32 105.89 493.26 111.25 496.36C116.61 499.46 125.39 504.55 130.75 507.66C136.11 510.77 144.77 515.79 150 518.81C155.22 521.83 160.85 525.07 162.5 526C164.15 526.93 176.97 534.33 191 542.45C205.02 550.57 224.37 561.73 234 567.24C243.62 572.75 253.19 578.33 255.25 579.63C257.31 580.93 259.9 582 261 582C262.1 582 265.81 580.27 269.25 578.15C272.69 576.04 280.22 571.58 286 568.26C291.77 564.94 309.55 554.68 325.5 545.47C341.45 536.25 356.97 527.36 360 525.71C363.02 524.06 365.95 522.37 366.5 521.96C367.05 521.55 372 518.62 377.5 515.45C383 512.28 395.82 504.88 406 499C416.17 493.13 431.25 484.42 439.5 479.64C447.75 474.86 454.61 470.96 454.75 470.98C454.89 470.99 460.51 467.72 467.25 463.72C473.99 459.72 485.06 453.31 491.86 449.47C499.75 445.02 504.54 441.69 505.11 440.25C505.62 438.97 506.01 378.35 506.02 299.25C506.03 188.78 505.78 160.16 504.77 158.83C504.07 157.91 499 154.58 493.5 151.43C488 148.27 482.15 144.92 480.5 143.97C478.85 143.02 470.3 138.07 461.5 132.96C452.7 127.85 442.57 122.03 439 120.04C435.42 118.05 427.1 113.23 420.5 109.34C413.9 105.45 403.55 99.43 397.5 95.97C391.45 92.5 382.22 87.23 377 84.24C371.77 81.26 367.05 78.47 366.5 78.05C365.95 77.63 363.02 75.93 360 74.27C356.97 72.62 346.17 66.4 336 60.47C325.82 54.54 314.12 47.81 310 45.51C305.87 43.22 298.45 38.96 293.5 36.04C288.55 33.12 280.9 28.71 276.5 26.24C272.1 23.78 267.26 20.91 265.75 19.88C264.24 18.85 261.96 18 260.7 18C259.43 18 257.97 18.41 257.45 18.92Z" />
		<path id="Path 1" class="shp2" d="M244.92 32.25C236.44 37.2 219.15 47.22 206.5 54.51C193.85 61.81 176.52 71.82 168 76.75C159.47 81.69 140.57 92.6 126 101.01C111.42 109.42 88.25 122.81 74.5 130.75C60.75 138.7 43.09 148.87 35.26 153.35L21.02 161.5L21.02 438.5C43.09 451.15 60.75 461.32 74.5 469.26C88.25 477.2 111.42 490.58 126 498.99C140.57 507.4 156.77 516.75 162 519.76C167.22 522.78 189.05 535.38 210.5 547.76C231.95 560.15 251.97 571.75 255 573.56C260.3 576.72 260.61 576.78 263.5 575.26C265.15 574.4 279.32 566.29 295 557.25C310.67 548.2 329.12 537.53 336 533.54C342.87 529.55 362 518.5 378.5 508.98C395 499.47 417.95 486.21 429.5 479.53C441.05 472.84 458.6 462.72 468.5 457.04C478.4 451.35 489.65 444.85 493.5 442.59L500.5 438.48C501.04 188.4 500.85 162.28 499.8 161.34C499.08 160.7 492.65 156.83 485.5 152.73C478.35 148.64 462.15 139.32 449.5 132.02C436.85 124.72 420.87 115.5 414 111.53C407.12 107.56 385.3 94.94 365.5 83.5C345.7 72.05 324.77 59.98 319 56.68C313.22 53.38 299.05 45.19 287.5 38.48C275.95 31.77 265.11 25.59 263.42 24.76C260.36 23.26 260.24 23.3 244.92 32.25Z" />
	</g>
	<path id="Path 0" class="shp3" d="M250 63.95C244.77 67.1 228.8 76.44 214.5 84.69C200.2 92.94 172.52 108.93 153 120.21C133.47 131.5 102.44 149.38 84.02 159.96L50.55 179.18L50.95 421.5C72.3 433.82 98.3 448.83 122.5 462.79C146.7 476.76 170.55 490.56 175.5 493.47C180.45 496.37 196.65 505.73 211.5 514.26C226.35 522.79 243.22 532.52 249 535.89C254.77 539.25 260.17 541.99 261 541.98C261.82 541.97 277.35 533.35 295.5 522.83C313.65 512.32 341.55 496.18 357.5 486.97C373.45 477.76 399.55 462.7 415.5 453.5C431.45 444.3 450.46 433.33 457.74 429.13L470.97 421.5L471.09 179.5C421.81 150.9 389.27 132.07 367 119.2C344.72 106.33 322.45 93.44 317.5 90.55C312.55 87.66 300.17 80.54 290 74.72C279.82 68.91 269.25 62.75 266.5 61.04C263.75 59.33 261.05 57.99 260.5 58.07C259.95 58.14 255.22 60.79 250 63.95Z" />
	<path id="Path 0" class="shp4" d="M246 65.81C238.57 70.1 215.4 83.52 194.5 95.63C173.6 107.74 135.35 129.82 109.5 144.7C83.65 159.58 59.69 173.39 56.25 175.38L50 179L50 273C59.69 273.05 65.87 273.67 70 274.4C74.12 275.14 81.1 277.18 85.5 278.95C89.9 280.72 96.16 283.81 99.41 285.83C102.65 287.85 107.72 291.86 110.66 294.75L116 300C127.01 298.88 127.84 299.08 131.5 301.79C133.7 303.41 138.87 306.45 143 308.53C147.12 310.62 152.54 314.39 155.04 316.91C157.54 319.44 162.97 325.77 167.11 331C171.26 336.22 176.41 341.91 178.57 343.64C180.73 345.37 186.1 348.92 190.5 351.52C194.9 354.12 204.12 359.06 211 362.49C217.87 365.92 227.55 370.34 232.5 372.31C237.45 374.27 246.22 377.22 252 378.86C257.77 380.49 267 382.64 272.5 383.64C279.46 384.91 287.36 385.46 298.5 385.46C310.72 385.45 318.99 384.8 333.5 382.69C343.95 381.16 356.32 379.23 361 378.4C365.67 377.56 373.32 375.68 378 374.21C382.67 372.74 388.75 370.18 391.5 368.5C394.25 366.83 399.65 362.98 403.5 359.94C407.35 356.9 415.67 350.87 422 346.55C428.32 342.23 441.96 332.8 452.3 325.6L471.1 312.5L470.5 178.7C413.15 145.41 376.92 124.4 353 110.52C329.07 96.65 298.92 79.16 286 71.67C273.07 64.17 261.82 58.03 261 58.02C260.17 58 253.42 61.51 246 65.81Z" />
	<path id="Path 0" fill-rule="evenodd" class="shp1" d="M260.75 58.08C261.44 58.04 268.41 61.76 276.25 66.37C284.09 70.97 322 92.96 360.5 115.25C399 137.53 439.63 161.11 471.08 179.5L471 422L453.75 431.86C444.26 437.29 402.52 461.31 361 485.25C319.47 509.19 280.21 531.75 273.75 535.39C267.29 539.02 261.32 542 260.5 542C259.67 542 251.69 537.78 242.75 532.62C233.81 527.46 187.12 500.45 51.5 421.96L50.85 416.73C50.49 413.85 50.14 359.3 49.93 179.5L121.72 138.07C161.2 115.29 207 88.81 223.5 79.22C240 69.64 254.85 60.98 256.5 59.98C258.15 58.98 260.06 58.13 260.75 58.08ZM127.75 140.78L56 182C56 412.47 56.1 419.03 57.75 419.58C58.71 419.9 104.27 446.08 159 477.75C213.72 509.42 259.17 535.5 260 535.7C260.82 535.89 273.9 528.95 289.05 520.28C304.21 511.6 350.21 485.15 391.27 461.5L465.94 418.5L465.93 182.5C344.7 112.39 298.92 85.91 286 78.42C273.07 70.92 262.05 64.62 261.5 64.41C260.95 64.19 246.77 72.02 230 81.79C213.22 91.56 167.21 118.11 127.75 140.78Z" />
	<g id="Layer 3 copy 5">
		<path id="Path 0" class="shp1" d="M170.55 235C170.25 235.55 169.34 236 168.53 236C167.72 236 165.58 237.05 163.78 238.34C161.04 240.29 160.36 241.57 159.68 246.09C159.24 249.07 158.06 253.3 157.08 255.5C156.1 257.7 154.71 261.97 154.01 265C153.3 268.02 152.98 271.62 153.29 273C153.61 274.37 155.66 277.52 157.86 280L161.86 284.5C156.75 290.7 154.75 293.51 154.13 294.75C153.51 295.99 152.98 299.14 152.97 301.75C152.94 304.94 153.56 307.32 154.85 309C155.91 310.37 157.28 314.42 157.91 318C158.54 321.57 159.06 324.95 159.08 325.5C159.09 326.05 158.83 328.3 158.5 330.5C158.11 333.05 158.51 336.5 159.59 340C160.58 343.21 161.23 348.31 161.14 352.25C161.02 358.28 161.29 359.34 163.75 362.2C165.88 364.68 166.66 366.87 167.2 371.95C167.77 377.27 168.43 379.02 170.7 381.26C172.24 382.78 174.8 384.58 176.39 385.26C177.97 385.94 179.95 387.85 180.77 389.5C181.59 391.15 185.36 396.66 189.13 401.75L196 411C193.44 424.45 191.59 429.81 189.43 433.75C187.54 437.19 186.01 441.01 186.01 442.25C186.02 443.5 183.8 447.16 181 450.5C177.85 454.26 175.98 457.43 176 459C176.02 460.64 177.63 463.05 180.69 466C185.3 470.45 185.43 470.5 192.43 470.56C197.97 470.61 200.69 471.2 205 473.29C208.98 475.22 212.09 475.96 216.25 475.98C219.41 475.99 223.69 475.3 225.75 474.44C227.81 473.59 230.52 471.9 231.76 470.69C233 469.49 234.29 467.15 234.62 465.5C234.95 463.85 235.8 461.82 236.5 461C237.2 460.17 238.28 457.14 238.89 454.25C239.5 451.36 240.01 447.76 240.02 446.25C240.04 444.74 242.85 438.39 246.27 432.14L252.5 420.78C267.41 421.04 272.05 420.57 275 419.55C277.47 418.7 279.54 418.12 279.59 418.25C279.64 418.39 280.24 420.52 280.92 423C281.9 426.53 281.91 429.23 280.99 435.5C280.34 439.9 279.13 446.2 278.3 449.5C277.47 452.8 275.9 457.52 274.8 460C273.42 463.12 273.02 465.42 273.51 467.5C273.9 469.15 275.43 471.62 276.92 473C278.4 474.37 281.39 475.83 283.56 476.24C285.73 476.65 289.3 476.99 291.5 476.99C293.98 477 297.02 477.95 299.5 479.47C301.7 480.83 304.62 481.95 306 481.95C307.37 481.96 310.52 481.27 313 480.41C315.47 479.55 318.85 477.83 320.5 476.58C322.15 475.33 324.29 473.57 325.25 472.66C326.21 471.75 327.28 469.31 327.63 467.25C327.97 465.19 328.81 462.82 329.5 462C330.18 461.17 331.29 458.02 331.96 455C332.63 451.97 333.86 447.7 334.69 445.5C335.73 442.74 336.01 439.72 335.6 435.75C335.14 431.38 335.39 429.34 336.65 427.25C338.18 424.7 338.18 424.2 336.65 420.25C335.74 417.91 335.22 415.1 335.5 414C335.77 412.9 337.35 410.65 339 409C340.65 407.35 341.99 405.21 341.97 404.25C341.95 403.29 344.42 399.12 347.45 395C350.49 390.87 354.77 383.9 356.96 379.5C359.15 375.1 361.52 369.13 362.22 366.23C362.92 363.34 363.84 360.97 364.25 360.98C364.66 360.99 365.52 359.99 366.15 358.75C366.78 357.51 367.43 352.45 367.59 347.5C367.87 338.59 367.84 338.44 364.19 332.96C362.16 329.91 357.25 323.39 353.29 318.46C346.36 309.85 345.8 309.41 339.29 307.31C335.55 306.1 330.25 303.62 327.5 301.79C324.75 299.96 319.8 297.63 316.5 296.61C311.93 295.19 308.95 294.9 304 295.4C300.42 295.75 295.92 296.54 294 297.15C291.26 298.02 288.12 297.88 279.5 296.49L268.5 294.71C254.55 298.29 249.82 299.09 249 298.81C248.1 298.5 247 295.85 246.25 292.15C245.29 287.42 244.02 284.82 240.75 280.91C238.41 278.11 233.93 273.27 230.79 270.16C227.65 267.05 225.08 263.6 225.08 262.5C225.07 261.4 224.22 259.37 223.18 258C222.02 256.46 219.02 254.79 215.4 253.66C212.15 252.64 208.04 251.74 206.25 251.66C204.23 251.56 199.9 249.51 194.75 246.2C190.21 243.28 183.8 239.33 180.5 237.41C177.2 235.5 173.73 233.95 172.8 233.97C171.86 233.99 170.85 234.45 170.55 235Z" />
		<path id="Path 1" class="shp5" d="M167.74 246.7C167.44 247.14 167.11 248.85 166.99 250.5C166.88 252.15 166.84 254.06 166.89 254.75C166.95 255.44 168.24 257.11 169.75 258.46C172.23 260.68 172.38 261.17 171.25 263.46C170.56 264.86 168.99 266.25 167.75 266.56C166.39 266.9 164.9 266.52 164 265.59C162.66 264.21 162.42 264.41 161.75 267.52C161.26 269.8 161.43 271.61 162.24 272.75C162.91 273.71 164.73 275.85 166.27 277.5C167.81 279.15 169.5 282.07 170.03 284C170.56 285.92 170.99 289.41 170.99 291.75C171 294.64 171.48 296.16 172.5 296.5C173.32 296.77 175.35 297 177 297C179.15 297 181.92 295.44 186.75 291.51C190.46 288.49 194.29 286.02 195.25 286.01C196.7 286 197 285.07 197 280.5L197 275C191.96 275.03 189.93 274.46 189.23 273.77C188.54 273.07 187.95 271.37 187.94 270C187.92 268.63 188.65 266.82 189.56 266C190.75 264.92 192.14 264.71 194.6 265.25C197.85 265.97 198.03 265.86 198.62 262.75C199.16 259.92 198.8 259.14 195.87 256.72C194.02 255.19 189.57 252.16 186 249.98C179.69 246.13 179.49 246.08 179.26 248.25C179.14 249.49 178.35 251.06 177.51 251.75C176.68 252.44 175.1 252.77 174 252.5C172.9 252.22 171.8 251.21 171.56 250.25C171.31 249.29 170.48 247.92 169.7 247.2C168.92 246.49 168.04 246.26 167.74 246.7Z" />
		<path id="Path 2" class="shp6" d="M206.86 263.07C206.66 264.75 207.08 266.66 207.79 267.31C208.51 267.97 209.06 269.4 209.02 270.5C208.99 271.6 208.11 273.4 207.07 274.5C206.02 275.6 205.08 277.17 204.97 278C204.86 278.82 204.8 280.4 204.85 281.5C204.9 282.6 206.53 285.19 208.47 287.25C211.59 290.56 211.85 291.24 210.75 293.06C209.68 294.83 208.85 295.04 205 294.51C202.52 294.16 199.71 293.69 198.75 293.44C197.66 293.17 195.21 294.67 192.25 297.43C189.64 299.87 185.81 302.57 183.75 303.43C181.69 304.29 178.09 305.01 175.75 305.01C172.79 305.02 170.21 304.19 167.24 302.26C164.9 300.74 162.99 298.94 162.99 298.25C163 297.56 162.55 297 162 297C161.45 297 161 298.57 161 300.5C161 302.46 161.97 305.43 163.21 307.25C164.42 309.04 165.58 312.52 165.79 315C166 317.47 166.32 323.77 166.5 329C166.71 334.8 167.51 340.25 168.56 343C169.75 346.13 170.08 348.87 169.65 352C169.1 355.94 169.33 356.81 171.54 359C173.53 360.97 174.19 362.87 174.66 368C174.99 371.57 175.77 375.11 176.38 375.85C177 376.59 179.07 377.92 181 378.81C182.92 379.69 185.07 381.11 185.77 381.96C186.46 382.81 187.73 385.07 188.59 387C189.45 388.92 191.69 392.19 193.58 394.25C195.46 396.31 197.45 398.9 198 400C198.55 401.1 200.91 402.88 203.25 403.96C205.59 405.03 208.4 406.85 209.5 407.99C210.6 409.13 212.17 410.04 213 410.02C213.82 409.99 215.07 410.54 215.77 411.23C216.46 411.93 217.03 413.06 217.02 413.75C217.01 414.44 216.1 416.12 215 417.5C213.33 419.59 213.18 420.46 214.09 422.75C214.69 424.26 215.37 426.51 215.59 427.75C215.82 428.99 215.33 433.94 214.5 438.75C213.68 443.56 213 448.29 213 449.25C213 450.21 213.56 451 214.25 450.99C214.94 450.99 218.2 452.33 221.5 453.96C224.8 455.6 228.06 456.95 228.75 456.97C229.44 456.99 230.45 455.31 230.99 453.25C231.54 451.19 231.99 448.37 231.99 447C232 445.62 232.37 443.15 232.83 441.5C233.29 439.85 236.33 433.77 239.57 428C242.82 422.22 245.39 416.82 245.27 416C245.16 415.17 244.82 413.26 244.53 411.75C244.24 410.24 244.56 408.3 245.25 407.46C245.94 406.61 247.96 405.93 249.75 405.96C252.53 405.99 253.11 406.44 253.75 409.05C254.34 411.42 255.27 412.3 258 413.04C259.92 413.56 262.62 413.97 264 413.95C265.37 413.93 268.3 413.22 270.5 412.38C272.7 411.54 276.52 410.61 279 410.33C281.47 410.04 286.2 408.68 289.5 407.29C292.8 405.9 296.96 404.6 298.75 404.38C301.35 404.08 302.1 404.4 302.5 406C302.77 407.1 302.44 408.69 301.75 409.54C300.72 410.8 301.05 412.08 303.63 416.79C305.95 421.02 306.68 423.53 306.47 426.5C306.31 428.7 305.92 432.19 305.59 434.25C305.27 436.31 304.13 441.26 303.07 445.25C301.58 450.86 301.41 452.8 302.32 453.82C302.97 454.55 306.42 456.02 310 457.09C313.57 458.17 317.62 459.05 319 459.07C320.37 459.08 322.01 458.51 322.64 457.79C323.27 457.08 324.05 454.7 324.37 452.5C324.69 450.3 325.65 446.25 326.5 443.5C327.63 439.85 327.84 436.97 327.27 432.82C326.64 428.14 326.8 426.83 328.2 425.32C329.37 424.06 329.61 423.04 328.96 422C328.45 421.17 328.02 417.91 328.02 414.75C328 409.74 328.36 408.65 330.84 406.25C332.39 404.74 334.19 401.92 334.83 400C335.46 398.07 337.67 394.38 339.74 391.79C341.81 389.21 344.71 385.16 346.18 382.79C347.65 380.43 350.09 375.8 351.58 372.5C353.08 369.2 354.52 364.92 354.77 363C355.08 360.55 354.35 357.55 352.32 353C350.72 349.42 348.87 346.16 348.21 345.75C347.39 345.24 347.27 344.11 347.82 342.25C348.28 340.73 349.5 339.34 350.57 339.14C351.86 338.91 353.54 340.07 355.63 342.64L358.76 346.5C359.86 341.39 359.52 339.79 358.28 338.12C357.3 336.82 355.82 334.73 355 333.49C354.17 332.24 352.37 329.93 351 328.35C349.62 326.77 346.92 323.37 345 320.81C342.28 317.19 340.5 315.87 337 314.91C334.52 314.22 332.27 313.61 332 313.54C331.72 313.47 329.92 312.58 328 311.56C326.07 310.54 323.04 308.65 321.25 307.35C319.46 306.06 317.44 305.18 316.75 305.39C316.06 305.61 314.6 305.15 313.5 304.38C312.4 303.6 309.92 302.97 308 302.98C306.07 302.99 301.24 303.68 297.25 304.5C293.26 305.33 287.86 305.82 285.25 305.59C282.64 305.37 277.8 304.6 274.5 303.9C269.59 302.84 267.69 302.85 264 303.92C261.52 304.64 258.15 305.72 256.5 306.32C254.85 306.92 252.04 307.32 250.25 307.2C247.08 307 247 307.1 246.87 311.25C246.8 313.59 246.61 316.62 246.45 318C246.29 319.37 244.88 321.72 243.33 323.2C241.77 324.69 238.36 326.49 235.75 327.2C232.14 328.19 230.1 328.24 227.25 327.4C225.19 326.79 222.89 326.11 222.15 325.9C221.4 325.68 219.43 324.15 217.77 322.5C216.11 320.85 214.3 318.6 213.76 317.5C213.22 316.4 212.77 313.92 212.76 312C212.75 310.07 213.65 306.7 214.76 304.5C215.87 302.3 217.96 297.57 219.41 294C220.85 290.42 222.01 286.82 221.99 286C221.97 285.17 220.5 283.32 218.72 281.87C215.63 279.35 215.56 279.13 217 276.6C217.82 275.15 218.95 274.03 219.5 274.1C220.05 274.18 221.06 274.18 221.75 274.12C222.44 274.05 222.77 273.55 222.5 273C222.22 272.45 221.44 272.3 220.75 272.66C220.06 273.02 219.82 272.91 220.22 272.41C220.61 271.91 220.27 270.6 219.46 269.5C218.65 268.4 217.99 266.49 217.99 265.25C218 263.78 217.13 262.65 215.5 262C214.12 261.45 211.7 260.78 210.11 260.51C207.5 260.06 207.19 260.31 206.86 263.07Z" />
		<path id="Path 3" class="shp5" d="M230.02 286.25C230.03 287.49 229.42 290.3 228.66 292.5C227.9 294.7 225.92 299.42 224.25 303C222.59 306.57 220.95 310.29 220.61 311.25C220.26 312.26 220.78 313.95 221.84 315.25C222.85 316.49 224.99 318.1 226.59 318.84C228.34 319.65 230.99 319.95 233.25 319.59C236.02 319.16 237.26 318.35 238 316.5C238.55 315.12 239 309.84 239 304.75C239 299.66 238.54 293.92 237.98 292C237.41 290.07 235.95 287.48 234.73 286.22C233.5 284.97 231.94 283.96 231.25 283.97C230.56 283.99 230.01 285.01 230.02 286.25ZM203.12 416.92C203.05 418.61 201.88 423.49 200.52 427.75C199.15 432.01 197.12 436.96 196.02 438.75C194.91 440.54 194 442.22 194 442.5C194 442.77 194.67 443 195.5 443C196.32 443 197.83 444.24 198.85 445.75C199.88 447.26 201.68 448.84 202.85 449.25C204.72 449.9 205.06 449.58 205.43 446.75C205.67 444.96 206.34 440.24 206.93 436.25C207.52 432.26 207.66 428.44 207.25 427.75C206.84 427.06 206.28 423.84 206 420.58C205.73 417.32 204.99 414.47 204.37 414.25C203.69 414 203.19 415.08 203.12 416.92ZM289.51 415.69C288.41 415.94 287.63 416.79 287.76 417.57C287.89 418.36 288.53 420.91 289.17 423.25C290.12 426.7 290.02 429.38 288.64 437.5C287.71 443 286.69 448.62 286.39 450C285.89 452.27 286.18 452.55 289.67 453C293.2 453.46 293.52 453.3 293.69 451C293.78 449.62 294.57 446.02 295.44 443C296.31 439.97 297.31 434.57 297.65 431C298.17 425.61 297.91 423.69 296.14 419.75C294.96 417.14 293.44 415.05 292.75 415.12C292.06 415.18 290.6 415.44 289.51 415.69ZM305.96 426.68C305.71 428.43 305.86 429.56 306.3 429.18C306.74 428.81 306.95 427.37 306.76 426C306.46 423.77 306.37 423.85 305.96 426.68Z" />
		<path id="Path 4" class="shp7" d="M195.55 444C195.25 444.55 195.11 445.03 195.25 445.08C195.39 445.12 196.4 445.35 197.5 445.59C199.11 445.93 199.3 445.72 198.47 444.51C197.9 443.68 197.13 443 196.77 443C196.4 443 195.85 443.45 195.55 444ZM184.83 451.74C183 453.25 180.95 455.17 180.28 455.99C179.61 456.82 179.04 457.95 179 458.5C178.97 459.05 180.19 460.08 181.72 460.8C184 461.86 184.63 461.86 185.23 460.8C185.64 460.08 185.98 459.16 185.98 458.75C185.99 458.34 187.12 456.2 188.5 454C189.87 451.8 191 449.77 191 449.5C191 449.22 190.36 449 189.58 449C188.8 449 186.67 450.23 184.83 451.74ZM191.6 455.5C190.72 456.87 189.77 459.12 189.5 460.5C189.03 462.87 189.23 463 193.5 463C197.18 463 198.32 462.54 199.75 460.47C200.71 459.09 201.27 457.85 201 457.72C200.72 457.6 199.04 456.48 197.25 455.25C195.46 454.01 193.82 453 193.6 453C193.38 453 192.48 454.12 191.6 455.5ZM205.69 459.25C204.37 461.04 203 463.06 202.65 463.75C202.29 464.44 202.56 465.7 203.25 466.54C203.94 467.39 205.17 468.07 206 468.05C206.91 468.03 208.07 466.14 208.95 463.26C209.75 460.64 210.46 457.94 210.54 457.25C210.61 456.56 210.09 456 209.38 456C208.67 456 207.01 457.46 205.69 459.25ZM279.45 460.22C278.55 461.44 277.85 463.47 277.9 464.72C277.96 465.98 278.9 467.45 280 468C281.69 468.84 282.31 468.49 283.97 465.75C285.05 463.96 285.95 461.71 285.97 460.75C285.99 459.79 285.32 458.77 284.5 458.5C283.67 458.22 282.57 458 282.05 458C281.53 458 280.36 459 279.45 460.22ZM212.93 461.25C212.88 462.49 212.66 464.51 212.43 465.75C212.03 467.83 212.36 468 216.75 467.96C219.36 467.95 222.62 467.32 224 466.58C226.49 465.23 226.48 465.21 220.25 462.11C216.81 460.4 213.77 459 213.5 459C213.22 459 212.97 460.01 212.93 461.25ZM287.48 463.86C286.7 466.41 286.27 468.84 286.53 469.25C286.79 469.66 288.01 470.01 289.25 470.02C291.01 470.04 291.77 469.17 292.75 466.02C293.44 463.81 293.83 461.66 293.63 461.25C293.43 460.84 292.28 460.21 291.08 459.86C289.18 459.3 288.72 459.8 287.48 463.86ZM298 466C298 470.07 298.42 471.29 300.25 472.53C302.47 474.04 302.5 474 302.77 469.28C302.96 465.79 302.56 464.02 301.27 462.72C300.29 461.74 299.16 460.95 298.75 460.97C298.34 460.99 298 463.25 298 466ZM306.98 469.02C307 472.47 307.3 473 309.25 473C310.49 473.01 313.3 471.82 315.5 470.37C318.56 468.35 319.15 467.56 318 467C317.17 466.6 314.35 465.99 311.73 465.65L306.96 465.04L306.98 469.02Z" />
	</g>
</svg>