<svg xmlns="http://www.w3.org/2000/svg" viewBox="0 0 520 600" width="520" height="600">
	<style>
		tspan { white-space:pre }
		.shp0 { fill: #808080 } 
		.shp1 { fill: #000000 } 
		.shp2 { fill: #b8b8b8 } 
		.shp3 { fill: #4c4e4b } 
		.shp4 { fill: #696969 } 
		.shp5 { fill: #c7c7c7 } 
		.shp6 { fill: #a7a7a7 } 
		.shp7 { fill: #656565 } 
		.shp8 { fill: #454545 } 
		.shp9 { fill: #848484 } 
		.shp10 { fill: #4c4c4c } 
	</style>
	<path id="Background" class="shp0" d="M260.16 -0.7L520.31 149.5L520.31 449.91L260.16 600.11L0 449.91L0 149.5L260.16 -0.7Z" />
	<g id="Layer 1">
		<path id="Path 0" class="shp1" d="M257.45 18.92C256.93 19.42 250.65 23.18 243.5 27.27C236.35 31.36 219.92 40.78 207 48.2C194.07 55.63 178.89 64.47 173.25 67.85C167.61 71.23 162.77 74 162.5 74C162.22 74 158.74 75.94 154.75 78.32C150.76 80.7 143 85.26 137.5 88.45C132 91.64 124.57 95.95 121 98.02C117.42 100.09 108.87 105.02 102 108.99C95.12 112.96 85.45 118.58 80.5 121.47C75.55 124.36 69.47 127.85 67 129.23C64.52 130.6 56.42 135.23 49 139.5C41.57 143.78 31.45 149.63 26.5 152.52C21.55 155.4 17.16 158.49 16.75 159.38C16.34 160.27 15.99 223.66 15.98 300.25C15.97 411.13 16.22 439.84 17.23 441.15C17.93 442.05 21.54 444.64 25.25 446.9C28.96 449.15 32.22 451 32.5 451C32.77 451 38.06 454.01 44.25 457.69C50.44 461.37 60 466.9 65.5 469.99C71 473.08 81.35 479 88.5 483.16C95.65 487.32 105.89 493.26 111.25 496.36C116.61 499.46 125.39 504.55 130.75 507.66C136.11 510.77 144.77 515.79 150 518.81C155.22 521.83 160.85 525.07 162.5 526C164.15 526.93 176.97 534.33 191 542.45C205.02 550.57 224.37 561.73 234 567.24C243.62 572.75 253.19 578.33 255.25 579.63C257.31 580.93 259.9 582 261 582C262.1 582 265.81 580.27 269.25 578.15C272.69 576.04 280.22 571.58 286 568.26C291.77 564.94 309.55 554.68 325.5 545.47C341.45 536.25 356.97 527.36 360 525.71C363.02 524.06 365.95 522.37 366.5 521.96C367.05 521.55 372 518.62 377.5 515.45C383 512.28 395.82 504.88 406 499C416.17 493.13 431.25 484.42 439.5 479.64C447.75 474.86 454.61 470.96 454.75 470.98C454.89 470.99 460.51 467.72 467.25 463.72C473.99 459.72 485.06 453.31 491.86 449.47C499.75 445.02 504.54 441.69 505.11 440.25C505.62 438.97 506.01 378.35 506.02 299.25C506.03 188.78 505.78 160.16 504.77 158.83C504.07 157.91 499 154.58 493.5 151.43C488 148.27 482.15 144.92 480.5 143.97C478.85 143.02 470.3 138.07 461.5 132.96C452.7 127.85 442.57 122.03 439 120.04C435.42 118.05 427.1 113.23 420.5 109.34C413.9 105.45 403.55 99.43 397.5 95.97C391.45 92.5 382.22 87.23 377 84.24C371.77 81.26 367.05 78.47 366.5 78.05C365.95 77.63 363.02 75.93 360 74.27C356.97 72.62 346.17 66.4 336 60.47C325.82 54.54 314.12 47.81 310 45.51C305.87 43.22 298.45 38.96 293.5 36.04C288.55 33.12 280.9 28.71 276.5 26.24C272.1 23.78 267.26 20.91 265.75 19.88C264.24 18.85 261.96 18 260.7 18C259.43 18 257.97 18.41 257.45 18.92Z" />
		<path id="Path 1" class="shp2" d="M244.92 32.25C236.44 37.2 219.15 47.22 206.5 54.51C193.85 61.81 176.52 71.82 168 76.75C159.47 81.69 140.57 92.6 126 101.01C111.42 109.42 88.25 122.81 74.5 130.75C60.75 138.7 43.09 148.87 35.26 153.35L21.02 161.5L21.02 438.5C43.09 451.15 60.75 461.32 74.5 469.26C88.25 477.2 111.42 490.58 126 498.99C140.57 507.4 156.77 516.75 162 519.76C167.22 522.78 189.05 535.38 210.5 547.76C231.95 560.15 251.97 571.75 255 573.56C260.3 576.72 260.61 576.78 263.5 575.26C265.15 574.4 279.32 566.29 295 557.25C310.67 548.2 329.12 537.53 336 533.54C342.87 529.55 362 518.5 378.5 508.98C395 499.47 417.95 486.21 429.5 479.53C441.05 472.84 458.6 462.72 468.5 457.04C478.4 451.35 489.65 444.85 493.5 442.59L500.5 438.48C501.04 188.4 500.85 162.28 499.8 161.34C499.08 160.7 492.65 156.83 485.5 152.73C478.35 148.64 462.15 139.32 449.5 132.02C436.85 124.72 420.87 115.5 414 111.53C407.12 107.56 385.3 94.94 365.5 83.5C345.7 72.05 324.77 59.98 319 56.68C313.22 53.38 299.05 45.19 287.5 38.48C275.95 31.77 265.11 25.59 263.42 24.76C260.36 23.26 260.24 23.3 244.92 32.25Z" />
	</g>
	<path id="Path 0" class="shp3" d="M250 63.95C244.77 67.1 228.8 76.44 214.5 84.69C200.2 92.94 172.52 108.93 153 120.21C133.47 131.5 102.44 149.38 84.02 159.96L50.55 179.18L50.95 421.5C72.3 433.82 98.3 448.83 122.5 462.79C146.7 476.76 170.55 490.56 175.5 493.47C180.45 496.37 196.65 505.73 211.5 514.26C226.35 522.79 243.22 532.52 249 535.89C254.77 539.25 260.17 541.99 261 541.98C261.82 541.97 277.35 533.35 295.5 522.83C313.65 512.32 341.55 496.18 357.5 486.97C373.45 477.76 399.55 462.7 415.5 453.5C431.45 444.3 450.46 433.33 457.74 429.13L470.97 421.5L471.09 179.5C421.81 150.9 389.27 132.07 367 119.2C344.72 106.33 322.45 93.44 317.5 90.55C312.55 87.66 300.17 80.54 290 74.72C279.82 68.91 269.25 62.75 266.5 61.04C263.75 59.33 261.05 57.99 260.5 58.07C259.95 58.14 255.22 60.79 250 63.95Z" />
	<path id="Path 0" class="shp4" d="M241 68.72C230.82 74.64 183.8 101.8 136.5 129.1L50.5 178.72L49.97 264.5C65.77 263.93 68.88 264.32 74.5 266.17C79.26 267.73 84.78 270.79 91.75 275.73C97.39 279.73 104.47 285.47 107.5 288.5C111.07 292.07 113.09 294.96 113.25 296.73C113.49 299.35 113.88 299.53 123 301.25C128.22 302.23 142.62 304.85 155 307.08C167.37 309.3 198.65 314.5 224.5 318.63C257.4 323.89 272.85 325.96 276 325.55C278.47 325.23 283.42 323.59 287 321.9C290.57 320.22 298.22 315.57 304 311.57C309.77 307.56 316.41 303.33 318.75 302.15C321.09 300.97 324.8 300 327 300C330.69 300 331.53 299.43 337.75 292.69C341.46 288.67 347.71 280.9 351.63 275.44C355.55 269.97 361.4 262.99 364.63 259.93C367.86 256.87 372.75 253.08 375.5 251.51C378.25 249.94 381.17 248.03 382 247.26C383.1 246.24 384.97 246.03 389 246.48C392.02 246.82 403.95 249 415.5 251.32L436.5 255.54C462.05 269.46 469.81 273.61 470.23 273.75C470.66 273.89 471 252.62 471 226.5L471 179C452.79 168.38 420.72 149.77 388 130.8C355.27 111.83 313.65 87.7 295.5 77.18C277.35 66.66 261.82 58.03 261 58.01C260.17 57.99 251.17 62.81 241 68.72Z" />
	<path id="Path 0" fill-rule="evenodd" class="shp1" d="M260.75 58.08C261.44 58.04 268.41 61.76 276.25 66.37C284.09 70.97 322 92.96 360.5 115.25C399 137.53 439.63 161.11 471.08 179.5L471 422L453.75 431.86C444.26 437.29 402.52 461.31 361 485.25C319.47 509.19 280.21 531.75 273.75 535.39C267.29 539.02 261.32 542 260.5 542C259.67 542 251.69 537.78 242.75 532.62C233.81 527.46 187.12 500.45 51.5 421.96L50.85 416.73C50.49 413.85 50.14 359.3 49.93 179.5L121.72 138.07C161.2 115.29 207 88.81 223.5 79.22C240 69.64 254.85 60.98 256.5 59.98C258.15 58.98 260.06 58.13 260.75 58.08ZM127.75 140.78L56 182C56 412.47 56.1 419.03 57.75 419.58C58.71 419.9 104.27 446.08 159 477.75C213.72 509.42 259.17 535.5 260 535.7C260.82 535.89 273.9 528.95 289.05 520.28C304.21 511.6 350.21 485.15 391.27 461.5L465.94 418.5L465.93 182.5C344.7 112.39 298.92 85.91 286 78.42C273.07 70.92 262.05 64.62 261.5 64.41C260.95 64.19 246.77 72.02 230 81.79C213.22 91.56 167.21 118.11 127.75 140.78Z" />
	<g id="Layer 6 copy">
		<path id="Path 0" class="shp1" d="M259.83 231.28C255.43 232.41 248.43 234.89 244.27 236.8C240.11 238.7 235.42 241.32 233.84 242.61C232.27 243.91 229.69 246.1 228.11 247.48C226.53 248.86 222.55 253.67 219.26 258.16C215.98 262.65 212.36 268.3 211.22 270.71C209.65 274.02 208.52 275.2 206.57 275.58C205.15 275.85 201.45 276.63 198.35 277.31C195.25 277.99 191.86 278.96 190.82 279.46C189.78 279.96 187.93 281.23 186.72 282.29C185.51 283.35 183.6 286.92 182.49 290.23C180.93 294.86 180.47 298.3 180.5 305.26L180.53 314.28C166.04 314.84 159.31 315.32 156.22 315.69C153.13 316.07 148.91 316.58 146.85 316.82C144.79 317.06 140.99 317.78 138.4 318.43C135.82 319.07 131.78 320.88 129.42 322.45C127.07 324.02 122.98 327.39 120.32 329.95C117.67 332.51 113.72 337.08 111.54 340.1C109.37 343.12 106.19 348.08 104.48 351.11C102.77 354.15 101.07 358.51 100.69 360.81C100.31 363.11 99.3 365.76 98.45 366.7C97.53 367.7 96.7 370.56 96.42 373.64C96.13 376.91 96.48 380.39 97.34 382.89C98.68 386.78 98.65 386.97 96.49 389.41C95.27 390.78 93.91 393.16 93.48 394.69C93.05 396.22 93.1 399.16 93.59 401.23C94.08 403.3 94.45 406.14 94.41 407.55C94.38 408.97 95.31 411.3 96.48 412.75C97.65 414.19 101.15 417.02 104.24 419.03C108.87 422.03 111 422.8 116.16 423.32C119.62 423.66 127.46 424.91 133.59 426.07C139.72 427.24 146.83 428.35 149.4 428.53C151.96 428.72 156.59 428.45 159.68 427.94C162.78 427.42 167.21 426.79 169.52 426.53C171.84 426.27 177.12 425.17 181.26 424.07L188.78 422.08C193.76 425.37 197.7 427.14 200.76 428.15C203.81 429.15 208.09 430.03 210.27 430.09C212.45 430.15 215.19 429.85 216.36 429.41C217.99 428.8 219.76 429.29 224 431.52C228.05 433.64 232.27 434.85 239.75 436.05C247.51 437.29 250.77 437.45 253.27 436.74C255.08 436.22 258.26 435.26 260.33 434.61C262.4 433.95 266.14 431.59 268.64 429.35C271.14 427.11 273.54 424.04 273.97 422.51L274.74 419.74C280.47 426.04 283.75 429.05 285.72 430.51C287.7 431.96 291.81 434.12 294.86 435.3C299.76 437.19 301.59 437.4 310.68 437.11C316.33 436.92 323.06 436.6 325.64 436.38C328.21 436.17 333.28 435.27 336.9 434.37C340.51 433.48 346.37 431.27 349.91 429.45C353.45 427.64 357.94 424.81 359.88 423.16C362.77 420.71 363.54 419.35 364.01 415.8C364.58 411.6 364.71 411.44 367.87 411.26C369.67 411.15 371.77 411.32 372.53 411.62C373.63 412.05 373.36 412.69 371.24 414.66C369.77 416.03 368.08 418.61 367.49 420.4C366.89 422.18 366.64 424.59 366.91 425.75C367.19 426.92 368.75 428.49 370.41 429.28C372.06 430.06 376.18 431.12 379.57 431.63L385.73 432.57C391.12 427.29 392.71 424.91 392.73 423.89C392.76 422.86 393.1 422.02 393.49 422.02C393.87 422.02 398.6 421.92 403.99 421.8C409.39 421.67 415.17 421.42 416.85 421.23C418.65 421.03 420.47 420.06 421.3 418.83C422.08 417.7 422.95 415.1 423.25 413.05C423.62 410.43 423.17 407.81 421.68 404.14C420.24 400.56 418.37 397.99 415.69 395.88C413.54 394.2 410.23 392.11 408.33 391.25C406.1 390.23 405.1 389.27 405.53 388.53C405.88 387.89 406.56 384.66 407.02 381.33C407.73 376.26 407.48 373.47 405.43 364.02C404.09 357.82 402.33 351.68 401.52 350.37C400.72 349.07 398.39 345.85 396.34 343.23C394.3 340.6 392.2 336.98 391.69 335.16C391.17 333.35 390.57 329.13 390.34 325.79C390.11 322.45 389.05 317.81 387.97 315.5C386.89 313.18 383.57 308.5 380.58 305.1C377.59 301.7 372.17 296.39 368.53 293.29C364.11 289.53 360.76 287.45 358.43 287.01C356.52 286.65 351.43 285.56 347.13 284.6L339.3 282.85C334.45 274.03 332.16 270.4 331.08 269.08C330 267.77 327.33 264.54 325.16 261.91C322.99 259.28 320.4 256.03 319.41 254.69C318.42 253.35 314.92 250.42 311.65 248.17C308.37 245.92 302.58 242.71 298.77 241.03C294.97 239.36 289.37 236.75 286.33 235.24C283.29 233.73 278.2 231.74 275.01 230.81C271.83 229.87 268.91 229.14 268.52 229.17C268.14 229.21 264.22 230.16 259.83 231.28Z" />
		<path id="Path 1" class="shp5" d="M261.57 235.81C258.2 236.9 255.13 237.85 254.74 237.91C254.36 237.98 252.02 238.83 249.56 239.8C247.09 240.77 244.86 241.56 244.61 241.54C244.35 241.52 242.86 242.27 241.3 243.2L238.45 244.89C254.14 253.15 262.1 257.82 266.26 260.6C270.42 263.38 273.81 265.34 273.8 264.95C273.79 264.56 274.48 264.9 275.34 265.69C276.78 267.03 276.86 266.89 276.43 263.85C276.18 262.05 275.38 256.57 274.66 251.67C273.94 246.77 273.33 240.98 273.31 238.79C273.29 236.61 272.85 234.81 272.34 234.79C271.82 234.77 270.57 234.54 269.55 234.29C268.53 234.04 264.94 234.72 261.57 235.81Z" />
		<path id="Path 2" class="shp6" d="M276.79 237.46C276.41 238.36 276.53 242.06 277.05 245.67C277.57 249.27 278.13 252.86 278.29 253.64C278.46 254.41 278.84 258.41 279.15 262.53C279.45 266.64 280.22 270.55 280.87 271.21C281.51 271.87 281.83 272.4 281.58 272.4C281.32 272.39 282.49 275.26 284.18 278.77C285.87 282.28 287.84 286.75 288.58 288.69C289.31 290.64 290.32 292.24 290.84 292.26C291.35 292.27 292 291.45 292.29 290.43C292.57 289.41 293.36 288.07 294.05 287.44C294.73 286.82 297.94 282.18 301.17 277.14C304.4 272.09 308.4 265.9 310.06 263.37C311.71 260.85 313.34 257.85 313.67 256.7C314 255.56 313.85 254.61 313.34 254.59C312.83 254.58 310.45 253.17 308.06 251.46C305.67 249.74 299.14 246.27 293.56 243.73C287.98 241.2 282.08 238.38 280.45 237.47C277.63 235.9 277.44 235.9 276.79 237.46Z" />
		<path id="Path 3" class="shp7" d="M233.67 248.98C233.14 249.61 232.28 250.3 231.76 250.53C231.24 250.75 229.26 252.78 227.36 255.04C225.47 257.3 223.06 260.6 222.03 262.37C220.99 264.13 219.91 265.79 219.62 266.03C219.33 266.28 218.03 267.87 216.72 269.55C214.71 272.16 214.56 272.75 215.73 273.43C216.48 273.88 217.53 273.98 218.05 273.66C218.58 273.34 219.64 272.99 220.41 272.9C221.18 272.8 223.71 272.51 226.03 272.25C228.35 272 230.46 271.63 230.72 271.44C230.98 271.24 232.25 270.83 233.55 270.52C234.84 270.21 237.89 269.97 240.33 269.97C242.77 269.98 244.77 269.78 244.78 269.52C244.8 269.27 247.52 269.45 250.84 269.92C255.4 270.58 257.49 271.39 259.38 273.23C260.75 274.58 262.61 275.89 263.5 276.15C264.5 276.44 264.84 277.06 264.4 277.76C263.97 278.45 264.06 278.65 264.62 278.25C265.14 277.89 266.59 278.45 267.84 279.49C269.1 280.53 270.73 281.94 271.47 282.61C272.22 283.28 273.15 283.73 273.55 283.62C273.95 283.5 274.05 283.82 273.78 284.32C273.51 284.83 274.02 285.79 274.91 286.45C275.8 287.12 277.19 289.36 277.99 291.44C278.8 293.52 279.69 297.11 279.97 299.43C280.25 301.75 280.6 304.7 280.74 305.99C280.88 307.27 281.26 310.8 281.58 313.81C281.9 316.83 282.37 319.43 282.62 319.59C282.87 319.75 283.2 319.29 283.35 318.57C283.49 317.85 283.74 316.43 283.9 315.41C284.06 314.39 284.39 313.55 284.65 313.56C284.91 313.57 285.21 312.21 285.32 310.55C285.43 308.88 285.77 306.68 286.08 305.67C286.39 304.65 286.71 303.82 286.79 303.82C286.87 303.82 287.15 301.94 287.41 299.63C287.7 297.15 287.34 294.1 286.55 292.14C285.82 290.32 284.39 287.13 283.37 285.05C282.35 282.97 280.79 279.67 279.89 277.72C278.99 275.77 278.29 273.65 278.33 273.01C278.37 272.37 277.88 271.38 277.23 270.8C276.58 270.23 274.59 269.15 272.82 268.41C271.04 267.67 267.11 265.23 264.09 262.99C261.07 260.76 253.74 256.43 247.79 253.38C241.84 250.33 236.44 247.84 235.8 247.84C235.16 247.84 234.2 248.36 233.67 248.98Z" />
		<path id="Path 4" class="shp8" d="M306.69 274.25C301.45 282.45 295.86 291.02 294.27 293.29L291.39 297.41C294.23 303.27 296.02 307.73 297.2 311.1C298.37 314.47 300.35 319.68 301.6 322.66C303.7 327.72 304.04 328.06 306.44 327.6C307.86 327.33 310.5 326.81 312.31 326.45C314.11 326.08 317.59 325.59 320.04 325.35C322.49 325.12 324.49 324.61 324.48 324.22C324.48 323.84 326.09 322.64 328.06 321.57C330.02 320.5 333.32 319.31 335.39 318.93L339.14 318.24C340 303.11 339.69 300.13 337.96 294.01C336.78 289.87 334.32 283.62 332.49 280.11C330.65 276.61 326.65 270.51 323.6 266.57C320.54 262.62 317.63 259.38 317.13 259.37C316.63 259.35 311.93 266.05 306.69 274.25Z" />
		<path id="Path 5" class="shp6" d="M233.88 275.45C231.29 276.05 226.86 276.89 224.02 277.31C221.19 277.74 217.6 278.28 216.05 278.52C214.51 278.77 211.98 279.17 210.43 279.41C208.88 279.66 205.17 280.49 202.18 281.27C199.19 282.04 196.75 283 196.75 283.38C196.76 283.77 197.08 283.91 197.47 283.7C197.86 283.5 198.65 284.46 199.22 285.85C199.8 287.24 201.41 289.53 202.82 290.93C204.23 292.33 209.15 297.41 213.77 302.2C219.04 307.67 222.7 310.76 223.58 310.49C224.36 310.25 225.01 309.64 225.02 309.13C225.03 308.62 227.27 307.4 230 306.43C232.72 305.45 236.24 303.53 237.81 302.16C239.39 300.79 241.67 298.03 242.87 296.03C244.07 294.04 245.3 290.73 245.6 288.69C245.9 286.64 246.44 282.56 246.8 279.62L247.45 274.26C240.57 274.33 236.46 274.84 233.88 275.45Z" />
		<path id="Path 6" class="shp8" d="M249.79 282.95C249.08 290.02 248.38 292.53 245.94 296.86L242.95 302.15C250.05 307.77 252.1 309.72 252.08 310.1C252.06 310.49 253.19 311.41 254.58 312.15C255.97 312.89 259.2 313.86 261.76 314.3C264.47 314.77 268.5 316.49 271.45 318.42C274.22 320.24 276.7 321.73 276.96 321.74C277.21 321.74 276.88 316.17 276.22 309.35C275.56 302.54 274.47 295.47 273.79 293.66C273.11 291.84 271.35 289.16 269.89 287.69C268.42 286.22 264.34 282.91 260.82 280.33C257.3 277.75 253.57 275.34 252.54 274.98C250.77 274.35 250.61 274.82 249.79 282.95ZM189.86 285.53C188.99 286.4 188.58 287.45 188.95 287.86C189.33 288.27 191.53 288.66 193.83 288.72L198.03 288.83C194.52 285.04 193.04 283.94 192.47 283.94C191.9 283.94 190.73 284.65 189.86 285.53Z" />
		<path id="Path 7" class="shp5" d="M341.91 289.18C342.32 289.86 342.76 291.46 342.88 292.75C343 294.04 343.35 295.73 343.65 296.5C343.95 297.28 344.23 298.24 344.26 298.62C344.3 299.01 344.64 299.33 345.03 299.34C345.41 299.35 346.36 299.38 347.13 299.4C347.89 299.42 350.26 297.91 352.38 296.04C354.5 294.18 356.28 292.36 356.33 292.02C356.38 291.67 353.97 290.85 350.98 290.2C347.99 289.55 344.56 288.78 343.35 288.49C341.72 288.09 341.35 288.27 341.91 289.18Z" />
		<path id="Path 8" class="shp6" d="M356.53 296.69C354.43 298.6 350.92 301.13 348.74 302.32L344.77 304.47L344.26 318.93C348.23 319.07 350.98 318.52 352.92 317.79C354.89 317.05 359.05 316.56 362.29 316.69C365.5 316.82 371.27 316.96 375.12 317C378.97 317.05 382.47 316.8 382.9 316.44C383.32 316.09 380.08 311.88 375.68 307.09C371.29 302.3 366.36 297.23 364.73 295.82C363.1 294.42 361.45 293.26 361.06 293.25C360.67 293.24 358.63 294.79 356.53 296.69Z" />
		<path id="Path 9" class="shp7" d="M186.76 291.83C186.94 292.3 186.43 293.93 185.61 295.45C184.59 297.37 184.27 299.63 184.57 302.89C184.81 305.46 185.12 309.46 185.26 311.78C185.41 314.09 185.67 316.62 185.85 317.39C186.03 318.17 186.44 320.49 186.76 322.55C187.08 324.62 187.81 327.29 188.38 328.51C188.95 329.72 191.48 332.09 194 333.78C196.52 335.47 198.68 337.17 198.8 337.57C198.92 337.97 199.64 338.31 200.41 338.33C201.18 338.35 201.91 338.69 202.03 339.08C202.14 339.46 203.69 340.55 205.46 341.48C207.23 342.41 210.76 343.92 213.31 344.84C215.85 345.76 218.97 346.96 220.23 347.51C221.5 348.06 224.74 348.62 227.44 348.76C230.13 348.9 232.34 348.8 232.34 348.54C232.35 348.29 233.51 347.99 234.93 347.88C236.34 347.77 237.59 347.6 237.7 347.49C237.82 347.38 236.19 345.3 234.1 342.86C232 340.42 229.67 337.63 228.91 336.65C228.16 335.67 225.89 331.26 223.87 326.84C221.85 322.42 219.16 316.25 217.89 313.14C216.23 309.04 214.06 306.01 210.05 302.18C207 299.28 202.81 295.86 200.75 294.6C198.6 293.28 194.75 292.02 191.72 291.64C188.72 291.27 186.57 291.35 186.76 291.83Z" />
		<path id="Path 10" class="shp9" d="M289.76 304.11C290.11 304.52 289.74 306.72 288.94 309.01C288.14 311.3 287.45 314.33 287.4 315.74C287.36 317.15 286.21 320.58 284.85 323.37L282.38 328.44C285.62 328.89 289.61 329 293.33 328.97C299.24 328.93 300.06 328.71 299.75 327.28C299.56 326.38 298.19 322.45 296.69 318.56C295.2 314.67 293.4 310.1 292.7 308.41C291.99 306.73 291.42 304.92 291.44 304.41C291.45 303.9 290.94 303.45 290.3 303.42C289.66 303.39 289.42 303.7 289.76 304.11ZM237.7 306.28C236.65 307.03 232.7 309.11 228.92 310.91C225.13 312.71 222.04 314.5 222.04 314.88C222.04 315.27 224 319.73 226.39 324.81C229.11 330.56 232.81 336.45 236.24 340.48L241.72 346.93C248.65 344.89 251.3 344.17 252.07 344.03C252.85 343.88 255.59 343.5 258.17 343.18C262.42 342.65 263.59 341.9 270.99 334.97C277.61 328.78 278.88 327.16 277.76 326.39C277.01 325.86 274.12 323.93 271.35 322.09C268.57 320.25 264.11 318.25 261.43 317.64C258.75 317.03 255.32 315.86 253.8 315.05C252.28 314.24 248.99 311.63 246.49 309.25C243.99 306.87 241.42 304.92 240.77 304.92C240.13 304.92 238.75 305.53 237.7 306.28ZM357.77 319.7C354.5 320.65 354.25 320.9 355.85 321.63C356.87 322.09 359.3 324 361.25 325.88C363.21 327.76 365.58 330.15 366.52 331.21C367.47 332.26 369.94 335.5 372.01 338.4C374.09 341.31 377.4 346.34 379.36 349.58C381.61 353.29 383.17 355.05 383.58 354.32C383.93 353.69 384.79 347.09 385.48 339.66C386.18 332.24 386.43 325.73 386.05 325.21C385.66 324.68 385.32 323.94 385.29 323.55C385.26 323.17 385.25 322.22 385.27 321.45C385.29 320.68 384.78 320.22 384.13 320.43C383.48 320.63 382.43 320.29 381.8 319.66C381.15 319.02 380.64 318.93 380.64 319.46C380.63 320.01 376.6 320.38 370.83 320.36C364.54 320.33 361.19 319.99 361.48 319.4C361.73 318.89 361.85 318.51 361.74 318.54C361.63 318.58 359.84 319.1 357.77 319.7Z" />
		<path id="Path 11" class="shp6" d="M172.62 319.07C171.5 319.46 167.11 319.86 162.87 319.97C158.63 320.08 152.84 320.57 150 321.06C147.16 321.55 144.72 322.04 144.57 322.14C144.42 322.24 144.16 324.28 143.98 326.66C143.81 329.05 143.88 330.88 144.14 330.73C144.4 330.58 144.53 333.52 144.42 337.28C144.32 341.03 144.55 344.46 144.94 344.9C145.32 345.34 148.93 344.15 152.95 342.25C157.14 340.27 162.04 338.69 164.46 338.55C166.78 338.41 170.96 338.97 173.76 339.81C176.57 340.64 178.88 341.25 178.91 341.17C178.95 341.08 180.36 339.27 182.06 337.13C184.74 333.75 185.01 332.97 184.1 331.12C183.52 329.95 182.63 326.88 182.11 324.29C181.24 319.93 180.95 319.56 177.92 318.98C176.12 318.63 173.74 318.67 172.62 319.07ZM337.13 323.46C334.55 323.87 331.48 324.8 330.3 325.54C328.17 326.89 328.18 326.91 334.52 333.6C338.01 337.29 342.12 342.13 343.64 344.35C345.16 346.58 346.97 349.88 347.66 351.7C348.35 353.51 348.85 357.2 348.76 359.9C348.62 364.22 348.9 365 351.12 366.57C352.51 367.55 356.75 370.02 360.54 372.08C364.34 374.13 368.06 376.4 368.81 377.12C369.56 377.85 371.22 378.55 372.5 378.68C373.78 378.82 375.88 378.88 377.16 378.83C378.62 378.77 380.1 377.78 381.09 376.2C381.97 374.8 383.78 372.64 385.11 371.4L387.54 369.13C383.23 366.38 381.02 363.23 379.18 359.33C377.52 355.82 374.5 350.59 372.47 347.71C370.44 344.83 368.79 342.26 368.8 342.01C368.81 341.75 366.41 338.95 363.47 335.79C360.53 332.63 357.17 329.08 356 327.9C354.83 326.72 353.24 325.73 352.47 325.71C351.7 325.7 350.67 325.26 350.17 324.75C349.67 324.25 347.58 323.58 345.54 323.28C343.49 322.98 339.71 323.06 337.13 323.46Z" />
		<path id="Path 12" class="shp5" d="M134.96 324.49L131.65 326.35L140.75 335.08C141.32 330.92 141.19 328.28 140.81 326.52C140.44 324.76 139.72 323.17 139.21 322.98C138.69 322.79 136.79 323.47 134.96 324.49ZM310.77 331.62C307.67 332.25 304.29 332.99 303.25 333.26C302.22 333.53 296.33 333.78 290.17 333.82C279.25 333.87 278.89 333.95 276.09 336.53L273.21 339.19C283.18 345.22 287.42 347.69 289.06 348.57C290.71 349.45 292.21 349.87 292.41 349.49C292.6 349.11 295.39 347.08 298.6 344.99C301.81 342.89 306.02 340.98 307.95 340.75C309.88 340.51 311.89 340.04 312.41 339.7C312.93 339.36 314.77 337.34 316.5 335.21C318.23 333.07 319.65 331.12 319.66 330.86C319.66 330.6 318.93 330.41 318.03 330.43C317.13 330.44 313.86 330.98 310.77 331.62Z" />
		<path id="Path 13" class="shp8" d="M320.54 335.08C318.91 337.09 317.67 338.93 317.79 339.16C317.92 339.39 321.88 340.23 326.61 341.03C331.33 341.83 335.21 342.17 335.22 341.79C335.24 341.4 333.21 338.93 330.71 336.3C328.21 333.66 325.58 331.49 324.84 331.47C324.11 331.45 322.18 333.07 320.54 335.08Z" />
		<path id="Path 14" class="shp7" d="M122.56 334.37C119.66 337.39 116.18 341.61 114.84 343.76C113.49 345.91 111.51 348.88 110.42 350.38C109.34 351.87 107.69 354.64 106.75 356.54C105.82 358.44 105.04 360.63 105.02 361.4C105 362.18 106.11 363.05 107.53 363.37C109.11 363.73 110.36 363.49 110.8 362.76C111.36 361.85 111.52 361.84 111.5 362.74C111.49 363.38 111.8 363.85 112.19 363.78C112.58 363.7 114.03 364.16 115.43 364.8C116.82 365.43 119.4 367.57 121.15 369.54C124.04 372.79 124.54 373.02 126.45 372C127.62 371.38 131.12 369.59 134.25 368.01L139.93 365.15C139.61 357.61 140.15 354.47 141.12 352.35C142.13 350.16 142.49 347.94 142.12 346.31C141.79 344.89 141.63 343.31 141.75 342.79C141.87 342.28 139.31 338.96 136.07 335.4C132.83 331.85 129.66 328.93 129.01 328.92C128.37 328.91 125.47 331.36 122.56 334.37Z" />
		<path id="Path 15" class="shp8" d="M387.32 351.15L385.87 361.61C390.93 365.97 393.07 366.9 395.23 366.96C397.02 367.02 399.13 366.7 399.91 366.25C401.16 365.53 401.14 364.65 399.7 359.02C398.76 355.33 397.11 351.6 395.81 350.21C394.57 348.9 392.69 346.22 391.62 344.27C390.56 342.31 389.48 340.71 389.22 340.7C388.97 340.69 388.11 345.39 387.32 351.15Z" />
		<path id="Path 16" class="shp9" d="M185.37 340.92C182.92 344.11 181.69 346.63 181.76 348.32C181.82 349.74 181.23 352.66 180.46 354.82C179.68 356.99 178.76 359.9 178.41 361.3C177.91 363.32 178.11 363.87 179.41 363.93C180.3 363.97 182.86 365.2 185.09 366.65C187.32 368.11 190.61 370.82 192.4 372.67C194.18 374.53 196.56 377.22 197.68 378.65C198.79 380.09 200.56 383.07 201.6 385.28C202.64 387.49 204.13 390.35 204.92 391.64C205.71 392.93 206.46 394.63 206.59 395.42C206.72 396.21 206.95 398.54 207.11 400.6C207.38 404.04 207.34 404.12 206.63 401.52C206 399.27 205.92 399.65 206.23 403.38C206.45 405.95 206.78 408.38 206.98 408.77C207.17 409.16 208.17 409.5 209.2 409.53C210.65 409.57 211.08 408.96 211.14 406.78C211.19 405.23 211.63 404.2 212.14 404.47C212.65 404.74 212.83 404.43 212.55 403.79C212.28 403.14 213.04 400.74 214.25 398.46C215.46 396.19 218.08 392.9 220.06 391.15C222.04 389.41 225.37 386.98 227.45 385.75L231.24 383.52C226.61 373.99 224.07 368.35 222.6 364.85C221.14 361.34 219.62 358.48 219.23 358.49C218.85 358.49 217.3 357.38 215.8 356.02C214.3 354.65 211.12 351.82 208.74 349.72C206.36 347.63 203.78 345.89 203.01 345.87C202.24 345.85 199.86 344.4 197.73 342.64C195.59 340.88 192.78 338.69 191.47 337.77L189.09 336.09L185.37 340.92Z" />
		<path id="Path 17" class="shp6" d="M266.93 344.82C265.46 346.18 262.61 347.39 259.84 347.84C257.3 348.25 254.58 348.65 253.81 348.71C253.04 348.78 249.02 349.73 244.89 350.83C239.1 352.36 235.05 352.76 227.33 352.57C221.82 352.44 217.3 352.44 217.3 352.57C217.29 352.69 218.8 354.2 220.64 355.92C222.48 357.64 224.85 359.11 225.92 359.17C226.98 359.24 228.68 359.61 229.7 360C230.71 360.38 234.13 360.87 237.28 361.07C240.78 361.29 242.77 361.79 242.38 362.33C241.98 362.89 242.45 362.97 243.63 362.53C244.67 362.15 247.62 361.73 250.19 361.59C252.76 361.45 258.23 361.22 262.34 361.07C266.46 360.92 272.34 360.72 275.43 360.61C279.26 360.48 282.53 359.67 285.77 358.02C288.37 356.7 290.61 355.43 290.75 355.21C290.88 354.99 289.44 354 287.54 352.99C285.64 351.99 281.4 349.53 278.12 347.52C274.84 345.51 271.73 343.79 271.22 343.69C270.71 343.59 270.09 343.3 269.84 343.03C269.59 342.77 268.28 343.57 266.93 344.82Z" />
		<path id="Path 18" class="shp9" d="M308.56 343.98C307.01 344.34 303.39 345.98 300.52 347.62C297.66 349.25 295.22 350.62 295.12 350.66C295.02 350.69 295.89 352.85 297.06 355.45C298.23 358.05 299.37 361.44 299.6 362.99C299.82 364.53 300.19 366.85 300.4 368.14C300.62 369.43 301.04 371.76 301.33 373.3C301.63 374.85 301.93 377.8 302 379.86C302.07 381.91 301.64 384.15 301.04 384.82C300.15 385.81 300.3 385.91 301.83 385.33C303.21 384.8 303.52 384.91 302.98 385.74C302.58 386.36 302.67 386.88 303.18 386.89C303.7 386.91 304.34 386.5 304.61 386C304.88 385.49 307.63 385.25 310.73 385.47C313.83 385.68 316.67 385.44 317.05 384.93C317.42 384.43 321.39 381.08 325.85 377.5C330.31 373.92 335.98 369.24 338.44 367.11C341.23 364.69 343.32 361.94 344.01 359.77C344.71 357.53 344.77 356.45 344.16 356.74C343.64 356.98 343.25 356.23 343.29 355.08C343.34 353.93 342.45 351.49 341.31 349.66C339.44 346.66 338.7 346.25 333.69 345.53C330.64 345.09 324.37 344.41 319.76 344.02C315.15 343.63 310.11 343.61 308.56 343.98Z" />
		<path id="Path 19" class="shp5" d="M161.52 343.79C160.74 344.18 157.23 345.72 153.72 347.22C150.21 348.72 147.12 350.36 146.85 350.87C146.58 351.38 146.68 351.81 147.06 351.83C147.44 351.86 151.32 352.24 155.67 352.68L163.59 353.49C172.25 348.07 174.93 346.19 175.13 345.81C175.32 345.43 175.07 345.11 174.55 345.09C174.04 345.08 173.31 344.95 172.93 344.8C172.55 344.65 171.82 344.26 171.32 343.93C170.81 343.59 168.72 343.27 166.67 343.2C164.62 343.14 162.3 343.41 161.52 343.79Z" />
		<path id="Path 20" class="shp8" d="M171.54 352.39L168.21 355.01C171.72 358.9 172.95 360.03 173.21 360.04C173.47 360.04 174.37 357.76 175.22 354.96C176.17 351.8 176.4 349.85 175.81 349.82C175.29 349.79 173.36 350.95 171.54 352.39ZM289.15 359.94L285.19 362.13C287.43 366.89 289.82 371.58 291.95 375.61C294.08 379.65 296.14 382.72 296.54 382.44C296.93 382.15 297.22 380.79 297.17 379.42C297.13 378.05 296.3 372.7 295.33 367.54C294.37 362.38 293.47 358.06 293.34 357.96C293.21 357.85 291.32 358.74 289.15 359.94Z" />
		<path id="Path 21" class="shp7" d="M145.46 356.53C144.49 357.48 144.04 358.26 144.47 358.27C144.9 358.29 145.03 358.71 144.76 359.22C144.49 359.72 144.67 360.78 145.16 361.56C145.65 362.34 146.59 362.73 147.24 362.42C147.89 362.11 151.99 362 156.35 362.19C160.71 362.37 165.48 362.67 166.96 362.85C168.9 363.08 169.76 362.71 170.03 361.54C170.26 360.57 169.85 359.9 169.01 359.88C168.24 359.86 167.42 359.21 167.19 358.43C166.88 357.43 164.91 356.82 160.47 356.36C157.02 355.99 152.62 355.5 150.71 355.25C148.19 354.93 146.75 355.28 145.46 356.53ZM226.34 363.32C225.17 364.03 225.15 364.19 226.23 364.23C226.96 364.26 227.29 364.59 226.96 364.97C226.63 365.34 227.35 367.99 228.55 370.85C229.76 373.7 231.33 376.69 232.04 377.48C232.75 378.27 233.53 378.71 233.77 378.46C234.01 378.21 234.46 376.96 234.77 375.68C235.08 374.41 235.81 371.7 236.38 369.66C236.96 367.62 237.44 365.64 237.47 365.25C237.49 364.87 236.77 364.54 235.87 364.53C234.98 364.51 233.72 363.95 233.09 363.28C232.18 362.32 231.94 362.31 231.93 363.24C231.91 364.09 231.42 364.14 230.07 363.42C229.06 362.88 228.12 362.44 228 362.44C227.87 362.45 227.12 362.84 226.34 363.32Z" />
		<path id="Path 22" class="shp9" d="M258.71 364.3C259.21 365.21 259.02 365.4 258.04 364.97C257.27 364.63 253.85 364.55 250.43 364.78C247.01 365.02 244.39 364.9 244.61 364.52C244.82 364.14 244.61 363.82 244.13 363.8C243.65 363.79 242.59 364.39 241.76 365.14C240.93 365.89 240.24 367.23 240.22 368.13C240.21 369.03 239.39 372.15 238.4 375.07L236.61 380.38C242.42 379.66 245.56 379.74 247.35 380.08C249.17 380.43 252.05 382.09 253.9 383.87C255.71 385.61 258.55 389.17 260.21 391.78C261.86 394.4 264.65 398.26 266.39 400.36C268.14 402.46 270.36 405.98 271.32 408.18C272.29 410.39 273.29 412.21 273.55 412.23C273.8 412.25 274.81 409.97 275.79 407.17C277.22 403.03 279.1 400.55 285.63 394.11L293.7 386.17C289.49 377.37 288.03 374.6 287.73 374.33C287.44 374.07 286.21 371.72 285 369.12L282.79 364.39C271.95 364.1 267.11 364.22 265.05 364.48C262.99 364.73 260.56 364.51 259.65 363.98C258.36 363.23 258.16 363.3 258.71 364.3Z" />
		<path id="Path 23" class="shp7" d="M345.21 368.18C344.18 369.14 341.73 370.8 339.77 371.86C337.82 372.92 336.42 374.22 336.66 374.74C336.9 375.26 336.79 375.68 336.4 375.67C336.02 375.66 334.41 376.79 332.83 378.17C331.25 379.56 328.31 381.89 326.3 383.36L322.64 386.02C327.41 388.52 332.02 390.22 335.97 391.41C339.92 392.61 346.66 395.57 350.96 398C355.26 400.43 358.99 402.42 359.24 402.43C359.5 402.44 360.61 400.26 361.71 397.6C362.82 394.93 364.6 389.83 365.68 386.27C366.77 382.7 367.53 379.57 367.39 379.31C367.24 379.05 365.1 377.97 362.63 376.9C360.15 375.83 355.86 373.48 353.08 371.69C350.31 369.89 347.82 367.97 347.57 367.43C347.28 366.83 346.35 367.13 345.21 368.18Z" />
		<path id="Path 24" class="shp5" d="M395.12 370.67C394.13 371.23 393.93 371.99 394.47 373.2C394.89 374.16 395.51 376.63 395.84 378.69C396.17 380.75 396.03 383.8 395.54 385.45C394.65 388.43 394.67 388.46 397.9 388.55C401.05 388.64 401.2 388.49 402.16 384.23C402.7 381.81 402.99 378.14 402.79 376.08C402.6 374.02 402.27 371.81 402.06 371.16C401.85 370.51 400.52 369.96 399.11 369.93C397.7 369.9 395.91 370.23 395.12 370.67ZM153.38 366.26C152.16 366.75 151.23 367.5 151.33 367.94C151.42 368.38 153.66 370.24 156.31 372.07C158.95 373.91 162.65 376.95 164.53 378.83C167.85 382.18 168.27 382.32 182.33 384.75C190.24 386.12 196.73 387.04 196.74 386.78C196.75 386.52 196.01 385.03 195.09 383.47C194.17 381.9 192.24 379.28 190.81 377.64C189.38 376 186.82 373.83 185.11 372.82C183.41 371.8 180.72 370.21 179.14 369.28C177.29 368.18 174.12 367.5 170.21 367.35C166.87 367.23 162.47 367 160.42 366.84C158.37 366.68 156.45 366.28 156.15 365.96C155.85 365.63 154.6 365.77 153.38 366.26Z" />
		<path id="Path 25" class="shp9" d="M385.72 375.15C384.62 376.66 383.82 378.05 383.95 378.23C384.07 378.42 385.74 378.89 387.65 379.27C390.39 379.82 391.14 379.67 391.17 378.56C391.19 377.79 390.82 376.1 390.34 374.81C389.86 373.51 389.08 372.44 388.6 372.42C388.11 372.41 386.82 373.64 385.72 375.15Z" />
		<path id="Path 26" class="shp10" d="M105.46 367.71C103.84 368.78 103.84 368.92 105.63 370.75C106.81 371.95 108.04 372.42 108.93 372.01C109.71 371.64 110.55 371.77 110.79 372.29C111.04 372.84 112.03 372.57 113.12 371.65C114.52 370.49 114.72 369.88 113.89 369.36C113.26 368.96 111.39 368.59 109.72 368.54C108.04 368.49 106.9 368.03 107.15 367.52C107.4 367.02 107.51 366.6 107.39 366.6C107.26 366.59 106.4 367.09 105.46 367.71Z" />
		<path id="Path 27" class="shp6" d="M139.78 370.37C137.7 371.39 133.23 373.65 129.84 375.39C126.46 377.13 123.47 378.8 123.21 379.1C122.94 379.39 120.39 380.6 117.53 381.78C114.67 382.95 111.69 384.38 110.91 384.94C110.12 385.51 108.63 386.29 107.59 386.68C106.56 387.07 105.39 387.31 105.01 387.22C104.63 387.13 104.3 387.47 104.29 387.98C104.28 388.5 105.41 389.23 106.81 389.6C108.22 389.98 110.19 390.84 111.2 391.51C112.2 392.18 114.49 392.99 116.28 393.32C118.07 393.64 123.5 394.72 128.35 395.72C133.2 396.72 137.91 397.5 138.81 397.45C139.71 397.41 140.27 397.69 140.05 398.07C139.83 398.45 140.87 398.79 142.36 398.83C143.85 398.87 145.07 398.59 145.09 398.2C145.1 397.82 145.63 397.52 146.28 397.54C146.92 397.56 150.67 394.9 154.61 391.63C158.55 388.35 162.14 384.98 162.6 384.14C163.2 383.02 162.72 381.85 160.85 379.86C159.43 378.35 155.59 375.21 152.32 372.88C149.04 370.56 145.74 368.62 144.97 368.58C144.2 368.54 141.87 369.35 139.78 370.37Z" />
		<path id="Path 28" class="shp7" d="M100.9 372.72C100.85 373.1 100.7 374.7 100.57 376.27C100.4 378.36 100.76 379.17 101.96 379.34C102.85 379.46 103.39 379.14 103.15 378.62C102.9 378.1 103.13 377.68 103.64 377.7C104.15 377.71 104.8 377.1 105.08 376.34C105.35 375.57 104.97 374.3 104.22 373.51C103.47 372.72 102.44 372.06 101.93 372.05C101.41 372.03 100.95 372.34 100.9 372.72Z" />
		<path id="Path 29" class="shp8" d="M116.3 374.36C115.28 374.74 113.4 375.06 112.11 375.06C110.6 375.06 108.84 376.19 107.12 378.26C105.66 380.02 104.78 381.66 105.16 381.9C105.54 382.15 108.83 380.89 112.47 379.11C116.11 377.33 119.31 375.74 119.57 375.59C119.83 375.44 119.62 374.94 119.1 374.49C118.58 374.03 117.32 373.97 116.3 374.36ZM366.58 393.3C364.31 399.4 362.44 405.02 362.42 405.79C362.39 406.75 363.04 407.06 364.49 406.79C365.65 406.57 367.97 406.42 369.64 406.46C372.15 406.52 372.68 406.17 372.75 404.43C372.79 403.28 373.89 399.63 375.19 396.33C376.49 393.03 377.86 388.55 378.24 386.38L378.93 382.43L370.71 382.21L366.58 393.3Z" />
		<path id="Path 30" class="shp10" d="M382.22 383.45C381.92 383.96 381.78 384.39 381.91 384.41C382.04 384.42 381.31 387.24 380.29 390.66C379.27 394.09 378.29 397.72 378.11 398.75C377.94 399.77 377.5 401.12 377.15 401.75C376.79 402.39 376.71 402.91 376.97 402.92C377.23 402.92 378.73 401.7 380.31 400.21C381.89 398.71 383.61 397.5 384.12 397.51C384.63 397.52 385.08 397.01 385.12 396.37C385.16 395.73 385.83 394.8 386.62 394.31C387.4 393.82 388.42 391.96 388.88 390.17C389.34 388.39 390.02 385.99 390.39 384.84C391.01 382.91 390.77 382.75 386.91 382.65C384.62 382.59 382.51 382.95 382.22 383.45Z" />
		<path id="Path 31" class="shp6" d="M235.45 386.73C232.82 388.04 230.05 389.63 229.29 390.27C228.53 390.91 227.05 392.03 226 392.76C224.14 394.05 224.17 394.15 227.28 396.99C229.04 398.6 231.91 400.96 233.68 402.24C236.01 403.94 238.4 404.69 242.47 405C245.54 405.23 249.09 405.98 250.36 406.65C251.62 407.33 253.7 408.13 254.98 408.43C256.25 408.73 258.13 409.28 259.15 409.65C260.16 410.03 262.36 410.4 264.02 410.49C265.68 410.57 267.06 410.33 267.07 409.95C267.08 409.56 266.67 409.23 266.16 409.22C265.65 409.21 265.45 408.78 265.72 408.27C265.99 407.77 264.52 405.31 262.45 402.82C260.39 400.32 257.25 396 255.48 393.21C253.71 390.42 251.34 387.52 250.2 386.76C249.07 386.01 246.36 385.15 244.19 384.86C241.14 384.46 239.14 384.89 235.45 386.73ZM310.66 389.43C310.6 389.94 308.77 390.37 306.59 390.39C304.41 390.4 301.1 390.61 299.25 390.85C297.4 391.08 295.28 391.84 294.54 392.54C293.65 393.37 293.23 395.46 293.29 398.62L293.39 403.43C301.6 407.63 304.49 409.39 305.12 410.05C305.74 410.71 308.03 411.37 310.21 411.51C312.39 411.65 315.22 411.91 316.5 412.09C317.78 412.28 320.29 412.68 322.08 412.98C323.86 413.29 328.89 413.9 333.24 414.34C337.6 414.77 341.36 415.29 341.61 415.48C341.87 415.66 345.95 416.17 350.69 416.6L359.3 417.37C358.84 411.93 358.38 409.56 357.98 408.58C357.58 407.59 352.78 404.53 347.13 401.65C341.56 398.81 334.08 395.53 330.52 394.36C326.96 393.18 321.54 391.76 318.47 391.19C315.41 390.62 312.58 390.31 312.19 390.5C311.8 390.7 311.32 390.32 311.12 389.68C310.92 389.03 310.71 388.92 310.66 389.43Z" />
		<path id="Path 32" class="shp10" d="M169.58 387.51C169.6 388.24 171.48 393.62 173.75 399.46C176.02 405.29 178.19 410.19 178.58 410.32C178.98 410.46 179.07 410.99 178.8 411.5C178.53 412 178.8 412.43 179.4 412.45C180 412.46 180.21 412.78 179.88 413.16C179.54 413.54 179.85 415.02 180.57 416.45C181.41 418.15 182.44 418.93 183.51 418.7C184.41 418.51 186 418.15 187.03 417.9C188.07 417.65 189.47 416.5 190.15 415.35C190.83 414.19 193.61 412.2 196.34 410.94L201.29 408.63C202.06 396.38 201.83 395.03 200.31 393.41C199.31 392.36 196.93 391.06 195.02 390.53C193.11 390 189.45 389.28 186.89 388.92C184.33 388.57 180.99 388.01 179.46 387.67C177.92 387.34 175.07 386.87 173.11 386.62C170.46 386.29 169.55 386.52 169.58 387.51Z" />
		<path id="Path 33" class="shp8" d="M160.14 391.08C157.29 393.48 153.24 396.75 151.15 398.35L147.34 401.27C149.73 406.42 150.41 408.34 150.4 408.85C150.39 409.37 151.45 412.76 152.76 416.4C154.83 422.13 155.46 423.01 157.48 423.07C158.76 423.11 163.61 422.59 168.25 421.94C172.89 421.28 177.21 420.55 177.86 420.32C178.71 420.02 178.2 417.97 176.07 413.06C174.43 409.29 171.42 401.96 169.38 396.77C167.34 391.58 165.6 387.19 165.5 387.02C165.4 386.85 162.99 388.68 160.14 391.08Z" />
		<path id="Path 34" class="shp6" d="M392.1 395.76C390.52 397.3 389.43 398.71 389.68 398.9C389.93 399.08 392.64 400.19 395.68 401.36C398.73 402.54 404.37 403.87 408.21 404.33C413.05 404.9 415.41 404.84 415.92 404.11C416.32 403.54 415.93 402.3 415.06 401.36C414.18 400.42 411.61 398.45 409.34 397C406.82 395.38 403.22 394.07 400.1 393.65C395.27 393 394.82 393.12 392.1 395.76Z" />
		<path id="Path 35" class="shp7" d="M100.89 392.09C100.61 392.9 99.95 393.18 99.3 392.75C98.58 392.27 98.36 392.5 98.67 393.43C98.96 394.3 100.02 394.75 101.4 394.59C102.64 394.45 104.08 393.95 104.61 393.48C105.24 392.9 105.1 392.3 104.19 391.69C103.43 391.19 102.49 390.76 102.09 390.74C101.69 390.72 101.15 391.33 100.89 392.09ZM288.18 397.82C287.53 398.5 287.29 399.48 287.66 400.01C288.03 400.53 288.02 400.63 287.65 400.24C287.27 399.84 286.4 400.03 285.71 400.65C285.01 401.28 283.28 403.64 281.85 405.91C280.3 408.38 279.2 411.46 279.13 413.54C279.07 415.47 279.44 417.05 279.95 417.07C280.46 417.08 281.65 415.96 282.58 414.57C283.51 413.18 284.71 411.38 285.25 410.57C285.79 409.76 287.23 407.38 288.44 405.29C290.04 402.54 290.47 400.81 290.01 399.03C289.48 397.01 289.16 396.8 288.18 397.82ZM218.3 400.68C216.63 403.74 215.85 406.28 216.17 407.62C216.44 408.78 216.35 409.9 215.95 410.1C215.56 410.29 215.39 412.66 215.58 415.35C215.82 418.84 216.43 420.6 217.74 421.53C219.37 422.69 219.94 422.52 222.96 419.92C224.82 418.31 226.87 415.96 227.53 414.7C228.18 413.43 229.61 410.95 230.7 409.18L232.69 405.97C228.65 402.24 226.54 400.5 225.38 399.7C224.23 398.9 222.76 397.7 222.11 397.05C221.16 396.08 220.43 396.77 218.3 400.68ZM382.26 405.13C378.43 408.18 377.63 409.26 378.47 410.23C379.06 410.92 380.69 411.49 382.1 411.5C383.51 411.52 385.7 412.19 386.96 412.99C388.23 413.8 389.68 414.26 390.2 414.02C390.72 413.77 391.16 413.15 391.17 412.64C391.19 412.13 391.74 411.14 392.4 410.45C393.06 409.75 394.36 408.32 395.29 407.26C396.95 405.36 396.91 405.3 392.59 403.58C390.18 402.61 387.96 401.7 387.66 401.54C387.36 401.39 384.93 403 382.26 405.13Z" />
		<path id="Path 36" class="shp9" d="M104.98 396.97L98.86 398.87C99.13 404.44 99.31 406.89 99.43 407.92C99.56 408.96 102.08 411.63 105.06 413.88C109.19 417 111.36 418 114.2 418.11C116.25 418.19 125.04 419.63 133.72 421.3C142.41 422.97 149.93 424.21 150.45 424.06C150.97 423.9 151.32 422.73 151.22 421.46C151.13 420.18 150.63 419.13 150.12 419.12C149.61 419.1 149.26 418.78 149.35 418.39C149.45 418.01 149.29 417.06 149.01 416.28C148.73 415.51 147.91 412.54 147.18 409.7C146.46 406.85 145.56 404.01 145.19 403.39C144.82 402.76 142.84 401.94 140.8 401.57C138.75 401.2 136.04 400.7 134.76 400.46C133.48 400.23 128.89 399.3 124.54 398.41C120.2 397.52 115.4 396.4 113.88 395.93C111.84 395.3 109.47 395.58 104.98 396.97ZM398.15 408.82C397.16 410.1 395.58 412.33 394.64 413.78L392.94 416.42C399.18 416.62 399.63 416.85 398.51 417.61C397.37 418.38 397.47 418.45 398.97 417.92C400 417.55 404.49 417.11 408.95 416.93C413.4 416.76 417.29 416.41 417.6 416.17C417.91 415.92 418.41 414.36 418.71 412.69C419.05 410.85 418.82 409.35 418.12 408.83C417.49 408.36 413.15 407.65 408.46 407.24C400.17 406.53 399.9 406.57 398.15 408.82Z" />
		<path id="Path 37" class="shp8" d="M288.92 410.54C287.44 412.94 285.11 416.25 283.74 417.89C282.37 419.54 281.45 421.06 281.7 421.28C281.95 421.5 284.42 423.45 287.19 425.62C289.95 427.8 292.95 429.59 293.85 429.6C294.98 429.62 296.76 427.09 299.67 421.3C302.36 415.98 303.54 412.68 302.96 412.16C302.46 411.72 299.87 410.2 297.22 408.78C294.56 407.36 292.21 406.2 291.99 406.19C291.78 406.19 290.39 408.14 288.92 410.54Z" />
		<path id="Path 38" class="shp9" d="M232.26 413.1C230.28 416.31 227.33 420.15 225.71 421.65C224.09 423.15 222.76 424.69 222.76 425.07C222.76 425.46 224.42 426.66 226.44 427.74C228.47 428.82 231.7 429.78 233.62 429.87C236.32 429.99 236.69 430.19 235.23 430.72C234.18 431.1 238.3 431.46 244.54 431.52C251.69 431.59 256.77 431.19 258.58 430.42C260.14 429.75 263.25 427.46 265.49 425.33C268.46 422.5 269.39 421 268.93 419.8C268.48 418.63 268.62 418.36 269.42 418.88C270.04 419.28 270.56 419.19 270.57 418.68C270.58 418.16 270.18 417.73 269.66 417.72C269.15 417.7 268.85 417.18 268.99 416.56C269.16 415.84 266.93 414.97 262.76 414.13C259.18 413.42 254.29 411.91 251.88 410.77C249.47 409.64 244.89 408.38 241.69 407.99L235.87 407.26L232.26 413.1ZM304.34 418.31C302.95 420.45 301.88 422.76 301.96 423.44C302.03 424.12 301.12 426.06 299.94 427.75C298.09 430.37 297.98 430.93 299.16 431.59C299.92 432.02 301.38 432.19 302.42 431.97C303.98 431.64 304.06 431.74 302.87 432.58C301.72 433.39 301.9 433.5 303.79 433.14C305.08 432.9 309.43 432.48 313.46 432.21C317.49 431.94 320.95 432.04 321.16 432.43C321.36 432.82 322.05 433.15 322.69 433.16C323.46 433.17 323.38 432.88 322.48 432.31C321.53 431.7 322.4 431.45 325.3 431.48C327.61 431.51 332.25 430.81 335.62 429.93C338.98 429.05 343.65 427.37 345.99 426.2C348.33 425.03 351.32 423.41 352.62 422.6C354.98 421.13 354.94 421.11 348.03 419.85C344.2 419.16 340.02 418.31 338.74 417.98C337.47 417.64 332.86 417.17 328.5 416.92C324.15 416.67 317.49 416 313.71 415.44L306.85 414.42L304.34 418.31Z" />
		<path id="Path 39" class="shp5" d="M374.6 417.78C372.81 419.56 372.81 419.61 374.63 420.32C375.64 420.72 378.36 421.04 380.68 421.02C382.99 421.01 385.62 420.88 386.52 420.74C387.42 420.61 388.18 420.08 388.2 419.56C388.22 419.05 386.88 418.07 385.22 417.39C383.56 416.71 380.91 416.11 379.31 416.06C377.63 416.01 375.66 416.73 374.6 417.78Z" />
		<path id="Path 40" class="shp6" d="M201.61 413.95C200.83 414.41 200.54 415.13 200.96 415.55C201.39 415.98 203.37 416.48 205.37 416.66C207.36 416.84 209 416.78 209.01 416.53C209.02 416.27 208.41 415.41 207.66 414.62C206.91 413.83 205.57 413.17 204.67 413.15C203.77 413.14 202.39 413.5 201.61 413.95Z" />
		<path id="Path 41" class="shp8" d="M193.9 418.05C192.79 419.27 192.8 419.63 193.97 420.39C194.72 420.89 198.05 422.22 201.35 423.34C204.66 424.47 208.94 425.42 210.87 425.47C212.79 425.51 214.38 425.23 214.41 424.84C214.43 424.46 213.52 423.18 212.38 422.01C210.91 420.48 209.18 419.83 206.35 419.74C204.17 419.67 200.83 418.93 198.93 418.09C197.03 417.26 195.41 416.58 195.34 416.6C195.27 416.61 194.62 417.26 193.9 418.05Z" />
		<path id="Path 42" class="shp10" d="M371.39 424.12C371.3 424.69 371.65 424.97 372.17 424.73C372.69 424.48 373.21 424.71 373.32 425.23C373.44 425.74 375.63 426.37 378.19 426.62C380.76 426.88 383.9 426.59 385.21 425.97C387.44 424.93 387.34 424.86 383.37 424.85C381.06 424.84 377.46 424.43 375.37 423.95C372.72 423.34 371.51 423.39 371.39 424.12Z" />
		<path id="Path 43" class="shp8" d="M384.26 426.37C383.48 426.8 382.01 426.88 380.99 426.54C379.69 426.1 379.34 426.26 379.81 427.07C380.18 427.7 381.21 428.26 382.11 428.31C383.01 428.35 384.31 427.76 385.01 426.99C385.71 426.21 386.15 425.58 385.98 425.58C385.82 425.59 385.05 425.94 384.26 426.37Z" />
	</g>
</svg>