<svg xmlns="http://www.w3.org/2000/svg" viewBox="0 0 520 600" width="520" height="600">
	<style>
		tspan { white-space:pre }
		.shp0 { fill: #808080 } 
		.shp1 { fill: #000000 } 
		.shp2 { fill: #b8b8b8 } 
		.shp3 { fill: #686a68 } 
		.shp4 { fill: #939393 } 
		.shp5 { fill: #c7c7c7 } 
		.shp6 { fill: #a7a7a7 } 
		.shp7 { fill: #656565 } 
		.shp8 { fill: #454545 } 
		.shp9 { fill: #848484 } 
		.shp10 { fill: #4c4c4c } 
	</style>
	<path id="Background" class="shp0" d="M260.16 -0.7L520.31 149.5L520.31 449.91L260.16 600.11L0 449.91L0 149.5L260.16 -0.7Z" />
	<g id="Layer 1">
		<path id="Path 0" class="shp1" d="M257.45 18.92C256.93 19.42 250.65 23.18 243.5 27.27C236.35 31.36 219.92 40.78 207 48.2C194.07 55.63 178.89 64.47 173.25 67.85C167.61 71.23 162.77 74 162.5 74C162.22 74 158.74 75.94 154.75 78.32C150.76 80.7 143 85.26 137.5 88.45C132 91.64 124.57 95.95 121 98.02C117.42 100.09 108.87 105.02 102 108.99C95.12 112.96 85.45 118.58 80.5 121.47C75.55 124.36 69.47 127.85 67 129.23C64.52 130.6 56.42 135.23 49 139.5C41.57 143.78 31.45 149.63 26.5 152.52C21.55 155.4 17.16 158.49 16.75 159.38C16.34 160.27 15.99 223.66 15.98 300.25C15.97 411.13 16.22 439.84 17.23 441.15C17.93 442.05 21.54 444.64 25.25 446.9C28.96 449.15 32.22 451 32.5 451C32.77 451 38.06 454.01 44.25 457.69C50.44 461.37 60 466.9 65.5 469.99C71 473.08 81.35 479 88.5 483.16C95.65 487.32 105.89 493.26 111.25 496.36C116.61 499.46 125.39 504.55 130.75 507.66C136.11 510.77 144.77 515.79 150 518.81C155.22 521.83 160.85 525.07 162.5 526C164.15 526.93 176.97 534.33 191 542.45C205.02 550.57 224.37 561.73 234 567.24C243.62 572.75 253.19 578.33 255.25 579.63C257.31 580.93 259.9 582 261 582C262.1 582 265.81 580.27 269.25 578.15C272.69 576.04 280.22 571.58 286 568.26C291.77 564.94 309.55 554.68 325.5 545.47C341.45 536.25 356.97 527.36 360 525.71C363.02 524.06 365.95 522.37 366.5 521.96C367.05 521.55 372 518.62 377.5 515.45C383 512.28 395.82 504.88 406 499C416.17 493.13 431.25 484.42 439.5 479.64C447.75 474.86 454.61 470.96 454.75 470.98C454.89 470.99 460.51 467.72 467.25 463.72C473.99 459.72 485.06 453.31 491.86 449.47C499.75 445.02 504.54 441.69 505.11 440.25C505.62 438.97 506.01 378.35 506.02 299.25C506.03 188.78 505.78 160.16 504.77 158.83C504.07 157.91 499 154.58 493.5 151.43C488 148.27 482.15 144.92 480.5 143.97C478.85 143.02 470.3 138.07 461.5 132.96C452.7 127.85 442.57 122.03 439 120.04C435.42 118.05 427.1 113.23 420.5 109.34C413.9 105.45 403.55 99.43 397.5 95.97C391.45 92.5 382.22 87.23 377 84.24C371.77 81.26 367.05 78.47 366.5 78.05C365.95 77.63 363.02 75.93 360 74.27C356.97 72.62 346.17 66.4 336 60.47C325.82 54.54 314.12 47.81 310 45.51C305.87 43.22 298.45 38.96 293.5 36.04C288.55 33.12 280.9 28.71 276.5 26.24C272.1 23.78 267.26 20.91 265.75 19.88C264.24 18.85 261.96 18 260.7 18C259.43 18 257.97 18.41 257.45 18.92Z" />
		<path id="Path 1" class="shp2" d="M244.92 32.25C236.44 37.2 219.15 47.22 206.5 54.51C193.85 61.81 176.52 71.82 168 76.75C159.47 81.69 140.57 92.6 126 101.01C111.42 109.42 88.25 122.81 74.5 130.75C60.75 138.7 43.09 148.87 35.26 153.35L21.02 161.5L21.02 438.5C43.09 451.15 60.75 461.32 74.5 469.26C88.25 477.2 111.42 490.58 126 498.99C140.57 507.4 156.77 516.75 162 519.76C167.22 522.78 189.05 535.38 210.5 547.76C231.95 560.15 251.97 571.75 255 573.56C260.3 576.72 260.61 576.78 263.5 575.26C265.15 574.4 279.32 566.29 295 557.25C310.67 548.2 329.12 537.53 336 533.54C342.87 529.55 362 518.5 378.5 508.98C395 499.47 417.95 486.21 429.5 479.53C441.05 472.84 458.6 462.72 468.5 457.04C478.4 451.35 489.65 444.85 493.5 442.59L500.5 438.48C501.04 188.4 500.85 162.28 499.8 161.34C499.08 160.7 492.65 156.83 485.5 152.73C478.35 148.64 462.15 139.32 449.5 132.02C436.85 124.72 420.87 115.5 414 111.53C407.12 107.56 385.3 94.94 365.5 83.5C345.7 72.05 324.77 59.98 319 56.68C313.22 53.38 299.05 45.19 287.5 38.48C275.95 31.77 265.11 25.59 263.42 24.76C260.36 23.26 260.24 23.3 244.92 32.25Z" />
	</g>
	<path id="Path 0" class="shp3" d="M250 63.95C244.77 67.1 228.8 76.44 214.5 84.69C200.2 92.94 172.52 108.93 153 120.21C133.47 131.5 102.44 149.38 84.02 159.96L50.55 179.18L50.95 421.5C72.3 433.82 98.3 448.83 122.5 462.79C146.7 476.76 170.55 490.56 175.5 493.47C180.45 496.37 196.65 505.73 211.5 514.26C226.35 522.79 243.22 532.52 249 535.89C254.77 539.25 260.17 541.99 261 541.98C261.82 541.97 277.35 533.35 295.5 522.83C313.65 512.32 341.55 496.18 357.5 486.97C373.45 477.76 399.55 462.7 415.5 453.5C431.45 444.3 450.46 433.33 457.74 429.13L470.97 421.5L471.09 179.5C421.81 150.9 389.27 132.07 367 119.2C344.72 106.33 322.45 93.44 317.5 90.55C312.55 87.66 300.17 80.54 290 74.72C279.82 68.91 269.25 62.75 266.5 61.04C263.75 59.33 261.05 57.99 260.5 58.07C259.95 58.14 255.22 60.79 250 63.95Z" />
	<path id="Path 0" class="shp4" d="M241 68.72C230.82 74.64 183.8 101.8 136.5 129.1L50.5 178.72L49.97 264.5C65.77 263.93 68.88 264.32 74.5 266.17C79.26 267.73 84.78 270.79 91.75 275.73C97.39 279.73 104.47 285.47 107.5 288.5C111.07 292.07 113.09 294.96 113.25 296.73C113.49 299.35 113.88 299.53 123 301.25C128.22 302.23 142.62 304.85 155 307.08C167.37 309.3 198.65 314.5 224.5 318.63C257.4 323.89 272.85 325.96 276 325.55C278.47 325.23 283.42 323.59 287 321.9C290.57 320.22 298.22 315.57 304 311.57C309.77 307.56 316.41 303.33 318.75 302.15C321.09 300.97 324.8 300 327 300C330.69 300 331.53 299.43 337.75 292.69C341.46 288.67 347.71 280.9 351.63 275.44C355.55 269.97 361.4 262.99 364.63 259.93C367.86 256.87 372.75 253.08 375.5 251.51C378.25 249.94 381.17 248.03 382 247.26C383.1 246.24 384.97 246.03 389 246.48C392.02 246.82 403.95 249 415.5 251.32L436.5 255.54C462.05 269.46 469.81 273.61 470.23 273.75C470.66 273.89 471 252.62 471 226.5L471 179C452.79 168.38 420.72 149.77 388 130.8C355.27 111.83 313.65 87.7 295.5 77.18C277.35 66.66 261.82 58.03 261 58.01C260.17 57.99 251.17 62.81 241 68.72Z" />
	<path id="Path 0" fill-rule="evenodd" class="shp1" d="M260.75 58.08C261.44 58.04 268.41 61.76 276.25 66.37C284.09 70.97 322 92.96 360.5 115.25C399 137.53 439.63 161.11 471.08 179.5L471 422L453.75 431.86C444.26 437.29 402.52 461.31 361 485.25C319.47 509.19 280.21 531.75 273.75 535.39C267.29 539.02 261.32 542 260.5 542C259.67 542 251.69 537.78 242.75 532.62C233.81 527.46 187.12 500.45 51.5 421.96L50.85 416.73C50.49 413.85 50.14 359.3 49.93 179.5L121.72 138.07C161.2 115.29 207 88.81 223.5 79.22C240 69.64 254.85 60.98 256.5 59.98C258.15 58.98 260.06 58.13 260.75 58.08ZM127.75 140.78L56 182C56 412.47 56.1 419.03 57.75 419.58C58.71 419.9 104.27 446.08 159 477.75C213.72 509.42 259.17 535.5 260 535.7C260.82 535.89 273.9 528.95 289.05 520.28C304.21 511.6 350.21 485.15 391.27 461.5L465.94 418.5L465.93 182.5C344.7 112.39 298.92 85.91 286 78.42C273.07 70.92 262.05 64.62 261.5 64.41C260.95 64.19 246.77 72.02 230 81.79C213.22 91.56 167.21 118.11 127.75 140.78Z" />
	<g id="Layer 6 copy">
		<path id="Path 0" class="shp1" d="M262 235.6C257.32 236.93 249.9 239.8 245.5 241.96C241.1 244.12 236.15 247.07 234.5 248.5C232.85 249.93 230.15 252.35 228.5 253.88C226.85 255.4 222.73 260.67 219.34 265.58C215.95 270.48 212.24 276.64 211.09 279.25C209.51 282.85 208.33 284.15 206.25 284.6C204.74 284.94 200.8 285.88 197.5 286.7C194.2 287.52 190.6 288.65 189.5 289.22C188.4 289.79 186.46 291.21 185.19 292.37C183.92 293.54 181.99 297.42 180.89 301C179.36 306.01 178.97 309.71 179.2 317.16L179.5 326.82C164 327.85 156.8 328.55 153.5 329.05C150.2 329.54 145.7 330.21 143.5 330.53C141.3 330.84 137.25 331.73 134.5 332.5C131.75 333.26 127.47 335.32 125 337.07C122.52 338.82 118.24 342.55 115.47 345.37C112.71 348.19 108.61 353.2 106.36 356.5C104.12 359.8 100.86 365.2 99.12 368.5C97.38 371.8 95.68 376.52 95.35 379C95.01 381.47 94.01 384.34 93.12 385.37C92.17 386.47 91.36 389.56 91.15 392.87C90.94 396.38 91.41 400.1 92.4 402.75C93.95 406.88 93.93 407.08 91.69 409.75C90.42 411.26 89.03 413.85 88.62 415.5C88.2 417.15 88.34 420.3 88.92 422.5C89.51 424.7 89.99 427.74 89.99 429.25C90 430.76 91.06 433.24 92.36 434.75C93.66 436.26 97.49 439.19 100.86 441.25C105.9 444.33 108.21 445.09 113.75 445.49C117.46 445.77 125.9 446.87 132.5 447.94C139.1 449.01 146.75 449.99 149.5 450.11C152.25 450.23 157.2 449.81 160.5 449.17C163.8 448.53 168.52 447.72 171 447.38C173.47 447.03 179.1 445.69 183.5 444.39L191.5 442.04C196.92 445.42 201.2 447.2 204.5 448.19C207.8 449.18 212.41 449.99 214.75 449.99C217.09 450 220.01 449.59 221.25 449.08C222.98 448.38 224.89 448.85 229.5 451.12C233.89 453.27 238.45 454.45 246.5 455.51C254.85 456.61 258.34 456.69 261 455.85C262.92 455.24 266.3 454.12 268.5 453.36C270.7 452.6 274.64 449.96 277.25 447.49C279.86 445.02 282.34 441.65 282.75 440.01L283.5 437.02C289.82 443.59 293.42 446.73 295.58 448.23C297.74 449.73 302.2 451.91 305.5 453.09C310.81 454.98 312.77 455.15 322.5 454.57C328.55 454.2 335.75 453.66 338.5 453.35C341.25 453.05 346.65 451.93 350.5 450.87C354.35 449.8 360.56 447.26 364.29 445.22C368.03 443.17 372.76 440.01 374.79 438.18C377.81 435.48 378.59 434 379 430.18C379.48 425.67 379.62 425.49 383 425.2C384.92 425.04 387.17 425.15 388 425.45C389.19 425.89 388.92 426.57 386.71 428.75C385.17 430.26 383.44 433.07 382.85 435C382.27 436.92 382.07 439.51 382.4 440.75C382.73 442 384.45 443.64 386.25 444.43C388.04 445.22 392.48 446.23 396.13 446.68L402.75 447.5C408.37 441.69 410 439.1 410 438C410 436.9 410.34 435.99 410.75 435.98C411.16 435.97 416.22 435.72 422 435.43C427.77 435.14 433.96 434.7 435.75 434.45C437.68 434.18 439.59 433.08 440.45 431.75C441.25 430.51 442.11 427.7 442.36 425.5C442.69 422.68 442.12 419.88 440.43 416C438.78 412.21 436.7 409.51 433.77 407.33C431.42 405.59 427.81 403.45 425.75 402.58C423.33 401.56 422.24 400.56 422.66 399.75C423.03 399.06 423.66 395.57 424.06 392C424.67 386.55 424.31 383.56 421.84 373.5C420.22 366.9 418.16 360.37 417.26 359C416.36 357.62 413.77 354.25 411.5 351.5C409.23 348.75 406.89 344.92 406.28 343C405.68 341.07 404.9 336.57 404.56 333C404.22 329.42 402.94 324.5 401.72 322.04C400.5 319.59 396.8 314.68 393.5 311.13C390.2 307.57 384.24 302.04 380.25 298.83C375.4 294.93 371.76 292.8 369.25 292.4C367.19 292.06 361.71 291.05 357.07 290.15L348.64 288.5C343.18 279.2 340.62 275.37 339.42 274C338.23 272.62 335.28 269.24 332.87 266.49C330.47 263.73 327.6 260.33 326.5 258.93C325.4 257.52 321.57 254.48 318 252.17C314.42 249.85 308.12 246.58 304 244.9C299.87 243.22 293.8 240.59 290.5 239.07C287.2 237.54 281.69 235.55 278.25 234.64C274.81 233.74 271.66 233.04 271.25 233.09C270.84 233.13 266.67 234.27 262 235.6Z" />
		<path id="Path 1" class="shp5" d="M264 240.4C260.42 241.67 257.16 242.77 256.75 242.85C256.34 242.93 253.86 243.91 251.25 245.02C248.64 246.14 246.27 247.04 246 247.03C245.72 247.02 244.15 247.87 242.5 248.91L239.5 250.81C256.55 259.19 265.21 263.96 269.75 266.81C274.29 269.66 277.98 271.66 277.96 271.25C277.93 270.84 278.68 271.17 279.62 272C281.21 273.39 281.29 273.24 280.74 270C280.41 268.07 279.4 262.22 278.48 257C277.57 251.77 276.75 245.59 276.66 243.25C276.57 240.91 276.05 238.99 275.5 238.99C274.95 238.98 273.6 238.78 272.5 238.54C271.4 238.3 267.57 239.14 264 240.4Z" />
		<path id="Path 2" class="shp6" d="M280.35 241.72C279.97 242.7 280.2 246.65 280.87 250.5C281.53 254.35 282.23 258.17 282.43 259C282.64 259.82 283.16 264.1 283.61 268.5C284.05 272.9 285 277.06 285.71 277.75C286.42 278.44 286.77 279 286.5 279C286.22 279 287.56 282.04 289.47 285.75C291.38 289.46 293.63 294.19 294.47 296.25C295.31 298.31 296.45 300 297 300C297.55 300 298.22 299.1 298.5 298C298.77 296.9 299.59 295.44 300.3 294.75C301.02 294.06 304.31 289 307.63 283.5C310.94 278 315.04 271.25 316.74 268.5C318.44 265.75 320.09 262.49 320.42 261.25C320.74 260.01 320.55 259 320 259C319.45 259 316.86 257.56 314.25 255.79C311.64 254.03 304.55 250.5 298.5 247.95C292.45 245.4 286.05 242.55 284.27 241.62C281.21 240.02 281 240.02 280.35 241.72Z" />
		<path id="Path 3" class="shp7" d="M234.5 255.32C233.95 256.01 233.05 256.78 232.5 257.03C231.95 257.29 229.89 259.52 227.92 262C225.96 264.47 223.48 268.07 222.42 270C221.37 271.92 220.25 273.72 219.95 274C219.65 274.27 218.3 276.01 216.95 277.86C214.87 280.7 214.73 281.34 216 282.04C216.82 282.5 217.95 282.57 218.5 282.21C219.05 281.85 220.17 281.45 221 281.33C221.82 281.2 224.52 280.82 227 280.47C229.47 280.13 231.72 279.67 232 279.46C232.27 279.25 233.62 278.77 235 278.4C236.37 278.03 239.64 277.67 242.25 277.61C244.86 277.55 247 277.27 247.01 277C247.01 276.72 249.94 276.84 253.51 277.25C258.41 277.82 260.67 278.62 262.75 280.54C264.26 281.94 266.29 283.29 267.25 283.54C268.33 283.82 268.72 284.48 268.26 285.25C267.82 286 267.92 286.2 268.51 285.77C269.05 285.36 270.62 285.92 272 287C273.37 288.08 275.17 289.53 275.98 290.23C276.79 290.93 277.81 291.39 278.23 291.25C278.65 291.11 278.77 291.45 278.5 292C278.22 292.55 278.8 293.56 279.77 294.25C280.75 294.94 282.3 297.3 283.22 299.5C284.14 301.7 285.2 305.52 285.57 308C285.94 310.47 286.4 313.62 286.59 315C286.78 316.37 287.28 320.14 287.72 323.36C288.15 326.58 288.72 329.35 289 329.51C289.27 329.68 289.61 329.18 289.75 328.4C289.89 327.63 290.11 326.1 290.25 325C290.39 323.9 290.72 323 291 323C291.27 323 291.56 321.54 291.62 319.75C291.69 317.96 292 315.6 292.3 314.5C292.6 313.4 292.92 312.5 293.01 312.5C293.09 312.5 293.34 310.47 293.55 308C293.78 305.33 293.31 302.07 292.41 300C291.57 298.07 289.94 294.7 288.79 292.5C287.64 290.3 285.87 286.81 284.85 284.75C283.83 282.69 283.02 280.44 283.04 279.75C283.07 279.06 282.51 278.01 281.79 277.42C281.08 276.82 278.92 275.73 277 274.99C275.07 274.24 270.8 271.75 267.5 269.44C264.2 267.13 256.21 262.71 249.75 259.62C243.29 256.53 237.44 254.02 236.75 254.04C236.06 254.06 235.05 254.64 234.5 255.32Z" />
		<path id="Path 4" class="shp8" d="M313.45 280.25C308.08 289.19 302.34 298.52 300.71 301L297.74 305.5C300.96 311.7 303.01 316.42 304.37 320C305.73 323.57 308 329.09 309.42 332.25C311.82 337.6 312.19 337.96 314.75 337.4C316.26 337.07 319.07 336.44 321 335.99C322.92 335.55 326.64 334.92 329.25 334.59C331.86 334.27 333.99 333.66 333.98 333.25C333.96 332.84 335.65 331.51 337.73 330.3C339.8 329.1 343.3 327.73 345.5 327.26L349.5 326.42C349.98 310.18 349.56 307 347.52 300.5C346.14 296.1 343.32 289.47 341.26 285.77C339.19 282.07 334.73 275.66 331.34 271.52C327.95 267.38 324.73 264 324.2 264C323.66 264 318.82 271.31 313.45 280.25Z" />
		<path id="Path 5" class="shp6" d="M235.5 283.66C232.75 284.39 228.02 285.42 225 285.95C221.97 286.49 218.15 287.18 216.5 287.48C214.85 287.79 212.15 288.29 210.5 288.6C208.85 288.9 204.9 289.91 201.72 290.83C198.54 291.75 195.96 292.84 195.97 293.25C195.99 293.66 196.34 293.81 196.75 293.58C197.16 293.34 198.03 294.35 198.69 295.83C199.34 297.3 201.14 299.7 202.69 301.16C204.23 302.62 209.66 307.91 214.75 312.91C220.55 318.61 224.56 321.81 225.5 321.5C226.32 321.22 227 320.55 227 320C227 319.45 229.36 318.08 232.25 316.96C235.14 315.84 238.85 313.68 240.5 312.16C242.15 310.64 244.5 307.62 245.73 305.45C246.96 303.28 248.18 299.7 248.44 297.5C248.71 295.3 249.17 290.91 249.46 287.75L250 282C242.64 282.27 238.25 282.94 235.5 283.66Z" />
		<path id="Path 6" class="shp8" d="M252.77 291.23C252.21 298.83 251.54 301.54 249.04 306.25L246 312C253.77 317.81 256.02 319.84 256.02 320.25C256.01 320.66 257.24 321.62 258.75 322.37C260.26 323.12 263.75 324.07 266.5 324.47C269.42 324.89 273.79 326.61 277 328.59C280.02 330.46 282.72 331.99 283 331.98C283.27 331.98 282.76 326.02 281.85 318.74C280.94 311.46 279.56 303.92 278.78 302C278 300.07 276.04 297.25 274.43 295.72C272.82 294.19 268.35 290.76 264.5 288.1C260.65 285.44 256.59 282.97 255.47 282.61C253.56 282 253.4 282.51 252.77 291.23ZM188.65 295.75C187.74 296.71 187.33 297.85 187.75 298.28C188.16 298.71 190.52 299.05 193 299.05L197.5 299.05C193.62 295.1 192 293.96 191.4 293.97C190.79 293.99 189.55 294.79 188.65 295.75Z" />
		<path id="Path 7" class="shp5" d="M351.62 295.21C352.07 295.92 352.59 297.62 352.76 299C352.92 300.37 353.35 302.17 353.69 303C354.04 303.82 354.37 304.84 354.41 305.25C354.46 305.66 354.84 306 355.25 306C355.66 306 356.67 306 357.5 306C358.32 306 360.81 304.31 363.03 302.25C365.25 300.19 367.1 298.19 367.14 297.82C367.19 297.45 364.59 296.64 361.36 296.03C358.14 295.42 354.44 294.7 353.14 294.42C351.38 294.05 350.99 294.25 351.62 295.21Z" />
		<path id="Path 8" class="shp6" d="M367.49 302.83C365.3 304.93 361.62 307.74 359.31 309.08L355.12 311.5L355 327C359.26 327.04 362.19 326.36 364.25 325.52C366.33 324.68 370.78 324.03 374.25 324.07C377.69 324.12 383.87 324.1 388 324.03C392.12 323.97 395.87 323.6 396.31 323.21C396.76 322.82 393.16 318.41 388.31 313.4C383.47 308.4 378.04 303.11 376.25 301.65C374.46 300.19 372.66 299 372.24 299C371.83 299 369.69 300.72 367.49 302.83Z" />
		<path id="Path 9" class="shp7" d="M185.51 302.6C185.72 303.09 185.22 304.85 184.39 306.5C183.35 308.59 183.07 311.02 183.49 314.5C183.82 317.25 184.27 321.52 184.49 324C184.72 326.47 185.07 329.17 185.29 330C185.5 330.82 186.01 333.3 186.41 335.5C186.81 337.7 187.67 340.55 188.32 341.83C188.97 343.11 191.75 345.58 194.5 347.31C197.25 349.04 199.61 350.81 199.75 351.23C199.89 351.65 200.67 352 201.5 352C202.32 352 203.11 352.34 203.25 352.75C203.39 353.16 205.07 354.27 207 355.22C208.92 356.17 212.75 357.69 215.5 358.59C218.25 359.5 221.62 360.7 223 361.25C224.37 361.8 227.86 362.31 230.75 362.38C233.64 362.45 236 362.27 236 362C236 361.72 237.23 361.37 238.75 361.22C240.26 361.06 241.59 360.83 241.71 360.72C241.83 360.6 240.03 358.41 237.71 355.86C235.39 353.31 232.81 350.39 231.98 349.36C231.14 348.34 228.58 343.67 226.29 339C223.99 334.32 220.93 327.8 219.49 324.5C217.58 320.16 215.17 316.98 210.76 313C207.41 309.97 202.83 306.44 200.58 305.15C198.24 303.8 194.08 302.56 190.82 302.24C187.59 301.93 185.3 302.09 185.51 302.6Z" />
		<path id="Path 10" class="shp9" d="M296.2 312.72C296.58 313.15 296.25 315.52 295.46 318C294.67 320.47 294.02 323.74 294.01 325.25C294 326.76 292.87 330.47 291.5 333.5L289 339C292.49 339.39 296.76 339.39 300.75 339.25C307.08 339.03 307.95 338.78 307.58 337.25C307.35 336.29 305.76 332.12 304.05 328C302.33 323.87 300.27 319.04 299.47 317.25C298.66 315.46 298 313.55 298 313C298 312.45 297.44 311.99 296.75 311.97C296.06 311.96 295.81 312.29 296.2 312.72ZM240.5 316.58C239.4 317.41 235.23 319.76 231.23 321.79C227.22 323.83 223.96 325.84 223.98 326.25C223.99 326.66 226.22 331.39 228.93 336.75C232.01 342.84 236.14 349.03 239.93 353.25L246 360C253.36 357.61 256.17 356.77 257 356.59C257.82 356.4 260.75 355.91 263.5 355.5C268.04 354.81 269.28 353.97 277 346.33C283.9 339.5 285.22 337.74 284 336.94C283.17 336.4 280.02 334.41 277 332.52C273.97 330.64 269.14 328.62 266.25 328.05C263.36 327.47 259.65 326.32 258 325.5C256.35 324.67 252.75 321.97 250 319.5C247.25 317.02 244.44 315.01 243.75 315.03C243.06 315.05 241.6 315.74 240.5 316.58ZM369.5 327.43C366.02 328.55 365.76 328.82 367.5 329.55C368.6 330.02 371.26 331.99 373.41 333.95C375.56 335.9 378.17 338.4 379.21 339.5C380.25 340.6 382.99 344 385.3 347.05C387.61 350.1 391.3 355.39 393.5 358.81C396.02 362.71 397.74 364.55 398.15 363.76C398.51 363.07 399.24 355.97 399.76 348C400.29 340.02 400.37 333.05 399.95 332.5C399.52 331.95 399.13 331.16 399.09 330.75C399.04 330.34 399 329.32 399 328.5C399 327.67 398.44 327.2 397.75 327.44C397.06 327.68 395.93 327.34 395.23 326.69C394.52 326.02 393.97 325.94 393.98 326.5C393.99 327.09 389.68 327.6 383.5 327.75C376.77 327.91 373.17 327.64 373.46 327C373.72 326.45 373.83 326.03 373.71 326.08C373.6 326.12 371.7 326.73 369.5 327.43Z" />
		<path id="Path 11" class="shp6" d="M171.16 332.18C169.97 332.63 165.29 333.2 160.75 333.44C156.21 333.68 150.02 334.37 147 334.98C143.97 335.59 141.37 336.18 141.22 336.29C141.06 336.41 140.83 338.6 140.72 341.16C140.6 343.72 140.72 345.67 141 345.5C141.27 345.33 141.5 348.49 141.5 352.51C141.5 356.53 141.85 360.2 142.27 360.66C142.7 361.12 146.52 359.74 150.77 357.59C155.21 355.34 160.41 353.51 163 353.28C165.47 353.06 169.97 353.55 173 354.36C176.02 355.17 178.53 355.76 178.56 355.67C178.59 355.58 180.05 353.59 181.81 351.25C184.58 347.56 184.85 346.71 183.81 344.75C183.16 343.51 182.12 340.25 181.49 337.5C180.43 332.85 180.1 332.46 176.84 331.93C174.91 331.61 172.35 331.73 171.16 332.18ZM347.5 332.07C344.75 332.57 341.49 333.66 340.25 334.49C338.01 336 338.02 336.02 345 343C348.85 346.85 353.39 351.91 355.08 354.25C356.78 356.59 358.81 360.07 359.61 362C360.4 363.92 361.04 367.86 361.02 370.75C361 375.38 361.32 376.22 363.75 377.83C365.26 378.83 369.87 381.36 374 383.45C378.12 385.54 382.17 387.86 383 388.61C383.82 389.37 385.62 390.07 387 390.18C388.37 390.28 390.62 390.29 392 390.2C393.56 390.09 395.12 388.98 396.14 387.26C397.03 385.74 398.91 383.37 400.3 382L402.83 379.5C398.13 376.68 395.67 373.38 393.59 369.25C391.71 365.54 388.32 360.02 386.07 357C383.81 353.97 381.96 351.27 381.97 351C381.97 350.72 379.32 347.8 376.08 344.5C372.83 341.2 369.13 337.49 367.84 336.26C366.55 335.03 364.82 334.03 364 334.03C363.17 334.03 362.05 333.6 361.5 333.07C360.95 332.54 358.7 331.89 356.5 331.63C354.3 331.36 350.25 331.56 347.5 332.07Z" />
		<path id="Path 12" class="shp5" d="M130.99 339.09L127.5 341.18L137.5 350.26C137.99 345.8 137.77 342.97 137.32 341.09C136.87 339.22 136.05 337.53 135.49 337.35C134.94 337.16 132.91 337.95 130.99 339.09ZM319.5 341.57C316.2 342.34 312.6 343.24 311.5 343.56C310.4 343.88 304.1 344.31 297.5 344.53C285.81 344.91 285.42 345 282.5 347.86L279.5 350.79C290.35 356.95 294.96 359.47 296.75 360.37C298.54 361.27 300.16 361.66 300.36 361.25C300.56 360.84 303.48 358.59 306.86 356.25C310.24 353.91 314.69 351.75 316.75 351.43C318.81 351.12 320.95 350.56 321.5 350.18C322.05 349.81 323.96 347.59 325.75 345.25C327.54 342.91 329 340.77 329 340.5C329 340.22 328.21 340.04 327.25 340.08C326.29 340.13 322.8 340.8 319.5 341.57Z" />
		<path id="Path 13" class="shp8" d="M330.08 345C328.38 347.2 327.11 349.2 327.25 349.44C327.39 349.68 331.66 350.47 336.74 351.19C341.83 351.91 345.99 352.16 345.99 351.75C346 351.34 343.75 348.75 341 346C338.25 343.25 335.36 341 334.58 341C333.79 341 331.77 342.8 330.08 345Z" />
		<path id="Path 14" class="shp7" d="M118 350.04C114.97 353.35 111.37 357.98 110 360.32C108.62 362.66 106.59 365.91 105.47 367.54C104.35 369.17 102.66 372.19 101.72 374.25C100.77 376.31 100 378.67 100 379.5C100 380.34 101.21 381.24 102.75 381.54C104.45 381.88 105.78 381.59 106.23 380.79C106.8 379.8 106.97 379.79 106.98 380.75C106.99 381.44 107.34 381.93 107.75 381.84C108.16 381.75 109.74 382.2 111.25 382.84C112.76 383.48 115.58 385.69 117.52 387.75C120.71 391.15 121.25 391.38 123.27 390.23C124.5 389.53 128.2 387.51 131.5 385.73L137.5 382.5C136.95 374.43 137.43 371.05 138.41 368.75C139.42 366.37 139.74 363.99 139.29 362.25C138.9 360.74 138.68 359.05 138.79 358.5C138.91 357.95 136.08 354.46 132.5 350.75C128.93 347.04 125.44 344 124.75 344.01C124.06 344.01 121.02 346.73 118 350.04Z" />
		<path id="Path 15" class="shp8" d="M402.07 360.25L400.82 371.5C406.37 376.02 408.69 376.95 411 376.96C412.92 376.96 415.17 376.56 416 376.05C417.32 375.24 417.27 374.31 415.56 368.32C414.45 364.39 412.57 360.44 411.14 359C409.77 357.62 407.67 354.81 406.47 352.75C405.28 350.69 404.07 349 403.8 349C403.53 349 402.75 354.06 402.07 360.25Z" />
		<path id="Path 16" class="shp9" d="M185.47 355.21C182.94 358.7 181.69 361.44 181.81 363.25C181.92 364.76 181.37 367.91 180.61 370.25C179.85 372.59 178.95 375.74 178.61 377.25C178.13 379.43 178.36 380.01 179.75 380.03C180.71 380.05 183.49 381.29 185.92 382.78C188.35 384.28 191.95 387.08 193.92 389.02C195.89 390.95 198.51 393.76 199.75 395.27C200.99 396.77 202.97 399.91 204.14 402.25C205.32 404.59 207.01 407.61 207.89 408.97C208.78 410.33 209.63 412.13 209.79 412.97C209.95 413.81 210.27 416.3 210.5 418.5C210.89 422.18 210.85 422.26 210.01 419.5C209.27 417.11 209.2 417.52 209.64 421.5C209.95 424.25 210.38 426.84 210.6 427.25C210.82 427.66 211.9 428 213 428C214.56 428 215 427.33 215 425C215 423.33 215.44 422.22 216 422.5C216.55 422.77 216.74 422.44 216.42 421.75C216.11 421.06 216.85 418.47 218.09 416C219.32 413.52 222.02 409.92 224.09 408C226.17 406.07 229.66 403.37 231.85 402L235.84 399.5C230.61 389.42 227.72 383.46 226.04 379.75C224.37 376.04 222.66 373.02 222.25 373.03C221.84 373.05 220.15 371.91 218.5 370.49C216.85 369.07 213.36 366.13 210.75 363.96C208.14 361.78 205.32 360 204.5 360C203.67 360 201.09 358.51 198.75 356.69C196.41 354.87 193.33 352.61 191.9 351.66L189.31 349.93L185.47 355.21Z" />
		<path id="Path 17" class="shp6" d="M272.93 357C271.4 358.49 268.38 359.88 265.43 360.44C262.72 360.96 259.82 361.46 259 361.55C258.17 361.65 253.9 362.79 249.5 364.08C243.35 365.89 239.02 366.44 230.75 366.46C224.84 366.48 220 366.61 220 366.75C220 366.89 221.65 368.46 223.68 370.25C225.7 372.04 228.29 373.53 229.43 373.58C230.57 373.62 232.4 373.97 233.5 374.35C234.6 374.73 238.27 375.15 241.66 375.27C245.41 375.41 247.56 375.88 247.16 376.48C246.75 377.09 247.25 377.16 248.5 376.66C249.6 376.22 252.75 375.67 255.5 375.45C258.25 375.23 264.1 374.82 268.5 374.54C272.9 374.26 279.2 373.87 282.5 373.67C286.61 373.42 290.08 372.44 293.5 370.58C296.25 369.09 298.61 367.67 298.75 367.43C298.89 367.2 297.31 366.17 295.25 365.15C293.19 364.13 288.57 361.62 285 359.57C281.42 357.51 278.05 355.76 277.5 355.66C276.95 355.57 276.27 355.27 276 355C275.72 354.72 274.34 355.62 272.93 357Z" />
		<path id="Path 18" class="shp9" d="M317.5 354.88C315.85 355.31 312.02 357.18 309 359.01C305.97 360.85 303.41 362.39 303.3 362.43C303.19 362.47 304.19 364.75 305.52 367.5C306.85 370.25 308.17 373.85 308.46 375.5C308.75 377.15 309.2 379.62 309.47 381C309.74 382.37 310.26 384.85 310.62 386.5C310.98 388.15 311.39 391.3 311.53 393.5C311.66 395.7 311.26 398.1 310.64 398.84C309.72 399.93 309.89 400.03 311.5 399.36C312.97 398.76 313.3 398.87 312.75 399.77C312.34 400.45 312.45 401 313 401C313.55 401 314.22 400.55 314.5 400C314.77 399.45 317.72 399.11 321.04 399.25C324.36 399.39 327.4 399.05 327.79 398.5C328.18 397.94 332.32 394.25 337 390.28C341.67 386.31 347.61 381.13 350.18 378.78C353.1 376.11 355.26 373.09 355.93 370.75C356.62 368.33 356.64 367.18 356 367.5C355.45 367.77 355.01 366.99 355.03 365.75C355.04 364.51 354.02 361.92 352.74 360C350.66 356.84 349.85 356.43 344.47 355.81C341.18 355.42 334.45 354.88 329.5 354.6C324.55 354.31 319.15 354.44 317.5 354.88Z" />
		<path id="Path 19" class="shp5" d="M160 358.99C159.17 359.43 155.46 361.18 151.75 362.89C148.04 364.6 144.77 366.45 144.5 367C144.22 367.55 144.34 368.01 144.75 368.02C145.16 368.04 149.32 368.33 154 368.68L162.5 369.31C171.62 363.26 174.43 361.16 174.64 360.75C174.84 360.34 174.55 360 174 360C173.45 360 172.66 359.88 172.25 359.73C171.84 359.59 171.05 359.19 170.5 358.85C169.95 358.5 167.7 358.22 165.5 358.21C163.3 358.2 160.82 358.55 160 358.99Z" />
		<path id="Path 20" class="shp8" d="M170.98 367.9L167.5 370.81C171.37 374.87 172.72 376.05 173 376.05C173.27 376.04 174.17 373.57 175 370.55C175.93 367.13 176.12 365.05 175.48 365.03C174.92 365.01 172.9 366.31 170.98 367.9ZM297.17 372.55L293 375C295.54 380.04 298.24 384.99 300.64 389.25C303.04 393.51 305.34 396.74 305.75 396.42C306.16 396.1 306.43 394.64 306.34 393.17C306.25 391.7 305.21 386 304.02 380.5C302.84 375 301.75 370.41 301.61 370.3C301.46 370.18 299.47 371.19 297.17 372.55Z" />
		<path id="Path 21" class="shp7" d="M143.18 373.1C142.16 374.15 141.71 375 142.16 375C142.62 375 142.77 375.45 142.5 376C142.22 376.55 142.45 377.67 143 378.5C143.55 379.32 144.56 379.71 145.25 379.36C145.94 379.01 150.32 378.77 155 378.84C159.67 378.92 164.8 379.09 166.39 379.24C168.48 379.43 169.38 379.01 169.64 377.75C169.86 376.7 169.4 376 168.5 376C167.67 376 166.77 375.32 166.5 374.5C166.15 373.44 164.02 372.85 159.25 372.48C155.54 372.19 150.82 371.78 148.76 371.58C146.05 371.3 144.52 371.72 143.18 373.1ZM230 378C228.76 378.8 228.75 378.97 229.92 378.98C230.7 378.99 231.05 379.34 230.71 379.75C230.37 380.16 231.22 382.97 232.59 386C233.97 389.02 235.74 392.17 236.52 393C237.31 393.82 238.16 394.27 238.41 394C238.65 393.72 239.1 392.37 239.4 391C239.69 389.62 240.39 386.7 240.94 384.5C241.5 382.3 241.96 380.16 241.98 379.75C241.99 379.34 241.21 379.01 240.25 379.02C239.29 379.03 237.93 378.46 237.23 377.77C236.23 376.76 235.97 376.76 235.98 377.75C236 378.67 235.47 378.73 234 378C232.9 377.45 231.89 377.01 231.75 377.02C231.61 377.02 230.82 377.47 230 378Z" />
		<path id="Path 22" class="shp9" d="M264.7 378.1C265.27 379.06 265.06 379.28 264 378.84C263.17 378.51 259.51 378.51 255.85 378.86C252.19 379.21 249.38 379.16 249.6 378.75C249.82 378.34 249.58 378 249.07 378C248.56 378 247.44 378.67 246.57 379.5C245.71 380.32 245.01 381.79 245.01 382.75C245.02 383.71 244.24 387.08 243.26 390.24L241.5 395.98C247.7 395.04 251.07 395.02 253 395.34C254.96 395.66 258.09 397.36 260.12 399.2C262.11 401.02 265.26 404.75 267.11 407.5C268.96 410.25 272.06 414.3 273.99 416.5C275.92 418.7 278.4 422.41 279.5 424.74C280.6 427.07 281.72 428.99 282 429.01C282.27 429.02 283.29 426.55 284.25 423.52C285.67 419.05 287.6 416.33 294.41 409.25L302.82 400.5C298.05 391.2 296.4 388.27 296.08 388C295.76 387.72 294.37 385.25 293 382.5L290.5 377.5C278.87 377.5 273.7 377.77 271.5 378.11C269.3 378.44 266.69 378.27 265.7 377.73C264.3 376.96 264.08 377.05 264.7 378.1Z" />
		<path id="Path 23" class="shp7" d="M357.47 379.73C356.38 380.78 353.81 382.63 351.75 383.83C349.69 385.02 348.22 386.45 348.5 387C348.77 387.55 348.66 388 348.25 388C347.84 388.01 346.15 389.26 344.5 390.79C342.85 392.32 339.77 394.9 337.66 396.54L333.81 399.5C338.99 402.03 343.99 403.72 348.25 404.88C352.51 406.05 359.82 409.02 364.5 411.5C369.17 413.97 373.22 416 373.5 416C373.77 416 374.9 413.64 376 410.75C377.11 407.86 378.87 402.35 379.93 398.5C380.98 394.65 381.71 391.27 381.55 391C381.38 390.72 379.06 389.62 376.38 388.55C373.69 387.48 369.02 385.09 366 383.25C362.97 381.41 360.26 379.43 359.97 378.85C359.64 378.22 358.65 378.57 357.47 379.73Z" />
		<path id="Path 24" class="shp5" d="M411 380.93C409.95 381.56 409.76 382.38 410.38 383.66C410.86 384.67 411.59 387.3 412 389.5C412.41 391.7 412.36 394.96 411.88 396.75C411.01 399.96 411.04 400 414.5 400C417.88 400 418.03 399.83 418.93 395.25C419.44 392.64 419.64 388.7 419.37 386.5C419.11 384.3 418.69 381.94 418.44 381.25C418.2 380.56 416.76 380.01 415.25 380.02C413.74 380.02 411.82 380.43 411 380.93ZM151.94 383.29C150.65 383.85 149.68 384.69 149.79 385.15C149.91 385.62 152.36 387.54 155.25 389.43C158.14 391.32 162.19 394.47 164.25 396.43C167.91 399.92 168.36 400.05 183.49 402.25C192.01 403.49 198.98 404.27 198.98 404C198.99 403.72 198.15 402.15 197.12 400.5C196.09 398.85 193.95 396.1 192.37 394.39C190.79 392.67 187.98 390.42 186.12 389.39C184.27 388.35 181.34 386.72 179.62 385.77C177.61 384.65 174.2 384.01 170 383.97C166.42 383.94 161.7 383.82 159.5 383.7C157.3 383.59 155.23 383.22 154.9 382.89C154.56 382.55 153.23 382.73 151.94 383.29Z" />
		<path id="Path 25" class="shp9" d="M401.06 386C399.93 387.65 399.11 389.16 399.25 389.36C399.39 389.56 401.19 390.01 403.25 390.36C406.2 390.86 407 390.68 407 389.5C407 388.67 406.55 386.87 406 385.5C405.45 384.12 404.58 383 404.06 383C403.54 383 402.19 384.35 401.06 386Z" />
		<path id="Path 26" class="shp10" d="M100.66 386.25C98.95 387.44 98.96 387.6 100.93 389.5C102.23 390.76 103.56 391.22 104.5 390.75C105.32 390.34 106.22 390.45 106.5 391C106.79 391.58 107.83 391.26 108.98 390.25C110.44 388.96 110.64 388.31 109.73 387.77C109.05 387.36 107.04 387.02 105.25 387.02C103.45 387.01 102.21 386.56 102.46 386C102.72 385.45 102.82 385 102.69 385C102.56 385 101.64 385.56 100.66 386.25Z" />
		<path id="Path 27" class="shp6" d="M137.5 388.09C135.3 389.25 130.57 391.8 127 393.76C123.42 395.72 120.27 397.6 120 397.92C119.72 398.25 117.02 399.62 114 400.96C110.97 402.3 107.82 403.92 107 404.55C106.17 405.18 104.6 406.06 103.5 406.51C102.4 406.95 101.16 407.25 100.75 407.16C100.34 407.07 100 407.45 100 408C100 408.55 101.24 409.3 102.75 409.66C104.26 410.02 106.4 410.88 107.5 411.57C108.6 412.26 111.07 413.07 113 413.36C114.92 413.65 120.77 414.65 126 415.58C131.22 416.5 136.29 417.2 137.25 417.13C138.21 417.06 138.82 417.34 138.6 417.75C138.38 418.16 139.5 418.5 141.09 418.5C142.69 418.5 143.99 418.16 143.99 417.75C144 417.34 144.56 417 145.25 417.01C145.94 417.01 149.87 414.05 154 410.43C158.12 406.8 161.88 403.09 162.34 402.17C162.95 400.96 162.4 399.71 160.34 397.64C158.78 396.06 154.57 392.82 151 390.42C147.42 388.02 143.82 386.05 143 386.03C142.17 386.01 139.7 386.94 137.5 388.09Z" />
		<path id="Path 28" class="shp7" d="M95.92 391.75C95.88 392.16 95.77 393.88 95.67 395.56C95.55 397.8 95.96 398.66 97.25 398.81C98.21 398.91 98.77 398.55 98.5 398C98.22 397.45 98.45 397 99 397C99.55 397 100.22 396.32 100.5 395.5C100.77 394.67 100.32 393.32 99.5 392.5C98.67 391.67 97.55 391 97 391C96.45 391 95.97 391.34 95.92 391.75Z" />
		<path id="Path 29" class="shp8" d="M112.46 393.05C111.38 393.5 109.37 393.89 108 393.93C106.38 393.98 104.53 395.24 102.75 397.5C101.24 399.42 100.34 401.21 100.75 401.46C101.16 401.71 104.65 400.27 108.5 398.26C112.35 396.24 115.72 394.45 116 394.28C116.27 394.11 116.03 393.58 115.46 393.11C114.9 392.63 113.55 392.61 112.46 393.05ZM381.09 406C378.84 412.6 377 418.67 377 419.5C377 420.53 377.7 420.85 379.25 420.51C380.49 420.25 382.96 420.02 384.75 420.01C387.44 420 388 419.61 388.02 417.75C388.03 416.51 389.1 412.57 390.4 409C391.7 405.42 393.04 400.59 393.38 398.25L394 394L385.19 394L381.09 406Z" />
		<path id="Path 30" class="shp10" d="M397.55 395C397.25 395.55 397.11 396.01 397.25 396.03C397.39 396.04 396.69 399.08 395.69 402.78C394.7 406.48 393.76 410.4 393.6 411.5C393.44 412.6 393.02 414.06 392.66 414.75C392.3 415.44 392.22 416 392.5 416C392.77 416 394.35 414.65 396 413C397.65 411.35 399.45 410 400 410C400.55 410 401.02 409.44 401.04 408.75C401.06 408.06 401.75 407.05 402.58 406.5C403.41 405.95 404.44 403.92 404.89 402C405.33 400.07 405.99 397.49 406.35 396.25C406.95 394.16 406.69 394 402.55 394C400.1 394 397.85 394.45 397.55 395Z" />
		<path id="Path 31" class="shp6" d="M240.45 402.81C237.67 404.29 234.75 406.08 233.95 406.78C233.15 407.49 231.6 408.73 230.5 409.54C228.55 410.98 228.58 411.09 232 414.04C233.92 415.71 237.07 418.15 239 419.48C241.55 421.23 244.13 421.96 248.5 422.18C251.8 422.33 255.62 423.03 257 423.71C258.37 424.4 260.62 425.2 262 425.48C263.37 425.77 265.4 426.3 266.5 426.67C267.6 427.04 269.96 427.38 271.74 427.42C273.53 427.46 274.99 427.16 274.99 426.75C275 426.34 274.55 426 274 426C273.45 426 273.22 425.55 273.5 425C273.77 424.45 272.13 421.86 269.84 419.25C267.55 416.64 264.07 412.1 262.09 409.17C260.12 406.23 257.49 403.2 256.25 402.42C255.01 401.64 252.09 400.8 249.75 400.56C246.48 400.22 244.34 400.73 240.45 402.81ZM321.08 403.5C321.04 404.05 319.09 404.57 316.75 404.65C314.41 404.73 310.88 405.04 308.9 405.35C306.93 405.66 304.68 406.53 303.9 407.3C302.98 408.22 302.59 410.47 302.75 413.85L303 419C311.91 423.25 315.06 425.05 315.75 425.74C316.44 426.43 318.91 427.07 321.25 427.16C323.59 427.24 326.62 427.44 328 427.6C329.37 427.76 332.07 428.12 334 428.39C335.92 428.67 341.32 429.17 346 429.51C350.67 429.85 354.72 430.29 355 430.49C355.27 430.68 359.66 431.1 364.75 431.42L374 432C373.35 426.19 372.79 423.66 372.33 422.63C371.87 421.58 366.64 418.44 360.5 415.52C354.45 412.64 346.35 409.34 342.5 408.19C338.65 407.04 332.8 405.68 329.5 405.16C326.2 404.64 323.16 404.39 322.75 404.61C322.34 404.82 321.81 404.44 321.58 403.75C321.35 403.06 321.12 402.95 321.08 403.5Z" />
		<path id="Path 32" class="shp10" d="M169.92 405.57C169.96 406.36 172.13 412.06 174.73 418.25C177.33 424.44 179.81 429.61 180.23 429.75C180.65 429.89 180.77 430.45 180.5 431C180.22 431.55 180.52 432 181.17 432C181.81 432 182.05 432.34 181.7 432.75C181.35 433.16 181.72 434.74 182.53 436.25C183.49 438.04 184.61 438.85 185.75 438.58C186.71 438.35 188.4 437.92 189.5 437.62C190.6 437.32 192.07 436.05 192.76 434.79C193.45 433.53 196.38 431.32 199.26 429.88L204.5 427.27C204.96 414.13 204.68 412.68 203 411C201.9 409.9 199.31 408.58 197.25 408.07C195.19 407.56 191.25 406.89 188.5 406.58C185.75 406.28 182.15 405.77 180.5 405.46C178.85 405.16 175.78 404.73 173.67 404.53C170.82 404.25 169.86 404.51 169.92 405.57Z" />
		<path id="Path 33" class="shp8" d="M159.91 409.68C156.92 412.33 152.69 415.95 150.49 417.73L146.5 420.96C149.21 426.42 150 428.45 150 429C150 429.55 151.24 433.15 152.75 437.01C155.13 443.09 155.83 444.02 158 444.02C159.37 444.02 164.55 443.33 169.5 442.49C174.45 441.65 179.06 440.74 179.75 440.48C180.65 440.14 180.04 437.95 177.61 432.75C175.75 428.76 172.32 421 169.98 415.5C167.64 410 165.64 405.35 165.53 405.18C165.42 405 162.89 407.02 159.91 409.68Z" />
		<path id="Path 34" class="shp6" d="M408.5 407.89C406.85 409.59 405.72 411.13 406 411.32C406.27 411.51 409.2 412.62 412.5 413.79C415.8 414.96 421.87 416.22 426 416.6C431.2 417.07 433.73 416.93 434.25 416.14C434.66 415.51 434.21 414.2 433.25 413.21C432.29 412.23 429.47 410.2 427 408.71C424.25 407.05 420.36 405.76 417 405.4C411.81 404.84 411.33 404.98 408.5 407.89Z" />
		<path id="Path 35" class="shp7" d="M96.48 412.5C96.2 413.38 95.5 413.69 94.8 413.25C94.01 412.76 93.78 413.01 94.14 414C94.47 414.92 95.62 415.37 97.09 415.16C98.42 414.98 99.95 414.4 100.5 413.87C101.16 413.24 100.99 412.6 100 411.97C99.17 411.45 98.15 411.02 97.73 411.02C97.3 411.01 96.74 411.67 96.48 412.5ZM297.25 413.14C296.57 413.89 296.35 414.95 296.76 415.5C297.17 416.05 297.16 416.16 296.75 415.75C296.34 415.34 295.41 415.56 294.68 416.25C293.96 416.94 292.17 419.52 290.71 422C289.12 424.68 288.04 428.02 288.02 430.25C288.01 432.31 288.45 434 289 434C289.55 434 290.78 432.76 291.74 431.25C292.69 429.74 293.93 427.77 294.49 426.89C295.04 426 296.51 423.41 297.75 421.14C299.38 418.14 299.79 416.28 299.24 414.39C298.61 412.24 298.26 412.02 297.25 413.14ZM222.49 418.25C220.79 421.59 220.03 424.32 220.4 425.75C220.73 426.99 220.66 428.18 220.25 428.41C219.84 428.63 219.72 431.17 220 434.04C220.36 437.78 221.07 439.65 222.5 440.61C224.28 441.8 224.88 441.6 228.04 438.72C229.98 436.95 232.12 434.37 232.78 433C233.44 431.62 234.9 428.92 236.02 427L238.06 423.5C233.62 419.62 231.3 417.82 230.04 417C228.79 416.17 227.17 414.94 226.46 414.25C225.41 413.24 224.66 414.01 222.49 418.25ZM398.23 418.21C394.22 421.59 393.4 422.77 394.33 423.79C394.97 424.51 396.74 425.07 398.25 425.04C399.76 425.02 402.12 425.67 403.5 426.5C404.87 427.32 406.45 427.77 407 427.5C407.55 427.22 408 426.55 408 426C408 425.45 408.56 424.38 409.25 423.61C409.94 422.85 411.29 421.27 412.25 420.11C413.97 418.03 413.92 417.97 409.25 416.25C406.64 415.29 404.24 414.37 403.91 414.21C403.58 414.06 401.02 415.86 398.23 418.21Z" />
		<path id="Path 36" class="shp9" d="M101 417.61L94.5 419.82C94.96 425.77 95.22 428.4 95.38 429.5C95.54 430.6 98.32 433.39 101.59 435.72C106.1 438.93 108.45 439.94 111.5 439.98C113.7 440.01 123.15 441.28 132.5 442.82C141.85 444.35 149.95 445.46 150.5 445.28C151.05 445.1 151.39 443.84 151.25 442.48C151.11 441.12 150.55 440 150 440C149.45 440 149.07 439.66 149.16 439.25C149.25 438.84 149.05 437.82 148.73 437C148.4 436.17 147.44 433.02 146.58 430C145.72 426.97 144.68 423.96 144.26 423.3C143.84 422.64 141.7 421.82 139.5 421.48C137.3 421.14 134.37 420.69 133 420.47C131.62 420.26 126.67 419.4 122 418.57C117.32 417.75 112.15 416.69 110.5 416.23C108.3 415.62 105.77 415.98 101 417.61ZM415.36 421.71C414.34 423.1 412.71 425.53 411.75 427.12L410 430C416.7 430.03 417.18 430.26 416 431.11C414.81 431.97 414.91 432.03 416.5 431.42C417.6 431 422.4 430.39 427.16 430.08C431.93 429.76 436.09 429.27 436.41 429C436.73 428.72 437.22 427.04 437.5 425.25C437.81 423.26 437.51 421.66 436.75 421.12C436.06 420.64 431.39 420.01 426.36 419.71C417.45 419.19 417.17 419.25 415.36 421.71Z" />
		<path id="Path 37" class="shp8" d="M298.41 426.75C296.9 429.36 294.5 432.97 293.08 434.77C291.66 436.58 290.72 438.23 291 438.46C291.27 438.68 293.97 440.71 297 442.95C300.02 445.2 303.29 447.03 304.25 447.02C305.47 447.01 307.29 444.24 310.25 437.96C312.96 432.18 314.14 428.61 313.5 428.08C312.95 427.61 310.14 426.06 307.25 424.62C304.36 423.18 301.81 422 301.58 422C301.35 422 299.92 424.14 298.41 426.75Z" />
		<path id="Path 38" class="shp9" d="M237.81 431.15C235.78 434.64 232.73 438.85 231.04 440.5C229.34 442.15 227.97 443.84 227.98 444.25C227.99 444.66 229.8 445.9 232 447C234.2 448.1 237.69 449.03 239.75 449.07C242.65 449.12 243.05 449.32 241.5 449.93C240.39 450.37 244.81 450.63 251.5 450.52C259.15 450.38 264.59 449.81 266.5 448.93C268.15 448.17 271.41 445.63 273.75 443.28C276.85 440.15 277.8 438.53 277.27 437.25C276.75 436.01 276.9 435.72 277.77 436.25C278.45 436.66 279 436.55 279 436C279 435.45 278.55 435 278 435C277.45 435 277.11 434.45 277.25 433.78C277.41 433 274.99 432.13 270.5 431.36C266.65 430.7 261.36 429.23 258.75 428.08C256.14 426.94 251.19 425.73 247.75 425.4L241.5 424.79L237.81 431.15ZM315.15 434.62C313.74 436.95 312.66 439.45 312.76 440.18C312.86 440.91 311.94 443.01 310.72 444.85C308.82 447.72 308.72 448.32 310 449C310.82 449.43 312.4 449.57 313.5 449.31C315.17 448.91 315.25 449.01 314 449.94C312.8 450.84 312.99 450.95 315 450.52C316.37 450.22 321.03 449.64 325.34 449.24C329.64 448.83 333.36 448.84 333.59 449.25C333.81 449.66 334.56 449.99 335.25 449.98C336.07 449.97 335.98 449.66 335 449.08C333.96 448.46 334.88 448.16 338 448.11C340.47 448.08 345.42 447.19 349 446.15C352.57 445.1 357.52 443.17 360 441.85C362.47 440.52 365.63 438.7 367 437.79C369.48 436.16 369.44 436.14 362 434.99C357.87 434.36 353.37 433.57 352 433.25C350.62 432.93 345.67 432.56 341 432.42C336.32 432.28 329.18 431.76 325.12 431.27L317.73 430.38L315.15 434.62Z" />
		<path id="Path 39" class="shp5" d="M390.4 431.99C388.53 433.95 388.53 434 390.5 434.71C391.6 435.11 394.52 435.37 397 435.28C399.47 435.2 402.29 434.99 403.25 434.81C404.21 434.64 405.01 434.05 405.01 433.5C405.02 432.95 403.56 431.94 401.76 431.26C399.97 430.58 397.1 430.02 395.4 430.01C393.59 430 391.5 430.83 390.4 431.99Z" />
		<path id="Path 40" class="shp6" d="M205 432.96C204.17 433.47 203.88 434.25 204.35 434.69C204.82 435.14 206.96 435.61 209.1 435.75C211.25 435.89 213 435.77 213 435.5C213 435.22 212.32 434.32 211.5 433.5C210.67 432.67 209.21 432.01 208.25 432.02C207.29 432.02 205.82 432.45 205 432.96Z" />
		<path id="Path 41" class="shp8" d="M196.86 437.58C195.71 438.92 195.73 439.3 197 440.08C197.82 440.59 201.42 441.92 205 443.03C208.57 444.14 213.19 445.03 215.25 445.02C217.31 445.01 219.01 444.66 219.03 444.25C219.04 443.84 218.03 442.5 216.78 441.27C215.15 439.68 213.28 439.04 210.25 439.02C207.91 439.01 204.31 438.31 202.25 437.48C200.19 436.64 198.44 435.96 198.36 435.98C198.29 435.99 197.61 436.71 196.86 437.58Z" />
		<path id="Path 42" class="shp10" d="M387.15 438.87C387.07 439.49 387.45 439.77 388 439.5C388.55 439.22 389.11 439.45 389.25 440C389.39 440.55 391.75 441.16 394.5 441.36C397.26 441.55 400.62 441.15 402 440.45C404.36 439.27 404.25 439.2 400 439.3C397.52 439.36 393.66 439.03 391.4 438.58C388.55 438 387.26 438.09 387.15 438.87Z" />
		<path id="Path 43" class="shp8" d="M401 440.91C400.17 441.39 398.6 441.52 397.5 441.18C396.09 440.76 395.72 440.94 396.25 441.79C396.66 442.46 397.79 443.02 398.75 443.04C399.71 443.07 401.09 442.39 401.82 441.54C402.55 440.7 403 440.01 402.82 440.02C402.64 440.02 401.82 440.43 401 440.91Z" />
	</g>
</svg>