<svg xmlns="http://www.w3.org/2000/svg" viewBox="0 0 420 420" width="420" height="420">
	<style>
		tspan { white-space:pre }
		.shp0 { fill: #000000 } 
		.shp1 { fill: #b37652 } 
		.shp2 { fill: #6d4332 } 
		.shp3 { fill: #ffffff } 
		.shp4 { fill: #d5ab90 } 
		.shp5 { fill: #793d1b } 
		.txt6 { font-size: 116px;fill: #000000;font-family: "DejaVu Sans";font-weight: 400 } 
		.shp7 { fill: #a3a3a3 } 
		.shp8 { fill: #e9e9e9 } 
		.shp9 { fill: #505050 } 
	</style>
	<g id="Layer 1 copy 10">
		<path id="Path 0" class="shp0" d="M225.34 1.1C223.65 2.07 221.28 4.31 220.08 6.07C218.72 8.06 217.88 10.81 217.88 13.29C217.88 17.05 217.68 17.33 214.63 17.79C212.83 18.06 205.06 18.75 197.34 19.33C189.62 19.9 182.18 20.58 180.81 20.82C179.43 21.07 165.22 22.4 149.24 23.78C133.26 25.16 114.77 26.78 108.15 27.38C101.54 27.98 95.34 28.67 94.37 28.9C93.25 29.17 92.6 30.31 92.58 32.08C92.55 33.6 93.31 35.51 94.25 36.34C95.2 37.17 98.49 41 101.57 44.86C104.64 48.72 110.62 57.74 114.84 64.9C119.07 72.07 123.4 78.83 124.45 79.93C125.5 81.04 127.74 84.64 129.41 87.95C131.09 91.26 134.28 99.37 136.5 105.99C138.72 112.6 141.81 124.55 143.37 132.54C146.06 146.36 146.19 148.24 145.91 170.62C145.75 183.58 144.98 199.36 144.2 205.7C143.42 212.03 142.09 221.73 141.23 227.24C140.38 232.75 139.39 239.52 139.03 242.27C138.48 246.56 138.66 247.44 140.3 248.39C141.59 249.13 144.69 249.23 149.74 248.69C153.87 248.25 173.72 246.74 193.83 245.34C213.95 243.93 231.99 242.53 233.92 242.22L237.42 241.66C238.59 254.56 238.82 258.42 238.68 258.57C238.54 258.71 231.66 258.34 223.39 257.75C213.05 257.02 191.8 256.97 155.25 257.6C126.04 258.11 89.03 258.47 73 258.41L43.87 258.31C38.94 253.26 35.81 251.34 33.75 250.79C31.42 250.17 24.89 250.07 16.63 250.54C5.72 251.15 3.01 251.61 1.85 253.05C0.61 254.57 0.68 255.48 2.38 260.06C3.45 262.95 5.25 269.38 6.39 274.34C7.52 279.3 10.05 288.32 12 294.38C13.95 300.45 17.84 309.92 20.64 315.43C23.44 320.94 27.8 329.06 30.32 333.46C32.85 337.87 36.06 343.06 37.46 345C38.86 346.94 41.36 350.09 43.02 352.01C44.67 353.93 49.86 359.51 54.54 364.41C59.23 369.32 66.44 375.87 70.57 378.97C74.71 382.08 81.47 386.5 85.61 388.81C89.74 391.11 97.18 394.61 102.14 396.58C107.1 398.56 114.09 400.79 117.67 401.55C121.26 402.3 127.12 403.23 130.7 403.62C134.28 404.01 141.95 405.37 147.74 406.64C153.52 407.92 162.54 409.47 167.78 410.09C173.01 410.71 179.78 411.64 182.81 412.15C185.84 412.66 194.41 413.73 201.85 414.52C209.29 415.32 223.49 416.5 233.42 417.15C243.34 417.81 254.61 418.94 258.47 419.68C262.33 420.42 270.22 421.32 276 421.69C283.27 422.15 291.03 421.84 301.06 420.71C309.05 419.8 319.65 417.91 324.61 416.5C329.57 415.09 336.33 412.72 339.64 411.22C342.95 409.73 348.58 406.55 352.16 404.17C355.75 401.78 360.38 398.2 362.45 396.21C364.53 394.22 366.22 392.25 366.21 391.84C366.2 391.42 367.38 389.62 368.82 387.83C370.27 386.04 372.37 382.77 373.5 380.56C374.63 378.36 376.39 375.65 377.43 374.55C378.46 373.45 379.97 370.29 380.78 367.54C381.59 364.78 382.51 360.95 382.84 359.02C383.16 357.09 384.62 352.26 386.08 348.28C387.94 343.23 389.34 340.9 390.75 340.53C391.85 340.24 394.78 340 397.26 339.99C399.74 339.98 403.46 339.52 405.53 338.97C407.59 338.42 410.48 336.73 411.94 335.22C413.4 333.7 415.46 329.98 416.53 326.95C417.59 323.92 418.7 320.31 419 318.93C419.32 317.39 418.91 315.76 417.91 314.68C417.03 313.71 415.28 312.92 414.04 312.92C412.8 312.92 410.44 311.76 408.78 310.35C407.13 308.94 399.91 304.04 392.75 299.46C385.58 294.88 377.02 289.58 373.71 287.69C370.3 285.73 366.75 282.74 365.51 280.79C364.3 278.9 362.61 276.56 361.75 275.59C360.37 274.05 358.26 273.85 344.4 273.96C330.24 274.08 327.68 273.82 319.6 271.52C314.64 270.1 305.62 268.45 299.55 267.83C293.49 267.22 285.83 266.03 282.52 265.19C279.21 264.35 273.93 263.59 270.79 263.49C265.97 263.35 265 263 264.6 261.31C264.34 260.21 263.85 256.15 263.51 252.29C263.17 248.44 262.68 243.93 262.41 242.27C261.94 239.31 262.02 239.25 268.22 237.9C271.67 237.15 280.59 235.94 288.03 235.21C295.47 234.48 308.32 232.97 316.59 231.85C324.86 230.73 340.64 229.34 351.66 228.75C362.69 228.16 380.39 227.24 391 226.71C402.66 226.12 410.98 226.1 412.04 226.65C413.21 227.26 414.72 227.09 416.55 226.15C418.07 225.37 419.52 223.95 419.77 222.98C420.03 222.02 420.08 212.66 419.88 202.19C419.68 191.64 418.78 178.23 417.86 172.13C416.95 166.06 415.27 155.47 414.13 148.58C412.99 141.69 410.95 131.77 409.6 126.53C408.25 121.29 405.33 110.7 403.12 102.98C400.91 95.27 397.52 84.22 395.59 78.43C393.65 72.64 390.01 63.85 387.5 58.89C384.98 53.93 378.32 41.98 372.7 32.33C367.07 22.69 361.75 13.22 360.86 11.29C359.98 9.36 358.22 7.21 356.96 6.51C355.15 5.5 351.65 5.46 340.14 6.31C332.15 6.9 319.75 7.78 312.58 8.26C305.42 8.74 288.73 10.29 275.5 11.7C262.28 13.12 249.31 14.28 246.69 14.28C242.07 14.3 241.93 14.21 241.93 11.29C241.93 9.64 240.94 6.82 239.72 5.03C238.5 3.23 236.8 1.22 235.96 0.55C235.11 -0.12 233.06 -0.67 231.41 -0.66C229.76 -0.66 227.03 0.14 225.34 1.1Z" />
		<path id="Path 1" class="shp1" d="M227.02 6.83C225.7 7.69 224.68 8.93 224.75 9.59C224.84 10.45 226.24 10.58 229.64 10.07C232.27 9.68 234.64 9.12 234.92 8.84C235.19 8.56 234.74 7.62 233.92 6.76C233.09 5.89 231.74 5.2 230.91 5.22C230.08 5.24 228.33 5.97 227.02 6.83Z" />
		<path id="Path 2" class="shp2" d="M225.27 14.55C224.95 15.23 224.96 16.59 225.29 17.55C225.63 18.52 226.91 19.31 228.15 19.32C229.39 19.32 231.89 18.99 233.69 18.57C235.49 18.15 236.96 17.24 236.95 16.55C236.93 15.86 235.8 14.85 234.42 14.3C233.04 13.74 230.55 13.29 228.88 13.29C227.21 13.29 225.59 13.86 225.27 14.55Z" />
		<path id="Path 3" class="shp3" d="M348.07 13.73C347.84 13.96 343.82 14.39 339.14 14.67C334.45 14.95 323.86 15.62 315.59 16.15C307.32 16.69 297.17 17.6 293.04 18.19C288.91 18.78 277.63 19.97 267.99 20.83C258.34 21.69 241.66 23.27 230.91 24.34C220.16 25.41 198.97 27.42 183.81 28.81C168.65 30.2 151.29 31.78 145.23 32.33C139.17 32.87 128.35 33.82 121.18 34.42C114.02 35.03 107.59 35.71 106.9 35.93C106.05 36.21 106.56 37.55 108.49 40.1C110.05 42.17 113.15 46.56 115.36 49.87C117.58 53.18 121.08 59.04 123.14 62.9C125.2 66.76 128.2 71.15 129.8 72.67C131.4 74.18 134.68 79.82 137.09 85.19C139.5 90.57 142.87 99.02 144.58 103.98C146.29 108.94 148.78 118.64 150.13 125.53C151.48 132.42 153.11 141.21 153.75 145.07C154.62 150.3 154.65 158.98 153.88 179.14C153.31 194.02 152.64 207.33 152.4 208.7C152.15 210.08 151.43 214.82 150.78 219.23C150.14 223.63 149.18 230.17 148.66 233.76C148.13 237.34 147.82 240.4 147.97 240.56C148.12 240.71 152.52 240.39 157.76 239.83C162.99 239.28 178.33 238.13 191.83 237.29C205.33 236.45 220.44 235.32 225.4 234.78C230.36 234.24 239.15 233.3 244.94 232.7C250.73 232.1 260.65 230.77 266.99 229.74C273.32 228.71 282.12 227.58 286.53 227.23C290.94 226.89 302.21 225.52 311.58 224.21C320.95 222.89 338.76 221.33 351.16 220.75C363.56 220.16 376.98 219.24 380.97 218.7C384.97 218.16 393.43 217.72 399.76 217.72L411.29 217.72C411.24 193.26 410.82 183.22 410.32 179.64C409.82 176.06 408.68 167.72 407.78 161.1C406.87 154.49 405.27 145.02 404.22 140.06C403.16 135.1 400.92 125.85 399.25 119.52C397.57 113.18 395.04 104.16 393.62 99.47C392.2 94.79 389.89 87.35 388.48 82.94C387.07 78.53 384.25 71.31 382.2 66.91C380.16 62.5 375.67 53.93 372.22 47.87C368.77 41.8 363.92 33.24 361.44 28.83C358.96 24.42 355.74 19.13 354.3 17.07C352.85 15.02 350.95 13.33 350.08 13.31C349.2 13.3 348.3 13.49 348.07 13.73Z" />
		<path id="Path 4" class="shp2" d="M249.2 240.43L245.94 240.77C246.62 261.35 247.75 272.62 248.88 279.1C250.02 285.58 250.97 293.02 250.99 295.64C251.03 300.03 251.33 300.61 255 303.15L258.97 305.91C258.19 281.83 257.56 272.93 257.06 270.58C256.57 268.24 256.23 265.42 256.3 264.32C256.38 263.22 256.09 258.48 255.65 253.8C255.21 249.11 254.72 244.04 254.56 242.52C254.4 241.01 253.86 239.84 253.36 239.93C252.86 240.02 250.99 240.24 249.2 240.43Z" />
		<path id="Path 5" class="shp1" d="M12.95 257.33C14.06 258.13 17.44 259.07 20.47 259.4C23.5 259.74 26.66 260.04 27.48 260.07C28.31 260.1 30.23 260.06 31.74 259.97C33.26 259.88 34.51 259.47 34.53 259.06C34.54 258.65 33.42 257.74 32.02 257.05C30.53 256.32 25.68 255.81 20.22 255.83C11.84 255.86 11.14 256.01 12.95 257.33Z" />
		<path id="Path 6" class="shp4" d="M132.67 264.19C132.41 264.44 118 264.91 100.64 265.22C83.28 265.54 64.04 266.14 57.89 266.56C47.68 267.26 46.78 267.48 47.62 269.08C48.18 270.15 50.95 271.4 54.79 272.3C58.24 273.11 65.11 274.93 70.07 276.35C76.18 278.09 80.71 278.8 84.1 278.53C86.86 278.31 96.1 277.08 104.65 275.8C119.53 273.57 122.36 273.48 172.29 273.65C200.95 273.75 228 274.14 232.41 274.51C238.08 274.98 240.65 274.84 241.18 274.01C241.6 273.36 241.48 271.26 240.93 269.33C239.95 265.91 239.8 265.82 234.67 265.75C231.77 265.71 228.51 265.53 227.4 265.35C226.3 265.17 204.64 264.74 179.26 264.38C153.89 264.02 132.92 263.93 132.67 264.19Z" />
		<path id="Path 7" class="shp5" d="M13.99 271.08C14.62 274.53 17.05 283.21 19.37 290.37C21.7 297.54 25.43 307.01 27.66 311.42C29.89 315.83 33.33 322.37 35.3 325.95C37.26 329.53 40.55 334.94 42.59 337.97C44.64 341.01 48.39 345.74 50.93 348.5C53.48 351.25 55.55 353.84 55.55 354.26C55.55 354.67 56.22 355.24 57.05 355.51C58.03 355.84 58.31 355.58 57.86 354.76C57.48 354.07 55.35 350.8 53.14 347.49C50.92 344.19 48.84 341.26 48.51 340.98C48.19 340.7 46.52 337.77 44.81 334.47C43.09 331.16 40.32 325.75 38.63 322.44C36.95 319.13 33.36 311.47 30.64 305.41C27.92 299.34 25.38 292.8 25 290.88C24.61 288.95 23.62 285.34 22.8 282.86C21.98 280.38 20.17 275.64 18.77 272.34C17.38 269.03 15.72 265.99 15.1 265.59C14.47 265.18 13.7 264.84 13.39 264.84C13.09 264.83 13.35 267.64 13.99 271.08Z" />
		<path id="Path 8" class="shp4" d="M26.48 267.83C26.48 268.38 27.76 272.32 29.33 276.6C30.89 280.87 32.52 286.17 32.94 288.37C33.36 290.57 35.28 295.76 37.2 299.89C39.12 304.03 41.73 309.89 43.01 312.92C44.28 315.95 46.79 321.14 48.57 324.45C50.36 327.75 52.35 331.13 53.01 331.96C53.67 332.79 55.19 335.61 56.38 338.22C57.57 340.84 60.04 344.68 61.87 346.74C63.7 348.81 66.29 352.08 67.62 354.01C68.95 355.94 70.95 358.58 72.06 359.87C73.17 361.17 77.69 365.21 82.1 368.85C86.51 372.49 93.05 377.15 96.63 379.21C100.21 381.27 103.26 382.75 103.39 382.51C103.53 382.27 101.5 379.09 98.88 375.46C96.27 371.82 91.62 365.62 88.57 361.68C85.52 357.74 81.02 351.58 78.57 348C76.13 344.41 73.05 340.13 71.73 338.48C70.41 336.82 67.66 332.54 65.62 328.96C63.58 325.37 60.21 318.38 58.14 313.42C56.07 308.46 53.18 301.92 51.7 298.89C50.23 295.86 48.76 293.16 48.43 292.88C48.1 292.6 46.59 289.45 45.07 285.86C43.55 282.28 41.91 278.34 41.41 277.1C40.92 275.86 40.06 274.84 39.51 274.84C38.96 274.84 38.06 273.04 37.5 270.83L36.5 266.82C28.74 266.82 26.48 267.28 26.48 267.83ZM264.17 274.59L264.48 278.35C272.25 278.74 280.59 279.78 288.03 280.92C295.47 282.05 305.39 283.7 310.08 284.57C314.76 285.44 320.17 286.21 322.1 286.26C325.03 286.35 325.65 286 325.86 284.11C326.02 282.66 325.57 281.86 324.61 281.86C323.78 281.86 320.51 280.96 317.34 279.86C314.17 278.76 305.04 276.68 297.05 275.23C289.06 273.78 280.49 272.23 278.01 271.78C275.53 271.32 271.33 270.93 268.68 270.89L263.85 270.83L264.17 274.59Z" />
		<path id="Path 9" class="shp5" d="M52.2 280.35C51.83 280.63 52.21 281.53 53.04 282.36C53.86 283.18 54.77 283.86 55.04 283.86C55.32 283.86 58.14 285.39 61.3 287.26C64.47 289.13 70.22 291.62 74.08 292.81C77.94 293.99 89.89 296.77 100.64 298.98C111.38 301.2 120.4 303.18 120.68 303.38C120.95 303.58 124.56 304.47 128.7 305.36C132.83 306.25 139.82 307.42 144.23 307.95C148.64 308.48 154.95 309.56 158.26 310.36C161.56 311.15 168.33 312.68 173.29 313.76C178.25 314.84 186.82 316.46 192.33 317.38C197.84 318.29 205.96 319.68 210.37 320.48C214.78 321.27 223.8 322.8 230.41 323.88C237.02 324.96 251 326.74 261.47 327.83C271.95 328.92 291.56 330.3 305.07 330.89C318.57 331.48 342.24 332.16 357.68 332.39C373.11 332.63 390.02 332.39 395.25 331.86C400.49 331.34 405.36 330.36 406.08 329.68C406.8 329.01 407.84 326.88 408.41 324.95C408.97 323.02 409.29 321.35 409.11 321.24C408.93 321.13 394.8 321.47 377.72 321.99C356.04 322.66 342.26 322.61 332.12 321.84C324.13 321.23 311.96 320.57 305.07 320.37C298.18 320.17 289.83 319.78 286.53 319.49C283.22 319.21 277.13 318.72 273 318.41C268.86 318.11 258.04 317.18 248.95 316.35C239.85 315.53 227.9 314.39 222.39 313.83C216.88 313.27 205.38 311.7 196.84 310.33C188.3 308.97 178.83 307.42 175.79 306.89C172.76 306.36 166.45 305.45 161.77 304.88C157.08 304.3 146.93 302.29 139.22 300.4C131.5 298.52 122.48 296.53 119.18 295.98C115.87 295.43 107.98 293.83 101.64 292.42C95.3 291 84.25 288.47 77.09 286.78C69.92 285.09 61.75 282.84 58.93 281.78C56.1 280.72 53.59 279.85 53.33 279.85C53.08 279.85 52.57 280.08 52.2 280.35Z" />
		<path id="Path 10" class="shp1" d="M154.19 280.71C153.98 281.06 154.8 282.32 156.03 283.49C157.26 284.67 159.84 286.44 161.77 287.43C163.69 288.42 167.08 291.03 169.28 293.23C171.69 295.64 175.08 297.77 177.8 298.58C180.28 299.32 183.1 299.91 184.06 299.91C185.17 299.9 183.51 297.95 179.55 294.62C176.11 291.71 170.92 287.65 168.03 285.6C165.13 283.54 160.93 281.45 158.68 280.96C156.43 280.47 154.41 280.35 154.19 280.71Z" />
		<path id="Path 11" class="shp5" d="M342.63 280.9C342.36 281.43 343.61 282.46 345.4 283.2C347.19 283.94 355.2 288.29 363.19 292.87C371.18 297.46 379.3 302.38 381.23 303.81C383.15 305.24 385.3 306.97 385.99 307.66C386.67 308.35 387.8 308.92 388.49 308.94C389.18 308.95 390.87 309.84 392.25 310.92C393.63 312 395.43 312.87 396.26 312.87C397.37 312.86 397.22 312.41 395.68 311.13C394.53 310.19 392.51 308.62 391.17 307.64C389.83 306.67 386.26 304.24 383.23 302.25C380.2 300.25 371.86 295.23 364.69 291.09C357.53 286.95 349.74 282.74 347.39 281.75C344.92 280.71 342.91 280.35 342.63 280.9Z" />
		<path id="Path 12" class="shp4" d="M137.71 281.86C137.71 282.41 139.66 285.23 142.04 288.12C145.48 292.3 147.33 293.64 151.06 294.63C153.64 295.32 156.77 295.87 158.01 295.85C159.98 295.83 160.07 295.67 158.67 294.6C157.8 293.93 155.54 292.16 153.66 290.66C151.78 289.17 147.99 286.35 145.23 284.4C142.47 282.45 139.66 280.85 138.97 280.85C138.28 280.85 137.71 281.31 137.71 281.86Z" />
		<path id="Path 13" class="shp1" d="M116.18 282.55C115.08 282.8 114.28 283.31 114.39 283.68C114.51 284.06 115.41 285.14 116.39 286.1C117.52 287.2 120.73 288.12 125.12 288.6L132.07 289.37C127.39 282.18 126.83 281.89 122.68 281.98C120.2 282.04 117.28 282.3 116.18 282.55Z" />
		<path id="Path 14" class="shp4" d="M178.82 283.47C179.64 284.35 184.55 288.3 189.74 292.24C194.93 296.17 199.66 300.16 200.26 301.09C201 302.24 203.76 303.12 208.86 303.84C213 304.42 216.61 304.67 216.88 304.4C217.16 304.12 217.16 303.75 216.88 303.57C216.61 303.39 213.45 301.26 209.87 298.83C206.28 296.4 201.54 292.61 199.32 290.39C197.1 288.18 193.95 285.34 192.31 284.08C189.95 282.27 188.07 281.79 183.33 281.82C177.87 281.85 177.47 282 178.82 283.47Z" />
		<path id="Path 15" class="shp1" d="M205.04 284.59C206.52 286.12 211.63 290.07 216.39 293.38C221.16 296.69 227.27 301.08 229.99 303.15C233.52 305.84 235.76 306.84 237.87 306.66L240.82 306.41C234.3 298.78 229.26 293.24 225.4 289.18L218.38 281.79L202.35 281.81L205.04 284.59Z" />
		<path id="Path 16" class="shp4" d="M95.68 283.81C95.65 284.39 96.3 285.09 97.13 285.36C97.96 285.64 100.49 285.86 102.76 285.86C105.63 285.86 106.75 285.48 106.44 284.61C106.18 283.89 103.82 283.23 100.86 283.06C97.77 282.87 95.71 283.17 95.68 283.81ZM232.43 284.63C232.99 285.03 236.14 288.52 239.44 292.38C242.74 296.24 246.12 299.81 246.94 300.32C247.77 300.83 250.03 302.93 251.95 304.98C255.18 308.42 256.11 308.81 263.48 309.76C267.89 310.34 271.83 310.49 272.24 310.11C272.65 309.73 271.31 307.61 269.25 305.41L265.51 301.4C264.71 305.93 264.03 307.41 263.48 307.62C262.93 307.82 259.32 305.9 255.46 303.34C251.6 300.78 247.43 297.61 246.19 296.29C244.95 294.96 243.94 292.75 243.94 291.38C243.94 290 243.37 287.73 242.69 286.34C241.59 284.12 240.81 283.81 236.42 283.85C233.67 283.87 231.87 284.22 232.43 284.63ZM334.07 285.9C334.1 286.43 335.59 288.25 337.38 289.95C339.17 291.64 343.57 295.01 347.15 297.42C350.74 299.84 357.73 304.55 362.69 307.88C371.29 313.67 371.96 313.94 377.22 313.69L382.73 313.42C370.3 304.37 363.31 299.88 359.18 297.6C355.05 295.33 347.69 291.54 342.84 289.2C337.99 286.85 334.04 285.37 334.07 285.9Z" />
		<path id="Path 17" class="shp1" d="M263.95 288.62C263.93 290.39 264.92 292.28 266.71 293.89C268.24 295.27 273.1 299.6 277.51 303.51L285.52 310.63C294.84 310.66 298.56 310.95 299.8 311.3C301.04 311.64 302.28 311.47 302.56 310.92C302.84 310.37 297.81 306.87 291.38 303.15C284.96 299.43 279.08 295.48 278.31 294.38C277.54 293.28 274.79 290.9 272.2 289.1C269.61 287.3 266.7 285.83 265.73 285.84C264.5 285.86 263.97 286.68 263.95 288.62Z" />
		<path id="Path 18" class="shp4" d="M284.52 289.38C285.63 290.26 292.16 294.34 299.05 298.45C305.94 302.56 313.38 307.48 315.59 309.39C318.62 312 320.82 312.98 324.61 313.4C327.36 313.71 329.73 313.72 329.87 313.44C330.01 313.15 327.34 311.46 323.93 309.66C320.53 307.87 314.56 303.56 310.66 300.07C306.75 296.58 301.31 292.67 298.55 291.37C295.8 290.08 291.06 288.74 288.03 288.4C282.86 287.82 282.64 287.88 284.52 289.38Z" />
		<path id="Path 19" class="shp1" d="M315.2 293.28C315.14 293.61 317.57 295.69 320.6 297.89C323.63 300.09 328.14 302.8 330.62 303.9C333.1 305 337.27 307.92 339.89 310.38C344.26 314.49 345.08 314.86 349.91 314.89C352.8 314.91 355.39 314.59 355.65 314.17C355.91 313.76 353.99 311.97 351.39 310.2C348.78 308.43 344.12 305.27 341.03 303.19C337.94 301.1 334.55 298.54 333.51 297.5C332.47 296.46 330.72 295.27 329.62 294.87C328.51 294.46 324.84 293.8 321.46 293.41C318.08 293.01 315.26 292.95 315.2 293.28Z" />
		<path id="Path 20" class="shp4" d="M60.57 297.64C60.58 298.05 60.92 298.86 61.32 299.43C61.73 300 64.76 302.55 68.07 305.1C71.38 307.64 77.24 311.05 81.1 312.67C84.95 314.29 93.75 317.03 100.64 318.75C107.53 320.47 120.6 323.67 129.7 325.85C138.79 328.03 148.71 330.11 151.74 330.46C154.78 330.81 162.67 331.99 169.28 333.09C175.9 334.18 186.04 335.94 191.83 337C197.62 338.06 210.47 339.62 220.39 340.47C230.31 341.31 242.48 342.66 247.45 343.47C252.41 344.28 261.88 345.42 268.49 346C275.1 346.58 289.53 347.12 300.56 347.2C311.58 347.27 327.59 346.81 336.13 346.16C344.67 345.5 357.87 344.41 365.45 343.73C373.04 343.04 379.24 342.15 379.23 341.73C379.23 341.32 375.95 340.97 371.96 340.96C367.96 340.94 348.23 340.49 328.11 339.95C308 339.42 286.35 338.54 280.01 338.01C273.67 337.47 262.4 336.35 254.96 335.51C247.52 334.67 235.57 333.06 228.41 331.93C221.24 330.81 212.22 329.26 208.36 328.5C204.5 327.73 196.61 326.33 190.83 325.38C185.04 324.43 172.41 321.92 162.77 319.8C153.12 317.68 143.88 315.95 142.22 315.95C140.57 315.95 135.84 315.24 131.7 314.36C127.57 313.49 121.93 312.15 119.18 311.38C116.42 310.62 107.18 308.61 98.63 306.93C90.09 305.25 79.49 302.91 75.08 301.74C70.67 300.57 65.83 299 64.31 298.25C62.8 297.5 61.33 296.89 61.05 296.89C60.78 296.89 60.56 297.23 60.57 297.64Z" />
		<path id="Path 21" class="shp1" d="M68.99 316.83C68.79 317.16 69.36 318.78 70.25 320.44C71.15 322.09 72.6 323.96 73.48 324.59C74.36 325.22 76.44 326.98 78.09 328.5C79.74 330.03 82.9 332.04 85.1 332.97C87.31 333.9 94.07 336.11 100.14 337.88C106.2 339.64 112.74 341.69 114.67 342.43C116.6 343.17 122.68 344.75 128.2 345.95C133.71 347.15 141.37 348.51 145.23 348.97C149.09 349.43 159.91 350.97 169.28 352.4C178.65 353.83 189.7 355.65 193.83 356.45C197.97 357.25 205.86 358.6 211.37 359.45C216.88 360.31 231.54 361.47 243.94 362.05C256.34 362.63 278.89 363.52 294.04 364.04C311.04 364.61 331.39 364.62 347.15 364.04C361.21 363.53 373.01 362.76 373.38 362.32C373.75 361.88 374.43 359.13 374.89 356.21L375.71 350.9C371.05 351.79 362.04 352.5 352.67 353.06C343.3 353.62 330.22 354.52 323.6 355.07C316.99 355.61 304.14 355.79 295.04 355.47C285.95 355.15 271.07 354.21 261.98 353.38C252.88 352.56 245.1 351.68 244.69 351.44C244.28 351.2 234.58 350.12 223.14 349.03C211.71 347.95 191.08 345.21 177.3 342.94C163.52 340.67 146.83 337.76 140.22 336.46C133.61 335.16 122.78 332.76 116.17 331.12C109.56 329.49 99.41 326.93 93.62 325.43C87.84 323.94 80 321.25 76.22 319.47C72.44 317.69 69.18 316.5 68.99 316.83Z" />
		<path id="Path 22" class="shp4" d="M86.07 344.61C87.06 346.19 89.05 348.74 90.5 350.27C91.94 351.8 93.69 353.04 94.37 353.03C95.06 353.02 97.77 354.08 100.39 355.39C103 356.7 107.63 358.48 110.66 359.34C113.69 360.2 120.9 361.86 126.69 363.02C132.48 364.19 143.08 366.44 150.24 368.03C157.41 369.63 167.33 371.19 172.29 371.51C177.25 371.83 185.59 372.51 190.83 373.02C196.06 373.54 206.66 374.67 214.38 375.53C222.09 376.4 235.39 377.78 243.94 378.59C253.94 379.55 278.03 380.31 311.58 380.72L363.69 381.37C367.13 375.31 368.15 373.1 368.17 372.55C368.19 371.89 361.25 371.79 347.91 372.26C336.75 372.65 316.56 372.75 303.06 372.49C289.56 372.23 271.75 371.57 263.48 371.03C255.21 370.48 239.88 369.56 229.41 368.98C218.94 368.4 206.99 367.27 202.85 366.46C198.72 365.65 191.5 364.36 186.82 363.59C182.13 362.81 170.41 361.01 160.76 359.58C151.12 358.15 138.94 356.25 133.71 355.35C128.47 354.45 121.48 352.94 118.17 351.98C114.87 351.02 106.98 348.66 100.64 346.75C94.3 344.84 88.02 342.92 86.69 342.5L84.27 341.72L86.07 344.61Z" />
		<path id="Path 23" class="shp1" d="M103.31 367.18C103.68 367.93 105.37 370.33 107.07 372.51C108.77 374.7 112.64 378.89 115.67 381.82C119.12 385.17 124.17 388.6 129.2 391.02C133.61 393.15 139.02 395.42 141.22 396.06C143.43 396.71 147.49 397.89 150.24 398.68C153 399.47 162.02 401.03 170.28 402.14C178.55 403.25 190.73 404.79 197.34 405.56C203.95 406.33 215.23 407.45 222.39 408.05C229.56 408.64 239.25 409.12 243.94 409.11C249.35 409.09 254.1 409.68 256.96 410.71C259.98 411.8 266.3 412.52 276 412.87C284.4 413.18 295.41 412.9 302.06 412.2C308.4 411.54 316.97 410.07 321.1 408.95C325.23 407.82 331.32 405.78 334.63 404.41C337.93 403.05 343.23 400.28 346.39 398.26C349.56 396.24 352.14 393.92 352.14 393.09C352.13 392.26 352.7 390.98 353.4 390.23C354.46 389.1 353.44 388.96 347.15 389.36C343.02 389.63 322.05 389.45 300.56 388.97C279.06 388.49 255.16 387.6 247.45 387C239.73 386.39 225.75 385.02 216.38 383.95C207.01 382.88 194.61 381.56 188.82 381.03C183.03 380.49 173.34 379.61 167.28 379.08C161.21 378.55 153.77 377.42 150.74 376.59C147.71 375.75 141.85 374.41 137.71 373.61C133.58 372.8 124.79 370.99 118.17 369.58C111.56 368.17 105.36 366.74 104.4 366.42C103.15 365.99 102.84 366.21 103.31 367.18Z" />
	</g>
	<text id="2:1 " style="transform: matrix(0.995,-0.105,0.105,0.995,197.956,226.401)" >
		<tspan x="0" y="0" class="txt6">2:1</tspan>
	</text>
	<g id="sheep">
		<path id="Path 0" class="shp0" d="M218.93 34.25C217.13 36.18 216.8 37.17 216.41 41.8C216.16 44.74 216.03 48.15 216.12 49.39C216.25 51.16 216.73 52.01 218.35 53.32C219.49 54.24 220.49 55.35 220.57 55.78C220.65 56.22 220.23 57.63 219.62 58.93C218.93 60.41 218.69 62.13 218.99 63.49C219.25 64.69 220.11 66.49 220.91 67.49C221.71 68.5 222.89 71.34 223.58 73.94C224.25 76.49 225.46 80.65 226.26 83.17C227.2 86.12 228.47 88.65 229.81 90.25C230.96 91.62 232.06 93.52 232.26 94.46C232.52 95.73 233.47 96.65 235.84 97.94C237.62 98.9 240.87 101.37 243.06 103.41C245.25 105.45 247.28 107.22 247.56 107.34C247.84 107.46 247.98 109.64 247.86 112.18C247.74 114.73 247.34 118.34 246.98 120.22C246.62 122.1 245.85 124.62 245.28 125.82C244.7 127.03 244.2 128.76 244.17 129.66C244.12 130.9 244.65 131.74 246.3 133.01C248.21 134.49 249.03 134.66 252.66 134.33C254.95 134.12 258.06 134.17 259.55 134.44C261.05 134.71 263.05 134.75 263.99 134.54C264.93 134.33 266.62 133.44 267.73 132.57C269.23 131.4 270.02 129.95 270.77 127C271.34 124.81 271.61 122.11 271.37 120.99C271.13 119.85 271.62 116.36 272.49 113.06L274.03 107.16C283.01 104.54 285.79 103.89 286 104.02C286.21 104.16 286.67 105.87 287.02 107.83C287.38 109.8 287.64 113.18 287.61 115.34C287.57 117.51 287.36 119.98 287.13 120.84C286.9 121.7 286.88 123.18 287.09 124.12C287.32 125.14 288.32 126.39 289.56 127.2C291.11 128.21 292.24 128.43 293.98 128.04C295.27 127.75 297.93 127.8 299.9 128.15C302.91 128.69 303.79 128.6 305.51 127.62C306.63 126.98 308.42 125.44 309.49 124.21C311.22 122.2 311.51 121.11 312.14 114.28C312.74 107.76 312.66 105.7 311.59 100.66C310.59 95.93 310.5 94.31 311.12 92.74C311.56 91.66 311.88 90.63 311.84 90.46C311.81 90.29 312.7 87.82 313.83 84.96C314.96 82.11 316.19 77.5 316.56 74.72C316.94 71.94 317.47 69.47 317.75 69.23C318.03 68.99 317.87 66.66 317.4 64.06C316.56 59.44 316.47 59.26 313.32 56.44C311.55 54.85 309.02 52.67 307.69 51.58C305.91 50.13 303.21 49.11 297.34 47.69C291.37 46.24 288.7 45.91 286.58 46.35C285.03 46.68 282.27 47.5 280.44 48.19C278.32 48.98 275.46 49.5 272.57 49.61C269.21 49.74 267.66 50.06 266.61 50.82C265.84 51.38 264.11 52.15 262.78 52.53C260.53 53.16 260.29 53.08 259.57 51.42C259.14 50.43 258.04 48.87 257.13 47.93C256.23 47 253.66 44.98 251.44 43.44C249.22 41.91 247.31 40.22 247.2 39.71C247.09 39.19 245.94 38.3 244.64 37.72C243.35 37.14 240.74 36.67 238.86 36.68C236.97 36.69 234.07 36.21 232.41 35.6C230.75 34.99 227.57 33.92 225.34 33.2C223.12 32.49 221.23 31.94 221.15 31.97C221.07 32 220.07 33.02 218.93 34.25Z" />
		<path id="Path 1" class="shp7" d="M220.61 40.73C220.86 41.84 221.66 43.16 222.39 43.65C223.43 44.36 223.61 44.81 223.23 45.76C222.95 46.48 222.08 47.05 221.09 47.17C219.73 47.33 219.48 47.63 219.72 48.77C219.89 49.54 220.93 50.87 222.03 51.71C223.13 52.55 224.49 54.17 225.05 55.3C225.61 56.44 226.28 57.91 226.55 58.58C226.84 59.3 227.6 59.72 228.46 59.63C229.26 59.55 231.01 58.28 232.41 56.75C233.79 55.25 235.38 53.73 235.93 53.37C236.66 52.91 236.79 52.04 236.39 50.23C235.91 47.98 235.7 47.76 234.29 48.07C233.37 48.27 232.46 47.99 232.08 47.4C231.73 46.85 231.61 45.95 231.81 45.4C232.02 44.86 232.58 44.16 233.05 43.86C233.62 43.49 233.81 43.6 233.61 44.16C233.38 44.79 233.58 44.74 234.38 43.96C234.98 43.38 235.39 42.48 235.29 41.96C235.19 41.44 234.03 40.49 232.7 39.84C231.37 39.19 229.28 38.39 228.04 38.07C225.88 37.5 225.77 37.53 225.43 38.86C225.23 39.63 224.65 40.34 224.14 40.46C223.62 40.57 222.8 40.16 222.3 39.54C221.81 38.93 221.13 38.49 220.78 38.57C220.44 38.64 220.36 39.61 220.61 40.73Z" />
		<path id="Path 2" class="shp8" d="M239.57 42.84C240.06 44.08 240.37 46.35 240.27 47.89C240.11 50.43 240.25 50.82 241.91 52.27C242.91 53.16 243.59 54.24 243.41 54.69C243.22 55.2 242.13 55.58 240.52 55.7C238.37 55.86 237.65 56.25 236.14 58.09C235.14 59.3 233.7 60.79 232.93 61.4C232.16 62.01 231.15 62.43 230.67 62.32C230.2 62.21 230.01 62.37 230.26 62.68C230.51 62.99 230.43 63.3 230.08 63.37C229.74 63.45 228.46 63.33 227.25 63.11C226.03 62.9 224.44 62.36 223.72 61.92C222.48 61.16 222.42 61.2 222.69 62.52C222.85 63.3 223.67 64.96 224.53 66.21C225.38 67.47 226.69 70.71 227.44 73.43C228.2 76.15 229.29 79.29 229.88 80.42C230.47 81.56 231.15 83.4 231.39 84.51C231.64 85.63 232.4 87.08 233.09 87.74C233.78 88.4 234.75 90.03 235.23 91.37C235.76 92.83 236.7 94.06 237.59 94.46C238.4 94.82 239.74 95.56 240.57 96.1C241.39 96.64 243.65 98.51 245.58 100.25C248.09 102.5 250.33 103.8 253.38 104.77C255.73 105.52 257.71 106.42 257.78 106.76C257.85 107.11 257.63 108.04 257.3 108.83C256.86 109.87 256.96 110.75 257.67 112.02C258.21 112.98 258.72 114.64 258.8 115.7C258.89 116.76 259.05 118.86 259.17 120.36L259.38 123.09C264.96 124.28 266.82 124.35 267.11 124.01C267.39 123.68 267.52 122.15 267.39 120.61C267.26 119.07 267.75 115.55 268.48 112.78C269.2 110.02 269.71 107.33 269.59 106.82C269.48 106.3 269.67 105.82 270.02 105.74C270.37 105.67 270.3 104.7 269.85 103.49C269.18 101.68 269.26 101.27 270.39 100.68C271.36 100.17 272.13 100.32 273.3 101.27C274.17 101.97 275.62 102.57 276.53 102.59C277.43 102.62 279.09 102.13 280.22 101.51C281.34 100.89 283.08 100.05 284.07 99.64C285.06 99.24 287.44 98.01 289.36 96.91C291.28 95.82 293.21 94.84 293.64 94.74C294.16 94.63 294.42 95.16 294.43 96.36C294.44 97.52 295.09 98.96 296.26 100.38C297.6 102.02 298.16 103.36 298.38 105.48C298.54 107.07 298.57 110.01 298.43 112.01C298.2 115.48 298.25 115.7 299.56 116.39C300.32 116.78 302.53 116.98 304.47 116.83C306.42 116.68 308.06 116.45 308.12 116.33C308.18 116.21 308.2 115.3 308.17 114.32C308.14 113.33 308.25 111.77 308.41 110.83C308.57 109.9 308.38 107.66 308 105.85C307.61 104.05 307.35 101.45 307.4 100.09C307.47 98.45 307.29 97.66 306.88 97.75C306.54 97.83 306.16 97.47 306.05 96.95C305.94 96.44 306.13 95.95 306.47 95.88C306.82 95.8 306.9 95.49 306.65 95.19C306.41 94.88 306.95 92.48 307.86 89.85C308.78 87.23 309.91 84.4 310.38 83.58C310.86 82.76 311.71 80.07 312.28 77.61C312.85 75.15 313.13 72.29 312.91 71.26C312.68 70.23 311.48 68.06 310.23 66.44C308.24 63.86 308.04 63.34 308.61 62.21C309.22 61 309.37 60.99 311.18 61.99C312.24 62.57 313.17 62.73 313.27 62.35C313.37 61.97 313.09 61.22 312.66 60.68C312.22 60.15 310.67 58.76 309.21 57.6C307.75 56.44 305.84 54.91 304.97 54.21C304.1 53.51 300.27 52.17 296.47 51.24C290.92 49.88 288.95 49.68 286.45 50.26C284.73 50.65 282.75 51.21 282.04 51.51C281.33 51.82 280.58 52.32 280.37 52.63C280.17 52.95 279.34 53.35 278.54 53.52C277.74 53.7 276.93 53.65 276.74 53.42C276.55 53.19 274.63 53.17 272.47 53.37C269.54 53.63 268.02 54.09 266.42 55.19C265.24 55.99 263.51 56.81 262.56 57C260.96 57.33 260.88 57.55 261.38 59.86C261.79 61.74 261.59 62.89 260.59 64.51C259.85 65.69 258.45 67 257.46 67.42C256.47 67.84 254.93 68.21 254.04 68.25C253.14 68.28 251.15 67.56 249.6 66.64C247.55 65.44 246.68 64.47 246.38 63.11C246.16 62.08 246.35 59.61 246.81 57.62C247.26 55.63 247.63 53.12 247.62 52.05C247.62 50.66 247.25 49.88 246.38 49.37C245.71 48.98 245.06 48.16 244.94 47.56C244.83 46.95 245.1 46.16 245.55 45.79C246.28 45.2 246.22 44.94 245.08 43.6C244.37 42.77 243.9 41.91 244.03 41.7C244.17 41.49 243.34 41.08 242.2 40.79C241.06 40.5 239.8 40.33 239.4 40.42C238.91 40.52 238.97 41.32 239.57 42.84Z" />
		<path id="Path 3" class="shp7" d="M251.44 50.24C251.59 50.92 251.19 53.81 250.54 56.65C249.72 60.29 249.6 62.09 250.15 62.78C250.58 63.32 251.97 63.94 253.23 64.17C255 64.48 255.82 64.34 256.78 63.56C257.94 62.63 257.94 62.11 256.87 57.07C255.91 52.53 255.43 51.36 254.07 50.16C253.16 49.37 252.14 48.78 251.8 48.85C251.45 48.93 251.29 49.55 251.44 50.24Z" />
		<path id="Path 4" class="shp9" d="M259.91 52.33C260.16 52.81 261.06 53.11 261.9 53C263.12 52.83 263.16 52.77 262.12 52.71C261.39 52.67 260.49 52.37 260.12 52.04C259.68 51.65 259.61 51.74 259.91 52.33Z" />
		<path id="Path 5" class="shp7" d="M228.4 63.14C228.82 63.44 229.57 63.48 230.05 63.22C230.63 62.92 230.36 62.73 229.28 62.68C228.11 62.62 227.85 62.76 228.4 63.14Z" />
		<path id="Path 6" class="shp9" d="M277.76 53.49C278.37 53.53 279.21 53.33 279.63 53.06C280.06 52.79 279.56 52.76 278.54 53C277.51 53.23 277.16 53.46 277.76 53.49Z" />
		<path id="Path 7" class="shp7" d="M290.06 100.6C289.69 100.96 289.8 102.7 290.35 104.93C290.85 106.98 291.39 110.65 291.56 113.09L291.87 117.51C294.48 116.51 294.79 115.77 294.9 113.11C294.98 111.29 294.68 108.12 294.24 106.05C293.69 103.43 293.03 101.95 292.06 101.15C291.28 100.49 290.41 100.25 290.06 100.6ZM251.84 113.77C251.73 116.04 251.42 118.69 251.16 119.64C250.72 121.24 250.88 121.49 253.02 122.73C254.3 123.47 255.5 123.8 255.69 123.46C255.87 123.12 255.85 121.11 255.63 119C255.4 116.89 254.78 113.86 254.24 112.27C253.71 110.68 252.99 109.43 252.66 109.51C252.32 109.58 251.95 111.5 251.84 113.77Z" />
		<path id="Path 8" class="shp9" d="M294.27 105.39C294.54 106.58 294.7 106.78 294.71 105.95C294.71 105.23 294.52 104.39 294.28 104.08C294.04 103.77 294.04 104.36 294.27 105.39ZM247.12 126.85C245.93 128.41 245.62 129.36 246.07 130.07C246.43 130.62 247.07 131.01 247.51 130.92C247.94 130.84 248.61 129.52 249 127.99C249.38 126.46 249.5 125.08 249.26 124.92C249.02 124.76 248.05 125.63 247.12 126.85ZM250.51 127.59C250.27 128.34 250.19 129.39 250.34 129.92C250.52 130.57 251.22 130.75 252.48 130.48C253.52 130.25 254.47 129.61 254.62 129.03C254.79 128.38 254.32 127.62 253.36 126.99C252.52 126.45 251.63 126.05 251.39 126.11C251.14 126.18 250.75 126.84 250.51 127.59ZM257.1 127.64C256.46 128.65 256.1 129.95 256.29 130.51C256.48 131.08 257.06 131.45 257.57 131.34C258.09 131.23 258.67 130.51 258.86 129.75C259.06 128.99 259 127.78 258.74 127.08C258.27 125.8 258.26 125.81 257.1 127.64ZM289.36 121.34C289.27 121.81 289.4 122.71 289.65 123.35C289.9 123.98 290.41 124.54 290.78 124.6C291.15 124.65 291.66 123.9 291.9 122.94C292.14 121.97 292.13 120.93 291.89 120.63C291.64 120.32 291.01 120.16 290.49 120.28C289.96 120.39 289.46 120.87 289.36 121.34ZM260.74 129.34C261.13 131.16 261.22 131.19 263.41 130.34C264.65 129.85 265.92 129.24 266.22 128.98C266.52 128.71 265.67 128.2 264.34 127.84C263 127.48 261.55 127.25 261.12 127.32C260.66 127.41 260.5 128.25 260.74 129.34ZM293.39 121.28C293.3 121.84 293.35 122.86 293.5 123.55C293.65 124.24 294.19 124.71 294.71 124.6C295.22 124.48 295.7 123.94 295.76 123.39C295.82 122.84 295.74 121.82 295.59 121.13C295.45 120.45 294.93 119.97 294.44 120.08C293.95 120.18 293.48 120.72 293.39 121.28ZM298.58 122.12C298.97 123.48 299.57 124.52 299.91 124.45C300.25 124.38 300.5 123.73 300.45 123.03C300.4 122.32 299.8 121.27 299.11 120.7C297.94 119.71 297.91 119.79 298.58 122.12ZM302.45 122.59C302.64 123.45 303.07 124.09 303.42 124.02C303.76 123.94 304.86 123.23 305.85 122.44C307.3 121.29 307.46 120.93 306.61 120.65C306.03 120.46 304.78 120.47 303.83 120.67C302.41 120.97 302.17 121.3 302.45 122.59Z" />
	</g>
</svg>